<svg width="726" height="419" viewBox="0 0 726 419" fill="none" xmlns="http://www.w3.org/2000/svg">
<path d="M226.702 318.287C226.702 300.83 230.742 297.674 215.745 282.665C211.007 277.923 209.946 272.684 209.249 274.942C208.551 277.21 205.603 284.979 207.895 293.502C210.192 302.041 212.094 306.1 216.427 310.169C220.759 314.228 226.702 318.287 226.702 318.287Z" stroke="#0D62B1" stroke-width="3" stroke-miterlimit="10" stroke-linecap="round" stroke-linejoin="round"/>
<path d="M226.844 317.487C226.844 317.487 223.183 311.652 219.666 302.852C216.149 294.036 215.61 290.254 213.985 287.812C212.36 285.369 210.062 277.79 210.062 277.79" stroke="#0D62B1" stroke-width="3" stroke-miterlimit="10" stroke-linecap="round" stroke-linejoin="round"/>
<path d="M214.613 288.92L216.485 283.409" stroke="#0D62B1" stroke-width="3" stroke-miterlimit="10" stroke-linecap="round" stroke-linejoin="round"/>
<path d="M218.186 301.225L223.518 292.661" stroke="#0D62B1" stroke-width="3" stroke-miterlimit="10" stroke-linecap="round" stroke-linejoin="round"/>
<path d="M214.669 292.558L207.152 288.222" stroke="#0D62B1" stroke-width="3" stroke-miterlimit="10" stroke-linecap="round" stroke-linejoin="round"/>
<path d="M219.262 301.794L210.191 298.782" stroke="#0D62B1" stroke-width="3" stroke-miterlimit="10" stroke-linecap="round" stroke-linejoin="round"/>
<path d="M70.7812 333.573C70.7812 333.573 77.8876 334.548 79.4309 335.246C80.9588 335.944 83.8916 337.268 83.8916 337.268" stroke="#0D62B1" stroke-width="3" stroke-miterlimit="10" stroke-linecap="round" stroke-linejoin="round"/>
<path d="M70.0703 318.708C70.0703 318.708 70.783 322.11 70.783 325.543C70.783 328.96 71.1317 332.875 71.1317 332.875" stroke="#0D62B1" stroke-width="3" stroke-miterlimit="10" stroke-linecap="round" stroke-linejoin="round"/>
<path fill-rule="evenodd" clip-rule="evenodd" d="M45.8683 324.978C45.8683 324.978 55.4152 322.638 57.9737 319.888C60.5322 317.137 64.7776 312.555 62.901 307.188C61.0244 301.82 58.5992 298.069 56.9688 296.92C55.3537 295.755 53.7284 294.359 53.7284 294.359L52.9593 294.795C52.9593 294.795 51.3032 291.829 49.924 290.269C48.5601 288.699 47.3347 287.899 45.9401 288.992C44.5301 290.085 41.2589 292.291 40.2591 293.456C39.2542 294.605 37.757 295.914 37.757 295.914C37.757 295.914 36.1419 295.319 35.7676 295.724C35.3933 296.13 29.4765 299.973 27.8153 304.786C26.1592 309.584 24.9799 313.864 26.5642 317.456C28.1639 321.048 32.4657 323.665 37.234 324.814C42.0024 325.984 45.8683 324.978 45.8683 324.978Z" fill="#FFA095"/>
<path d="M78.5148 386.986C77.4688 386.217 66.1017 381.881 57.5853 369.242C49.0844 356.619 44.2699 351.087 43.8495 343C43.429 334.897 44.4032 325.399 44.4032 325.399" stroke="#0D62B1" stroke-width="3" stroke-miterlimit="10" stroke-linecap="round" stroke-linejoin="round"/>
<path d="M52.7045 362.114C52.7045 362.114 52.2687 345.345 54.3298 338.813C56.7858 331.018 67.9478 309.738 82.8476 316.47C88.3542 318.959 95.8246 323.931 86.8878 334.682C77.9664 345.447 73.0084 347.946 66.4506 353.052C59.898 358.143 54.8682 364.357 54.8682 364.357" stroke="#0D62B1" stroke-width="3" stroke-miterlimit="10" stroke-linecap="round" stroke-linejoin="round"/>
<path d="M55.1445 362.258C55.1445 362.258 59.0566 343.826 65.8246 337.412C72.5823 330.982 81.3037 320.016 81.7242 319.667C82.1446 319.318 84.1391 317.399 84.1391 317.399" stroke="#0D62B1" stroke-width="3" stroke-miterlimit="10" stroke-linecap="round" stroke-linejoin="round"/>
<path d="M57.3782 333.286C57.3782 333.286 56.5373 334.333 58.4241 339.09C60.3161 343.831 61.2851 345.997 61.2851 345.997" stroke="#0D62B1" stroke-width="3" stroke-miterlimit="10" stroke-linecap="round" stroke-linejoin="round"/>
<path d="M58.502 348.296C58.502 348.296 59.6197 347.598 63.5164 348.716C67.4285 349.835 69.4486 350.184 69.4486 350.184" stroke="#0D62B1" stroke-width="3" stroke-miterlimit="10" stroke-linecap="round" stroke-linejoin="round"/>
<path d="M53.9638 366.594C47.8573 358.143 36.0595 352.657 25.6204 351.785C16.2478 351.015 5.43445 353.586 2.89134 360.513C-2.71786 375.83 19.6062 377.036 29.1274 374.548C40.3612 371.623 41.3354 369.037 46.0166 368.133C50.6824 367.22 53.9638 366.594 53.9638 366.594Z" stroke="#0D62B1" stroke-width="3" stroke-miterlimit="10" stroke-linecap="round" stroke-linejoin="round"/>
<path d="M2.26758 364.008C3.4571 363.802 15.9419 362.612 26.9604 363.31C37.9891 364.008 46.7721 364.3 47.4694 364.357C48.1667 364.428 53.6169 365.275 53.6169 365.275" stroke="#0D62B1" stroke-width="3" stroke-miterlimit="10" stroke-linecap="round" stroke-linejoin="round"/>
<path d="M16.4863 352.832C16.4863 352.832 18.5936 355.844 20.6855 357.937C22.7775 360.031 26.064 362.607 26.064 362.607" stroke="#0D62B1" stroke-width="3" stroke-miterlimit="10" stroke-linecap="round" stroke-linejoin="round"/>
<path d="M32.4844 353.925C32.4844 353.925 34.7814 358.363 36.0324 359.887C37.2989 361.427 40.2932 364.033 40.2932 364.033" stroke="#0D62B1" stroke-width="3" stroke-miterlimit="10" stroke-linecap="round" stroke-linejoin="round"/>
<path d="M14.6953 374.799C14.6953 374.799 18.3151 371.761 21.6735 368.836C25.0165 365.896 29.0003 363.033 29.0003 363.033" stroke="#0D62B1" stroke-width="3" stroke-miterlimit="10" stroke-linecap="round" stroke-linejoin="round"/>
<path d="M33.3828 371.977C33.3828 371.977 35.8952 368.836 37.7 367.441C39.515 366.045 41.6838 364.706 41.6838 364.706" stroke="#0D62B1" stroke-width="3" stroke-miterlimit="10" stroke-linecap="round" stroke-linejoin="round"/>
<path d="M52.9645 294.795C52.2979 295.462 48.0936 299.742 46.6836 302.477C45.289 305.212 42.4844 311.118 42.4844 311.118" stroke="#F65B47" stroke-width="3" stroke-miterlimit="10" stroke-linecap="round" stroke-linejoin="round"/>
<path d="M44.4602 324.455C44.4602 323.931 44.6192 315.901 41.5992 308.82C38.5741 301.738 35.7695 295.319 35.7695 295.319" stroke="#F65B47" stroke-width="3" stroke-miterlimit="10" stroke-linecap="round" stroke-linejoin="round"/>
<path d="M48.023 297.926C47.6025 294.057 43.3008 289.053 43.3008 289.053" stroke="#F65B47" stroke-width="3" stroke-miterlimit="10" stroke-linecap="round" stroke-linejoin="round"/>
<path d="M49.1257 289.777L45.7109 292.353" stroke="#F65B47" stroke-width="3" stroke-miterlimit="10" stroke-linecap="round" stroke-linejoin="round"/>
<path fill-rule="evenodd" clip-rule="evenodd" d="M167.749 267.538C172.384 262.068 176.963 255.099 177.096 247.525C177.239 239.946 177.096 235.436 174.568 232.716C172.056 229.981 168.436 228.267 168.436 228.267C168.436 228.267 164.816 218.651 157.797 215.438C150.762 212.226 137.185 207.993 128.659 214.145C120.142 220.283 115.159 224.039 113.923 226.974C112.703 229.914 111.744 231.89 111.744 231.89C111.744 231.89 111.134 229.298 108.883 232.033C97.0648 246.36 106.484 265.228 120.004 274.26C135.934 284.907 152.244 285.795 167.749 267.538Z" fill="#FFA095"/>
<path d="M162.954 362.858C162.954 361.504 154.161 350.132 151.736 338.741C149.295 327.364 148.352 325.066 145.645 310.025C142.927 295.001 142.261 295.801 143.332 290.521C144.425 285.241 144.553 280.643 144.553 280.643" stroke="#0D62B1" stroke-width="3" stroke-miterlimit="10" stroke-linecap="round" stroke-linejoin="round"/>
<path d="M147.941 320.078C148.582 303.657 167.404 284.05 174.465 295.406C178.925 302.574 178.52 308.393 173.244 314.633C167.968 320.858 160.395 326.692 157.55 328.308C154.699 329.935 150.92 331.695 150.92 331.695C150.92 331.695 150.238 331.156 156.601 320.042C162.954 308.943 166.487 304.335 167.835 302.574C169.189 300.814 174.465 295.406 174.465 295.406" stroke="#0D62B1" stroke-width="3" stroke-miterlimit="10" stroke-linecap="round" stroke-linejoin="round"/>
<path d="M161.854 310.651C161.854 310.651 160.664 307.916 160.182 306.203C159.69 304.489 158.219 300.106 158.219 300.106" stroke="#0D62B1" stroke-width="3" stroke-miterlimit="10" stroke-linecap="round" stroke-linejoin="round"/>
<path d="M155.833 321.982C155.802 321.751 154.567 320.309 153.669 317.969C152.752 315.614 151.039 310.113 151.039 310.113" stroke="#0D62B1" stroke-width="3" stroke-miterlimit="10" stroke-linecap="round" stroke-linejoin="round"/>
<path d="M156.75 321.109C156.75 321.109 160.354 322.751 162.518 322.751C164.682 322.751 167.548 321.879 167.548 321.879" stroke="#0D62B1" stroke-width="3" stroke-miterlimit="10" stroke-linecap="round" stroke-linejoin="round"/>
<path d="M162.305 310.564C162.305 310.564 167.001 309.635 168.293 309.635C169.585 309.635 176.097 309.563 176.097 309.563" stroke="#0D62B1" stroke-width="3" stroke-miterlimit="10" stroke-linecap="round" stroke-linejoin="round"/>
<path d="M148.494 330.813C148.377 330.464 147.084 322.756 141.983 317.574C136.866 312.396 129.729 305.53 124.427 305.007C119.11 304.483 113.573 303.914 112.147 306.52C101.555 325.635 126.868 330.813 140.127 330.012C146.167 329.632 148.494 330.813 148.494 330.813Z" stroke="#0D62B1" stroke-width="3" stroke-miterlimit="10" stroke-linecap="round" stroke-linejoin="round"/>
<path d="M146.358 329.694C146.112 329.273 142.359 326.538 136.985 322.9C131.592 319.262 127.362 318.143 123.368 314.495C119.384 310.856 113.18 305.479 113.18 305.479" stroke="#0D62B1" stroke-width="3" stroke-miterlimit="10" stroke-linecap="round" stroke-linejoin="round"/>
<path d="M128.406 317.502C128.55 316.455 128.581 314.561 128.16 312.468C127.74 310.359 127.709 306.751 127.709 306.751" stroke="#0D62B1" stroke-width="3" stroke-miterlimit="10" stroke-linecap="round" stroke-linejoin="round"/>
<path d="M136.216 322.392C136.216 322.392 136.216 322.351 136.216 319.016C136.216 315.685 136.098 312.919 136.098 312.919" stroke="#0D62B1" stroke-width="3" stroke-miterlimit="10" stroke-linecap="round" stroke-linejoin="round"/>
<path d="M137.086 324.296C136.865 324.296 136.865 325.137 135.122 325.882C133.379 326.61 133.158 326.189 130.923 326.754C128.682 327.308 126.129 328.427 126.129 328.427" stroke="#0D62B1" stroke-width="3" stroke-miterlimit="10" stroke-linecap="round" stroke-linejoin="round"/>
<path d="M112.451 319.857C112.451 319.857 113.964 319.287 116.825 319.215C119.701 319.159 122.742 318.836 124.208 318.764C125.674 318.692 128.817 318.256 128.817 318.256" stroke="#0D62B1" stroke-width="3" stroke-miterlimit="10" stroke-linecap="round" stroke-linejoin="round"/>
<path d="M144.556 280.643C144.556 280.643 142.346 264.192 135.952 254.883C129.543 245.575 119.458 236.98 118.571 236.277C117.699 235.564 109.809 231.71 109.809 231.71" stroke="#F65B47" stroke-width="3" stroke-miterlimit="10" stroke-linecap="round" stroke-linejoin="round"/>
<path d="M138.41 256.818C138.584 255.771 143.845 242.594 153.059 237.242C162.272 231.89 170.599 228.631 170.599 228.631" stroke="#F65B47" stroke-width="3" stroke-miterlimit="10" stroke-linecap="round" stroke-linejoin="round"/>
<path d="M116.461 221.966C116.461 221.966 131.212 223.361 139.277 229.165C147.342 234.953 150.034 239.361 150.034 239.361" stroke="#F65B47" stroke-width="3" stroke-miterlimit="10" stroke-linecap="round" stroke-linejoin="round"/>
<path d="M156.995 215.726C156.995 215.726 146.126 220.554 143.495 223.797C140.865 227.056 139.496 229.324 139.496 229.324" stroke="#F65B47" stroke-width="3" stroke-miterlimit="10" stroke-linecap="round" stroke-linejoin="round"/>
<path d="M145.066 221.252C145.066 221.252 146.999 219.143 142.436 216.075C137.873 213.006 135.504 211.595 135.504 211.595" stroke="#F65B47" stroke-width="3" stroke-miterlimit="10" stroke-linecap="round" stroke-linejoin="round"/>
<path fill-rule="evenodd" clip-rule="evenodd" d="M35.4515 230.498C35.4515 230.498 50.4576 232.939 57.2335 239.932C64.0007 246.937 65.6485 253.107 65.722 255.094C65.7914 257.06 65.331 258.118 63.1602 257.435C60.9837 256.759 55.4143 256.101 50.4466 252.966C45.4788 249.831 40.2158 245.117 37.9622 241.421C35.7215 237.716 33.3746 231.89 33.7073 231.483C34.0216 231.076 35.4515 230.498 35.4515 230.498Z" fill="#FFA095"/>
<path fill-rule="evenodd" clip-rule="evenodd" d="M201.662 334.856C204.015 334.856 205.933 332.937 205.933 330.582C205.933 328.227 204.015 326.307 201.662 326.307C199.308 326.307 197.391 328.227 197.391 330.582C197.386 332.937 199.303 334.856 201.662 334.856Z" fill="#F65B47"/>
<path fill-rule="evenodd" clip-rule="evenodd" d="M172.883 151.989C172.883 151.989 184.439 161.866 186.603 171.365C188.756 180.863 186.967 187 186.008 188.734C185.049 190.464 184.091 191.121 182.594 189.417C181.096 187.703 176.677 184.255 174.046 178.99C171.432 173.725 169.365 166.962 169.365 162.626C169.381 158.29 170.38 152.096 170.878 151.922C171.355 151.727 172.883 151.989 172.883 151.989Z" fill="#F65B47"/>
<path fill-rule="evenodd" clip-rule="evenodd" d="M233.271 165.549C235.624 165.549 237.542 163.63 237.542 161.274C237.542 158.919 235.624 157 233.271 157C230.918 157 229 158.919 229 161.274C229 163.63 230.918 165.549 233.271 165.549Z" fill="#F65B47"/>
<path d="M210.5 12.0033V12C210.5 6.2162 215.216 1.5 221 1.5C226.784 1.5 231.5 6.2162 231.5 12C231.5 17.7838 226.784 22.5 221 22.5C215.2 22.5 210.487 17.7828 210.5 12.0033Z" stroke="#FFA095" stroke-width="3"/>
<path d="M605.225 358.476C605.225 358.476 617.622 358.42 623.739 358.65C629.856 358.881 638.885 359.117 644.874 359.579C650.878 360.046 656.123 359.697 657.866 359.348C659.609 358.999 662.286 358.009 662.286 358.009" stroke="#0D62B1" stroke-width="3" stroke-miterlimit="10" stroke-linecap="round" stroke-linejoin="round"/>
<path d="M578.887 323.567C580.994 323.973 590.5 327.293 590.5 327.293L594.089 321.284" stroke="#0D62B1" stroke-width="3" stroke-miterlimit="10" stroke-linecap="round" stroke-linejoin="round"/>
<path fill-rule="evenodd" clip-rule="evenodd" d="M608.072 252.005C608.205 252.107 605.036 249.665 603.801 250.737C602.55 251.815 596.9 269.21 597.407 275.594C597.915 281.993 602.278 298.079 611.158 303.344C620.039 308.609 626.376 310.426 632.888 310.605C639.399 310.764 657.278 306.911 663.949 297.571C670.634 288.232 674.982 282.562 673.86 277.918C672.726 273.279 670.46 272.084 670.46 272.084C670.46 272.084 669.558 261.493 663.046 255.545C650.474 244.056 635.913 236.328 618.747 243.543C610.251 247.114 607.938 251.902 608.072 252.005Z" fill="#FFA095"/>
<path d="M588.32 372.849C588.32 372.849 607.737 351.277 612.388 338.346C617.053 325.415 622.458 308.717 622.458 308.717" stroke="#0D62B1" stroke-width="3" stroke-miterlimit="10" stroke-linecap="round" stroke-linejoin="round"/>
<path d="M603.872 350.84C603.872 350.84 605.836 342.245 601.662 333.009C597.504 323.772 592.956 317.517 588.788 314.52C584.63 311.539 581.768 309.312 581.768 309.312C581.768 309.312 577.959 310.851 578.077 317.907C578.195 324.963 577.728 335.975 586.87 343.143C596.012 350.312 603.467 353.108 603.467 353.108" stroke="#0D62B1" stroke-width="3" stroke-miterlimit="10" stroke-linecap="round" stroke-linejoin="round"/>
<path d="M581.984 311.437C582.738 312.832 587.506 320.006 589.557 325.081C591.593 330.14 593.915 333.707 596.782 339.115C599.632 344.539 603.642 351.651 603.642 351.651" stroke="#0D62B1" stroke-width="3" stroke-miterlimit="10" stroke-linecap="round" stroke-linejoin="round"/>
<path d="M599.973 330.782L597.025 339.598C597.025 339.598 595.661 341.286 591.123 340.177C586.575 339.059 581.633 335.913 581.633 335.913" stroke="#0D62B1" stroke-width="3" stroke-miterlimit="10" stroke-linecap="round" stroke-linejoin="round"/>
<path d="M601.312 358.363C601.312 358.363 607.547 353.345 612.792 352.067C618.022 350.789 629.507 347.223 638.239 349.388C646.976 351.544 652.031 354.099 655.42 355.325C658.794 356.547 662.993 357.783 662.993 357.783C662.993 357.783 662.399 363.951 656.702 365.48C643.259 369.042 622.765 374.075 610.049 363.895C606.85 361.334 602.533 358.368 602.533 358.368" stroke="#0D62B1" stroke-width="3" stroke-miterlimit="10" stroke-linecap="round" stroke-linejoin="round"/>
<path d="M649.423 353.458C649.423 353.458 650.643 354.037 646.516 356.367C642.373 358.707 638.887 360.164 638.887 360.164C638.887 360.164 645.573 363.192 645.691 363.715C645.809 364.239 649.192 367.045 649.192 367.045" stroke="#0D62B1" stroke-width="3" stroke-miterlimit="10" stroke-linecap="round" stroke-linejoin="round"/>
<path d="M630.553 349.327C630.553 349.327 630.728 351.538 626.759 353.575C622.806 355.613 619.709 357.953 619.709 357.953C619.709 357.953 621.873 361.037 623.155 363.423C624.431 365.824 625.944 368.734 625.944 368.734" stroke="#0D62B1" stroke-width="3" stroke-miterlimit="10" stroke-linecap="round" stroke-linejoin="round"/>
<path d="M626.021 309.255C626.021 309.255 627.01 289.284 621.647 276.425C616.284 263.565 606.184 251.943 606.184 251.943" stroke="#F65B47" stroke-width="3" stroke-miterlimit="10" stroke-linecap="round" stroke-linejoin="round"/>
<path d="M624.887 284.035C624.887 284.035 640.484 275.804 654.466 276.051C668.432 276.297 672.544 276.297 672.544 276.297" stroke="#F65B47" stroke-width="3" stroke-miterlimit="10" stroke-linecap="round" stroke-linejoin="round"/>
<path d="M641.732 277.051C641.732 277.051 640.368 268.061 638.112 263.32C635.871 258.563 628.749 245.457 628.749 245.457L624.012 241.095" stroke="#F65B47" stroke-width="3" stroke-miterlimit="10" stroke-linecap="round" stroke-linejoin="round"/>
<path d="M637.633 260.846C637.633 260.846 640.309 258.968 649.461 258.706C658.619 258.445 663.936 258.239 663.936 258.239" stroke="#F65B47" stroke-width="3" stroke-miterlimit="10" stroke-linecap="round" stroke-linejoin="round"/>
<path d="M633.023 252.205C633.418 252.133 635.423 250.126 641.596 249.208C647.775 248.305 654.271 247.653 654.271 247.653" stroke="#F65B47" stroke-width="3" stroke-miterlimit="10" stroke-linecap="round" stroke-linejoin="round"/>
<path d="M642.718 249.049C642.718 249.049 642.836 246.735 641.206 244.539C639.591 242.327 638.488 240.89 638.488 240.89" stroke="#F65B47" stroke-width="3" stroke-miterlimit="10" stroke-linecap="round" stroke-linejoin="round"/>
<path fill-rule="evenodd" clip-rule="evenodd" d="M564.786 293.533C565.094 293.374 578.984 289.172 586.08 280.356C593.376 271.309 603.697 243.702 587.941 243.702C583.957 243.702 583.757 243.035 583.757 243.035C583.757 243.035 577.579 236.913 570.908 235.718C564.222 234.527 554.952 233.855 547.743 238.104C540.55 242.368 535.884 248.531 535.884 248.531C535.884 248.531 530.752 246.771 529.301 248.736C527.85 250.701 526.511 266.465 531.741 274.757C538.468 285.431 552.886 294.113 564.786 293.533Z" fill="#FFA095"/>
<path d="M542.336 364.803C542.336 364.803 554.995 342.405 558.441 330.679C561.901 318.939 564.009 291.275 564.009 291.275" stroke="#0D62B1" stroke-width="3" stroke-miterlimit="10" stroke-linecap="round" stroke-linejoin="round"/>
<path d="M546.668 354.448C546.801 353.473 549.472 348.075 544.125 339.203C538.777 330.315 535.695 326.867 530.276 326.256C524.841 325.661 517.75 325.456 517.75 325.456C517.75 325.456 519.493 334.533 524.318 339.767C529.143 344.991 527.963 345.714 535.29 349.573C542.627 353.427 546.729 354.186 546.729 354.186" stroke="#0D62B1" stroke-width="3" stroke-miterlimit="10" stroke-linecap="round" stroke-linejoin="round"/>
<path d="M519.457 325.517C519.457 325.517 529.209 331.408 535.736 338.71C542.263 346.012 543.919 347.875 544.688 349.214C545.457 350.553 546.636 353.304 546.636 353.304" stroke="#0D62B1" stroke-width="3" stroke-miterlimit="10" stroke-linecap="round" stroke-linejoin="round"/>
<path d="M534.808 327.744C534.808 327.744 534.721 329.91 534.721 333.04C534.721 336.165 534.864 337.766 534.864 337.766" stroke="#0D62B1" stroke-width="3" stroke-miterlimit="10" stroke-linecap="round" stroke-linejoin="round"/>
<path d="M522.744 337.791C522.744 337.791 527.759 337.735 529.62 337.735C531.481 337.735 533.993 337.822 533.993 337.822" stroke="#0D62B1" stroke-width="3" stroke-miterlimit="10" stroke-linecap="round" stroke-linejoin="round"/>
<path d="M541.829 335.523C541.829 335.523 541.813 339.798 541.813 341.224C541.813 342.636 541.68 345.412 541.68 345.412C541.68 345.412 539.588 346.053 537.148 346.618C534.723 347.187 533.148 347.782 533.148 347.782" stroke="#0D62B1" stroke-width="3" stroke-miterlimit="10" stroke-linecap="round" stroke-linejoin="round"/>
<path d="M573.41 289.721C573.077 288.279 573.077 273.403 564.048 265.475C555.024 257.531 549.368 252.472 544.298 251.235C539.242 249.999 534.879 248.634 534.879 248.634" stroke="#F65B47" stroke-width="3" stroke-miterlimit="10" stroke-linecap="round" stroke-linejoin="round"/>
<path d="M559.352 261.354C559.352 261.354 560.921 254.416 572.303 249.341C583.67 244.282 584.511 243.492 584.511 243.492" stroke="#F65B47" stroke-width="3" stroke-miterlimit="10" stroke-linecap="round" stroke-linejoin="round"/>
<path d="M567.288 250.706C566.837 249.921 558.654 245.046 555.47 242.517C552.286 239.987 546.836 237.252 546.836 237.252" stroke="#F65B47" stroke-width="3" stroke-miterlimit="10" stroke-linecap="round" stroke-linejoin="round"/>
<path d="M570.804 235.697C563.39 238.94 561.647 240.249 561.124 241.865C560.601 243.492 560.078 245.18 560.078 245.18" stroke="#F65B47" stroke-width="3" stroke-miterlimit="10" stroke-linecap="round" stroke-linejoin="round"/>
<path fill-rule="evenodd" clip-rule="evenodd" d="M721.896 219.911C721.896 219.911 717.215 227.183 711.849 229.351C706.481 231.513 702.705 231.195 701.594 230.861C700.486 230.526 700.007 230.079 700.863 229.092C701.724 228.104 703.32 225.357 706.157 223.384C708.994 221.42 712.765 219.593 715.31 219.136C717.857 218.687 721.59 218.573 721.741 218.823C721.901 219.06 721.896 219.911 721.896 219.911Z" fill="#FFA095"/>
<path fill-rule="evenodd" clip-rule="evenodd" d="M546.271 203.549C548.624 203.549 550.542 201.63 550.542 199.274C550.542 196.919 548.624 195 546.271 195C543.918 195 542 196.919 542 199.274C541.995 201.63 543.912 203.549 546.271 203.549Z" fill="#FFA095"/>
<path fill-rule="evenodd" clip-rule="evenodd" d="M511.271 93.5489C513.624 93.5489 515.542 91.6298 515.542 89.2745C515.542 86.9192 513.624 85 511.271 85C508.918 85 507 86.9192 507 89.2745C506.995 91.6298 508.912 93.5489 511.271 93.5489Z" fill="#FFA095"/>
<path d="M563.5 144.003V144C563.5 138.216 568.216 133.5 574 133.5C579.784 133.5 584.5 138.216 584.5 144C584.5 149.784 579.784 154.5 574 154.5C568.2 154.5 563.487 149.783 563.5 144.003Z" stroke="#FFA095" stroke-width="3"/>
<path fill-rule="evenodd" clip-rule="evenodd" d="M715.808 330.737C715.808 330.737 704.319 322.791 695.381 323.106C686.456 323.412 681.424 326.456 680.119 327.72C678.805 328.976 678.443 329.974 680.31 330.9C682.186 331.839 686.293 334.939 691.563 336.035C696.851 337.132 703.349 337.365 707.19 336.348C711.043 335.322 716.303 332.973 716.353 332.499C716.381 332.021 715.808 330.737 715.808 330.737Z" fill="#F65B47"/>
<path fill-rule="evenodd" clip-rule="evenodd" d="M635.481 178.428C635.481 178.428 619.62 188.334 615.26 199.491C610.911 210.646 611.969 218.446 612.826 220.721C613.683 222.996 614.712 223.968 616.856 222.176C618.983 220.371 624.985 216.976 629.142 211.042C633.286 205.126 637.019 197.273 637.804 191.995C638.59 186.733 638.495 179.008 637.94 178.701C637.38 178.39 635.481 178.428 635.481 178.428Z" fill="#F65B47"/>
<path d="M724.121 397.424C706.825 395.056 704.247 390.625 687.342 403.447C682.001 407.497 676.667 407.838 678.809 408.835C680.961 409.834 688.259 413.809 697.014 412.694C705.785 411.577 710.065 410.243 714.684 406.503C719.293 402.761 724.121 397.424 724.121 397.424Z" stroke="#0D62B1" stroke-width="3" stroke-miterlimit="10" stroke-linecap="round" stroke-linejoin="round"/>
<path d="M723.346 397.175C723.346 397.175 717.069 400.01 707.873 402.301C698.662 404.59 694.842 404.61 692.201 405.889C689.561 407.168 681.74 408.415 681.74 408.415" stroke="#0D62B1" stroke-width="3" stroke-miterlimit="10" stroke-linecap="round" stroke-linejoin="round"/>
<path d="M693.386 405.418L688.18 402.816" stroke="#0D62B1" stroke-width="3" stroke-miterlimit="10" stroke-linecap="round" stroke-linejoin="round"/>
<path d="M706.061 403.547L698.3 397.102" stroke="#0D62B1" stroke-width="3" stroke-miterlimit="10" stroke-linecap="round" stroke-linejoin="round"/>
<path d="M696.997 405.856L691.682 412.715" stroke="#0D62B1" stroke-width="3" stroke-miterlimit="10" stroke-linecap="round" stroke-linejoin="round"/>
<path d="M706.771 402.558L702.557 411.135" stroke="#0D62B1" stroke-width="3" stroke-miterlimit="10" stroke-linecap="round" stroke-linejoin="round"/>
</svg>
