<svg width="18" height="18" viewBox="0 0 18 18" fill="none" xmlns="http://www.w3.org/2000/svg">
<path fill-rule="evenodd" clip-rule="evenodd" d="M5 0C2.23858 0 0 2.23858 0 5V13C0 15.7614 2.23858 18 5 18H13C15.7614 18 18 15.7614 18 13V5C18 2.23858 15.7614 0 13 0H5ZM14.9996 4.30422C14.9996 4.95639 14.4778 5.3477 13.9561 5.3477C13.4343 5.3477 12.9126 4.82596 12.9126 4.30422C12.9126 3.65205 13.4343 3.26074 13.9561 3.26074C14.4778 3.26074 14.9996 3.65205 14.9996 4.30422ZM8.99936 12.1301C7.30371 12.1301 5.99936 10.8258 5.99936 9.13011C5.99936 7.43445 7.30371 6.1301 8.99936 6.1301C10.695 6.1301 11.9994 7.43445 11.9994 9.13011C11.9994 10.8258 10.695 12.1301 8.99936 12.1301ZM8.99936 4.43445C6.39067 4.43445 4.30371 6.52141 4.30371 9.13011C4.30371 11.7388 6.39067 13.8258 8.99936 13.8258C11.6081 13.8258 13.695 11.7388 13.695 9.13011C13.695 6.52141 11.6081 4.43445 8.99936 4.43445Z" fill="#0D62B1"/>
</svg>
