<?xml version="1.0" encoding="utf-8"?>
<!-- Generator: Adobe Illustrator 22.1.0, SVG Export Plug-In . SVG Version: 6.00 Build 0)  -->
<svg version="1.1" id="Слой_1" xmlns="http://www.w3.org/2000/svg" xmlns:xlink="http://www.w3.org/1999/xlink" x="0px" y="0px"
	 viewBox="0 0 626 260" style="enable-background:new 0 0 626 260;" xml:space="preserve">
<style type="text/css">
	.st0{fill:#042C52;}
</style>
<g>
	<path class="st0" d="M342.6,94h7.4l23.2,25.4h4.5l-24.8-27.2l24.4-27h-4.5l-23,25.4h-7.1V65.3h-3.3v54.2h3.3V94z M332.8,119.2V65
		h-17.7c-0.4,1.1-0.8,2.2-1.2,3.3h15.6v50.9H332.8z M417.6,138.4L417.6,138.4l-37.4,38.3v-44h-3.3v54.2h3.3v-5.4l37.4-38.5v43.9h3.3
		v-54.2h-3.3L417.6,138.4L417.6,138.4z M421.7,71L421.7,71l-37.4,38.3v-44h-3.3v54.2h3.3V114l37.4-38.5v43.9h3.3V65.3h-3.3V71z
		 M367,132.7h-31.9v26.6c0,0.1,0.3,12.2-3.1,19.1c-1.7,3.4-3,4.7-3.4,5.2h-7.7v11.1h3.3v-7.7h46.2v7.7h3.3v-11.1H367L367,132.7
		L367,132.7z M363.7,183.6h-30.9c0.6-0.9,1.4-2.1,2.1-3.7c3.8-7.7,3.5-20.2,3.5-20.7V136h25.3V183.6z M469,68.6v-3.3h-38.5v54.2H469
		v-3.3h-35.2V94h30.8v-3.3h-30.8V68.6H469z M310.1,135.4c-0.3,1-0.6,2-1,3.2c8.6,3.6,14.6,12.1,14.6,22c0,13.1-10.6,23.8-23.6,23.8
		c-1.8,0-3.5-0.2-5.1-0.6c-0.4,1.2-0.7,2.2-1,3.2c2,0.5,4,0.7,6.1,0.7c14.9,0,26.9-12.2,26.9-27.1C327,149.1,320,139.4,310.1,135.4z
		"/>
	<path class="st0" d="M209.9,160.1c0,0.1,0.3,12.2-3.1,19.1c-2.2,4.4-5.4,7.8-6,8.5h4.4c1.4-1.7,3.1-4.1,4.6-7
		c3.8-7.7,3.5-20.2,3.5-20.7v-23.2h31.9v50.9h3.3v-54.2h-38.5V160.1z M205,119.2l-22.5-27.1L205.1,65H201l-20.5,24.7L160.1,65H156
		l22.5,27.1L156,119.2h4.1l20.4-24.6l20.4,24.6H205z M212.6,99.5l20.2-0.2c0.1,0,14.9-1,14.9-16.8c0-17.1-14.1-17.5-14.3-17.5h-24.2
		v54.2h3.3V99.5z M212.6,68.3h20.9c0.4,0,11,0.3,11,14.2c0,12.6-11.3,13.4-11.7,13.5l-20.1,0.2L212.6,68.3L212.6,68.3z M295.9,68.3
		h19.6c0.4-1.1,0.8-2.2,1.2-3.3h-24.1v54.2h3.3V68.3z M276.2,160.4c0-13.1,10.6-23.8,23.6-23.8c3.2,0,6.3,0.6,9,1.8
		c0.4-1.2,0.7-2.2,1-3.2c-3.1-1.3-6.5-2-10-2c-14.4,0-26.1,11.4-26.9,25.6h-14.9v-25.4h-3.3v54.2h3.3v-25.4H273
		c0.8,12,9.4,21.9,20.8,24.5c0.3-1,0.6-2,1-3.2C284.2,181.2,276.2,171.7,276.2,160.4z M268.5,107.8c5.5-10,20.1-40.2,21.4-42.8h-3.7
		c-2.7,5.6-11.8,24.3-17.6,35.5L249.5,65h-3.8l21,39l0.1,0c-0.4,0.8-0.8,1.5-1.2,2.1c-0.7,1.3-2.8,4.6-6.6,7.2
		c-4.1,2.9-10,2.6-11.2,2.5v3.3c0.3,0,0.8,0,1.4,0c2.7,0,7.7-0.4,11.6-3.1C265.3,113,267.7,109.3,268.5,107.8z"/>
</g>
</svg>
