<?xml version="1.0" encoding="utf-8"?>
<!-- Generator: Adobe Illustrator 22.1.0, SVG Export Plug-In . SVG Version: 6.00 Build 0)  -->
<svg version="1.1" id="Слой_1" xmlns="http://www.w3.org/2000/svg" xmlns:xlink="http://www.w3.org/1999/xlink" x="0px" y="0px"
	 viewBox="0 0 626 260">
<g>
	<path class="st0" d="M186.6,29h7.4l23.2,25.4h4.5l-24.8-27.2l24.4-27h-4.5l-23,25.4h-7.1V0.3h-3.3v54.2h3.3V29z M176.8,54.2V0
		h-17.7c-0.4,1.1-0.8,2.2-1.2,3.3h15.6v50.9H176.8z M261.6,73.4L261.6,73.4l-37.4,38.3v-44h-3.3v54.2h3.3v-5.4L261.5,78v43.9h3.3
		V67.7h-3.3L261.6,73.4L261.6,73.4z M265.7,6L265.7,6l-37.4,38.3v-44h-3.3v54.2h3.3V49l37.4-38.5v43.9h3.3V0.3h-3.3V6z M211,67.7
		h-31.9v26.6c0,0.1,0.3,12.2-3.1,19.1c-1.7,3.4-3,4.7-3.4,5.2h-7.7v11.1h3.3v-7.7h46.2v7.7h3.3v-11.1H211L211,67.7L211,67.7z
		 M207.7,118.6h-30.9c0.6-0.9,1.4-2.1,2.1-3.7c3.8-7.7,3.5-20.2,3.5-20.7V71h25.3V118.6z M313,3.6V0.3h-38.5v54.2H313v-3.3h-35.2V29
		h30.8v-3.3h-30.8V3.6H313z M154.1,70.4c-0.3,1-0.6,2-1,3.2c8.6,3.6,14.6,12.1,14.6,22c0,13.1-10.6,23.8-23.6,23.8
		c-1.8,0-3.5-0.2-5.1-0.6c-0.4,1.2-0.7,2.2-1,3.2c2,0.5,4,0.7,6.1,0.7c14.9,0,26.9-12.2,26.9-27.1C171,84.1,164,74.4,154.1,70.4z"/>
	<path class="st0" d="M53.9,95.1c0,0.1,0.3,12.2-3.1,19.1c-2.2,4.4-5.4,7.8-6,8.5h4.4c1.4-1.7,3.1-4.1,4.6-7
		c3.8-7.7,3.5-20.2,3.5-20.7V71.8h31.9v50.9h3.3V68.5H53.9V95.1z M49,54.2L26.6,27.1L49.1,0H45L24.5,24.7L4.1,0H0l22.5,27.1L0,54.2
		h4.1l20.4-24.6L45,54.2H49z M56.6,34.5l20.2-0.2c0.1,0,14.9-1,14.9-16.8C91.8,0.4,77.7,0,77.5,0H53.3v54.2h3.3V34.5z M56.6,3.3
		h20.9c0.4,0,11,0.3,11,14.2c0,12.6-11.3,13.4-11.7,13.5l-20.1,0.2L56.6,3.3L56.6,3.3z M139.9,3.3h19.6c0.4-1.1,0.8-2.2,1.2-3.3
		h-24.1v54.2h3.3V3.3z M120.2,95.4c0-13.1,10.6-23.8,23.6-23.8c3.2,0,6.3,0.6,9,1.8c0.4-1.2,0.7-2.2,1-3.2c-3.1-1.3-6.5-2-10-2
		c-14.4,0-26.1,11.4-26.9,25.6h-14.9V68.5h-3.3v54.2h3.3V97.2H117c0.8,12,9.4,21.9,20.8,24.5c0.3-1,0.6-2,1-3.2
		C128.2,116.2,120.2,106.7,120.2,95.4z M112.5,42.8c5.5-10,20.1-40.2,21.4-42.8h-3.7c-2.7,5.6-11.8,24.3-17.6,35.5L93.5,0h-3.8
		l21,39l0.1,0c-0.4,0.8-0.8,1.5-1.2,2.1c-0.7,1.3-2.8,4.6-6.6,7.2c-4.1,2.9-10,2.6-11.2,2.5v3.3c0.3,0,0.8,0,1.4,0
		c2.7,0,7.7-0.4,11.6-3.1C109.3,48,111.7,44.3,112.5,42.8z"/>
</g>
</svg>
