<svg width="20" height="20" viewBox="0 0 20 20" fill="none" xmlns="http://www.w3.org/2000/svg">
<path fill-rule="evenodd" clip-rule="evenodd" d="M13.0078 9.97162C13.0078 11.6256 11.6584 12.9711 9.99986 12.9711C8.34125 12.9711 6.99195 11.6256 6.99195 9.97162C6.99195 8.31775 8.34125 6.97225 9.99986 6.97225C11.6584 6.97225 13.0078 8.31775 13.0078 9.97162ZM9.99986 0C4.48589 0 0 4.47325 0 9.97162C0 15.4701 4.48589 19.9434 9.99986 19.9434C12.02 19.9434 13.9678 19.3436 15.6326 18.209L15.6615 18.1893L14.3143 16.6274L14.2914 16.6422C13.0097 17.4644 11.5257 17.8989 9.99986 17.8989C5.61638 17.8989 2.05021 14.3427 2.05021 9.97162C2.05021 5.6005 5.61638 2.04437 9.99986 2.04437C14.3833 2.04437 17.9496 5.6005 17.9496 9.97162C17.9496 10.5381 17.8865 11.1116 17.7624 11.6757C17.5108 12.7045 16.7887 13.0197 16.246 12.9779C15.7006 12.9341 15.0622 12.5462 15.058 11.5976V9.97162C15.058 7.19044 12.7889 4.92781 9.99986 4.92781C7.21081 4.92781 4.94173 7.19044 4.94173 9.97162C4.94173 12.7529 7.21081 15.0156 9.99986 15.0156C11.3545 15.0156 12.6255 14.4871 13.5835 13.5266C14.1404 14.391 15.0487 14.9331 16.0817 15.0157C16.1704 15.0229 16.2609 15.0265 16.3507 15.0265C17.0782 15.0265 17.799 14.7841 18.3803 14.3439C18.9798 13.8902 19.4273 13.2337 19.6744 12.4455C19.7143 12.3182 19.7866 12.0264 19.787 12.0246L19.7891 12.0141C19.9348 11.3811 19.9998 10.7506 19.9998 9.97162C19.9998 4.47325 15.5138 0 9.99986 0Z" fill="#0D62B1"/>
</svg>
