<svg width="17" height="20" viewBox="0 0 17 20" fill="none" xmlns="http://www.w3.org/2000/svg">
<path d="M10.002 15.3652H4.9707V20H3.30273V15.3652H0.513672V13.9297H3.30273V11.8926H0.513672V10.4707H3.30273V0.09375H10.084C12.1803 0.09375 13.8164 0.626953 14.9922 1.69336C16.1771 2.75065 16.7695 4.19076 16.7695 6.01367C16.7695 7.87305 16.1953 9.31771 15.0469 10.3477C13.8984 11.3685 12.2578 11.8835 10.125 11.8926H4.9707V13.9297H10.002V15.3652ZM4.9707 10.4707H10.084C11.6699 10.4707 12.9004 10.0879 13.7754 9.32227C14.6504 8.54753 15.0879 7.45378 15.0879 6.04102C15.0879 4.67383 14.6595 3.58919 13.8027 2.78711C12.9551 1.98503 11.7839 1.56576 10.2891 1.5293H4.9707V10.4707Z" fill="#151616"/>
</svg>
