<svg width="48" height="48" viewBox="0 0 48 48" fill="none" xmlns="http://www.w3.org/2000/svg">
<circle opacity="0.2" cx="24" cy="24" r="23.5" stroke="#042C52"/>
<path fill-rule="evenodd" clip-rule="evenodd" d="M29 18C29 16.8954 28.1046 16 27 16C25.8954 16 25 16.8954 25 18C25 19.1046 25.8954 20 27 20C28.1046 20 29 19.1046 29 18ZM31 18C31 15.7909 29.2091 14 27 14C24.7909 14 23 15.7909 23 18C23 18.5398 23.1069 19.0546 23.3007 19.5244L21.4985 20.8761C20.8139 20.3279 19.9453 20 19 20C16.7909 20 15 21.7909 15 24C15 26.2091 16.7909 28 19 28C19.9453 28 20.8139 27.6721 21.4985 27.1239L23.3007 28.4756C23.1069 28.9454 23 29.4602 23 30C23 32.2091 24.7909 34 27 34C29.2091 34 31 32.2091 31 30C31 27.7909 29.2091 26 27 26C26.0547 26 25.1861 26.3279 24.5015 26.8761L22.6993 25.5244C22.8931 25.0546 23 24.5398 23 24C23 23.4602 22.8931 22.9454 22.6993 22.4756L24.5015 21.1239C25.1861 21.6721 26.0547 22 27 22C29.2091 22 31 20.2091 31 18ZM27 32C28.1046 32 29 31.1046 29 30C29 28.8954 28.1046 28 27 28C25.8954 28 25 28.8954 25 30C25 31.1046 25.8954 32 27 32ZM19 22C20.1046 22 21 22.8954 21 24C21 25.1046 20.1046 26 19 26C17.8954 26 17 25.1046 17 24C17 22.8954 17.8954 22 19 22Z" fill="#042C52"/>
</svg>
