<svg width="18" height="15" viewBox="0 0 18 15" fill="none" xmlns="http://www.w3.org/2000/svg">
<path d="M15.8774 2.31446C16.6209 2.23051 17.3404 2.02665 18 1.73884C17.5083 2.48235 16.8847 3.12991 16.1532 3.64557C16.1652 3.80147 16.1652 3.95736 16.1652 4.12525C16.1652 9.006 12.4477 14.6302 5.66023 14.6302C3.57362 14.6302 1.63091 14.0187 0 12.9753C0.287808 13.0113 0.587608 13.0233 0.887408 13.0233C2.61426 13.0233 4.20919 12.4357 5.46835 11.4404C3.86143 11.4044 2.49434 10.3371 2.02665 8.87408C2.2545 8.92205 2.48235 8.93404 2.72219 8.93404C3.05796 8.93404 3.38175 8.88608 3.69354 8.80213C2.00266 8.46636 0.731512 6.97935 0.731512 5.19254C0.731512 5.18055 0.731512 5.15656 0.731512 5.14457C1.23518 5.42039 1.7988 5.58827 2.41039 5.60027C1.41506 4.94071 0.767488 3.81346 0.767488 2.53031C0.767488 1.85876 0.947368 1.22318 1.27115 0.671552C3.09394 2.90207 5.81612 4.37708 8.87408 4.53298C8.81412 4.25716 8.77815 3.98135 8.77815 3.69354C8.77815 1.6549 10.433 0 12.4717 0C13.527 0 14.4863 0.443704 15.1699 1.16322C16.0093 0.995336 16.8008 0.695536 17.5083 0.263824C17.2325 1.12725 16.6449 1.85876 15.8774 2.31446Z" fill="#0D62B1"/>
</svg>
