<svg width="16" height="16" viewBox="0 0 16 16" fill="none" xmlns="http://www.w3.org/2000/svg">
<path fill-rule="evenodd" clip-rule="evenodd" d="M1.70711 0.292893C1.31658 -0.0976311 0.683417 -0.0976311 0.292893 0.292893C-0.0976311 0.683417 -0.0976311 1.31658 0.292893 1.70711L6.58586 8.00008L0.292971 14.293C-0.0975538 14.6835 -0.0975539 15.3167 0.292971 15.7072C0.683495 16.0977 1.31666 16.0977 1.70718 15.7072L8.00008 9.41429L14.2929 15.7071C14.6834 16.0976 15.3166 16.0976 15.7071 15.7071C16.0976 15.3166 16.0976 14.6834 15.7071 14.2929L9.41429 8.00008L15.7072 1.70718C16.0977 1.31666 16.0977 0.683493 15.7072 0.292969C15.3167 -0.0975554 14.6835 -0.0975553 14.293 0.292969L8.00008 6.58586L1.70711 0.292893Z" fill="#151616"/>
</svg>
