<svg width="486" height="518" viewBox="0 0 486 518" fill="none" xmlns="http://www.w3.org/2000/svg">
<path d="M484.147 269.445C466.852 267.076 464.273 262.645 447.368 275.468C442.028 279.518 436.693 279.859 438.835 280.856C440.988 281.855 448.285 285.83 457.04 284.715C465.812 283.598 470.091 282.264 474.71 278.523C479.32 274.782 484.147 269.445 484.147 269.445Z" stroke="#0D62B1" stroke-width="3" stroke-miterlimit="10" stroke-linecap="round" stroke-linejoin="round"/>
<path d="M483.374 269.195C483.374 269.195 477.097 272.031 467.9 274.322C458.689 276.61 454.869 276.631 452.229 277.91C449.588 279.189 441.768 280.436 441.768 280.436" stroke="#0D62B1" stroke-width="3" stroke-miterlimit="10" stroke-linecap="round" stroke-linejoin="round"/>
<path d="M453.411 277.438L448.205 274.836" stroke="#0D62B1" stroke-width="3" stroke-miterlimit="10" stroke-linecap="round" stroke-linejoin="round"/>
<path d="M466.088 275.567L458.326 269.122" stroke="#0D62B1" stroke-width="3" stroke-miterlimit="10" stroke-linecap="round" stroke-linejoin="round"/>
<path d="M457.024 277.877L451.708 284.736" stroke="#0D62B1" stroke-width="3" stroke-miterlimit="10" stroke-linecap="round" stroke-linejoin="round"/>
<path d="M466.798 274.579L462.583 283.156" stroke="#0D62B1" stroke-width="3" stroke-miterlimit="10" stroke-linecap="round" stroke-linejoin="round"/>
<path fill-rule="evenodd" clip-rule="evenodd" d="M249.269 285.549C251.622 285.549 253.54 283.63 253.54 281.274C253.54 278.919 251.622 277 249.269 277C246.916 277 244.998 278.919 244.998 281.274C244.993 283.63 246.911 285.549 249.269 285.549Z" fill="#FFA095"/>
<path fill-rule="evenodd" clip-rule="evenodd" d="M129.269 517.549C131.622 517.549 133.54 515.63 133.54 513.274C133.54 510.919 131.622 509 129.269 509C126.916 509 124.998 510.919 124.998 513.274C124.993 515.63 126.911 517.549 129.269 517.549Z" fill="#FFA095"/>
<path fill-rule="evenodd" clip-rule="evenodd" d="M53.269 8.54891C55.6224 8.54891 57.54 6.62977 57.54 4.27446C57.54 1.91915 55.6224 0 53.269 0C50.9156 0 48.9981 1.91915 48.9981 4.27446C48.9929 6.62977 50.9105 8.54891 53.269 8.54891Z" fill="#FFA095"/>
<path fill-rule="evenodd" clip-rule="evenodd" d="M433.27 108.549C435.623 108.549 437.541 106.63 437.541 104.274C437.541 101.919 435.623 100 433.27 100C430.917 100 428.999 101.919 428.999 104.274C428.994 106.63 430.911 108.549 433.27 108.549Z" fill="#FFA095"/>
<path fill-rule="evenodd" clip-rule="evenodd" d="M136.45 428.498C136.45 428.498 151.456 430.939 158.232 437.932C164.999 444.937 166.647 451.107 166.72 453.094C166.789 455.06 166.329 456.118 164.158 455.435C161.982 454.759 156.412 454.101 151.445 450.966C146.477 447.831 141.214 443.117 138.96 439.421C136.72 435.716 134.373 429.89 134.705 429.483C135.02 429.076 136.45 428.498 136.45 428.498Z" fill="#FFA095"/>
<path fill-rule="evenodd" clip-rule="evenodd" d="M4.55831 77.4252C4.55831 77.4252 10.2953 81.9625 11.5075 86.4874C12.7131 91.0157 11.9622 93.9948 11.5281 94.8473C11.0974 95.6899 10.6562 96.0271 9.90366 95.2318C9.1467 94.4387 6.95945 92.859 5.60469 90.3788C4.24994 87.8986 3.14059 84.6853 3.05789 82.6046C2.98292 80.5227 3.35961 77.5243 3.59464 77.4313C3.82194 77.3338 4.55831 77.4252 4.55831 77.4252Z" fill="#FFA095"/>
<path fill-rule="evenodd" clip-rule="evenodd" d="M301.414 62.4043C301.414 62.4043 299.133 77.4353 292.212 84.2906C285.285 91.1371 279.129 92.8603 277.15 92.9626C275.175 93.0622 274.111 92.5952 274.767 90.424C275.431 88.2473 276.024 82.673 279.104 77.6582C282.192 72.6565 286.843 67.3289 290.524 65.0381C294.214 62.7603 300.001 60.3369 300.412 60.667C300.829 60.9688 301.414 62.4043 301.414 62.4043Z" fill="#F65B47"/>
<path d="M178.439 38.4082C178.439 38.4082 183.548 39.109 184.657 39.6106C185.755 40.1123 187.863 41.0639 187.863 41.0639" stroke="#0D62B1" stroke-width="3" stroke-miterlimit="10" stroke-linecap="round" stroke-linejoin="round"/>
<path d="M177.928 27.7225C177.928 27.7225 178.44 30.168 178.44 32.6356C178.44 35.0922 178.691 37.9065 178.691 37.9065" stroke="#0D62B1" stroke-width="3" stroke-miterlimit="10" stroke-linecap="round" stroke-linejoin="round"/>
<path fill-rule="evenodd" clip-rule="evenodd" d="M160.531 32.23C160.531 32.23 167.393 30.5481 169.232 28.571C171.071 26.594 174.123 23.3002 172.774 19.442C171.425 15.5838 169.682 12.8875 168.51 12.0613C167.349 11.224 166.181 10.2207 166.181 10.2207L165.628 10.5343C165.628 10.5343 164.437 8.40232 163.446 7.28102C162.466 6.15234 161.585 5.57693 160.582 6.36258C159.569 7.14823 157.217 8.73429 156.499 9.57158C155.776 10.3978 154.7 11.3384 154.7 11.3384C154.7 11.3384 153.539 10.9105 153.27 11.2019C153.001 11.4933 148.748 14.256 147.554 17.7158C146.364 21.1645 145.516 24.2407 146.655 26.8227C147.805 29.4046 150.897 31.2858 154.324 32.112C157.752 32.953 160.531 32.23 160.531 32.23Z" fill="#FFA095"/>
<path d="M183.997 76.802C183.246 76.2487 175.075 73.1319 168.953 64.0471C162.843 54.9734 159.382 50.9972 159.08 45.1841C158.777 39.36 159.478 32.5326 159.478 32.5326" stroke="#0D62B1" stroke-width="3" stroke-miterlimit="10" stroke-linecap="round" stroke-linejoin="round"/>
<path d="M165.446 58.9238C165.446 58.9238 165.132 46.8697 166.614 42.1743C168.379 36.5714 176.403 21.2752 187.113 26.1145C191.071 27.9035 196.441 31.4776 190.017 39.205C183.604 46.9435 180.04 48.7398 175.326 52.4099C170.616 56.0688 167.001 60.5356 167.001 60.5356" stroke="#0D62B1" stroke-width="3" stroke-miterlimit="10" stroke-linecap="round" stroke-linejoin="round"/>
<path d="M167.199 59.0269C167.199 59.0269 170.011 45.7778 174.876 41.1672C179.734 36.5455 186.003 28.6632 186.305 28.4124C186.607 28.1616 188.041 26.7821 188.041 26.7821" stroke="#0D62B1" stroke-width="3" stroke-miterlimit="10" stroke-linecap="round" stroke-linejoin="round"/>
<path d="M168.804 38.2018C168.804 38.2018 168.2 38.9542 169.556 42.3735C170.916 45.7817 171.613 47.3382 171.613 47.3382" stroke="#0D62B1" stroke-width="3" stroke-miterlimit="10" stroke-linecap="round" stroke-linejoin="round"/>
<path d="M169.611 48.9908C169.611 48.9908 170.415 48.4891 173.216 49.2932C176.028 50.0973 177.48 50.3481 177.48 50.3481" stroke="#0D62B1" stroke-width="3" stroke-miterlimit="10" stroke-linecap="round" stroke-linejoin="round"/>
<path d="M166.35 62.1438C161.961 56.0689 153.48 52.1259 145.977 51.4988C139.24 50.9455 131.467 52.7935 129.639 57.7729C125.607 68.7831 141.654 69.6499 148.498 67.861C156.572 65.7585 157.273 63.8995 160.638 63.2503C163.991 62.5938 166.35 62.1438 166.35 62.1438Z" stroke="#0D62B1" stroke-width="3" stroke-miterlimit="10" stroke-linecap="round" stroke-linejoin="round"/>
<path d="M129.189 60.2847C130.044 60.1372 139.019 59.2814 146.939 59.7831C154.866 60.2847 161.18 60.495 161.681 60.5355C162.182 60.5872 166.1 61.1958 166.1 61.1958" stroke="#0D62B1" stroke-width="3" stroke-miterlimit="10" stroke-linecap="round" stroke-linejoin="round"/>
<path d="M139.41 52.2512C139.41 52.2512 140.925 54.4164 142.429 55.9213C143.932 57.4262 146.295 59.2778 146.295 59.2778" stroke="#0D62B1" stroke-width="3" stroke-miterlimit="10" stroke-linecap="round" stroke-linejoin="round"/>
<path d="M150.91 53.037C150.91 53.037 152.561 56.2275 153.461 57.323C154.371 58.4296 156.523 60.3033 156.523 60.3033" stroke="#0D62B1" stroke-width="3" stroke-miterlimit="10" stroke-linecap="round" stroke-linejoin="round"/>
<path d="M138.123 68.0417C138.123 68.0417 140.725 65.8581 143.139 63.7557C145.542 61.6422 148.406 59.584 148.406 59.584" stroke="#0D62B1" stroke-width="3" stroke-miterlimit="10" stroke-linecap="round" stroke-linejoin="round"/>
<path d="M151.557 66.013C151.557 66.013 153.363 63.7557 154.66 62.7524C155.965 61.7491 157.523 60.7864 157.523 60.7864" stroke="#0D62B1" stroke-width="3" stroke-miterlimit="10" stroke-linecap="round" stroke-linejoin="round"/>
<path d="M165.631 10.5343C165.152 11.0138 162.13 14.09 161.116 16.056C160.114 18.022 158.098 22.2674 158.098 22.2674" stroke="#F65B47" stroke-width="3" stroke-miterlimit="10" stroke-linecap="round" stroke-linejoin="round"/>
<path d="M159.518 31.8538C159.518 31.4776 159.633 25.7051 157.462 20.615C155.287 15.5248 153.271 10.9105 153.271 10.9105" stroke="#F65B47" stroke-width="3" stroke-miterlimit="10" stroke-linecap="round" stroke-linejoin="round"/>
<path d="M162.08 12.7844C161.778 10.0032 158.686 6.40698 158.686 6.40698" stroke="#F65B47" stroke-width="3" stroke-miterlimit="10" stroke-linecap="round" stroke-linejoin="round"/>
<path d="M162.873 6.927L160.418 8.77861" stroke="#F65B47" stroke-width="3" stroke-miterlimit="10" stroke-linecap="round" stroke-linejoin="round"/>
<path d="M309.149 462.729C309.149 462.729 321.547 462.673 327.664 462.904C333.781 463.135 342.81 463.371 348.798 463.832C354.802 464.299 360.048 463.95 361.791 463.602C363.534 463.253 366.211 462.262 366.211 462.262" stroke="#0D62B1" stroke-width="3" stroke-miterlimit="10" stroke-linecap="round" stroke-linejoin="round"/>
<path d="M282.811 427.82C284.918 428.226 294.424 431.546 294.424 431.546L298.013 425.537" stroke="#0D62B1" stroke-width="3" stroke-miterlimit="10" stroke-linecap="round" stroke-linejoin="round"/>
<path fill-rule="evenodd" clip-rule="evenodd" d="M311.996 356.258C312.129 356.36 308.96 353.918 307.725 354.99C306.474 356.068 300.823 373.463 301.331 379.847C301.839 386.246 306.202 402.333 315.082 407.597C323.963 412.862 330.3 414.679 336.812 414.858C343.323 415.017 361.202 411.164 367.872 401.825C374.558 392.486 378.906 386.815 377.783 382.171C376.65 377.533 374.384 376.337 374.384 376.337C374.384 376.337 373.482 365.746 366.97 359.799C354.398 348.309 339.837 340.581 322.671 347.796C314.175 351.368 311.862 356.155 311.996 356.258Z" fill="#FFA095"/>
<path d="M292.246 477.102C292.246 477.102 311.663 455.53 316.313 442.599C320.979 429.668 326.383 412.97 326.383 412.97" stroke="#0D62B1" stroke-width="3" stroke-miterlimit="10" stroke-linecap="round" stroke-linejoin="round"/>
<path d="M307.797 455.094C307.797 455.094 309.761 446.498 305.587 437.262C301.429 428.025 296.881 421.77 292.713 418.774C288.554 415.792 285.693 413.565 285.693 413.565C285.693 413.565 281.884 415.105 282.002 422.16C282.12 429.216 281.653 440.228 290.795 447.396C299.937 454.565 307.392 457.362 307.392 457.362" stroke="#0D62B1" stroke-width="3" stroke-miterlimit="10" stroke-linecap="round" stroke-linejoin="round"/>
<path d="M285.908 415.69C286.662 417.085 291.43 424.259 293.481 429.334C295.517 434.394 297.839 437.96 300.705 443.368C303.556 448.792 307.566 455.904 307.566 455.904" stroke="#0D62B1" stroke-width="3" stroke-miterlimit="10" stroke-linecap="round" stroke-linejoin="round"/>
<path d="M303.899 435.035L300.951 443.851C300.951 443.851 299.587 445.539 295.049 444.431C290.501 443.312 285.559 440.166 285.559 440.166" stroke="#0D62B1" stroke-width="3" stroke-miterlimit="10" stroke-linecap="round" stroke-linejoin="round"/>
<path d="M305.236 462.616C305.236 462.616 311.471 457.598 316.716 456.32C321.946 455.042 333.431 451.476 342.163 453.642C350.9 455.797 355.955 458.352 359.344 459.579C362.718 460.8 366.917 462.036 366.917 462.036C366.917 462.036 366.322 468.204 360.626 469.734C347.182 473.295 326.689 478.329 313.973 468.148C310.774 465.587 306.457 462.621 306.457 462.621" stroke="#0D62B1" stroke-width="3" stroke-miterlimit="10" stroke-linecap="round" stroke-linejoin="round"/>
<path d="M353.347 457.711C353.347 457.711 354.567 458.291 350.44 460.62C346.297 462.96 342.811 464.417 342.811 464.417C342.811 464.417 349.496 467.445 349.614 467.968C349.732 468.492 353.116 471.299 353.116 471.299" stroke="#0D62B1" stroke-width="3" stroke-miterlimit="10" stroke-linecap="round" stroke-linejoin="round"/>
<path d="M334.478 453.58C334.478 453.58 334.652 455.791 330.684 457.829C326.731 459.866 323.634 462.206 323.634 462.206C323.634 462.206 325.798 465.29 327.079 467.676C328.356 470.077 329.869 472.987 329.869 472.987" stroke="#0D62B1" stroke-width="3" stroke-miterlimit="10" stroke-linecap="round" stroke-linejoin="round"/>
<path d="M329.947 413.509C329.947 413.509 330.936 393.537 325.573 380.678C320.21 367.819 310.109 356.196 310.109 356.196" stroke="#F65B47" stroke-width="3" stroke-miterlimit="10" stroke-linecap="round" stroke-linejoin="round"/>
<path d="M328.812 388.288C328.812 388.288 344.409 380.057 358.391 380.304C372.357 380.55 376.469 380.55 376.469 380.55" stroke="#F65B47" stroke-width="3" stroke-miterlimit="10" stroke-linecap="round" stroke-linejoin="round"/>
<path d="M345.656 381.304C345.656 381.304 344.292 372.314 342.036 367.573C339.796 362.816 332.674 349.71 332.674 349.71L327.937 345.349" stroke="#F65B47" stroke-width="3" stroke-miterlimit="10" stroke-linecap="round" stroke-linejoin="round"/>
<path d="M341.558 365.099C341.558 365.099 344.234 363.221 353.386 362.959C362.543 362.698 367.86 362.492 367.86 362.492" stroke="#F65B47" stroke-width="3" stroke-miterlimit="10" stroke-linecap="round" stroke-linejoin="round"/>
<path d="M336.949 356.458C337.344 356.386 339.349 354.38 345.522 353.461C351.7 352.558 358.197 351.906 358.197 351.906" stroke="#F65B47" stroke-width="3" stroke-miterlimit="10" stroke-linecap="round" stroke-linejoin="round"/>
<path d="M346.644 353.302C346.644 353.302 346.762 350.988 345.132 348.792C343.516 346.58 342.414 345.143 342.414 345.143" stroke="#F65B47" stroke-width="3" stroke-miterlimit="10" stroke-linecap="round" stroke-linejoin="round"/>
</svg>
