<svg width="580" height="619" viewBox="0 0 580 619" fill="none" xmlns="http://www.w3.org/2000/svg">
<path fill-rule="evenodd" clip-rule="evenodd" d="M436.172 454.641C436.172 454.641 431.537 445.333 427.932 440.678C424.328 436.024 423.138 435.137 423.138 430.626C423.138 426.131 434.839 368.049 436.787 364.005C438.735 359.946 440.232 356.195 440.232 356.195L449.969 350.345L452.076 343.741C452.076 343.741 451.174 302.331 453.43 285.372C455.671 268.428 458.08 257.169 454.025 247.117C449.969 237.065 451.625 230.912 440.376 222.958C429.142 215 424.492 207.349 410.987 208.252C397.497 209.155 394.057 206.753 379.362 210.956C364.667 215.143 329.13 223.554 326.879 225.663C324.628 227.756 321.634 231.656 320.732 234.956C319.829 238.255 314.441 272.615 314.441 272.615C314.441 272.615 301.694 235.407 300.197 229.557C298.7 223.697 297.495 222.199 290.604 221.152C283.703 220.105 263.758 216.046 257.61 217.996C251.463 219.962 228.98 223.261 219.228 233.909C209.491 244.556 199.898 270.07 193.75 290.621C187.603 311.188 180.409 347.944 180.102 351.844C179.794 355.743 174.405 359.654 186.106 364.6C197.791 369.547 213.08 372.559 213.08 372.559C213.08 372.559 211.891 382.612 213.834 392.659C215.782 402.711 214.88 411.568 214.141 416.817C213.388 422.067 212.485 426.418 212.485 426.418L219.987 429.271H224.78C224.78 429.271 227.18 413.662 224.027 406.011C220.889 398.36 216.992 372.703 216.992 372.703C216.992 372.703 244.725 378.855 260.769 377.952C276.812 377.049 286.554 376 286.554 376C286.554 376 285.81 399.714 286.554 410.814C287.307 421.928 288.804 434.685 288.953 437.23C289.112 439.775 289.855 445.635 289.855 445.635C289.855 445.635 309.057 444.732 318.199 444.732C327.341 444.732 340.087 445.184 340.087 445.184C340.087 445.184 342.63 427.178 343.24 412.615C343.835 398.067 344.881 386.214 345.481 379.61C346.091 373.006 347.137 357.996 347.137 357.996C347.137 357.996 364.518 364.005 376.978 364.005C389.416 364.005 413.402 364.908 415.96 364.298C418.503 363.702 420.452 362.348 420.452 362.348C420.452 362.348 409.813 390.858 407.413 400.31C405.013 409.767 401.558 420.717 401.122 426.126C400.671 431.524 398.271 445.63 398.271 445.63C398.271 445.63 408.008 444.727 417.006 448.175C426.004 451.624 436.172 454.641 436.172 454.641Z" fill="#FFA095"/>
<path d="M398.731 203.915C398.731 203.915 401.741 203.32 404.299 201.052C406.858 198.784 421.568 187.726 421.639 171.757C421.711 155.798 421.86 151.991 415.128 138.141C408.401 124.307 405.391 119.55 402.541 103.797C399.69 88.0588 402.905 73.9218 392.804 54.443C382.719 34.9539 371.367 18.8516 351.976 11.5907C332.59 4.35025 328.924 1.33812 312.747 2.29769C296.586 3.24187 291.525 6.39768 291.525 6.39768" stroke="#0D62B1" stroke-width="3" stroke-miterlimit="10" stroke-linecap="round" stroke-linejoin="round"/>
<path d="M288.973 6.67976C288.973 6.67976 283.974 4.53997 271.955 11.0876C259.937 17.6353 238.628 36.6882 233.147 55.9925C227.682 75.2814 226.723 96.2381 220.068 112.33C213.397 128.402 215.069 128.638 202.22 143.052C189.355 157.466 183.895 159.97 179.721 170.207C175.548 180.449 173.297 190.091 173.297 190.091" stroke="#0D62B1" stroke-width="3" stroke-miterlimit="10" stroke-linecap="round" stroke-linejoin="round"/>
<path fill-rule="evenodd" clip-rule="evenodd" d="M274.264 150.826C281.253 150.826 286.954 145.125 286.954 138.126C286.954 131.142 281.258 125.441 274.264 125.441C267.286 125.441 261.59 131.142 261.59 138.126C261.59 145.125 267.286 150.826 274.264 150.826Z" fill="#FFA095"/>
<path fill-rule="evenodd" clip-rule="evenodd" d="M348.28 131.712C355.258 131.712 360.955 126.011 360.955 119.011C360.955 112.028 355.258 106.327 348.28 106.327C341.292 106.327 335.605 112.028 335.605 119.011C335.611 126.011 341.292 131.712 348.28 131.712Z" fill="#FFA095"/>
<path d="M177.457 190.215C177.457 190.215 188.763 198.548 195.187 200.57C201.627 202.592 205.303 202.109 205.303 202.109" stroke="#0D62B1" stroke-width="3" stroke-miterlimit="10" stroke-linecap="round" stroke-linejoin="round"/>
<path d="M212.086 203.423C212.086 203.423 229.816 192.473 232.318 182.826C234.82 173.184 236.953 163.29 233.149 151.026C229.339 138.752 225.535 122.311 229.339 105.875C233.149 89.4546 237.912 77.5395 239.819 73.3676C241.721 69.2061 244.572 64.6699 244.572 64.6699" stroke="#0D62B1" stroke-width="3" stroke-miterlimit="10" stroke-linecap="round" stroke-linejoin="round"/>
<path d="M254.221 58.0095C254.221 58.0095 248.51 88.136 247.669 92.903C246.838 97.6599 245.418 102.196 245.418 102.196" stroke="#0D62B1" stroke-width="3" stroke-miterlimit="10" stroke-linecap="round" stroke-linejoin="round"/>
<path d="M254.449 86.3604L250.758 100.41" stroke="#0D62B1" stroke-width="3" stroke-miterlimit="10" stroke-linecap="round" stroke-linejoin="round"/>
<path d="M219.358 144.001C219.358 144.001 210.303 156.625 209.59 167.216C208.877 177.817 208.877 181.63 210.185 186.402C211.492 191.159 214.358 196.393 214.358 196.393" stroke="#0D62B1" stroke-width="3" stroke-miterlimit="10" stroke-linecap="round" stroke-linejoin="round"/>
<path d="M229.471 180.686C229.471 180.686 227.682 177.822 227.682 174.374C227.682 170.91 228.03 167.698 228.03 167.698" stroke="#0D62B1" stroke-width="3" stroke-miterlimit="10" stroke-linecap="round" stroke-linejoin="round"/>
<path d="M239.588 185.212C239.588 185.212 234.938 196.398 233.035 198.784C231.133 201.17 229.59 203.074 229.59 203.074" stroke="#0D62B1" stroke-width="3" stroke-miterlimit="10" stroke-linecap="round" stroke-linejoin="round"/>
<path d="M240.65 197.24L238.512 202.71" stroke="#0D62B1" stroke-width="3" stroke-miterlimit="10" stroke-linecap="round" stroke-linejoin="round"/>
<path d="M247.07 204.865C247.07 204.865 254.454 193.55 254.223 183.775C253.977 174.015 251.608 163.66 249.936 156.501C248.265 149.359 246.958 139.717 252.669 126.016C258.381 112.33 264.093 90.291 263.862 79.4535C263.631 68.616 263.149 50.2764 263.149 50.2764" stroke="#0D62B1" stroke-width="3" stroke-miterlimit="10" stroke-linecap="round" stroke-linejoin="round"/>
<path d="M262.072 46.3303C262.072 46.3303 266.594 57.0498 277.418 64.439C288.247 71.8282 289.683 73.0187 295.512 75.8718C301.342 78.7351 305.382 79.5664 305.382 79.5664" stroke="#0D62B1" stroke-width="3" stroke-miterlimit="10" stroke-linecap="round" stroke-linejoin="round"/>
<path d="M280.395 40.2649C280.395 40.2649 293.126 54.679 300.991 59.9181C308.841 65.1522 319.551 68.4876 319.551 68.4876" stroke="#0D62B1" stroke-width="3" stroke-miterlimit="10" stroke-linecap="round" stroke-linejoin="round"/>
<path d="M297.418 34.3125C297.418 34.3125 324.669 61.7039 329.668 65.5114C334.667 69.324 339.784 71.3458 339.784 71.3458" stroke="#0D62B1" stroke-width="3" stroke-miterlimit="10" stroke-linecap="round" stroke-linejoin="round"/>
<path d="M325.496 41.6917C325.496 41.6917 349.538 72.7777 355.608 77.5447C361.669 82.3015 370.595 93.8523 370.595 93.8523" stroke="#0D62B1" stroke-width="3" stroke-miterlimit="10" stroke-linecap="round" stroke-linejoin="round"/>
<path d="M365.246 71.3457C365.246 71.3457 367.748 79.5662 368.343 83.9689C368.938 88.3768 368.825 93.4979 368.825 93.4979" stroke="#0D62B1" stroke-width="3" stroke-miterlimit="10" stroke-linecap="round" stroke-linejoin="round"/>
<path d="M382.263 79.5664C382.263 79.5664 385.473 93.8522 383.34 103.976C381.186 114.101 379.766 125.662 371.322 134.113C362.862 142.565 355.842 149.359 352.864 156.501C349.9 163.66 349.654 171.629 352.033 175.919C354.417 180.209 357.514 181.153 356.089 188.778C354.648 196.398 352.992 200.924 350.131 204.619C347.28 208.313 344.07 211.048 344.07 211.048C344.07 211.048 359.057 207.836 362.267 206.774C365.477 205.696 368.691 196.768 368.691 196.768L370.594 203.91C370.594 203.91 375.126 203.079 376.787 201.406C378.459 199.749 380.71 197.245 380.71 193.899C380.71 190.569 379.766 186.874 379.997 181.158C380.243 175.441 381.55 168.781 384.401 164.373C387.262 159.965 394.635 148.763 395.594 146.146C396.537 143.529 398.096 138.757 398.445 133.523C398.809 128.289 397.732 123.05 397.732 123.05" stroke="#0D62B1" stroke-width="3" stroke-miterlimit="10" stroke-linecap="round" stroke-linejoin="round"/>
<path d="M384.995 126.724C384.283 129.228 380.955 132.322 377.146 137.443C373.336 142.565 372.623 145.546 370.721 151.493C368.819 157.456 367.742 162.346 367.742 162.346" stroke="#0D62B1" stroke-width="3" stroke-miterlimit="10" stroke-linecap="round" stroke-linejoin="round"/>
<path d="M378.096 149.589C378.096 149.589 374.42 152.571 374.42 155.188" stroke="#0D62B1" stroke-width="3" stroke-miterlimit="10" stroke-linecap="round" stroke-linejoin="round"/>
<path d="M388.925 158.533C388.925 158.533 388.212 168.776 385.249 174.954C382.27 181.153 379.988 184.365 379.988 184.365" stroke="#0D62B1" stroke-width="3" stroke-miterlimit="10" stroke-linecap="round" stroke-linejoin="round"/>
<path d="M401.189 166.159C401.189 166.159 397.98 174.128 394.996 179.962C392.017 185.812 387.977 190.333 387.977 190.333" stroke="#0D62B1" stroke-width="3" stroke-miterlimit="10" stroke-linecap="round" stroke-linejoin="round"/>
<path d="M403.571 183.057C403.571 183.057 400.823 186.269 398.572 188.424C396.306 190.564 393.922 191.99 393.922 191.99" stroke="#0D62B1" stroke-width="3" stroke-miterlimit="10" stroke-linecap="round" stroke-linejoin="round"/>
<path d="M360.072 81.6448C360.072 81.6448 362.979 87.669 363.707 93.0211C364.42 98.3885 365.015 99.3327 365.015 99.3327L367.153 96.4797" stroke="#0D62B1" stroke-width="3" stroke-miterlimit="10" stroke-linecap="round" stroke-linejoin="round"/>
<path d="M370.594 93.8521C370.594 93.8521 373.096 91.117 376.67 92.4255C380.243 93.7341 384.037 97.6904 384.037 97.6904" stroke="#0D62B1" stroke-width="3" stroke-miterlimit="10" stroke-linecap="round" stroke-linejoin="round"/>
<path d="M377.747 101.719C377.747 101.719 376.557 98.8554 373.573 102.432C370.594 106.009 369.651 106.009 367.979 112.325C366.323 118.637 362.632 136.982 357.863 144.833C353.11 152.689 346.804 165.081 333.955 171.875C321.091 178.654 313.01 180.445 302.766 177.592C292.532 174.728 280.396 172.47 270.516 160.56C260.646 148.645 251.242 132.692 251.242 132.692" stroke="#0D62B1" stroke-width="3" stroke-miterlimit="10" stroke-linecap="round" stroke-linejoin="round"/>
<path d="M260.529 92.5383C260.529 92.5383 266.113 85.6417 272.184 84.2049C278.259 82.7784 283.971 82.6655 283.971 82.6655C283.971 82.6655 266.938 84.1075 263.493 85.8213C260.047 87.5506 255.879 90.8809 255.879 90.8809" stroke="#0D62B1" stroke-width="3" stroke-miterlimit="10" stroke-linecap="round" stroke-linejoin="round"/>
<path d="M341.685 73.1368C341.685 73.1368 335.727 71.233 325.74 73.2548C315.741 75.2766 312.645 76.467 312.645 76.467C312.645 76.467 323.586 68.9598 330.61 69.3241C337.63 69.6731 343.936 70.6326 343.936 70.6326" stroke="#0D62B1" stroke-width="3" stroke-miterlimit="10" stroke-linecap="round" stroke-linejoin="round"/>
<path d="M342.399 99.1016C342.399 99.1016 336.456 101.719 330.975 103.858C325.494 106.014 320.146 104.341 320.146 104.341C320.146 104.341 323.243 107.917 328.837 106.845C334.421 105.767 341.686 102.319 341.686 102.319" stroke="#0D62B1" stroke-width="3" stroke-miterlimit="10" stroke-linecap="round" stroke-linejoin="round"/>
<path d="M264.566 117.908C264.566 117.908 267.068 118.868 272.893 116.964C278.723 115.06 285.506 110.534 285.506 110.534C285.506 110.534 277.41 118.986 272.657 119.945C267.889 120.889 264.443 120.889 264.443 120.889" stroke="#0D62B1" stroke-width="3" stroke-miterlimit="10" stroke-linecap="round" stroke-linejoin="round"/>
<path d="M296.461 104.7L299.204 121.967" stroke="#0D62B1" stroke-width="3" stroke-miterlimit="10" stroke-linecap="round" stroke-linejoin="round"/>
<path d="M306.221 143.755C306.221 143.755 310.379 141.487 314.491 139.768C318.588 138.039 321.454 135.535 321.454 135.535" stroke="#0D62B1" stroke-width="3" stroke-miterlimit="10" stroke-linecap="round" stroke-linejoin="round"/>
<path d="M252.668 141.02L257.334 142.39" stroke="#0D62B1" stroke-width="3" stroke-miterlimit="10" stroke-linecap="round" stroke-linejoin="round"/>
<path d="M260.282 148.645C260.282 148.645 260.529 148.645 256.473 148.645C252.433 148.645 248.582 147.727 248.582 147.727" stroke="#0D62B1" stroke-width="3" stroke-miterlimit="10" stroke-linecap="round" stroke-linejoin="round"/>
<path d="M367.035 118.75C367.035 118.75 371.557 116.846 372.747 116.246C373.936 115.645 377.269 111.592 377.269 111.592" stroke="#0D62B1" stroke-width="3" stroke-miterlimit="10" stroke-linecap="round" stroke-linejoin="round"/>
<path d="M365.129 126.493C365.129 126.493 372.861 125.066 375.363 123.511C377.865 121.972 380.331 117.564 380.331 117.564" stroke="#0D62B1" stroke-width="3" stroke-miterlimit="10" stroke-linecap="round" stroke-linejoin="round"/>
<path d="M293.015 175.554C293.015 175.554 294.687 184.252 290.995 192.123C287.304 199.98 282.535 208.559 275.998 212.721C269.456 216.898 262.785 217.955 262.785 217.955" stroke="#0D62B1" stroke-width="3" stroke-miterlimit="10" stroke-linecap="round" stroke-linejoin="round"/>
<path d="M259.805 157.343C259.805 157.343 262.666 172.224 265.998 178.058C269.341 183.908 271.956 188.896 274.807 191.646C277.668 194.381 281.944 199.02 281.944 199.02" stroke="#0D62B1" stroke-width="3" stroke-miterlimit="10" stroke-linecap="round" stroke-linejoin="round"/>
<path d="M278.129 174.128C278.129 174.128 281.472 181.517 281.938 183.421" stroke="#0D62B1" stroke-width="3" stroke-miterlimit="10" stroke-linecap="round" stroke-linejoin="round"/>
<path d="M284.918 176.745C284.918 176.745 286.472 179.495 286.343 183.539C286.225 187.582 283.975 194.741 283.975 194.741" stroke="#0D62B1" stroke-width="3" stroke-miterlimit="10" stroke-linecap="round" stroke-linejoin="round"/>
<path d="M273.611 203.074C273.611 203.074 264.089 204.264 259.572 204.264C255.05 204.264 248.918 201.673 248.918 201.673" stroke="#0D62B1" stroke-width="3" stroke-miterlimit="10" stroke-linecap="round" stroke-linejoin="round"/>
<path d="M374.533 201.401C374.533 201.401 376.902 204.614 382.496 207.118C388.09 209.622 391.304 210.93 391.304 210.93" stroke="#0D62B1" stroke-width="3" stroke-miterlimit="10" stroke-linecap="round" stroke-linejoin="round"/>
<path d="M204.938 264.194C206.332 264.194 219.632 269.095 219.632 269.095" stroke="#0D62B1" stroke-width="3" stroke-miterlimit="10" stroke-linecap="round" stroke-linejoin="round"/>
<path d="M282.926 301.227C282.926 301.227 285.105 307 285.351 308.545C285.612 310.084 286.253 313.548 286.253 313.548" stroke="#0D62B1" stroke-width="3" stroke-miterlimit="10" stroke-linecap="round" stroke-linejoin="round"/>
<path d="M290.803 338.174C290.485 339.775 290.162 346.394 290.485 350.304C290.803 354.219 291.065 357.098 291.255 359.977C291.444 362.871 292.531 369.609 292.531 369.609" stroke="#0D62B1" stroke-width="3" stroke-miterlimit="10" stroke-linecap="round" stroke-linejoin="round"/>
<path d="M187.105 347.41C187.105 347.41 209.153 354.086 231.461 358.699C253.755 363.322 264.265 362.553 270.674 362.553C277.084 362.553 283.493 361.275 283.493 361.275" stroke="#0D62B1" stroke-width="3" stroke-miterlimit="10" stroke-linecap="round" stroke-linejoin="round"/>
<path d="M429.747 235.581C429.747 235.581 421.826 236.859 418.554 238.27C415.283 239.666 409.689 241.647 409.689 241.647" stroke="#0D62B1" stroke-width="3" stroke-miterlimit="10" stroke-linecap="round" stroke-linejoin="round"/>
<path d="M380.637 255.902C380.637 255.902 375.741 262.896 372.936 268.048C370.131 273.184 368.152 277.736 368.152 277.736" stroke="#0D62B1" stroke-width="3" stroke-miterlimit="10" stroke-linecap="round" stroke-linejoin="round"/>
<path d="M341.89 290.2C341.89 290.2 342.27 301.617 341.495 310.084C340.726 318.551 341.757 333.299 341.89 337.399C342.008 341.499 343.68 353.691 343.68 353.691" stroke="#0D62B1" stroke-width="3" stroke-miterlimit="10" stroke-linecap="round" stroke-linejoin="round"/>
<path d="M349.125 348.955C349.125 348.955 374.761 348.955 386.81 348.693C398.859 348.447 412.446 348.185 420.137 345.871C427.828 343.572 433.976 339.718 433.976 339.718" stroke="#0D62B1" stroke-width="3" stroke-miterlimit="10" stroke-linecap="round" stroke-linejoin="round"/>
<path d="M339.096 232.662C339.096 232.662 348.545 226.715 359.4 226.715C370.254 226.715 377.596 224.836 377.596 224.836" stroke="#0D62B1" stroke-width="3" stroke-miterlimit="10" stroke-linecap="round" stroke-linejoin="round"/>
<path d="M328.724 236.864L321.715 267.935" stroke="#0D62B1" stroke-width="3" stroke-miterlimit="10" stroke-linecap="round" stroke-linejoin="round"/>
<path d="M290.801 236.167L300.014 262.901L301.645 274.698" stroke="#0D62B1" stroke-width="3" stroke-miterlimit="10" stroke-linecap="round" stroke-linejoin="round"/>
<path d="M288.116 229.865L269.453 228.572" stroke="#0D62B1" stroke-width="3" stroke-miterlimit="10" stroke-linecap="round" stroke-linejoin="round"/>
<path d="M306.964 283.888C306.964 283.888 305.252 284.371 305.088 287.162C304.929 289.938 305.744 291.991 308.113 291.498C310.481 291.006 312.937 289.872 312.937 288.312C312.937 286.757 310.727 284.704 310.727 284.704" stroke="#0D62B1" stroke-width="3" stroke-miterlimit="10" stroke-linecap="round" stroke-linejoin="round"/>
<path d="M310.249 302.479C310.249 302.479 306.644 303.86 306.311 306.159C305.993 308.458 305.409 310.336 308.203 310.582C310.977 310.828 313.52 310.336 313.771 308.776C314.017 307.221 313.366 304.512 312.536 303.947C311.715 303.383 310.249 302.479 310.249 302.479Z" stroke="#0D62B1" stroke-width="3" stroke-miterlimit="10" stroke-linecap="round" stroke-linejoin="round"/>
<path d="M347.078 359.951C347.078 359.951 344.812 387.907 343.679 404.651C342.545 421.395 339.941 441.058 335.552 455.195C331.163 469.332 328.738 476.316 327.764 484.126C326.789 491.92 325.164 498.422 325.164 498.422" stroke="#0D62B1" stroke-width="3" stroke-miterlimit="10" stroke-linecap="round" stroke-linejoin="round"/>
<path d="M383.133 489.493C383.133 489.493 392.229 468.357 395.807 448.853C399.381 429.348 401.652 413.739 404.093 405.785C406.518 397.816 417.567 363.851 417.567 363.851" stroke="#0D62B1" stroke-width="3" stroke-miterlimit="10" stroke-linecap="round" stroke-linejoin="round"/>
<path d="M287.316 376.69C287.316 376.69 285.049 394.07 285.701 406.914C286.342 419.758 286.019 434.218 287.649 446.739C289.264 459.249 288.131 475.336 286.342 486.389C284.552 497.442 282.127 518.578 282.127 518.578" stroke="#0D62B1" stroke-width="3" stroke-miterlimit="10" stroke-linecap="round" stroke-linejoin="round"/>
<path d="M214.557 371.004C214.557 371.004 222.842 402.86 223.334 411.311C223.816 419.763 223.001 441.699 224.627 449.987C226.252 458.274 231.441 489.493 232.415 495.004C233.404 500.531 235.178 504.272 235.178 504.272" stroke="#0D62B1" stroke-width="3" stroke-miterlimit="10" stroke-linecap="round" stroke-linejoin="round"/>
<path d="M291.223 434.377C291.223 434.377 294.781 435.845 303.882 433.577C312.978 431.293 317.197 432.427 317.197 432.427" stroke="#0D62B1" stroke-width="3" stroke-miterlimit="10" stroke-linecap="round" stroke-linejoin="round"/>
<path d="M314.766 444.619C314.766 444.619 312.658 450.802 312.658 457.145C312.658 463.487 312.002 470.805 312.002 470.805" stroke="#0D62B1" stroke-width="3" stroke-miterlimit="10" stroke-linecap="round" stroke-linejoin="round"/>
<path d="M310.875 484.126L312.485 493.229" stroke="#0D62B1" stroke-width="3" stroke-miterlimit="10" stroke-linecap="round" stroke-linejoin="round"/>
<path d="M317.371 462.512L328.733 463.313" stroke="#0D62B1" stroke-width="3" stroke-miterlimit="10" stroke-linecap="round" stroke-linejoin="round"/>
<path d="M295.759 463.313H292.514" stroke="#0D62B1" stroke-width="3" stroke-miterlimit="10" stroke-linecap="round" stroke-linejoin="round"/>
<path d="M310.873 499.238C310.873 499.238 312.006 501.029 310.873 503.789C309.725 506.555 309.084 511.748 309.084 511.748" stroke="#0D62B1" stroke-width="3" stroke-miterlimit="10" stroke-linecap="round" stroke-linejoin="round"/>
<path d="M304.041 450.32C304.041 450.32 301.934 450.32 299.985 453.563C298.037 456.822 298.519 461.199 300.303 461.856C302.093 462.513 307.133 461.04 308.266 459.09C309.399 457.14 308.266 451.772 308.266 451.772L304.041 450.32Z" stroke="#0D62B1" stroke-width="3" stroke-miterlimit="10" stroke-linecap="round" stroke-linejoin="round"/>
<path d="M220.576 444.953L217.32 443.819" stroke="#0D62B1" stroke-width="3" stroke-miterlimit="10" stroke-linecap="round" stroke-linejoin="round"/>
<path d="M214.894 429.348C214.894 429.348 215.212 434.875 214.735 436.984C214.243 439.108 210.187 438.451 210.187 438.451L213.587 444.619C213.587 444.619 210.664 446.246 187.438 449.504C164.211 452.747 142.615 451.772 127.357 454.056C112.083 456.324 100.557 459.906 100.557 459.906" stroke="#0D62B1" stroke-width="3" stroke-miterlimit="10" stroke-linecap="round" stroke-linejoin="round"/>
<path d="M217.48 494.204C217.48 494.204 204.503 484.126 189.88 477.783C175.257 471.441 154.953 464.939 154.953 464.939" stroke="#0D62B1" stroke-width="3" stroke-miterlimit="10" stroke-linecap="round" stroke-linejoin="round"/>
<path d="M146.189 462.672C146.189 462.672 141.8 460.388 138.56 460.388C135.304 460.388 132.715 460.229 132.715 460.229" stroke="#0D62B1" stroke-width="3" stroke-miterlimit="10" stroke-linecap="round" stroke-linejoin="round"/>
<path d="M294.146 535.645C294.146 535.645 287.49 539.063 286.342 558.393C285.209 577.738 281.486 595.498 281.486 595.498" stroke="#0D62B1" stroke-width="3" stroke-miterlimit="10" stroke-linecap="round" stroke-linejoin="round"/>
<path d="M318.173 546.205C306.805 543.614 294.31 536.302 280.662 530.277C267.028 524.269 242.828 510.773 219.442 501.347C196.042 491.92 160.971 478.758 148.456 474.54C135.955 470.307 118.092 460.721 100.552 459.905C83.0115 459.09 69.0398 456.981 51.9917 463.964C34.9436 470.958 21.6179 476.49 14.1475 487.702C6.67708 498.914 1.64726 505.082 2.30354 515.166C2.94445 525.244 2.7855 540.853 19.8438 553.841C36.8919 566.844 53.7811 578.554 80.5812 581.479C107.366 584.403 179.327 588.298 216.679 590.905C254.031 593.507 274.319 594.322 292.198 596.755C310.061 599.197 308.59 597.412 318.347 600.988C328.083 604.565 330.688 604.729 342.05 605.047C353.417 605.381 362.513 603.754 369.332 604.888C376.162 606.022 385.247 609.44 390.61 611.39C395.973 613.339 408.966 618.548 419.836 615.941C430.721 613.339 436.243 607.49 439.165 599.038C442.088 590.587 445.01 572.709 437.217 564.083C429.429 555.473 413.339 550.598 400.521 551.414C387.688 552.23 382.007 549.305 369.491 548.971C356.991 548.653 354.884 547.837 344.655 548.812C334.421 549.787 333.288 548.812 326.458 548.812C319.639 548.812 318.173 546.205 318.173 546.205Z" stroke="#0D62B1" stroke-width="3" stroke-miterlimit="10" stroke-linecap="round" stroke-linejoin="round"/>
<path d="M355.203 558.947C355.203 558.947 337.022 553.374 331.341 552.548C325.644 551.732 321.107 550.583 318.174 559.763C315.251 568.943 314.616 577.625 315.093 583.198C315.585 588.771 313.8 591.388 319.481 592.855C325.162 594.646 346.282 595.955 346.282 595.955" stroke="#0D62B1" stroke-width="3" stroke-miterlimit="10" stroke-linecap="round" stroke-linejoin="round"/>
<path d="M334.421 554.18C334.421 554.18 329.217 550.603 325.484 557.597C321.746 564.581 319.803 569.948 319.48 579.211C319.147 588.478 316.209 592.126 319.48 592.855C322.736 593.599 328.417 594.394 328.417 594.394" stroke="#0D62B1" stroke-width="3" stroke-miterlimit="10" stroke-linecap="round" stroke-linejoin="round"/>
<path d="M319.883 601.538C319.883 601.538 321.903 597.899 325.641 597.407C329.378 596.924 332.137 596.75 332.137 596.75" stroke="#0D62B1" stroke-width="3" stroke-miterlimit="10" stroke-linecap="round" stroke-linejoin="round"/>
<path d="M311.352 598.874C311.352 598.874 312.485 595.949 316.715 595.139C320.929 594.323 323.939 593.697 323.939 593.697" stroke="#0D62B1" stroke-width="3" stroke-miterlimit="10" stroke-linecap="round" stroke-linejoin="round"/>
<path d="M356.018 560.999C356.018 560.999 360.073 581.479 363.647 588.478C367.221 595.462 369.492 600.331 369.492 600.331" stroke="#0D62B1" stroke-width="3" stroke-miterlimit="10" stroke-linecap="round" stroke-linejoin="round"/>
<path d="M365.596 561.333C365.596 561.333 368.359 573.187 372.425 580.822C376.481 588.473 379.403 597.899 379.403 597.899" stroke="#0D62B1" stroke-width="3" stroke-miterlimit="10" stroke-linecap="round" stroke-linejoin="round"/>
<path d="M362.195 565.392C362.195 565.392 363.487 570.759 365.118 575.634C366.743 580.509 368.04 584.901 368.04 584.901" stroke="#0D62B1" stroke-width="3" stroke-miterlimit="10" stroke-linecap="round" stroke-linejoin="round"/>
<path d="M377.135 570.585C377.135 570.585 375.884 570.775 373.223 573.843C370.577 576.912 370.736 576.07 370.736 576.07" stroke="#0D62B1" stroke-width="3" stroke-miterlimit="10" stroke-linecap="round" stroke-linejoin="round"/>
<path d="M360.102 582.644C360.102 582.644 358.985 584.896 356.57 587.806C354.17 590.715 353.663 591.033 352.806 592.506C351.95 593.989 350.438 596.273 350.438 596.273" stroke="#0D62B1" stroke-width="3" stroke-miterlimit="10" stroke-linecap="round" stroke-linejoin="round"/>
<path d="M365.973 593.071C365.973 593.071 364.65 594.133 363.645 595.775C362.63 597.401 361.117 599.382 361.117 599.382" stroke="#0D62B1" stroke-width="3" stroke-miterlimit="10" stroke-linecap="round" stroke-linejoin="round"/>
<path d="M376.788 590.541C376.788 590.541 376.455 590.992 378.634 587.503C380.797 583.998 380.567 583.926 381.582 582.603C382.587 581.279 382.858 580.627 382.858 580.627" stroke="#0D62B1" stroke-width="3" stroke-miterlimit="10" stroke-linecap="round" stroke-linejoin="round"/>
<path d="M377.266 561.03C377.266 561.03 377.543 566.587 379.142 570.862C380.727 575.136 381.772 577.507 382.629 580.273C383.485 583.023 384.254 584.347 385.813 587.267C387.366 590.176 387.951 591.454 388.997 593.086C390.043 594.718 390.479 595.852 390.479 595.852" stroke="#0D62B1" stroke-width="3" stroke-miterlimit="10" stroke-linecap="round" stroke-linejoin="round"/>
<path d="M382.09 565.351C382.09 565.351 382.977 568.815 384.023 571.211C385.069 573.628 386.161 575.952 386.74 576.999" stroke="#0D62B1" stroke-width="3" stroke-miterlimit="10" stroke-linecap="round" stroke-linejoin="round"/>
<path d="M360.263 555.678C358.637 555.283 358.197 554.498 357.689 555.447C357.181 556.376 356.422 557.849 357.72 558.547C358.996 559.245 362.006 560.102 364.929 559.593C366.046 559.096 360.263 555.678 360.263 555.678Z" stroke="#0D62B1" stroke-width="3" stroke-miterlimit="10" stroke-linecap="round" stroke-linejoin="round"/>
<path d="M388.18 560.604C388.18 560.604 390.359 566.351 392.179 572.068C394.009 577.784 395.055 578.949 396.568 582.644C398.08 586.323 399.475 588.314 400.141 590.064C400.798 591.808 400.911 593.291 400.998 593.599" stroke="#0D62B1" stroke-width="3" stroke-miterlimit="10" stroke-linecap="round" stroke-linejoin="round"/>
<path d="M397.264 600.752C397.264 600.752 398.54 600.593 400.725 599.459C402.888 598.34 404.678 597.129 404.678 597.129" stroke="#0D62B1" stroke-width="3" stroke-miterlimit="10" stroke-linecap="round" stroke-linejoin="round"/>
<path d="M406.393 589.042C406.393 589.042 406.464 587.765 406.787 585.014C407.095 582.248 407.049 582.946 407.167 580.853C407.285 578.744 407.633 575.993 407.633 575.993" stroke="#0D62B1" stroke-width="3" stroke-miterlimit="10" stroke-linecap="round" stroke-linejoin="round"/>
<path d="M406.899 574.249C406.899 574.249 407.555 573.972 406.043 571.411C404.53 568.835 403.864 567.834 402.659 566.901C401.469 565.972 400.29 564.997 398.865 564.135C397.424 563.278 397.152 563.016 397.152 563.016" stroke="#0D62B1" stroke-width="3" stroke-miterlimit="10" stroke-linecap="round" stroke-linejoin="round"/>
<path d="M212.202 590.602C212.202 590.602 207.639 592.655 201.286 596.888C194.934 601.122 193.831 606.068 179.921 608.583C166.011 611.112 164.601 615.141 154.023 608.48C143.43 601.835 140.708 597.191 139.503 593.353C138.298 589.515 138.893 585.178 138.893 585.178" stroke="#0D62B1" stroke-width="3" stroke-miterlimit="10" stroke-linecap="round" stroke-linejoin="round"/>
<path d="M396.291 463.313C396.291 463.313 395.317 467.054 404.254 466.253C413.175 465.437 417.728 463.652 417.728 463.652" stroke="#0D62B1" stroke-width="3" stroke-miterlimit="10" stroke-linecap="round" stroke-linejoin="round"/>
<path d="M415.124 449.504L414.807 461.04" stroke="#0D62B1" stroke-width="3" stroke-miterlimit="10" stroke-linecap="round" stroke-linejoin="round"/>
<path d="M404.094 448.037L406.042 455.672L406.201 461.855" stroke="#0D62B1" stroke-width="3" stroke-miterlimit="10" stroke-linecap="round" stroke-linejoin="round"/>
<path d="M447.293 475.341C447.293 475.341 472.468 470.964 484.327 469.815C496.171 468.681 496.33 466.079 510.302 468.198C524.268 470.307 528.006 471.6 528.006 471.6" stroke="#0D62B1" stroke-width="3" stroke-miterlimit="10" stroke-linecap="round" stroke-linejoin="round"/>
<path d="M433.641 451.618C433.641 451.618 433 459.254 440.953 460.229C448.915 461.204 460.441 458.936 471.491 459.254C482.535 459.572 504.454 460.562 517.128 463.965C529.787 467.382 537.258 469.491 545.702 476.152C554.147 482.812 557.562 483.628 560.817 488.021C564.058 492.413 577.707 511.743 577.865 525.244C578.024 538.729 576.399 553.682 566.821 564.258C557.244 574.818 547.333 582.295 522.814 588.955C498.296 595.616 478.807 598.382 465.651 598.715C452.484 599.033 439.168 599.033 439.168 599.033" stroke="#0D62B1" stroke-width="3" stroke-miterlimit="10" stroke-linecap="round" stroke-linejoin="round"/>
<path d="M267.023 524.274C267.023 524.274 284.23 518.748 302.75 512.898C321.265 507.038 389.795 492.419 406.043 488.503C422.276 484.603 464.832 477.784 481.229 476.809C497.637 475.834 505.922 475.182 505.922 475.182" stroke="#0D62B1" stroke-width="3" stroke-miterlimit="10" stroke-linecap="round" stroke-linejoin="round"/>
<path d="M311.034 512.082C311.034 512.082 311.193 525.244 311.193 528.487C311.193 531.746 309.727 541.331 309.727 541.331" stroke="#0D62B1" stroke-width="3" stroke-miterlimit="10" stroke-linecap="round" stroke-linejoin="round"/>
<path d="M508.814 475.905C509.86 475.905 519.223 474.463 534.569 479.41C549.914 484.356 558.359 488.79 558.359 488.79" stroke="#0D62B1" stroke-width="3" stroke-miterlimit="10" stroke-linecap="round" stroke-linejoin="round"/>
</svg>
