<svg width="22" height="13" viewBox="0 0 22 13" fill="none" xmlns="http://www.w3.org/2000/svg">
<path d="M21.0001 12.5076L18.0622 12.5453C18.0622 12.5453 17.4344 12.6708 16.5932 12.0933C15.4883 11.34 14.4588 9.38135 13.6427 9.63246C12.8266 9.89612 12.8517 11.6539 12.8517 11.6539C12.8517 11.6539 12.8517 12.0305 12.6759 12.2314C12.475 12.4574 12.0733 12.5076 12.0733 12.5076H10.7675C10.7675 12.5076 7.86724 12.6834 5.30595 10.0217C2.51867 7.1214 0.057824 1.3585 0.057824 1.3585C0.057824 1.3585 -0.0802846 0.981842 0.0703793 0.793512C0.246154 0.592627 0.710701 0.580071 0.710701 0.580071L3.84953 0.554961C3.84953 0.554961 4.15086 0.605182 4.35175 0.755846C4.54008 0.893954 4.64052 1.13251 4.64052 1.13251C4.64052 1.13251 5.14273 2.41315 5.82072 3.58079C7.13903 5.85331 7.74168 6.34297 8.19368 6.10441C8.84655 5.75287 8.64567 2.89025 8.64567 2.89025C8.64567 2.89025 8.65822 1.86071 8.31923 1.39617C8.05557 1.03206 7.56591 0.93162 7.33991 0.90651C7.16414 0.881399 7.45291 0.467073 7.82957 0.291299C8.39456 0.0150816 9.39899 -0.0100291 10.5792 0.00252623C11.4957 0.0150816 11.7594 0.0653028 12.1235 0.15319C13.2032 0.416852 12.8391 1.42128 12.8391 3.84446C12.8391 4.62289 12.701 5.7152 13.266 6.0793C13.5046 6.22997 14.0947 6.10441 15.5637 3.6059C16.2667 2.4257 16.7815 1.01951 16.7815 1.01951C16.7815 1.01951 16.8945 0.768401 17.0703 0.667958C17.2461 0.55496 17.4972 0.592627 17.4972 0.592627L20.8118 0.567516C20.8118 0.567516 21.8036 0.441963 21.9669 0.893954C22.1301 1.37106 21.5902 2.46337 20.2468 4.27134C18.0245 7.23439 17.7859 6.95818 19.619 8.6657C21.3768 10.2979 21.7409 11.1014 21.8036 11.1893C22.5319 12.4072 21.0001 12.5076 21.0001 12.5076Z" fill="#F65B47"/>
</svg>
