<?xml version="1.0" encoding="utf-8" ?>
<svg xmlns="http://www.w3.org/2000/svg" xmlns:xlink="http://www.w3.org/1999/xlink" width="71" height="71">
	<path fill="rgb(0,123,31)" stroke="none" d="M35.4999 70.9997C55.1059 70.9997 70.9997 55.1059 70.9997 35.4999C70.9997 15.8938 55.1059 0 35.4999 0C15.8938 0 0 15.8938 0 35.4999C0 55.1059 15.8938 70.9997 35.4999 70.9997Z"/>
	<path fill="rgb(255,205,168)" stroke="none" transform="translate(11.9541 29.9724)" d="M51.3126 27.6463C48.4668 31.2152 44.9473 34.2233 40.9452 36.4778C38.3486 37.9412 35.5508 39.0859 32.6034 39.8611L31.1196 39.8611C28.1608 39.8611 25.2484 39.1482 22.6257 37.7818L7.13176 29.7024L3.71946 27.826L0 25.7801L18.7642 24.9107C20.8841 24.9107 20.3581 19.7118 20.3581 17.5934L30.5024 0L43.1056 12.6032C44.8269 14.3245 46.173 16.3545 47.0874 18.5629C48.0018 20.7712 48.4856 23.1577 48.4856 25.5933L51.3126 27.6463Z"/>
	<path fill="rgb(234,183,150)" stroke="none" transform="translate(15.6738 57.7984)" d="M37.2258 8.65174C34.6291 10.1151 31.8313 11.2599 28.884 12.0351L27.4002 12.0351C24.4413 12.0351 21.5289 11.3221 18.9062 9.95581L3.4123 1.87637L0 0L21.7274 1.63882C21.7274 1.63882 25.9308 8.65188 37.2227 8.65188C37.2242 8.65174 37.2242 8.65174 37.2258 8.65174Z"/>
	<path fill="rgb(234,183,150)" stroke="none" transform="translate(5.07861 22.8781)" d="M6.94822 0.0116484L4.82682 0.0116484C4.72185 0.00513086 4.61701 0 4.5137 0C3.40114 0 2.29037 0.424752 1.44101 1.27412C-0.256058 2.97104 -0.256058 5.72229 1.44101 7.41936L3.83254 9.81256C2.89665 9.92253 1.99057 10.3355 1.2728 11.0533C-0.424267 12.7503 -0.424267 15.5032 1.2728 17.2003L2.52847 18.456C2.89166 18.819 3.30296 19.1055 3.74435 19.312C3.77319 19.2916 3.80328 19.274 3.83254 19.2546L3.83254 19.3501C3.80328 19.3371 3.77333 19.3257 3.74435 19.312C3.53274 19.4551 3.33125 19.6218 3.14321 19.81C1.44614 21.5086 1.44614 24.26 3.14321 25.957L4.39888 27.2128C4.53547 27.3478 4.67872 27.4724 4.82696 27.5859L4.82696 24.253L6.94836 24.253C6.94822 24.253 6.94822 0.0116484 6.94822 0.0116484Z"/>
	<path fill="rgb(255,222,81)" stroke="none" transform="translate(9.9043 0)" d="M28.7158 0L3.8383 0C1.71842 0 0 1.71704 0 3.83691L0 55.6016C0 57.7199 1.71842 59.437 3.8383 59.437L27.4972 59.437C25.4396 56.8882 28.868 53.5352 29.7982 50.5431L30.517 41.8594L31.0169 35.8273L32.5528 37.3646L32.5528 3.83691C32.5527 1.71704 30.8356 0 28.7158 0Z"/>
	<path fill="rgb(234,183,150)" stroke="none" transform="translate(42.457 29.9728)" d="M5.73533 10.8243L1.93017 7.01915L1.93017 1.93031L0 0L0 7.39107L4.58422 11.9753C5.09702 12.488 5.97371 12.1249 5.97371 11.3998C5.97357 11.1839 5.88787 10.9768 5.73533 10.8243Z"/>
	<path fill="rgb(0,123,31)" stroke="none" transform="translate(12.5942 10.9579)" d="M21.857 2.3258C21.9678 2.10421 22.0046 1.88275 22.0046 1.66115C22.0046 0.664377 21.0078 -0.00013865 20.1587 0C19.6049 0 19.088 0.258346 18.8296 0.775176L5.53828 27.6904C5.46437 27.875 5.39045 28.0964 5.39045 28.318C5.39045 29.0932 6.09199 29.9424 7.12579 29.9424C7.75328 29.9424 8.34403 29.6469 8.56562 29.1301L21.857 2.3258ZM0 11.5928L0 6.2394C0 2.769 2.28906 1.47658 5.27965 1.47658C8.23323 1.47658 10.5223 2.76872 10.5223 6.2394L10.5223 11.5928C10.5223 15.0634 8.23323 16.3557 5.27965 16.3557C2.28906 16.3557 0 15.0635 0 11.5928ZM7.38414 6.23926C7.38414 4.87321 6.5718 4.24558 5.27965 4.24558C3.98751 4.24558 3.21206 4.87307 3.21206 6.23926L3.21206 11.5927C3.21206 12.9587 3.98737 13.5865 5.27965 13.5865C6.57194 13.5865 7.38414 12.9589 7.38414 11.5927L7.38414 6.23926ZM16.6512 23.8136L16.6512 18.4601C16.6512 14.9896 18.9402 13.6973 21.9308 13.6973C24.8844 13.6973 27.1734 14.9895 27.1734 18.4601L27.1734 23.8136C27.1734 27.3211 24.8843 28.5764 21.9308 28.5764C18.9404 28.5763 16.6512 27.321 16.6512 23.8136ZM21.931 16.4663C23.2231 16.4663 24.0353 17.0941 24.0353 18.4601L24.0353 23.8136C24.0353 25.1799 23.2231 25.8074 21.931 25.8074C20.6385 25.8074 19.8634 25.1796 19.8634 23.8136L19.8634 18.4601C19.8634 17.0938 20.6387 16.4663 21.931 16.4663Z" fill-rule="evenodd"/>
	<path fill="rgb(255,255,255)" stroke="none" transform="translate(28.2729 30.0031)" d="M5.26995 0L5.26995 0.417264L3.39275 0.417264L3.39275 0.190812C2.6668 0.413936 1.98329 0.812756 1.40877 1.38713C1.16637 1.62953 0.955033 1.89135 0.775314 2.16758L0.775314 2.67498L0.487432 2.67498C0.162385 3.33922 0 4.06295 0 4.78792C0 6.01864 0.469682 7.24949 1.40891 8.18885L6.94802 13.7278C8.40185 15.1817 8.82827 17.4001 7.94229 19.2554C7.74233 19.6735 7.57426 20.1048 7.43933 20.541L3.18918 20.541L3.18918 20.5412L7.43891 20.5412C6.50912 23.5323 7.07088 26.8853 9.12807 29.4339L9.94319 29.4339C12.2745 29.4339 14.1666 27.5527 14.1841 25.2255L14.1841 7.36112L12.6476 5.82505L9.76638 2.94359L9.76638 4.59032L7.88918 4.59032L7.88918 2.71311L9.53591 2.71311L8.21007 1.38727C7.38899 0.564811 6.34354 0.102479 5.26995 0"/>
	<path fill="rgb(234,196,32)" stroke="none" transform="translate(25.665 29.9811)" d="M14.0375 20.5621C13.1073 23.5542 9.67902 26.9072 11.7365 29.456L9.12835 29.456C7.07074 26.9058 6.50856 23.5542 7.43891 20.5621C7.5737 20.126 7.74177 19.6956 7.94174 19.2769C8.82854 17.4222 8.40102 15.2038 6.94774 13.749L1.40835 8.21104C0.469404 7.2707 0 6.04041 0 4.81025C0 3.57718 0.469404 2.34841 1.40835 1.40946C3.28763 -0.46982 6.33342 -0.46982 8.20979 1.40946L12.648 5.84765L14.1839 7.38206L14.7562 11.8782L14.0375 20.5621Z"/>
	<path fill="rgb(51,48,48)" stroke="none" transform="translate(29.2451 29.9815)" d="M9.06775 5.84726L7.384 4.1635L7.384 4.78947C7.384 6.1558 6.57263 6.78329 5.28007 6.78329C3.98751 6.78329 3.21233 6.15594 3.21233 4.78947L3.21233 0.426572C2.201 -0.0313225 1.06209 -0.121182 0 0.159906L0 4.78933C0 8.29731 2.28933 9.55215 5.28007 9.55215C7.52739 9.55215 9.39086 8.82482 10.153 6.93098L9.06775 5.84726Z"/>
	<path fill="rgb(0,123,31)" stroke="none" transform="translate(29.2451 29.9817)" d="M10.153 6.93098C9.39086 8.82482 7.52739 9.55215 5.28007 9.55215C2.28933 9.55215 0 8.29731 0 4.78933L0 0.159906C1.06209 -0.121182 2.201 -0.0313225 3.21233 0.426572L3.21233 4.78947C3.21233 6.1558 3.98751 6.78329 5.28007 6.78329C6.57249 6.78329 7.384 6.15594 7.384 4.78947L7.384 4.1635L9.06775 5.84726L10.153 6.93098Z"/>
	<path fill="rgb(255,205,168)" stroke="none" transform="translate(28.2729 29.9812)" d="M12.6487 5.84717L8.21049 1.40884C6.33356 -0.469612 3.28763 -0.469612 1.40905 1.40884C0.46982 2.3482 0 3.57725 0 4.80963C0 6.04034 0.469682 7.27105 1.40905 8.21041L6.94815 13.7495C8.40199 15.2034 8.82841 17.4217 7.94243 19.277C7.74261 19.6951 7.5744 20.1264 7.43947 20.5626C6.50856 23.5538 7.07143 26.9062 9.12822 29.4559L10.9946 31.4948C13.1146 31.4948 16.6456 28.8316 16.6456 26.7131L14.1843 7.38282L12.6487 5.84717Z"/>
	<path fill="rgb(242,229,229)" stroke="none" transform="translate(30.4482 31.9919)" d="M4.95246 0.849712C3.81951 -0.283237 1.98266 -0.283237 0.849712 0.849712C-0.283237 1.98266 -0.283237 3.81951 0.849712 4.95246C1.98266 6.08541 2.96099 5.22675 4.09394 4.0938C5.22675 2.96099 6.08541 1.98266 4.95246 0.849712Z"/>

</svg>