<svg width="1600" height="896" viewBox="0 0 1600 896" fill="none" xmlns="http://www.w3.org/2000/svg">
<!--<g clip-path="url(#clip0)">-->
<!--<g clip-path="url(#clip1)">-->
<!--<path fill-rule="evenodd" clip-rule="evenodd" d="M750 72.8026L738.222 52.2237L736.541 51.1746L742.21 51.0468L754.534 55.9123L758.697 69.7485L764.859 73.5497L767.524 80.3918L772.187 79.7836L782.013 86.0175L789.84 91.0351L799 103.807L791.339 89.8187L782.013 83.7368L772.853 75.0702L768.69 70.3567L762.861 66.2515L756.954 56.2365L776.517 37.0585L781.68 39.1871L784.511 35.6901L792.172 37.0585L794.337 39.4912L793.005 36.7544L784.344 34.7778L789.174 26.8714L781.68 37.0585L776.517 35.8421L757.531 52.8714L754.873 53.95L742.543 48.462H732.194L723.884 43.2763L709.801 30.5263L703.4 23.5921L694.439 17.5526L685.358 2.81914L715.434 -25.3947L723.372 -22.2632L727.724 -27.4079L739.502 -25.3947L742.831 -21.8158L740.783 -25.8421L727.468 -28.75L734.893 -40.3816L723.372 -25.3947L715.434 -27.1842L686.246 -2.13158L682.159 -0.544815L676.512 -2.94984L676.426 -3.38596L691.748 -6.88304L686.085 -17.0702L687.917 -8.85965L673.262 -5.05847L672.826 -4.51973L663.202 -8.61842H649.667L644.617 -12.2047V-15.5497L640.12 -18.1345L635.624 -18.8947L630.96 -26.193L624.132 -28.7778L617.637 -35.7719H614.972L611.642 -41.2456L609.976 -49L608.977 -41.2456L613.973 -33.9474L605.813 -30.2982L616.471 -32.5789L624.132 -25.2807H629.628L634.458 -18.1345L640.953 -15.5497L641.952 -10.076L644.644 -8.61842H633.757L601.752 0.105255L585.109 -4.36842L579.22 -14.2105L556.688 -26.9605L570.002 -43.7368L561.553 -84.8947L585.109 -90.0395L576.403 -105.026L579.22 -92.9474L556.688 -87.3553L552.335 -82.2105L552.512 -81.7194L543.374 -80.6447L524.171 -90.0395L512.649 -97.8684V-102.789L505.736 -106.592L498.823 -107.711L491.653 -118.447L481.156 -122.25L471.17 -132.539H467.073L461.952 -140.592L459.392 -152L457.856 -140.592L465.537 -129.855L452.991 -124.487L469.378 -127.842L481.156 -117.105H489.605L497.03 -106.592L507.016 -102.789L508.552 -94.7368L530.572 -83.329L541.838 -77.0658L553.664 -78.5187L565.138 -46.6447L552.335 -26.9605L572.051 -10.6316L579.22 3.90788H584.405L570.002 16.6579V22.6974L561.297 28.5132L560.273 37.4605L551.98 44.5287L516.745 55.3553L517.77 66.7631L504.199 80.6316V88.6842L490.629 94.0526L477.571 90.4737L460.672 88.6842L452.223 94.0526L407.159 92.0395L396.15 96.7368H379.507L349.55 107.474L341.1 83.5395L347.758 57.8158L353.134 44.8421L365.168 41.4868H379.507L397.174 34.7763L377.202 39.6974L356.207 36.7895L337.516 29.1842L343.405 24.0395V17.3289L345.453 6.5921L341.1 -2.57895L343.405 8.38158L340.076 15.0921V24.0395L332.651 30.75L351.086 44.8421L340.076 65.6447L334.187 83.5395L340.076 125.145L320.462 141.474H263.776L249.949 138.118L241.756 134.763L223.065 138.118L218.2 142.816L207.702 144.382V109.487L214.872 103.671L217.176 93.1579L231.77 89.8026L240.22 76.6053L231.77 71.2368L228.954 61.6184L235.611 57.8158L225.881 61.6184L228.954 71.2368L233.051 77.9474L225.881 88.0131L212.055 93.1579V98.9737L200.533 107.25V143.263L183.891 148.184L180.562 162.053L170.064 166.303L169.689 167.287L159.222 157.606H164.239L171.175 142.908L190.251 126.402L177.864 106.503L188.965 74.2817L200.408 75.7505L211.308 69.4191L232.613 57.8869L234.1 49.7466L243.761 45.9025L250.946 35.2749H259.121L270.517 24.4211L286.372 27.8129L274.233 22.386L281.665 11.5322L280.178 0L277.701 11.5322L272.746 19.6725H268.783L259.121 30.0741L248.964 33.9181L242.027 44.7719L235.338 45.9025L228.65 49.7466V54.7213L217.502 62.6355L198.922 72.1326L190.08 71.0462L190.251 70.5497L186.039 65.3489L164.239 59.6959L166.964 47.4854L158.541 62.6355L181.332 67.8363L173.157 109.443L186.039 126.402L164.239 139.29L158.541 149.24L142.438 153.762L115.361 146.051L113.991 142.816L116.807 138.118L112.711 132.75L113.991 121.789L104.261 118.434L101.189 113.066V118.434L111.431 123.803L110.15 130.961L111.431 138.118L110.15 142.816L110.36 144.943H82.9819L64.64 153.105L60.6859 151.501L32.4442 126.175L24.7645 127.984L13.6164 112.834L20.8007 124.593L7.91846 127.532L5.93658 131.602L9.15717 127.984L20.5529 125.949L24.7645 131.15L32.4442 127.984L61.5447 156.506L52.7584 171.4L44.0876 177.505L37.8943 184.515L24.269 197.404L10.3958 206.448L-1 227.251L12.6254 208.257L24.269 200.795L38.8853 191.524L45.8218 192.429L49.7856 182.253L58.9517 176.6L65.1451 156.023L83.4774 148.788L103.544 149.24L110.984 151.266L111.431 155.789H113.991V159.145L106.822 164.737L96.324 174.803L72 180.395L96.324 177.039L106.822 168.092H118.856L127.049 177.039L145.484 178.605L154.702 183.75L161.359 194.487L147.276 210.592L142.924 217.079L148.557 219.763L138.571 226.921L147.276 228.934L150.093 237.882L151.117 231.395L154.702 226.921L150.093 215.289L167.504 196.724L163.663 191.579L164.687 184.645L169.436 182.669L177.864 189.263V200.117L187.769 205.283L177.864 218.433V230.869L166.716 245.115V252.158L150.093 246.605L151.117 241.237L142.924 243.026L134.218 245.039L121.16 259.803L110.918 266.289L108.614 273.224L103.749 276.579L96.5801 283.289L90.435 287.763L94.2757 307L93.2515 291.789L98.8844 283.289L108.614 278.145L118.088 270.539L131.914 266.289L138.571 256.447L148.557 250.408L161.359 256.447L166.716 261.128V270.667L176.873 286.495L170.432 313.177V318.152L162.752 332.624L169.441 337.598L172.662 345.06V350.261L176.873 354.105L166.716 362.924L165.23 370.16L161.018 372.421L159.036 378.3L162.752 388.702L161.018 380.109L166.716 373.326L170.432 370.16L169.441 364.733L181.332 354.105L176.873 348.678L178.607 344.156L175.634 337.598L171.671 330.136L176.873 318.152L175.634 308.429L181.332 284.46L169.193 272.702L170.008 264.003L170.064 264.053L178.514 268.974L184.659 275.684V285.75L191.316 303.868L186.963 283.289V267.855L178.514 264.947V259.803L171.857 256.447L170.806 255.476L171.671 246.246L184.305 230.869V222.277L194.019 211.721L217.254 217.754L222.704 224.312L219.483 230.869L231.375 246.246L234.595 257.326L246.982 260.039L275.471 255.517L282.656 260.039L320.807 255.517L328.982 260.039L348.305 259.134L380.758 265.014L384.97 272.928L376.547 285.365L347.314 293.279L346.323 315.665L340.13 324.031L348.305 329.684L342.607 324.031L348.305 315.665L351.526 294.409L377.538 290.339L403.054 308.429L411.973 321.544L425.598 329.684L429.314 348.904L455.326 373.552L457.556 392.546L465.979 379.205L480.843 374.682H463.997L454.335 358.854L440.958 348.904L439.719 339.634L432.287 325.84L416.68 310.012V304.246H476.136L480.843 298.48L492.239 294.635L506.112 298.48L513.544 304.246H520.728L528.408 311.142H544.511L549.961 325.84L557.393 332.624L560.118 338.051L565.32 340.312L566.311 347.322L562.595 352.522L579.441 371.29L574.982 383.049L578.45 387.571L579.441 394.129L582.166 385.084L590.589 383.049L580.928 375.813L586.378 373.099L582.166 366.542L568.541 350.261L574.982 339.407L583.9 334.207L601.737 332.624L609.665 323.579H621.308L631.465 332.624L655 336.016L631.465 330.363L621.308 320.187L614.372 314.534V311.142H616.849L618.088 298.027L617.397 295.38L622.815 292.386L628.977 287.216L637.971 284.327L642.301 277.637L648.796 273.532L657.123 277.637L662.785 282.807L668.281 286.152L672.278 290.713V297.556L676.608 309.871L673.777 295.883V285.392L668.281 283.415V279.918L663.951 277.637L661.12 274.901L649.795 270.947L650.461 267.298L645.132 268.515L639.469 269.883L630.976 279.918L624.314 284.327L622.815 289.041L619.651 291.322L617.012 293.903L616.849 293.279L618.088 286.043L616.849 278.807L626.758 273.38V267.953L623.786 273.38L614.372 276.772L615.61 287.852L611.647 293.279L613.702 296.861L610.991 298.924L611.958 303.984L607.683 314.534L614.372 318.378L607.683 320.187L594.801 329.006H580.928L573.248 330.363V336.016H568.541L561.604 325.84L560.118 321.77L549.961 317.474L546.74 303.454L530.638 298.48V262.074L519.49 253.708V247.828L506.112 242.628L499.175 232.452L503.139 225.669L506.112 215.945L496.698 212.101L503.139 215.945L500.414 225.669L492.239 231.096L500.414 244.437L514.535 247.828L516.764 258.456L523.701 264.335V299.61L513.544 298.027L508.837 293.279L490.752 289.887L482.825 293.279L469.447 296.671H414.6L395.622 280.164L401.32 238.105L399.308 231.716L401.301 228.637L407.796 224.532L416.123 228.637L421.785 233.807L427.281 237.152L431.278 241.713V248.556L435.608 260.871L432.777 246.883V236.392L427.281 234.415V230.918L422.951 228.637L420.12 225.901L408.795 221.947L409.461 218.298L404.132 219.515L398.469 220.883L396.594 223.099L395.622 220.016L384.97 198.986L402.807 184.741L395.622 177.957V174.822L405.797 175.725L411.793 179.222L416.123 186.52L406.963 197.468L404.132 201.877L407.796 203.702L401.301 208.567L406.963 209.936L408.795 216.018L409.461 211.608L411.793 208.567L408.795 200.661L420.12 188.041L417.622 184.544L418.288 179.83L421.785 178.31L423.617 174.661L428.613 170.099L432.277 160.216H443.102L448.265 155.579H453.095L458.091 151.702L467.417 149.117L475.078 151.702L478.242 155.579H518.212V159.456L507.72 170.099L502.724 179.374L501.891 185.608L492.898 192.298L486.403 202.942H475.078L485.071 205.982L490.733 214.953L492.232 202.181L509.719 185.608L512.217 172.684L521.377 167.211L527.372 158.392L544.526 146.228L562.013 148.965L564.178 163.257L568.008 168.883L564.178 172.684L569.127 169.261L571.539 174.579L567.442 181.96L564.369 188.447L566.162 192.921L561.553 198.289L573.843 208.803L572.819 214.171L576.659 217.303L582.548 224.013L580.756 232.513L584.597 222.224L582.548 216.408L578.196 214.171L576.659 207.013L566.162 198.289L570.514 194.487V189.342L573.843 181.96L580.756 177.039L572.819 162.724V157.803L566.162 131.408L570.107 125.523L577.168 125.854L582.664 122.813L608.311 125.854L613.141 122.813L632.293 125.854L640.62 124.029L642.785 116.579L650.779 106.24L648.614 101.83L652.278 97.4211L667.897 93.3643L674.427 100.462V106.24L682.921 116.579L684.587 134.368L676.426 142.275L680.256 158.392L679.424 164.93L682.921 172.988L680.256 178.006L678.258 182.415L679.424 185.456L676.426 189.105L682.604 194.628V200.702L671.778 204.047L669.613 213.474L662.785 216.363L661.786 219.099L657.123 225.942H653.958V222.14L648.796 221.228H639.469L630.809 215.298L626.313 214.082L630.809 211.497L626.313 200.398L628.145 197.205L625.48 193.556L626.313 186.105L624.763 185.547L627.13 184.544L628.129 159.456L624.632 183.023L622.108 184.59L619.984 183.825L617.986 180.175V183.825L620.831 185.383L620.468 185.608L617.637 193.971L610.975 199.901L608.311 204.462L602.648 216.474L603.664 224.821L599 225.942L603.718 225.261L604.314 230.158V225.176L614.821 223.661L621.65 217.579H629.477L634.806 223.661L646.797 224.725L652.793 228.222L657.123 235.52L647.963 246.468L645.132 250.877L648.796 252.702L642.301 257.567L647.963 258.936L649.795 265.018L650.461 260.608L652.793 257.567L649.795 249.661L661.12 237.041L658.622 233.544L659.288 228.83L662.785 227.31L664.617 223.661L669.613 219.099L673.277 209.216H684.102L688.768 205.026L690.082 206.591L688.917 212.368L691.415 205.374L691.147 204.579H694.095L699.091 200.702L708.417 198.117L716.078 200.702L719.242 204.579H759.212V208.456L748.72 219.099L743.724 228.374L742.891 234.608L733.898 241.298L727.403 251.942H716.078L726.071 254.982L731.733 263.953L733.232 251.181L750.719 234.608L753.217 221.684L762.377 216.211L768.372 207.392L785.526 195.228L803.013 197.965L805.178 212.257L809.008 217.883L805.178 221.684L810.673 217.883L806.51 212.257L805.844 197.205L786.192 191.883L780.53 183.52L783.361 178.199L805.178 174.246L818.168 174.854L823.664 171.813L849.311 174.854L854.141 171.813L873.293 174.854L881.62 173.029L883.785 165.579L891.779 155.24L889.614 150.83L893.278 146.421L908.897 142.364L915.427 149.462V155.24L923.921 165.579L925.587 183.368L917.426 191.275L921.256 207.392L920.424 213.93L923.921 221.988L921.256 227.006L919.258 231.415L920.424 234.456L917.426 238.105L925.42 245.251L924.754 248.901L927.252 251.029L931.082 255.591L929.917 261.368L932.415 254.374L931.082 250.421L928.251 248.901L927.252 244.035L920.424 238.105L923.255 235.52V232.023L925.42 227.006L929.917 223.661L924.754 213.93V210.585L920.424 192.643L927.252 182V164.819L919.758 155.24V146.877L913.099 138.035L919.758 134.561V127.263L925.587 122.702V118.749L928.917 115.556L930.583 112.211L938.549 105.977H949.069L969.72 100.351L983.21 100.047L995.534 104.912L999.697 118.749L1005.86 122.55L1008.52 129.392L1013.19 128.784L1023.01 135.018L1030.84 140.035L1040 152.807L1032.34 138.819L1023.01 132.737L1013.85 124.07L1009.69 119.357L1003.86 115.251L997.954 105.237L1017.52 86.0585L1022.68 88.1871L1025.51 84.6901L1033.17 86.0585L1035.34 88.4912L1034 85.7544L1025.34 83.7778L1030.17 75.8714L1022.68 86.0585L1017.52 84.8421L998.531 101.871L995.873 102.95L983.543 97.462H964.391L943.573 103.392L932.748 100.351L928.917 93.6608L914.262 84.9942L922.922 73.5906L917.426 45.614L932.748 42.117L927.085 31.9298L928.917 40.1404L914.262 43.9415L911.431 47.4386L911.546 47.7724L905.602 48.5029L893.111 42.117L885.617 36.7953V33.4503L881.12 30.8655L876.624 30.1053L871.96 22.807L865.132 20.2222L858.637 13.2281H855.972L852.642 7.75438L850.976 0L849.977 7.75438L854.973 15.0526L846.813 18.7018L857.471 16.4211L865.132 23.7193H870.628L875.458 30.8655L881.953 33.4503L882.952 38.924L897.275 46.6784L904.602 50.9357L912.295 49.9481L919.758 71.614L911.431 84.9942L924.254 96.0936L928.917 105.977H932.29L922.922 114.643V118.749L917.26 122.702L916.593 128.784L911.199 133.588L888.281 140.947L888.948 148.702L880.121 158.129V163.602L871.294 167.251L862.801 164.819L851.809 163.602L846.313 167.251L817.002 165.883L809.841 169.076H799.016L779.53 176.374L774.034 160.105L778.365 142.62L781.862 133.801L789.689 131.52H799.016L810.507 126.959L797.517 130.304L783.86 128.327L771.703 123.158L775.533 119.661V115.099L776.866 107.801L774.034 101.567L775.533 109.018L773.368 113.579V119.661L768.539 124.222L780.53 133.801L773.368 147.942L769.538 160.105L773.368 188.386L760.61 199.485H723.739L714.746 197.205L709.417 194.924L697.259 197.205L694.095 200.398L689.508 201.113L687.267 199.909V177.743L691.93 173.789L693.429 166.643L702.922 164.363L708.417 155.392L702.922 151.743L701.09 145.205L705.42 142.62L699.091 145.205L701.09 151.743L703.754 156.304L699.091 163.146L690.098 166.643V170.596L687.711 172.388L683.754 164.93V161.585L679.424 143.643L686.252 133V115.819L678.758 106.24V97.8772L672.099 89.0351L678.758 85.5614V78.2632L684.587 73.7018V69.7485L687.917 66.5556L689.583 63.2105L697.549 56.9766H708.069L728.72 51.3509L731.476 51.2888L735.918 54.0132L750 72.8026ZM723.884 46.6316L726.868 48.462H723.391L702.573 54.3918L691.748 51.3509L687.917 44.6608L673.262 35.9942L681.922 24.5906L677.224 0.674957L681.637 2.3421L688.038 22.6974L697.511 28.2895L701.608 38.3553L708.777 37.4605L723.884 46.6316ZM662.69 -4.8158L670.635 -1.81412L670.431 -1.5614L670.546 -1.22758L664.602 -0.49707L656.419 -4.68053L662.69 -4.8158ZM656.275 -2.32164L652.09 -4.58716L641.95 -4.36842L610.201 3.90788H594.028L581.78 13.0789L579.22 18L574.099 22.6974V28.5132L565.138 35.2237V45.9605L554.901 51.0708L565.138 64.0789V76.3816L566.963 78.6142L569.507 77.9591L567.182 78.882L576.659 90.4737V115.75L575.856 116.948L576.002 116.883L605.313 118.251L610.809 114.602L621.801 115.819L630.294 118.251L639.121 114.602V109.129L647.948 99.7018L647.281 91.9474L670.199 84.5881L675.593 79.7836L676.26 73.7018L681.922 69.7485V65.6433L691.29 56.9766H687.917L683.254 47.0936L670.431 35.9942L678.758 22.614L671.295 0.948059L663.602 1.93567L656.275 -2.32164ZM558.48 76.3816L561.586 79.9988L556.517 81.3041L542.86 79.3275L530.703 74.1579L534.533 70.6608V66.0994L535.528 60.6488L548.44 57.4398L558.48 67.8816V76.3816ZM558.016 82.5205L562.293 80.8226L571.539 91.5921L574.096 117.733L568.841 120.076H558.016L538.53 127.374L533.034 111.105L537.365 93.6199L540.862 84.8012L548.689 82.5205H558.016ZM564.178 125.246L565.939 125.328L561.553 129.395L567.442 153.105L566.162 162.724L567.818 166.377L565.51 163.257L564.844 148.205L545.192 142.883L539.53 134.52L542.361 129.199L564.178 125.246ZM532.368 64.5789L534.06 61.0136L524.427 63.4079L518.794 69.8947L522.122 76.3816L509.832 91.5921L506.504 102.553L493.702 105.237L464.257 100.763L461.784 102.253L461.922 102.743L467.417 106.392L461.922 115.363L452.429 117.643L450.93 124.789L446.267 128.743V152.462L453.095 151.398L456.259 148.205L468.417 145.924L473.746 148.205L482.739 150.485H519.61L532.368 139.386L528.538 111.105L532.368 98.9415L539.53 84.8012L527.539 75.2222L532.368 70.6608V64.5789ZM456.832 105.237L460.319 103.136L462.754 107.304L458.091 114.146L449.098 117.643V121.596L441.604 127.222V151.702L430.778 155.047L428.613 164.474L421.785 167.363L420.786 170.099L416.123 176.942H412.959V173.14L407.796 172.228H398.469L395.622 170.279V169.736L397.43 168.539L392.416 162.057L394.631 151.049L390.975 159.098L390.005 138.118L383.312 136.384L378.984 134.825L376.986 131.175V134.745L359.792 130.289L351.086 117.987L355.439 110.158L388.98 104.342L408.952 105.237L417.401 100.763L456.832 105.237ZM390.903 162.965L391.755 167.63L389.809 166.298L385.313 165.082L389.809 162.497L385.313 151.398L387.087 148.305L388.98 160.263L390.903 162.965ZM385.652 139.237L387.051 148.077L384.48 144.556L385.084 139.152L385.652 139.237ZM358.767 135.211L383.57 138.925L382.815 143.339L383.647 148.205L382.815 151.398L383.647 160.216H385.313V162.497L380.65 166.298L373.821 173.14L358 176.942L373.821 174.661L380.65 168.579H388.477L391.361 171.871L388.98 174.132L391.741 172.304L392.402 173.058V177.957L398.1 183.158L380.015 190.846L359.701 193.786L340.378 188.811L357.471 195.595H371.344L382.988 198.986L388.19 212.101L392.2 228.29L389.976 230.918L383.314 235.327L381.815 240.041L378.651 242.322L373.988 246.883L369.991 249.924L371.269 256.613L357.471 251.446H341.369L330.716 246.698L287.115 248.733L278.94 243.306L262.589 245.115L249.955 248.733L236.825 243.306V235.166L223.695 221.146L224.686 209.614L190.595 198.67L182.571 191.524L181.58 182.48L173.283 176.688L180.562 170.329L186.195 155.789H202.838L210.775 148.967H218.2L225.881 143.263L240.22 139.461L251.998 143.263L256.863 148.967H318.313V154.671L302.182 170.329L294.501 183.974L293.221 193.145L279.394 202.987L269.409 218.645H251.998L267.36 223.118L276.066 236.316L278.37 217.526L305.255 193.145L309.095 174.132L323.177 166.079L332.395 153.105L358.767 135.211ZM387.977 238.216L394.167 236.228L394.631 238.105L386.456 262.3L372.098 256.923L371.823 252.661L375.487 246.883L381.815 243.386L387.977 238.216ZM682.604 182.216V191.867L679.424 189.105L682.255 186.52V183.023L682.604 182.216ZM622.467 186.52L622.715 186.415L624.647 187.474L623.815 192.339L624.647 197.205L623.815 200.398L624.647 209.216H626.313V211.497L621.65 215.298L614.821 222.14L604.314 224.665V218.906L610.975 206.591L612.141 202.029L620.468 193.971L622.467 186.52ZM612.823 301.661L613.034 301.327L612.833 301.823L612.823 301.661ZM166.143 173.677L164.239 171.852L161.761 166.877L149.911 157.606H134.263L118.427 153.293L120.904 159.145L113.991 162.947L120.904 164.737L134.218 173.461H148.557L156.494 174.803V180.395H161.359L166.143 173.677ZM1576.9 398.659L1599 438.83L1572.58 402.152L1550 387.743L1521.66 369.84L1508.21 371.587L1500.53 351.938L1482.75 341.021L1470.74 301.287L1435.2 287.314L1396.29 288.187L1336.72 304.343H1306.38L1283.4 322.246L1278.6 331.852L1268.99 341.021V352.374L1252.18 365.474V386.433L1232.97 396.408L1252.18 421.801V445.817L1273.79 473.326V522.667L1254.1 553.232L1266.59 604.756V614.363L1281.48 642.308L1268.51 651.914L1267.66 653.885L1276.31 654.289L1285.49 648.195L1303.86 650.226L1318.06 654.289L1332.81 648.195V639.055L1347.56 623.313L1346.45 610.364L1384.75 598.075L1393.76 590.052L1394.88 579.896L1404.34 573.295V566.44L1419.99 551.967H1414.36L1406.57 535.464L1385.13 516.929L1399.05 494.586L1386.58 458.407L1373.72 460.056L1361.48 452.947L1337.54 439.998L1335.87 430.858L1325.02 426.541L1316.95 414.608H1307.76L1294.96 402.421L1277.15 406.23L1290.78 400.136L1282.43 387.949L1284.1 375L1286.89 387.949L1292.45 397.089H1296.91L1307.76 408.768L1319.17 413.085L1326.96 425.272L1334.48 426.541L1341.99 430.858V436.443L1354.52 445.33L1375.39 455.994L1385.33 454.774L1385.13 454.216L1389.87 448.377L1414.36 442.029L1411.3 428.319L1420.76 445.33L1395.15 451.17L1404.34 497.887L1389.87 516.929L1414.36 531.402L1420.76 542.573L1438.85 547.651L1473.64 537.749H1505.65L1526.26 546.913L1530.7 545.112L1534.16 542.006L1533.65 539.583L1534.61 541.603L1562.43 516.675L1571.05 518.707L1583.58 501.695L1575.51 514.898L1589.98 518.199L1592.21 522.769L1588.59 518.707L1575.79 516.422L1571.05 522.261L1562.43 518.707L1536.02 544.572L1543.08 559.443L1541.32 568.663L1549.35 574.31L1556.3 582.181L1571.61 596.654L1587.2 606.809L1599.6 629.443L1611.82 631.135L1655.06 620.479L1616.81 635.011H1585.77L1559.71 642.277L1548.07 670.372L1533.65 726.079L1551.95 777.91L1616.81 754.659H1652.85L1676.68 744.486L1774.26 748.846L1792.55 737.22L1829.14 741.096L1857.41 748.846L1886.79 737.22V719.782L1916.18 689.749L1913.96 665.044L1990.25 641.598L2008.2 626.291L2010.42 606.915L2029.27 594.321V581.242L2060.45 553.631H2049.23L2033.71 522.144L1991.02 486.783L2018.74 444.155L1993.9 375.129L1968.29 378.276L1943.9 364.712L1896.22 340.008L1892.89 322.569L1871.27 314.334L1855.19 291.567H1836.9L1811.4 268.316L1775.92 275.582L1803.08 263.956L1786.45 240.705L1789.78 216L1795.32 240.705L1806.41 258.143H1815.28L1836.9 280.426L1859.63 288.661L1875.15 311.912L1890.12 314.334L1905.09 322.569V333.226L1930.04 350.18L1971.61 370.525L1991.4 368.198L1991.02 367.135L2000.44 355.993L2049.23 343.883L2043.13 317.725L2061.98 350.18L2010.98 361.322L2029.27 450.452L2000.44 486.783L2049.23 514.394L2061.98 535.708L2098.01 545.396L2167.31 526.504H2231.06L2272.11 543.988L2280.96 540.552L2344.16 486.298L2361.34 490.173L2386.29 457.718L2370.21 482.907L2399.04 489.205L2403.48 497.924L2396.27 490.173L2370.77 485.814L2361.34 496.955L2344.16 490.173L2279.04 551.273L2298.7 583.179L2318.1 596.258L2331.96 611.275L2362.45 638.886L2393.5 658.262L2419 702.827L2388.51 662.137L2362.45 646.152L2329.74 626.291L2314.22 628.229L2305.35 606.431L2284.84 594.321L2270.98 550.24L2229.96 534.739L2185.05 535.708L2116.31 553.631H2081.29L2054.77 573.491L2049.23 584.148L2038.14 594.321V606.915L2018.74 621.447V644.699L1996.57 655.766L2018.74 683.936V710.578L2043.68 741.096V795.833L2020.95 829.742L2035.37 886.902V897.558L2052.55 928.56L2037.59 939.217L2030.38 955.203V966.344L2020.95 974.579L2043.68 993.471L2047.01 1008.97L2056.44 1013.82L2060.87 1026.41L2052.55 1048.69L2056.44 1030.29L2043.68 1015.75L2035.37 1008.97L2037.59 997.346L2010.98 974.579L2020.95 962.953L2017.07 953.265L2023.73 939.217L2032.6 923.232L2020.95 897.558L2023.73 876.729L2010.98 825.382L2038.14 800.193L2032.6 743.518L2004.32 710.578V692.171L1982.58 669.558L1930.59 682.482L1918.39 696.53L1925.6 710.578L1898.99 743.518L1891.78 767.253L1864.06 773.066L1800.31 763.378L1784.23 773.066L1698.86 763.378L1680.56 773.066L1637.32 771.129L1564.7 783.723L1555.27 800.677L1574.12 827.32L1639.54 844.274L1641.76 892.23L1655.62 910.153L1637.32 922.263L1650.07 910.153L1637.32 892.23L1630.12 846.696L1571.91 837.977L1514.81 876.729L1494.85 904.825L1464.36 922.263L1456.04 963.438L1397.83 1016.24L1392.84 1056.93L1373.99 1028.35L1340.73 1018.66H1378.43L1400.05 984.751L1429.98 963.438L1432.76 943.577L1449.39 914.028L1484.31 880.12V867.768H1351.26L1340.73 855.415L1315.23 847.18L1284.18 855.415L1267.55 867.768H1251.47L1234.29 882.542H1198.25L1186.06 914.028L1169.43 928.56L1163.33 940.186L1151.69 945.03L1149.47 960.047L1157.78 971.188L1120.09 1011.39L1130.06 1036.58L1122.3 1046.27L1120.09 1060.32L1113.99 1040.94L1095.14 1036.58L1116.76 1021.08L1104.56 1015.27L1113.99 1001.22L1144.48 966.344L1130.06 943.093L1110.11 931.951L1070.19 928.56L1052.45 909.184H1026.4L1003.67 928.56L951 935.827L1003.67 923.716L1026.4 901.918L1041.92 889.808V882.542H1036.37L1033.6 854.446L1036.37 844.274L1033.6 828.773L1036.37 813.272L1014.2 801.646V790.02L1020.85 801.646L1041.92 808.912L1039.15 832.648L1048.02 844.274L1041.92 854.446L1056.89 889.808L1041.92 898.043L1056.89 901.918L1085.71 920.81H1116.76L1133.95 923.716V935.827H1144.48L1160 914.028L1163.33 905.309L1186.06 896.105L1193.26 866.072L1229.3 855.415V777.426L1254.25 759.503V746.908L1284.18 735.767L1284.61 735.173L1284.84 734.004L1273.79 720.904L1266.59 714.791L1268.51 704.312L1245.45 683.789L1254.1 673.31L1250.74 664.577L1251.26 663.422L1238.46 661.905L1229.27 666.983L1207.56 665.968L1171.1 672.569L1166.37 681.456L1175.84 695.42L1208.68 704.307L1209.79 729.443L1216.75 738.837L1207.56 745.184L1213.97 738.837L1207.56 729.443L1203.95 705.576L1174.72 701.006L1146.05 721.318L1136.04 736.044L1120.73 745.184L1116.55 766.766L1087.33 794.441L1084.82 815.768L1075.36 800.788L1058.66 795.71H1077.59L1088.44 777.937L1103.47 766.766L1104.86 756.356L1113.21 740.868L1130.75 723.095V716.621H1063.95L1058.66 710.146L1045.86 705.83L1030.27 710.146L1021.92 716.621H1013.85L1005.22 724.365H987.132L981.009 740.868L972.659 748.485L969.598 754.578L963.753 757.117L962.64 764.988L966.815 770.828L947.889 791.902L952.898 805.104L949.002 810.182L947.889 817.545L944.827 807.389L935.364 805.104L946.219 796.979L940.096 793.933L944.827 786.57L960.135 768.289L952.898 756.102L942.879 750.262L922.84 748.485L913.933 738.329H900.852L889.441 748.485L863 752.293L889.441 745.946L900.852 734.521L908.645 728.173V724.365H905.862L904.47 709.638L905.862 704.307L904.47 696.182L905.862 688.057L900.961 685.375L884.069 689.977H873.549L865.583 696.211L863.917 699.556L860.587 702.749V706.702L854.758 711.263V718.561L848.099 722.035L854.758 730.877V739.24L862.252 748.819V766L855.424 776.643L859.754 794.585V797.93L864.917 807.661L860.42 811.006L858.255 816.023V819.521L855.424 822.105L862.252 828.035L863.251 832.901L866.082 834.421L867.415 838.374L864.917 845.368L866.082 839.591L862.252 835.029L859.754 832.901L860.42 829.251L852.426 822.105L855.424 818.456L854.258 815.415L856.256 811.006L858.921 805.988L855.424 797.93L856.256 791.392L852.426 775.275L860.587 767.368L858.921 749.579L850.427 739.24V733.462L843.897 726.364L828.278 730.421L824.614 734.83L826.779 739.24L818.785 749.579L816.62 757.029L808.293 758.854L789.141 755.813L784.311 758.854L758.664 755.813L753.168 758.854L740.178 758.246L718.361 762.199L715.53 767.521L721.192 775.883L740.844 781.205L741.51 796.257L745.673 801.883L740.178 805.684L744.008 801.883L740.178 796.257L738.013 781.965L720.526 779.228L703.372 791.392L697.377 800.211L688.217 805.684L685.719 818.608L668.232 835.181L666.733 847.953L661.071 838.982L651.078 835.942H662.403L668.898 825.298L677.891 818.608L678.724 812.374L683.72 803.099L694.212 792.456V788.579H654.242L651.078 784.702L643.417 782.117L634.091 784.702L629.095 788.579H624.265L619.102 793.216H608.277L604.613 803.099L599.617 807.661L597.785 811.31L594.288 812.83L593.622 817.544L596.12 821.041L584.795 833.661L587.793 841.567L585.461 844.608L584.795 849.018L582.963 842.936L577.301 841.567L583.796 836.702L580.132 834.877L582.963 830.468L592.123 819.521L587.793 812.222L581.797 808.725L569.806 807.661L564.477 801.579H556.65L549.821 807.661L534 809.942L549.821 806.14L556.65 799.298L561.313 795.497V793.216H559.647L558.815 784.398L559.647 781.205L558.815 776.339L559.647 771.474L552.986 767.825V764.175L554.984 767.825L561.313 770.105L560.48 777.556L563.145 781.205L561.313 784.398L565.809 795.497L561.313 798.082L565.809 799.298L574.469 805.228H583.796L588.958 806.14V809.942H592.123L596.786 803.099L597.785 800.363L604.613 797.474L606.778 788.047L617.604 784.702V760.222L625.098 754.596V750.643L634.091 747.146L638.754 740.304L636.09 735.743L634.091 729.205L640.42 726.62L636.09 729.205L637.922 735.743L643.417 739.392L637.922 748.363L628.429 750.643L626.93 757.789L622.267 761.743V785.462L629.095 784.398L632.259 781.205L644.417 778.924L649.746 781.205L658.739 783.485H695.61L708.368 772.386L705.491 751.146L693.517 732.257L664.695 723.524H697.36L705.687 709.938L703.539 708.222L708.368 703.661V697.579L710.533 693.018L709.034 685.567L711.866 691.801L710.533 699.099V702.031L716.094 692.959L742.033 673.747L744.435 655.844L758.846 629.209L785.972 601.812L781.813 602.702L787.695 600.071L789.109 598.643V597.79L784.977 591.754L785.524 587.509H748.666L756.222 592.224L768 612.803L753.918 594.013L743.314 587.509H673.822L664.695 576.374L642.598 568.951L615.698 576.374L601.287 587.509H587.357L577.227 596.568L583.138 604.079V616.382L594.659 630.474V655.75L584.162 671.408L590.819 697.803V702.724L598.756 717.039L591.843 721.96L588.514 729.342V734.487L584.162 738.289L594.659 747.013L596.196 754.171L600.548 756.408L602.597 762.224L598.756 772.513L600.548 764.013L594.659 757.303L590.819 754.171L591.843 748.803L579.553 738.289L584.162 732.921L582.369 728.447L585.442 721.96L589.539 714.579L584.162 702.724L585.442 693.105L579.553 669.395L592.099 657.763L589.539 631.592L576.48 616.382V607.882L569.697 600.826H552.813L542.427 603.408L538.669 607.735L537.415 611.105L540.122 616.382L531.456 627.107L530.674 629.209L527.749 631.867L524.504 642.553L515.151 644.514L510.979 652.788L500.891 657.154L498.97 670.69L506.175 680.733L473.511 716.975L482.157 739.68L475.432 748.413L473.511 761.076L468.227 743.61L451.894 739.68L470.629 725.708L460.061 720.468L468.227 707.805L494.647 676.366L482.157 655.407L464.864 645.365L432.168 642.475L426.952 645.237L406.98 644.342L373.439 650.158L369.086 657.987L377.792 670.289L408.005 678.118L409.029 700.263L415.43 708.539L406.98 714.132L412.869 708.539L406.98 700.263L403.652 679.237L376.767 675.211L350.395 693.105L341.177 706.079L327.095 714.132L323.255 733.145L296.37 757.526L294.066 776.316L285.36 763.118L269.998 758.645H287.409L297.394 742.987L311.221 733.145L312.501 723.974L320.182 710.329L336.313 694.671V688.967H274.863L269.998 683.263L258.22 679.461L243.881 683.263L236.2 688.967H228.775L220.838 695.789H204.195L198.562 710.329L190.881 717.039L188.064 722.408L182.687 724.645L181.663 731.579L185.504 736.724L168.093 755.289L172.702 766.921L169.117 771.395L168.093 777.882L165.276 768.934L156.571 766.921L166.557 759.763L160.924 757.079L165.276 750.592L179.359 734.487L172.702 723.75L163.484 718.605L145.049 717.039L136.856 708.092H124.822L114.324 717.039L90 720.395L114.324 714.803L124.822 704.737L131.991 699.145V695.789H129.431L128.15 682.816L129.431 678.118L128.15 670.961L129.431 663.803L119.189 658.434V653.066L122.261 658.434L131.991 661.789L130.711 672.75L134.807 678.118L131.991 682.816L138.904 699.145L131.991 702.947L138.904 704.737L152.218 713.461H166.557L174.494 714.803V720.395H179.359L186.528 710.329L188.064 706.303L198.562 702.053L201.891 688.184L218.533 683.263V647.25L230.055 638.974V633.158L243.881 628.013L251.051 617.947L246.954 611.237L243.881 601.618L253.611 597.816L246.954 601.618L249.77 611.237L258.22 616.605L249.77 629.803L235.176 633.158L232.872 643.671L225.702 649.487V684.382L236.2 682.816L241.065 678.118L259.756 674.763L267.949 678.118L281.776 681.474H338.462L358.076 665.145L355.198 644.811L327 648.858L354.829 642.201L352.187 623.539L358.076 605.645L369.086 584.842L350.651 570.75L358.076 564.039V555.092L361.405 548.382L359.1 537.421L363.453 546.592L361.405 557.329V564.039L355.516 569.184L374.207 576.789L395.202 579.697L398.886 578.79L398.574 575.501L400.976 566.331L398.574 552.359L400.976 538.386L381.761 527.906V517.427L387.526 527.906L405.78 534.456L403.378 555.852L411.064 566.331L405.78 575.501L406.368 576.946L415.174 574.776L406.782 577.964L418.749 607.376L405.78 614.799L418.749 618.292L439.878 632.697L470.223 634.053L478.672 628.684L495.571 630.474L505.389 633.164L508.097 629.209L510.979 621.349L528.873 613.811L531 611.637L534.748 595.388L534.745 595.355L534.757 595.352L536.919 585.981L568.142 576.374V506.074L581.225 496.296L583.138 493.355L571.664 461.481L559.838 462.934L548.572 456.671L542.184 453.362L539.556 460.834L541.175 452.839L526.552 445.263L525.016 437.211L515.03 433.408L507.605 422.895H499.156L487.378 412.158L470.991 415.513L483.537 410.145L475.856 399.408L477.392 388L479.952 399.408L485.073 407.461H489.17L499.156 417.75L509.653 421.553L516.823 432.289L523.736 433.408L530.649 437.211V442.132L541.807 449.714L543.767 440.031V424.429L551.943 421.489V416.288L558.384 412.897L562.595 408.827L579.441 402.947L578.45 397.521L586.378 399.329L594.801 401.365L607.435 416.288L617.344 422.846L619.574 429.856L619.666 429.922L615.698 416.998L633.952 409.575L621.462 416.998L626.702 435.615L627.111 436.015L642.598 446.253L634.244 459.831L633.447 464L633.654 460.789L626.746 472.016L599.366 478.565L595.042 499.088L581.592 510.441V516.946L597.22 525.789L603.109 535.632L619.752 540.105L651.757 531.382H681.202L700.159 539.455L704.246 537.868L733.434 512.816L741.372 514.605L752.893 499.618L745.468 511.25L758.783 514.158L760.831 518.184L757.502 514.605L745.724 512.592L741.372 517.737L733.434 514.605L703.358 542.819L712.439 557.553L721.4 563.592L727.801 570.526L730.402 572.881H793.141L829.94 541.006L818.891 459.789L829.94 424.858L850.595 384.25L816.009 356.741L829.94 343.641V326.175L836.184 313.076L831.861 291.68L840.027 309.583L836.184 330.542V343.641L825.136 353.684L860.203 368.53L899.592 374.207L937.06 364.6L903.915 377.7H877.015L854.438 384.25L844.351 409.575L831.861 459.789L847.713 506.511L903.915 485.552H935.139L955.795 476.382L1040.34 480.312L1056.19 469.832L1087.89 473.326L1112.39 480.312L1137.85 469.832V454.113L1163.31 427.041L1161.39 404.772L1227.49 383.638L1243.05 369.84L1244.97 352.374L1261.31 341.021V329.232L1288.33 304.343H1278.6L1265.15 275.961L1228.16 244.086L1252.18 205.661L1230.65 143.441L1208.47 146.277L1187.33 134.051L1146.02 111.782L1143.14 96.0624L1124.4 88.6394L1110.47 68.117H1094.62L1072.52 47.1579L1041.78 53.7076L1065.32 43.2281L1050.91 22.269L1053.79 0L1058.59 22.269L1068.2 37.9883H1075.89L1094.62 58.0741L1114.31 65.4971L1127.76 86.4561L1140.73 88.6394L1153.7 96.0624V105.669L1175.32 120.951L1211.35 139.29L1228.49 137.193L1228.16 136.234L1236.33 126.191L1278.6 115.275L1273.31 91.6959L1289.65 120.951L1245.45 130.994L1261.31 211.337L1236.33 244.086L1278.6 268.975L1289.65 288.187L1320.87 296.92L1380.92 279.891H1436.16L1471.72 295.651L1479.39 292.554L1534.15 243.649L1549.04 247.142L1570.66 217.887L1556.73 240.593L1581.71 246.269L1585.55 254.129L1579.31 247.142L1557.21 243.212L1549.04 253.255L1534.15 247.142L1477.72 302.218L1494.76 330.979L1511.57 342.768L1523.58 356.304L1550 381.193L1576.9 398.659ZM895.722 682.507L878.573 687.392L867.748 684.351L863.917 677.661L849.262 668.994L857.922 657.591L852.426 629.614L867.748 626.117L862.085 615.93L863.917 624.14L849.262 627.942L846.431 631.439L846.546 631.772L840.602 632.503L828.111 626.117L820.617 620.795V617.45L816.12 614.865L811.624 614.105L807.399 607.493L815.529 595.587L865.006 560.655L915.444 568.515L921.689 609.559L932.737 625.715L921.689 636.632L937.541 625.715L925.532 609.559L923.61 566.331L866.928 551.049L850.595 527.033L858.761 511.75L921.689 500.398L959.157 502.144L975.009 493.411L1048.98 502.144L1062.92 493.411L1118.16 502.144L1142.18 496.905L1148.42 475.509L1171.48 445.817L1165.23 433.154L1175.8 420.491L1220.85 408.841L1239.69 429.224V445.817L1264.19 475.509L1268.99 526.596L1245.45 549.302L1256.5 595.587L1254.1 614.363L1264.19 637.505L1256.5 651.914L1255.85 653.334L1227.33 652.003L1215.36 657.335H1197.27L1164.7 669.522L1155.52 642.355L1162.75 613.157L1168.6 598.431L1181.68 594.622H1197.27L1216.47 587.005L1194.76 592.591L1171.94 589.29L1151.62 580.658L1158.02 574.818V567.201L1160.25 555.014L1155.52 544.604L1158.02 557.045L1154.4 564.662V574.818L1146.33 582.435L1166.37 598.431L1154.4 622.043L1148 642.355L1154.4 689.58L1133.08 708.115H1071.46L1056.43 704.307L1047.53 700.498L1027.21 704.307L1021.92 709.638L1010.51 711.416V671.807L1018.3 665.206L1020.81 653.273L1036.67 649.464L1045.86 634.484L1036.67 628.391L1033.61 617.473L1040.85 613.157L1030.27 617.473L1033.61 628.391L1038.07 636.008L1030.27 647.433L1015.24 653.273V659.874L1002.72 669.269V710.146L984.627 715.732L981.009 731.474L973.758 734.539L967.339 722.819L958.013 716.737L948.853 708.07L944.69 703.357L938.861 699.251L932.954 689.237L952.517 670.058L957.68 672.187L960.511 668.69L968.172 670.058L970.337 672.491L969.005 669.754L960.344 667.778L965.174 659.871L957.68 670.058L952.517 668.842L933.531 685.871L930.873 686.95L918.543 681.462H899.391L898.01 681.855L894.729 675.87V681.964L895.722 682.507ZM904.708 684.354L908.645 685.772L907.253 698.213L911.707 704.307L908.645 709.638L916.16 728.173L908.645 732.489L916.16 734.521L930.633 744.423H946.219L954.847 745.946V752.293H960.135L967.928 740.868L969.598 736.298L973.463 734.664L965.84 724.035L958.013 719.018L948.187 712.784L943.524 713.392L940.859 706.55L934.697 702.749L930.534 688.912L918.21 684.047L904.72 684.351L904.708 684.354ZM1262.92 664.804L1262.27 666.324V676.366L1254.1 683.789L1273.79 700.819L1276.68 714.791L1284.84 719.158L1288.44 729.787L1299.71 713.969L1290.84 699.437L1284.18 678.607L1305.25 670.372L1290.84 678.607L1296.93 699.437L1315.23 711.062L1296.93 739.642L1284.37 742.53L1281.48 750.596L1283.05 742.834L1265.33 746.908L1260.34 769.675L1244.82 782.27V857.837L1267.55 854.446L1278.08 844.274L1318.55 837.008L1336.29 844.274L1366.23 851.54H1488.97L1531.44 816.178L1518.69 726.079L1531.44 687.327L1555.27 642.277L1515.36 611.759L1531.44 597.227V577.851L1533.45 573.791L1532.65 573.295L1525.69 550.19L1505.09 542.065L1482.55 542.573L1448.04 551.967H1430.45L1417.14 562.377L1414.36 567.963L1408.79 573.295V579.896L1399.05 587.513V599.7L1387.92 605.501L1399.05 620.266V634.231L1411.58 650.226V678.917L1400.16 696.69L1407.4 726.65V732.235L1416.03 748.485L1408.51 754.071L1404.9 762.449V768.289L1400.16 772.605L1411.58 782.507L1413.25 790.632L1417.98 793.171L1420.2 799.772L1416.03 811.452L1417.98 801.804L1411.58 794.187L1407.4 790.632L1408.51 784.539L1395.15 772.605L1400.16 766.512L1398.22 761.434L1401.56 754.071L1406.01 745.692L1400.16 732.235L1401.56 721.318L1395.15 694.404L1408.79 681.202L1406.01 651.496L1391.81 634.231V624.582L1380.9 612.73L1354.8 619.504L1348.67 626.867L1352.29 634.231L1338.93 651.496L1335.31 663.937L1321.4 666.983L1289.39 661.905L1281.32 666.983L1262.92 664.804ZM1537.97 564.682L1538.64 563.319L1534.93 545.643L1529.73 550.732L1537.97 564.682ZM1539.62 577.592L1538.64 582.695V597.227L1525.89 608.368L1566.36 624.838L1599.47 629.424L1584.69 608.841L1571.61 600.462L1555.19 590.052L1547.4 591.068L1542.94 579.642L1539.62 577.592ZM786.73 587.509L787.642 591.754L789.109 594.166V587.509H786.73ZM806.432 608.909L798.236 620.912L771.816 636.632L764.61 673.747L723.078 712.938L732.517 714.304L745.507 710.959L734.016 715.521H724.689L718.398 717.354L716.227 719.402L713.628 725.954L710.854 749.492L714.53 760.374L734.016 753.076H744.841L752.002 749.883L781.313 751.251L786.809 747.602L797.801 748.819L806.294 751.251L815.121 747.602V742.129L823.948 732.702L823.281 724.947L846.199 717.588L851.593 712.784L852.26 706.702L857.922 702.749V698.643L867.29 689.977H863.917L859.254 680.094L846.431 668.994L854.758 655.614L847.295 633.948L839.602 634.936L832.275 630.678L817.952 622.924L816.953 617.45L810.458 614.865L806.432 608.909ZM707.249 707.39L708.265 705.731L706.703 707.158L707.249 707.39ZM621.549 435.921L619.574 434.83L610.408 427.142L597.03 422.846L590.589 412.897L580.928 406.791L568.541 412.897L560.118 420.585L551.943 425.559L545.997 432.343V442.518L543.202 450.465L561.374 459.355L570.512 458.281L570.335 457.789L574.688 452.645L597.22 447.053L594.403 434.974L603.109 449.961L579.553 455.105L587.107 491.9L589.758 489.918V478.565L615.698 468.522L629.148 448.873L621.549 435.921ZM715.511 568.289L717.38 572.881H686.792L660.852 566.331L645.48 559.782L610.414 566.331L601.287 575.501L583.138 578.318V575.224L592.099 568.513V562.697L597.22 558L599.78 553.079L612.028 543.908H628.201L659.95 535.632L680.69 535.184L699.637 542.342L706.038 562.697L715.511 568.289ZM588.002 562.697L581.592 566.98V522.363L590.051 529.368L597.22 543.908H602.405L588.002 556.658V562.697ZM485.52 641.259L498.498 643.231L494.647 648.858H485.52V641.259ZM414.906 624.842L422.311 633.255L414.15 636.737H397.507L367.55 647.474L366.059 643.252L372.635 642.308L392.329 624.842H414.906ZM372.635 637.942L364.843 639.805L359.1 623.539L365.758 597.816L371.134 584.842L383.168 581.487H397.507L399.085 580.887L400.976 600.826H405.78V607.376L392.329 618.292L372.635 637.942ZM473.511 778.105L475.432 767.626L460.061 771.119L443.728 775.049L419.23 803.867L400.015 816.53L395.692 830.066L386.565 836.616L373.115 849.715L361.586 858.448L368.792 896L366.87 866.308L377.438 849.715L395.692 839.672L413.465 824.827L439.405 816.53L451.894 797.318L470.629 785.528L494.647 797.318L510.979 812.164L526.831 821.77L538.36 834.869V854.518L547.882 881.485L545.991 882.924L548.489 896L547.823 885.661L548.808 884.107L550.849 889.887L549.464 883.073L551.487 879.883L557.815 876.386L563.977 871.216L572.971 868.328L577.301 861.637L583.796 857.532L592.123 861.637L597.785 866.807L603.281 870.152L607.278 874.714V881.556L611.608 893.871L608.777 879.883V869.392L603.281 867.415V863.918L598.951 861.637L596.12 858.901L584.795 854.947L585.461 851.298L580.132 852.515L574.469 853.883L565.976 863.918L559.314 868.328L557.815 873.041L554.651 875.322L549.988 879.883L548.972 880.656L542.683 849.715V819.587L526.831 813.91V803.867L514.341 797.318L506.175 789.458L473.511 778.105ZM168.093 786.605L169.117 781.237L160.924 783.026L152.218 785.039L139.16 799.803L128.918 806.289L126.614 813.224L121.749 816.579L114.58 823.289L108.435 827.763L112.276 847L111.252 831.789L116.884 823.289L126.614 818.145L136.088 810.539L149.914 806.289L156.571 796.447L166.557 790.408L179.359 796.447L188.064 804.053L196.514 808.974L202.659 815.684V825.75L209.316 843.868L204.963 823.289V807.855L196.514 804.947V799.803L189.857 796.447L185.504 792.421L168.093 786.605ZM1120.09 1079.21L1122.3 1067.58L1104.56 1071.46L1085.71 1075.82L1057.44 1107.79L1035.27 1121.84L1030.28 1136.85L1019.74 1144.12L1004.22 1158.65L990.915 1168.34L999.231 1210L997.014 1177.06L1009.21 1158.65L1030.28 1147.51L1050.79 1131.04L1080.73 1121.84L1095.14 1100.52L1116.76 1087.45L1144.48 1100.52L1163.33 1116.99L1181.62 1127.65L1194.93 1142.18V1163.98L1209.34 1203.22L1199.92 1158.65V1125.23L1181.62 1118.93V1107.79L1167.21 1100.52L1157.78 1091.81L1120.09 1079.21ZM254.662 347.322L253.175 310.012L258.378 345.06L264.571 348.904L268.783 361.341L278.692 370.16L282.656 376.943L291.079 394.807L288.601 415.158V398.425L278.692 380.109L276.958 373.326L264.571 361.341L261.598 350.261L254.662 347.322ZM869.129 208.456L868.13 233.544L863.467 235.52L861.468 242.971L853.141 251.029L851.975 255.591L845.314 267.906V279.158L843.648 265.474L849.311 253.462L851.975 248.901L858.637 242.971L861.468 234.608L865.632 232.023L869.129 208.456ZM803.13 817.544L804.129 792.456L800.632 816.023L796.468 818.608L793.637 826.971L786.975 832.901L784.311 837.462L778.648 849.474L780.314 863.158V851.906L786.975 839.591L788.141 835.029L796.468 826.971L798.467 819.521L803.13 817.544ZM1312.77 764.988L1314.44 723.095L1308.6 762.449L1301.64 766.766L1296.91 780.73L1285.77 790.632L1281.32 798.249L1271.86 818.307L1274.64 841.158V822.369L1285.77 801.804L1287.72 794.187L1301.64 780.73L1304.98 768.289L1312.77 764.988ZM949.002 821.354L947.889 827.447L966.815 834.049L971.546 838.619L978.783 842.427V848.267L987.967 851.568V869.087L992.699 892.445L985.462 871.88V860.454L978.783 852.837L969.598 847.251L960.135 838.619L946.219 831.764L935.364 838.619L928.128 849.79L913.098 854.615L902.8 863.247L892.224 869.087L886.101 878.735L887.214 896L883.039 874.165L889.719 869.087L897.512 861.47L902.8 857.661L905.305 849.79L916.438 842.427L930.633 825.67L940.096 823.385L949.002 821.354Z" fill="white"/>-->
<!--</g>-->
<!--<path fill-rule="evenodd" clip-rule="evenodd" d="M1366.5 238.5L1329.11 353.351L1296 366L1227.5 348.5L1106 420.5L975.5 348.5L943.5 172L822 112.5L884 31.5L797.5 96.5H732L811.5 137L813.097 200.889L811.872 201.098L703.499 236.411L531.96 220.842L497.406 186.79L351.284 193.792L309.882 162.132V145.389L318.711 118.296L256 63.5L298.01 123.167L278.832 145.389L298.01 202.62L256 236.715L309.882 215.102L367.722 232.758L449.456 313.764L392.25 395.319L389.032 524.089L340.629 548.747H380.508L433.173 588.321L395.425 539.005L469.399 502.779L488.882 395.319L568.336 351.482L642.31 395.319L684.016 384.664L704.172 392.365L726.939 462.291L636.222 506.737V607.5L642.006 562.446L656.922 523.48L703.499 506.737L726.939 529.873V549.66L734.854 514.043L715.067 496.386L754.032 469.293L761.764 399.707L803.349 369.443H831.476L910.744 482.451L776.5 615.5L681.5 644.5L593 609L662 665L630.5 759L662 795.5L593 893.5L696 803.5L681.5 759V731.5L749.5 679.5L989.5 691L1046.25 635.072L1238.06 617.663V624.95L1207.79 666.535L1138.21 674.266L1111.11 713.232L1093.46 693.445L1057.84 701.36H1077.63L1100.76 724.8L1084.02 771.377L1045.05 786.293L1000 792.077H1100.76L1145.21 701.36L1215.13 724.126L1222.84 744.283L1212.18 785.989L1256.02 859.963L1238.06 896H1388L1371.09 724.8L1400.92 633.259L1506 667.5L1599.5 683.5V391H1492L1423.7 341.292L1411 227L1347 182.5L1379.5 153.5L1366.5 95V127.5L1328 165.5L1251.5 138L1227 74L1217.5 0V165.5L1366.5 238.5ZM62.7498 737.509L92.9677 727.671L96.2956 718.961L91.6914 700.938L110.635 668.971L91.6914 634.636L45.2539 626.217L29.5993 594.25L8.28809 610.563L25.3897 587.804V570.571L36.0453 591.488L91.6914 592.879L126.934 617.599L161.939 582.279L169.569 557.284L160.229 534L174.963 552.154L199.694 543.866L209.298 552.154L235.082 534L211.402 561.099L199.694 557.285H192.459L178.778 575.175L181.803 638.32L167.089 653.252L160.361 727.38L175.621 774.212L179.83 798.812H102.873L102.873 770.529L89.795 752.558L59.7241 749.217L48.0161 732.379L40.3861 740.93L24.9947 737.509H33.5455L43.5433 727.38L36.308 707.253L19.4695 700.807L0 698.307H43.5433L62.7498 737.509Z" fill="white"/>-->
<!--<g clip-path="url(#clip2)">-->
<!--<path fill-rule="evenodd" clip-rule="evenodd" d="M1600 0H1208L604.5 171.5L428.5 90.5L566.5 228.5L481 312L428.5 395L299.568 313.838L297.793 225.71L392.546 203.56L290.105 194.132L304.553 140.211L355.853 114.495L370.767 58.8344L345.44 97.7233L279.263 108.266L232.438 67.4444L228.5 20.7141L212.576 80.1438L243.597 147.492L129.321 249.646L0.000490947 328.5H25.9072L-34.041 344.202L-48.8672 395.983L87.2787 489.108L65.0222 561.164L88.9869 619.043L86.7188 571.363L128.429 523.996L196.481 525.917L227.175 561.828L204.73 507.618L149.637 488.425L127.893 435.91L229.801 412.899L131.423 403.028L123.092 328.5H214L385.5 545L257 619L214 723.5L164 792.5L0.000490947 766.5L145 840.5L183 892.5L197.5 792.5L307 723.5L512 892.5L481 792.5L528.5 735.5L635.5 766.5L700 657L1015.93 525.016L1036.5 596L893.501 672.5L1062.5 643.5V736.5L991.001 800V896L1015 822.5L1117 777L1210 822.5L1236.5 896V793.5L1157.5 698.5L1272.71 522.577L1600 605.5V0Z" fill="white"/>-->
<!--<path d="M71.466 134.173L139 31.3827L113.903 0L-4.50971 16.1462L16.2524 87.5533L-49 122.347L28.1165 109.157V151.456L-4.50971 180.337V224L6.44175 190.571L52.9854 169.876L95.4223 190.571L107.515 224V177.381L71.466 134.173Z" fill="white"/>-->
<!--</g>-->
<!--</g>-->
    <rect width="1600" height="896" fill="white"/>
<defs>
<clipPath id="clip0">
<rect width="1600" height="896" fill="white"/>
</clipPath>
<clipPath id="clip1">
<rect width="1600" height="896" fill="white"/>
</clipPath>
<clipPath id="clip2">
<rect width="1600" height="896" fill="white"/>
</clipPath>
</defs>
</svg>
