<svg width="1600" height="896" viewBox="0 0 1600 896" fill="none" xmlns="http://www.w3.org/2000/svg">
<g clip-path="url(#clip0)">
<path fill-rule="evenodd" clip-rule="evenodd" d="M1576.9 398.659L1599 438.83L1572.58 402.152L1550 387.743L1521.66 369.84L1508.21 371.587L1500.53 351.938L1482.75 341.021L1470.74 301.287L1435.2 287.314L1396.29 288.187L1336.72 304.343H1306.38L1283.4 322.246L1278.6 331.852L1268.99 341.021V352.374L1252.18 365.474V386.433L1232.97 396.408L1252.18 421.801V445.817L1273.79 473.326V522.667L1254.1 553.232L1266.59 604.756V614.363L1281.48 642.308L1268.51 651.914L1267.66 653.885L1276.31 654.289L1285.49 648.195L1303.86 650.226L1318.06 654.289L1332.81 648.195V639.055L1347.56 623.313L1346.45 610.364L1384.75 598.075L1393.76 590.052L1394.88 579.896L1404.34 573.295V566.44L1419.99 551.967H1414.36L1406.57 535.464L1385.13 516.929L1399.05 494.586L1386.58 458.407L1373.72 460.056L1361.48 452.947L1337.54 439.998L1335.87 430.858L1325.02 426.541L1316.95 414.608H1307.76L1294.96 402.421L1277.14 406.23L1290.78 400.136L1282.43 387.949L1284.1 375L1286.89 387.949L1292.45 397.089H1296.91L1307.76 408.769L1319.17 413.085L1326.96 425.272L1334.48 426.541L1341.99 430.858V436.443L1354.52 445.33L1375.39 455.994L1385.33 454.774L1385.13 454.216L1389.87 448.377L1414.36 442.029L1411.3 428.319L1420.76 445.33L1395.15 451.17L1404.34 497.887L1389.87 516.929L1414.36 531.402L1420.76 542.573L1438.85 547.651L1473.64 537.749H1505.65L1526.26 546.913L1530.7 545.112L1562.43 516.675L1571.05 518.707L1583.58 501.695L1575.51 514.898L1589.98 518.199L1592.21 522.769L1588.59 518.707L1575.79 516.422L1571.05 522.261L1562.43 518.707L1529.73 550.732L1539.6 567.455L1549.35 574.31L1556.3 582.181L1571.61 596.654L1587.2 606.809L1600 630.168L1584.69 608.841L1571.61 600.462L1555.19 590.052L1547.4 591.068L1542.94 579.642L1532.65 573.295L1525.69 550.19L1505.09 542.065L1482.55 542.573L1448.04 551.967H1430.45L1417.14 562.377L1414.36 567.963L1408.79 573.295V579.896L1399.05 587.513V599.7L1387.92 605.501L1399.05 620.266V634.231L1411.58 650.226V678.917L1400.16 696.69L1407.4 726.65V732.235L1416.03 748.485L1408.51 754.071L1404.9 762.449V768.289L1400.16 772.605L1411.58 782.507L1413.25 790.632L1417.98 793.171L1420.2 799.772L1416.03 811.452L1417.98 801.804L1411.58 794.187L1407.4 790.632L1408.51 784.539L1395.15 772.605L1400.16 766.512L1398.22 761.434L1401.56 754.071L1406.01 745.692L1400.16 732.235L1401.56 721.318L1395.15 694.404L1408.79 681.202L1406.01 651.496L1391.81 634.231V624.582L1380.9 612.73L1354.8 619.504L1348.67 626.867L1352.29 634.231L1338.93 651.496L1335.31 663.937L1321.4 666.983L1289.39 661.905L1281.32 666.983L1262.92 664.804L1262.27 666.324V676.366L1254.1 683.789L1273.79 700.819L1276.68 714.791L1284.84 719.158L1288.69 730.511L1281.48 750.596L1284.84 734.004L1273.79 720.904L1266.59 714.791L1268.51 704.312L1245.45 683.789L1254.1 673.31L1250.74 664.577L1251.26 663.422L1238.46 661.905L1229.27 666.983L1207.56 665.968L1171.1 672.569L1166.37 681.456L1175.84 695.42L1208.68 704.307L1209.79 729.443L1216.75 738.837L1207.56 745.184L1213.97 738.837L1207.56 729.443L1203.95 705.576L1174.72 701.006L1146.05 721.318L1136.04 736.044L1120.73 745.184L1116.55 766.766L1087.33 794.441L1084.82 815.768L1075.36 800.788L1058.66 795.71H1077.59L1088.44 777.937L1103.47 766.766L1104.86 756.356L1113.21 740.868L1130.75 723.095V716.621H1063.95L1058.66 710.146L1045.86 705.83L1030.27 710.146L1021.92 716.621H1013.85L1005.22 724.365H987.132L981.009 740.868L972.659 748.485L969.598 754.578L963.753 757.117L962.64 764.988L966.815 770.828L947.889 791.902L952.898 805.104L949.002 810.182L947.889 817.545L944.827 807.389L935.364 805.104L946.219 796.979L940.096 793.933L944.827 786.57L960.135 768.289L952.898 756.102L942.879 750.262L922.839 748.485L913.933 738.329H900.852L889.441 748.485L863 752.293L889.441 745.946L900.852 734.521L908.645 728.173V724.365H905.862L904.47 709.638L905.862 704.307L904.47 696.182L905.862 688.057L894.729 681.964V675.87L898.069 681.964L908.645 685.772L907.253 698.213L911.707 704.307L908.645 709.638L916.16 728.173L908.645 732.489L916.16 734.521L930.633 744.423H946.219L954.847 745.946V752.293H960.135L967.928 740.868L969.598 736.298L981.009 731.474L984.627 715.732L1002.72 710.146V669.269L1015.24 659.874V653.273L1030.27 647.433L1038.07 636.008L1033.61 628.391L1030.27 617.473L1040.85 613.157L1033.61 617.473L1036.67 628.391L1045.86 634.484L1036.67 649.464L1020.81 653.273L1018.3 665.206L1010.51 671.807V711.416L1021.92 709.638L1027.21 704.307L1047.53 700.498L1056.43 704.307L1071.46 708.115H1133.08L1154.4 689.58L1148 642.355L1154.4 622.043L1166.37 598.431L1146.33 582.435L1154.4 574.818V564.662L1158.02 557.045L1155.52 544.604L1160.25 555.014L1158.02 567.201V574.818L1151.62 580.658L1171.94 589.29L1194.76 592.591L1216.47 587.005L1197.27 594.622H1181.68L1168.6 598.431L1162.75 613.157L1155.52 642.355L1164.7 669.522L1197.27 657.335H1215.36L1227.33 652.003L1255.85 653.334L1256.5 651.914L1264.19 637.505L1254.1 614.363L1256.5 595.587L1245.45 549.302L1268.99 526.596L1264.19 475.509L1239.69 445.817V429.224L1220.85 408.841L1175.8 420.491L1165.23 433.154L1171.48 445.817L1148.42 475.509L1142.18 496.905L1118.16 502.144L1062.92 493.411L1048.98 502.144L975.009 493.411L959.157 502.144L921.689 500.398L858.761 511.75L850.595 527.033L866.927 551.049L923.61 566.331L925.532 609.559L937.541 625.715L921.689 636.632L932.737 625.715L921.689 609.559L915.444 568.515L865.006 560.655L815.529 595.587L798.236 620.912L771.816 636.632L764.61 673.747L714.172 721.341L709.849 758.02L693.517 732.257L664.695 723.524H697.359L716.094 692.959L742.033 673.747L744.435 655.844L758.846 629.209L789.109 598.643V587.509H673.822L664.695 576.374L642.598 568.951L615.698 576.374L601.287 587.509H587.357L572.465 600.826H541.242L530.674 629.209L516.263 642.308L510.979 652.788L500.891 657.154L498.97 670.69L506.175 680.733L473.511 716.975L482.157 739.68L475.432 748.413L473.511 761.076L468.227 743.61L451.894 739.68L470.628 725.708L460.06 720.468L468.227 707.805L494.647 676.366L482.157 655.407L464.864 645.365L430.278 642.308L414.906 624.842H392.329L372.634 642.308L327 648.858L372.634 637.942L392.329 618.292L405.779 607.376V600.826H400.976L398.574 575.501L400.976 566.331L398.574 552.359L400.976 538.386L381.761 527.906V517.427L387.526 527.906L405.779 534.456L403.378 555.852L411.063 566.331L405.779 575.501L418.749 607.376L405.779 614.799L418.749 618.292L443.728 635.322H470.628L485.52 637.942V648.858H494.647L508.097 629.209L510.979 621.349L530.674 613.053L536.918 585.981L568.142 576.374V506.074L589.758 489.918V478.565L615.698 468.522L629.148 448.873L621.462 435.774L615.698 416.998L633.952 409.575L621.462 416.998L626.746 435.774L642.598 446.253L626.746 472.016L599.366 478.565L595.042 499.088L581.592 510.441V578.557L601.287 575.501L610.414 566.331L645.48 559.782L660.852 566.331L686.792 572.881H793.141L829.94 541.006L818.891 459.789L829.94 424.858L850.595 384.25L816.009 356.741L829.94 343.641V326.175L836.184 313.076L831.861 291.68L840.027 309.583L836.184 330.542V343.641L825.136 353.684L860.202 368.53L899.592 374.207L937.06 364.6L903.915 377.7H877.015L854.438 384.25L844.35 409.575L831.861 459.789L847.713 506.511L903.915 485.552H935.139L955.794 476.382L1040.34 480.312L1056.19 469.832L1087.89 473.326L1112.39 480.312L1137.85 469.832V454.113L1163.31 427.041L1161.39 404.772L1227.49 383.638L1243.05 369.84L1244.97 352.374L1261.3 341.021V329.232L1288.33 304.343H1278.6L1265.15 275.961L1228.16 244.086L1252.18 205.661L1230.65 143.441L1208.47 146.277L1187.33 134.051L1146.02 111.782L1143.14 96.0624L1124.4 88.6394L1110.47 68.117H1094.62L1072.52 47.1579L1041.78 53.7076L1065.32 43.2281L1050.91 22.269L1053.79 0L1058.59 22.269L1068.2 37.9883H1075.89L1094.62 58.0741L1114.31 65.4971L1127.76 86.4561L1140.73 88.6394L1153.7 96.0624V105.669L1175.32 120.951L1211.35 139.29L1228.49 137.193L1228.16 136.234L1236.33 126.191L1278.6 115.275L1273.31 91.6959L1289.65 120.951L1245.45 130.994L1261.3 211.337L1236.33 244.086L1278.6 268.975L1289.65 288.187L1320.87 296.92L1380.92 279.891H1436.16L1471.72 295.651L1479.39 292.554L1534.15 243.649L1549.04 247.142L1570.66 217.887L1556.73 240.593L1581.71 246.269L1585.55 254.129L1579.3 247.142L1557.21 243.212L1549.04 253.255L1534.15 247.142L1477.72 302.218L1494.76 330.979L1511.57 342.768L1523.58 356.304L1550 381.193L1576.9 398.659ZM473.511 778.105L475.432 767.626L460.06 771.119L443.728 775.049L419.23 803.867L400.015 816.53L395.692 830.066L386.565 836.616L373.115 849.715L361.586 858.448L368.792 896L366.87 866.308L377.438 849.715L395.692 839.672L413.465 824.827L439.405 816.53L451.894 797.318L470.628 785.528L494.647 797.318L510.979 812.164L526.831 821.77L538.359 834.869V854.518L550.849 889.887L542.683 849.715V819.587L526.831 813.91V803.867L514.341 797.318L506.175 789.458L473.511 778.105ZM1040 152.807L1032.34 138.819L1023.01 132.737L1013.85 124.07L1009.69 119.357L1003.86 115.251L997.954 105.237L1017.52 86.0585L1022.68 88.1871L1025.51 84.6901L1033.17 86.0585L1035.34 88.4912L1034 85.7544L1025.34 83.7778L1030.17 75.8714L1022.68 86.0585L1017.52 84.8421L998.531 101.871L995.873 102.95L983.543 97.462H964.39L943.573 103.392L932.748 100.351L928.917 93.6608L914.262 84.9942L922.922 73.5906L917.426 45.614L932.748 42.117L927.085 31.9298L928.917 40.1404L914.262 43.9415L911.43 47.4386L911.545 47.7724L905.602 48.5029L893.111 42.117L885.617 36.7953V33.4503L881.12 30.8655L876.623 30.1053L871.96 22.807L865.132 20.2222L858.637 13.2281H855.972L852.642 7.75439L850.976 0L849.977 7.75439L854.973 15.0526L846.813 18.7018L857.471 16.4211L865.132 23.7193H870.628L875.458 30.8655L881.953 33.4503L882.952 38.924L897.274 46.6784L904.602 50.9357L912.295 49.9481L919.758 71.614L911.43 84.9942L924.254 96.0936L928.917 105.977H932.29L922.922 114.643V118.749L917.259 122.702L916.593 128.784L911.199 133.588L888.281 140.947L888.947 148.702L880.121 158.129V163.602L871.294 167.251L862.801 164.819L851.809 163.602L846.313 167.251L817.002 165.883L809.841 169.076H799.015L779.53 176.374L774.034 160.105L778.364 142.62L781.862 133.801L789.689 131.52H799.015L810.507 126.959L797.517 130.304L783.86 128.327L771.703 123.158L775.533 119.661V115.099L776.866 107.801L774.034 101.567L775.533 109.018L773.368 113.579V119.661L768.539 124.222L780.529 133.801L773.368 147.942L769.538 160.105L773.368 188.386L760.61 199.485H723.739L714.746 197.205L709.417 194.924L697.259 197.205L694.095 200.398L687.267 201.462V177.743L691.93 173.789L693.429 166.643L702.921 164.363L708.417 155.392L702.921 151.743L701.089 145.205L705.42 142.62L699.091 145.205L701.089 151.743L703.754 156.304L699.091 163.146L690.098 166.643V170.596L682.603 176.222V200.702L671.778 204.047L669.613 213.474L662.785 216.363L661.786 219.099L657.123 225.942H653.958V222.14L648.796 221.228H639.469L630.809 215.298L626.313 214.082L630.809 211.497L626.313 200.398L628.145 197.205L625.48 193.556L626.313 186.105L619.984 183.825L617.986 180.175V183.825L624.647 187.474L623.815 192.339L624.647 197.205L623.815 200.398L624.647 209.216H626.313V211.497L621.65 215.298L614.821 222.14L599 225.942L614.821 223.661L621.65 217.579H629.477L634.806 223.661L646.797 224.725L652.793 228.222L657.123 235.52L647.963 246.468L645.132 250.877L648.796 252.702L642.301 257.567L647.963 258.936L649.795 265.018L650.461 260.608L652.793 257.567L649.795 249.661L661.12 237.041L658.622 233.544L659.288 228.83L662.785 227.31L664.617 223.661L669.613 219.099L673.277 209.216H684.102L689.265 204.579H694.095L699.091 200.702L708.417 198.117L716.078 200.702L719.242 204.579H759.212V208.456L748.72 219.099L743.724 228.374L742.891 234.608L733.898 241.298L727.403 251.942H716.078L726.071 254.982L731.733 263.953L733.232 251.181L750.719 234.608L753.217 221.684L762.377 216.211L768.372 207.392L785.526 195.228L803.012 197.965L805.177 212.257L809.008 217.883L805.177 221.684L810.673 217.883L806.51 212.257L805.844 197.205L786.192 191.883L780.529 183.52L783.361 178.199L805.177 174.246L818.168 174.854L823.664 171.813L849.311 174.854L854.14 171.813L873.293 174.854L881.62 173.029L883.785 165.579L891.779 155.24L889.614 150.83L893.278 146.421L908.897 142.364L915.427 149.462V155.24L923.921 165.579L925.586 183.368L917.426 191.275L921.256 207.392L920.424 213.93L923.921 221.988L921.256 227.006L919.258 231.415L920.424 234.456L917.426 238.105L925.42 245.251L924.754 248.901L927.252 251.029L931.082 255.591L929.917 261.368L932.415 254.374L931.082 250.421L928.251 248.901L927.252 244.035L920.424 238.105L923.255 235.52V232.023L925.42 227.006L929.917 223.661L924.754 213.93V210.585L920.424 192.643L927.252 182V164.819L919.758 155.24V146.877L913.099 138.035L919.758 134.561V127.263L925.586 122.702V118.749L928.917 115.556L930.583 112.211L938.549 105.977H949.069L969.72 100.351L983.21 100.047L995.534 104.912L999.697 118.749L1005.86 122.55L1008.52 129.392L1013.19 128.784L1023.01 135.018L1030.84 140.035L1040 152.807ZM869.129 208.456L868.13 233.544L863.467 235.52L861.468 242.971L853.141 251.029L851.975 255.591L845.314 267.906V279.158L843.648 265.474L849.311 253.462L851.975 248.901L858.637 242.971L861.468 234.608L865.632 232.023L869.129 208.456ZM649.795 270.947L650.461 267.298L645.132 268.515L639.469 269.883L630.976 279.918L624.314 284.327L622.815 289.041L619.651 291.322L614.988 295.883L610.991 298.924L613.489 312L612.823 301.661L616.487 295.883L622.815 292.386L628.977 287.216L637.971 284.327L642.301 277.637L648.796 273.532L657.123 277.637L662.785 282.807L668.281 286.152L672.278 290.713V297.556L676.608 309.871L673.777 295.883V285.392L668.281 283.415V279.918L663.951 277.637L661.12 274.901L649.795 270.947ZM1312.77 764.988L1314.44 723.095L1308.6 762.449L1301.64 766.766L1296.91 780.73L1285.77 790.632L1281.32 798.249L1271.86 818.307L1274.64 841.158V822.369L1285.77 801.804L1287.72 794.187L1301.64 780.73L1304.98 768.289L1312.77 764.988ZM949.002 821.354L947.889 827.447L966.815 834.049L971.546 838.619L978.782 842.427V848.267L987.967 851.568V869.087L992.699 892.445L985.462 871.88V860.454L978.782 852.837L969.598 847.251L960.135 838.619L946.219 831.764L935.364 838.619L928.128 849.79L913.098 854.615L902.8 863.247L892.224 869.087L886.101 878.735L887.214 896L883.039 874.165L889.719 869.087L897.512 861.47L902.8 857.661L905.305 849.79L916.438 842.427L930.633 825.67L940.096 823.385L949.002 821.354Z" fill="white"/>
</g>
<defs>
<clipPath id="clip0">
<rect width="1600" height="896" fill="white"/>
</clipPath>
</defs>
</svg>
