<svg width="1600" height="896" viewBox="0 0 1600 896"  fill="none" xmlns="http://www.w3.org/2000/svg">
<g clip-path="url(#clip0)">
<g clip-path="url(#clip1)">
<path fill-rule="evenodd" clip-rule="evenodd" d="M1599 438.83L1576.9 398.659L1550 381.193L1523.58 356.304L1511.57 342.768L1494.76 330.979L1477.72 302.218L1534.15 247.142L1549.04 253.255L1557.21 243.212L1579.3 247.142L1585.55 254.129L1581.71 246.269L1556.73 240.593L1570.66 217.887L1549.04 247.142L1534.15 243.649L1479.39 292.554L1471.72 295.651L1436.16 279.891H1380.92L1320.87 296.92L1289.65 288.187L1278.6 268.975L1236.33 244.086L1261.3 211.337L1245.45 130.994L1289.65 120.951L1273.31 91.6959L1278.6 115.275L1236.33 126.191L1228.16 136.234L1228.49 137.193L1211.35 139.29L1175.32 120.951L1153.7 105.669V96.0624L1140.73 88.6394L1127.76 86.4561L1114.31 65.4971L1094.62 58.0741L1075.89 37.9883H1068.2L1058.59 22.269L1053.79 0L1050.91 22.269L1065.32 43.2281L1041.78 53.7076L1072.52 47.1579L1094.62 68.117H1110.47L1124.4 88.6394L1143.14 96.0624L1146.02 111.782L1187.33 134.051L1208.47 146.277L1230.65 143.441L1252.18 205.661L1228.16 244.086L1265.15 275.961L1278.6 304.343H1288.33L1261.3 329.232V341.021L1244.97 352.374L1243.05 369.84L1227.49 383.638L1161.39 404.772L1163.31 427.041L1137.85 454.113V469.832L1112.39 480.312L1087.89 473.326L1056.19 469.832L1040.34 480.312L955.794 476.382L935.139 485.552H903.915L847.713 506.511L831.861 459.789L844.35 409.575L854.438 384.25L877.015 377.7H903.915L937.06 364.6L899.592 374.207L860.202 368.53L825.136 353.684L836.184 343.641V330.542L840.027 309.583L831.861 291.68L836.184 313.076L829.94 326.175V343.641L816.009 356.741L850.595 384.25L829.94 424.858L818.891 459.789L829.94 541.006L793.141 572.881H686.792L660.852 566.331L645.48 559.782L610.414 566.331L601.287 575.501L581.592 578.557V510.441L595.042 499.088L599.366 478.565L626.746 472.016L642.598 446.253L626.746 435.774L621.462 416.998L633.952 409.575L615.698 416.998L621.462 435.774L629.148 448.873L615.698 468.522L589.758 478.565V489.918L568.142 506.074V576.374L536.918 585.981L530.674 613.053L510.979 621.349L508.097 629.209L494.647 648.858H485.52V637.942L470.628 635.322H443.728L418.749 618.292L405.779 614.799L418.749 607.376L405.779 575.501L411.063 566.331L403.378 555.852L405.779 534.456L387.526 527.906L381.761 517.427V527.906L400.976 538.386L398.574 552.359L400.976 566.331L398.574 575.501L400.976 600.826H405.779V607.376L392.329 618.292L372.634 637.942L327 648.858L372.634 642.308L392.329 624.842H414.906L430.278 642.308L464.864 645.365L482.157 655.407L494.647 676.366L468.227 707.805L460.06 720.468L470.628 725.708L451.894 739.68L468.227 743.61L473.511 761.076L475.432 748.413L482.157 739.68L473.511 716.975L506.175 680.733L498.97 670.69L500.891 657.154L510.979 652.788L516.263 642.308L530.674 629.209L541.242 600.826H572.465L587.357 587.509H601.287L615.698 576.374L642.598 568.951L664.695 576.374L673.822 587.509H789.109V598.643L758.846 629.209L744.435 655.844L742.033 673.747L716.094 692.959L697.359 723.524H664.695L693.517 732.257L709.849 758.02L714.172 721.341L764.61 673.747L771.816 636.632L798.236 620.912L815.529 595.587L865.006 560.655L915.444 568.515L921.689 609.559L932.737 625.715L921.689 636.632L937.541 625.715L925.532 609.559L923.61 566.331L866.927 551.049L850.595 527.033L858.761 511.75L921.689 500.398L959.157 502.144L975.009 493.411L1048.98 502.144L1062.92 493.411L1118.16 502.144L1142.18 496.905L1148.42 475.509L1171.48 445.817L1165.23 433.154L1175.8 420.491L1220.85 408.841L1239.69 429.224V445.817L1264.19 475.509L1268.99 526.596L1245.45 549.302L1256.5 595.587L1254.1 614.363L1264.19 637.505L1256.5 651.914L1255.85 653.334L1227.33 652.003L1215.36 657.335H1197.27L1164.7 669.522L1155.52 642.355L1162.75 613.157L1168.6 598.431L1181.68 594.622H1197.27L1216.47 587.005L1194.76 592.591L1171.94 589.29L1151.62 580.658L1158.02 574.818V567.201L1160.25 555.014L1155.52 544.604L1158.02 557.045L1154.4 564.662V574.818L1146.33 582.435L1166.37 598.431L1154.4 622.043L1148 642.355L1154.4 689.58L1133.08 708.115H1071.46L1056.43 704.307L1047.53 700.498L1027.21 704.307L1021.92 709.638L1010.51 711.416V671.807L1018.3 665.206L1020.81 653.273L1036.67 649.464L1045.86 634.484L1036.67 628.391L1033.61 617.473L1040.85 613.157L1030.27 617.473L1033.61 628.391L1038.07 636.008L1030.27 647.433L1015.24 653.273V659.874L1002.72 669.269V710.146L984.627 715.732L981.009 731.474L969.598 736.298L967.928 740.868L960.135 752.293H954.847V745.946L946.219 744.423H930.633L916.16 734.521L908.645 732.489L916.16 728.173L908.645 709.638L911.707 704.307L907.253 698.213L908.645 685.772L898.069 681.964L894.729 675.87V681.964L905.862 688.057L904.47 696.182L905.862 704.307L904.47 709.638L905.862 724.365H908.645V728.173L900.852 734.521L889.441 745.946L863 752.293L889.441 748.485L900.852 738.329H913.933L922.839 748.485L942.879 750.262L952.898 756.102L960.135 768.289L944.827 786.57L940.096 793.933L946.219 796.979L935.364 805.104L944.827 807.389L947.889 817.545L949.002 810.182L952.898 805.104L947.889 791.902L966.815 770.828L962.64 764.988L963.753 757.117L969.598 754.578L972.659 748.485L981.009 740.868L987.132 724.365H1005.22L1013.85 716.621H1021.92L1030.27 710.146L1045.86 705.83L1058.66 710.146L1063.95 716.621H1130.75V723.095L1113.21 740.868L1104.86 756.356L1103.47 766.766L1088.44 777.937L1077.59 795.71H1058.66L1075.36 800.788L1084.82 815.768L1087.33 794.441L1116.55 766.766L1120.73 745.184L1136.04 736.044L1146.05 721.318L1174.72 701.006L1203.95 705.576L1207.56 729.443L1213.97 738.837L1207.56 745.184L1216.75 738.837L1209.79 729.443L1208.68 704.307L1175.84 695.42L1166.37 681.456L1171.1 672.569L1207.56 665.968L1229.27 666.983L1238.46 661.905L1251.26 663.422L1250.74 664.577L1254.1 673.31L1245.45 683.789L1268.51 704.312L1266.59 714.791L1273.79 720.904L1284.84 734.004L1281.48 750.596L1288.69 730.511L1284.84 719.158L1276.68 714.791L1273.79 700.819L1254.1 683.789L1262.27 676.366V666.324L1262.92 664.804L1281.32 666.983L1289.39 661.905L1321.4 666.983L1335.31 663.937L1338.93 651.496L1352.29 634.231L1348.67 626.867L1354.8 619.504L1380.9 612.73L1391.81 624.582V634.231L1406.01 651.496L1408.79 681.202L1395.15 694.404L1401.56 721.318L1400.16 732.235L1406.01 745.692L1401.56 754.071L1398.22 761.434L1400.16 766.512L1395.15 772.605L1408.51 784.539L1407.4 790.632L1411.58 794.187L1417.98 801.804L1416.03 811.452L1420.2 799.772L1417.98 793.171L1413.25 790.632L1411.58 782.507L1400.16 772.605L1404.9 768.289V762.449L1408.51 754.071L1416.03 748.485L1407.4 732.235V726.65L1400.16 696.69L1411.58 678.917V650.226L1399.05 634.231V620.266L1387.92 605.501L1399.05 599.7V587.513L1408.79 579.896V573.295L1414.36 567.963L1417.14 562.377L1430.45 551.967H1448.04L1482.55 542.573L1505.09 542.065L1525.69 550.19L1532.65 573.295L1542.94 579.642L1547.4 591.068L1555.19 590.052L1571.61 600.462L1584.69 608.841L1600 630.168L1587.2 606.809L1571.61 596.654L1556.3 582.181L1549.35 574.31L1539.6 567.455L1529.73 550.732L1562.43 518.707L1571.05 522.261L1575.79 516.422L1588.59 518.707L1592.21 522.769L1589.98 518.199L1575.51 514.898L1583.58 501.695L1571.05 518.707L1562.43 516.675L1530.7 545.112L1526.26 546.913L1505.65 537.749H1473.64L1438.85 547.651L1420.76 542.573L1414.36 531.402L1389.87 516.929L1404.34 497.887L1395.15 451.17L1420.76 445.33L1411.3 428.319L1414.36 442.029L1389.87 448.377L1385.13 454.216L1385.33 454.774L1375.39 455.994L1354.52 445.33L1341.99 436.443V430.858L1334.48 426.541L1326.96 425.272L1319.17 413.085L1307.76 408.769L1296.91 397.089H1292.45L1286.89 387.949L1284.1 375L1282.43 387.949L1290.78 400.136L1277.14 406.23L1294.96 402.421L1307.76 414.608H1316.95L1325.02 426.541L1335.87 430.858L1337.54 439.998L1361.48 452.947L1373.72 460.056L1386.58 458.407L1399.05 494.586L1385.13 516.929L1406.57 535.464L1414.36 551.967H1419.99L1404.34 566.44V573.295L1394.88 579.896L1393.76 590.052L1384.75 598.075L1346.45 610.364L1347.56 623.313L1332.81 639.055V648.195L1318.06 654.289L1303.86 650.226L1285.49 648.195L1276.31 654.289L1267.66 653.885L1268.51 651.914L1281.48 642.308L1266.59 614.363V604.756L1254.1 553.232L1273.79 522.667V473.326L1252.18 445.817V421.801L1232.97 396.408L1252.18 386.433V365.474L1268.99 352.374V341.021L1278.6 331.852L1283.4 322.246L1306.38 304.343H1336.72L1396.29 288.187L1435.2 287.314L1470.74 301.287L1482.75 341.021L1500.53 351.938L1508.21 371.587L1521.66 369.84L1550 387.743L1572.58 402.152L1599 438.83ZM475.432 767.626L473.511 778.105L506.175 789.458L514.341 797.318L526.831 803.867V813.91L542.683 819.587V849.715L550.849 889.887L538.359 854.518V834.869L526.831 821.77L510.979 812.164L494.647 797.318L470.628 785.528L451.894 797.318L439.405 816.53L413.465 824.827L395.692 839.672L377.438 849.715L366.87 866.308L368.792 896L361.586 858.448L373.115 849.715L386.565 836.616L395.692 830.066L400.015 816.53L419.23 803.867L443.728 775.049L460.06 771.119L475.432 767.626ZM1032.34 138.819L1040 152.807L1030.84 140.035L1023.01 135.018L1013.19 128.784L1008.52 129.392L1005.86 122.55L999.697 118.749L995.534 104.912L983.21 100.047L969.72 100.351L949.069 105.977H938.549L930.583 112.211L928.917 115.556L925.586 118.749V122.702L919.758 127.263V134.561L913.099 138.035L919.758 146.877V155.24L927.252 164.819V182L920.424 192.643L924.754 210.585V213.93L929.917 223.661L925.42 227.006L923.255 232.023V235.52L920.424 238.105L927.252 244.035L928.251 248.901L931.082 250.421L932.415 254.374L929.917 261.368L931.082 255.591L927.252 251.029L924.754 248.901L925.42 245.251L917.426 238.105L920.424 234.456L919.258 231.415L921.256 227.006L923.921 221.988L920.424 213.93L921.256 207.392L917.426 191.275L925.586 183.368L923.921 165.579L915.427 155.24V149.462L908.897 142.364L893.278 146.421L889.614 150.83L891.779 155.24L883.785 165.579L881.62 173.029L873.293 174.854L854.14 171.813L849.311 174.854L823.664 171.813L818.168 174.854L805.177 174.246L783.361 178.199L780.529 183.52L786.192 191.883L805.844 197.205L806.51 212.257L810.673 217.883L805.177 221.684L809.008 217.883L805.177 212.257L803.012 197.965L785.526 195.228L768.372 207.392L762.377 216.211L753.217 221.684L750.719 234.608L733.232 251.181L731.733 263.953L726.071 254.982L716.078 251.942H727.403L733.898 241.298L742.891 234.608L743.724 228.374L748.72 219.099L759.212 208.456V204.579H719.242L716.078 200.702L708.417 198.117L699.091 200.702L694.095 204.579H689.265L684.102 209.216H673.277L669.613 219.099L664.617 223.661L662.785 227.31L659.288 228.83L658.622 233.544L661.12 237.041L649.795 249.661L652.793 257.567L650.461 260.608L649.795 265.018L647.963 258.936L642.301 257.567L648.796 252.702L645.132 250.877L647.963 246.468L657.123 235.52L652.793 228.222L646.797 224.725L634.806 223.661L629.477 217.579H621.65L614.821 223.661L599 225.942L614.821 222.14L621.65 215.298L626.313 211.497V209.216H624.647L623.815 200.398L624.647 197.205L623.815 192.339L624.647 187.474L617.986 183.825V180.175L619.984 183.825L626.313 186.105L625.48 193.556L628.145 197.205L626.313 200.398L630.809 211.497L626.313 214.082L630.809 215.298L639.469 221.228H648.796L653.958 222.14V225.942H657.123L661.786 219.099L662.785 216.363L669.613 213.474L671.778 204.047L682.603 200.702V176.222L690.098 170.596V166.643L699.091 163.146L703.754 156.304L701.089 151.743L699.091 145.205L705.42 142.62L701.089 145.205L702.921 151.743L708.417 155.392L702.921 164.363L693.429 166.643L691.93 173.789L687.267 177.743V201.462L694.095 200.398L697.259 197.205L709.417 194.924L714.746 197.205L723.739 199.485H760.61L773.368 188.386L769.538 160.105L773.368 147.942L780.529 133.801L768.539 124.222L773.368 119.661V113.579L775.533 109.018L774.034 101.567L776.866 107.801L775.533 115.099V119.661L771.703 123.158L783.86 128.327L797.517 130.304L810.507 126.959L799.015 131.52H789.689L781.862 133.801L778.364 142.62L774.034 160.105L779.53 176.374L799.015 169.076H809.841L817.002 165.883L846.313 167.251L851.809 163.602L862.801 164.819L871.294 167.251L880.121 163.602V158.129L888.947 148.702L888.281 140.947L911.199 133.588L916.593 128.784L917.259 122.702L922.922 118.749V114.643L932.29 105.977H928.917L924.254 96.0936L911.43 84.9942L919.758 71.614L912.295 49.9481L904.602 50.9357L897.274 46.6784L882.952 38.924L881.953 33.4503L875.458 30.8655L870.628 23.7193H865.132L857.471 16.4211L846.813 18.7018L854.973 15.0526L849.977 7.75439L850.976 0L852.642 7.75439L855.972 13.2281H858.637L865.132 20.2222L871.96 22.807L876.623 30.1053L881.12 30.8655L885.617 33.4503V36.7953L893.111 42.117L905.602 48.5029L911.545 47.7724L911.43 47.4386L914.262 43.9415L928.917 40.1404L927.085 31.9298L932.748 42.117L917.426 45.614L922.922 73.5906L914.262 84.9942L928.917 93.6608L932.748 100.351L943.573 103.392L964.39 97.462H983.543L995.873 102.95L998.531 101.871L1017.52 84.8421L1022.68 86.0585L1030.17 75.8714L1025.34 83.7778L1034 85.7544L1035.34 88.4912L1033.17 86.0585L1025.51 84.6901L1022.68 88.1871L1017.52 86.0585L997.954 105.237L1003.86 115.251L1009.69 119.357L1013.85 124.07L1023.01 132.737L1032.34 138.819ZM868.13 233.544L869.129 208.456L865.632 232.023L861.468 234.608L858.637 242.971L851.975 248.901L849.311 253.462L843.648 265.474L845.314 279.158V267.906L851.975 255.591L853.141 251.029L861.468 242.971L863.467 235.52L868.13 233.544ZM650.461 267.298L649.795 270.947L661.12 274.901L663.951 277.637L668.281 279.918V283.415L673.777 285.392V295.883L676.608 309.871L672.278 297.556V290.713L668.281 286.152L662.785 282.807L657.123 277.637L648.796 273.532L642.301 277.637L637.971 284.327L628.977 287.216L622.815 292.386L616.487 295.883L612.823 301.661L613.489 312L610.991 298.924L614.988 295.883L619.651 291.322L622.815 289.041L624.314 284.327L630.976 279.918L639.469 269.883L645.132 268.515L650.461 267.298ZM440 736.807L432.339 722.819L423.013 716.737L413.853 708.07L409.69 703.357L403.861 699.251L397.954 689.237L417.517 670.058L422.68 672.187L425.511 668.69L433.172 670.058L435.337 672.491L434.005 669.754L425.344 667.778L430.174 659.871L422.68 670.058L417.517 668.842L398.531 685.871L395.873 686.95L383.543 681.462H364.39L343.573 687.392L332.748 684.351L328.917 677.661L314.262 668.994L322.922 657.591L317.426 629.614L332.748 626.117L327.085 615.93L328.917 624.14L314.262 627.942L311.431 631.439L311.546 631.772L305.602 632.503L293.111 626.117L285.617 620.795V617.45L281.12 614.865L276.623 614.105L271.96 606.807L265.132 604.222L258.637 597.228H255.972L252.642 591.754L250.976 584L249.977 591.754L254.973 599.053L246.813 602.702L257.471 600.421L265.132 607.719H270.628L275.458 614.865L281.953 617.45L282.952 622.924L297.275 630.678L304.602 634.936L312.295 633.948L319.758 655.614L311.431 668.994L324.254 680.094L328.917 689.977H332.29L322.922 698.643V702.749L317.259 706.702L316.593 712.784L311.199 717.588L288.281 724.947L288.947 732.702L280.121 742.129V747.602L271.294 751.251L262.801 748.819L251.809 747.602L246.313 751.251L217.002 749.883L209.841 753.076H199.015L179.53 760.374L174.034 744.105L178.364 726.62L181.862 717.801L189.689 715.521H199.015L210.507 710.959L197.517 714.304L183.86 712.328L171.703 707.158L175.533 703.661V699.099L176.866 691.801L174.034 685.567L175.533 693.018L173.368 697.579V703.661L168.539 708.222L180.529 717.801L173.368 731.942L169.538 744.105L173.368 772.386L160.61 783.485H123.739L114.746 781.205L109.417 778.924L97.259 781.205L94.0948 784.398L87.2666 785.462V761.743L91.9297 757.789L93.4286 750.643L102.921 748.363L108.417 739.392L102.921 735.743L101.089 729.205L105.42 726.62L99.091 729.205L101.089 735.743L103.754 740.304L99.091 747.146L90.0978 750.643V754.596L82.6035 760.222V784.702L71.7783 788.047L69.6133 797.474L62.7851 800.363L61.7859 803.099L57.1227 809.942H53.9585V806.14L48.7957 805.228H39.4694L30.8093 799.298L26.3127 798.082L30.8093 795.497L26.3127 784.398L28.1446 781.205L25.48 777.556L26.3127 770.105L19.9841 767.825L17.9856 764.175V767.825L24.6473 771.474L23.8146 776.339L24.6473 781.205L23.8146 784.398L24.6473 793.216H26.3127V795.497L21.6495 799.298L14.8214 806.14L-1 809.942L14.8214 807.661L21.6495 801.579H29.477L34.8063 807.661L46.7972 808.725L52.7927 812.222L57.1227 819.521L47.963 830.468L45.1318 834.877L48.7957 836.702L42.3006 841.567L47.963 842.936L49.7949 849.018L50.4611 844.608L52.7927 841.567L49.7949 833.661L61.1197 821.041L58.6216 817.544L59.2878 812.83L62.7851 811.31L64.6171 807.661L69.6133 803.099L73.2772 793.216H84.1023L89.2651 788.579H94.0948L99.091 784.702L108.417 782.117L116.078 784.702L119.242 788.579H159.212V792.456L148.72 803.099L143.724 812.374L142.891 818.608L133.898 825.298L127.403 835.942H116.078L126.071 838.982L131.733 847.953L133.232 835.181L150.719 818.608L153.217 805.684L162.376 800.211L168.372 791.392L185.526 779.228L203.012 781.965L205.177 796.257L209.008 801.883L205.177 805.684L210.673 801.883L206.51 796.257L205.844 781.205L186.192 775.883L180.529 767.521L183.361 762.199L205.177 758.246L218.168 758.854L223.664 755.813L249.311 758.854L254.14 755.813L273.293 758.854L281.62 757.029L283.785 749.579L291.779 739.24L289.614 734.83L293.278 730.421L308.897 726.364L315.427 733.462V739.24L323.921 749.579L325.586 767.368L317.426 775.275L321.256 791.392L320.424 797.93L323.921 805.988L321.256 811.006L319.258 815.415L320.424 818.456L317.426 822.105L325.42 829.251L324.754 832.901L327.252 835.029L331.082 839.591L329.917 845.368L332.415 838.374L331.082 834.421L328.251 832.901L327.252 828.035L320.424 822.105L323.255 819.521V816.023L325.42 811.006L329.917 807.661L324.754 797.93V794.585L320.424 776.643L327.252 766V748.819L319.758 739.24V730.877L313.099 722.035L319.758 718.561V711.263L325.586 706.702V702.749L328.917 699.556L330.583 696.211L338.549 689.977H349.069L369.72 684.351L383.21 684.047L395.534 688.912L399.697 702.749L405.859 706.55L408.524 713.392L413.187 712.784L423.013 719.018L430.84 724.035L440 736.807ZM269.129 792.456L268.13 817.544L263.467 819.521L261.468 826.971L253.141 835.029L251.975 839.591L245.314 851.906V863.158L243.648 849.474L249.311 837.462L251.975 832.901L258.637 826.971L261.468 818.608L265.632 816.023L269.129 792.456ZM49.7949 854.947L50.4611 851.298L45.1318 852.515L39.4694 853.883L30.9758 863.918L24.3142 868.328L22.8153 873.041L19.6511 875.322L14.9879 879.883L10.9909 882.924L13.489 896L12.8229 885.661L16.4868 879.883L22.8153 876.386L28.9773 871.216L37.9705 868.328L42.3006 861.637L48.7957 857.532L57.1227 861.637L62.7851 866.807L68.281 870.152L72.2779 874.714V881.556L76.608 893.871L73.7768 879.883V869.392L68.281 867.415V863.918L63.9509 861.637L61.1197 858.901L49.7949 854.947ZM1312.77 764.988L1314.44 723.095L1308.6 762.449L1301.64 766.766L1296.91 780.73L1285.77 790.632L1281.32 798.249L1271.86 818.307L1274.64 841.158V822.369L1285.77 801.804L1287.72 794.187L1301.64 780.73L1304.98 768.289L1312.77 764.988ZM949.002 821.354L947.889 827.447L966.815 834.049L971.546 838.619L978.782 842.427V848.267L987.967 851.568V869.087L992.699 892.445L985.462 871.88V860.454L978.782 852.837L969.598 847.251L960.135 838.619L946.219 831.764L935.364 838.619L928.128 849.79L913.098 854.615L902.8 863.247L892.224 869.087L886.101 878.735L887.214 896L883.039 874.165L889.719 869.087L897.512 861.47L902.8 857.661L905.305 849.79L916.438 842.427L930.633 825.67L940.096 823.385L949.002 821.354Z" fill="white"/>
</g>
</g>
<defs>
<clipPath id="clip0">
<rect width="1600" height="896" fill="white"/>
</clipPath>
<clipPath id="clip1">
<rect width="1600" height="896" fill="white"/>
</clipPath>
</defs>
</svg>
