<svg width="1600" height="896" viewBox="0 0 1600 896" fill="none" xmlns="http://www.w3.org/2000/svg">
<path fill-rule="evenodd" clip-rule="evenodd" d="M0 227.251L11.3958 206.448L25.269 197.404L38.8943 184.515L45.0876 177.505L53.7584 171.4L62.5447 156.506L33.4442 127.984L25.7645 131.15L21.5529 125.949L10.1572 127.984L6.93658 131.602L8.91846 127.532L21.8007 124.593L14.6164 112.834L25.7645 127.984L33.4442 126.175L61.6859 151.501L65.64 153.105L83.9819 144.943H112.471L143.438 153.762L159.541 149.24L165.239 139.29L187.039 126.402L174.157 109.442L182.332 67.8363L159.541 62.6355L167.964 47.4854L165.239 59.6959L187.039 65.3489L191.251 70.5497L191.08 71.0462L199.922 72.1326L218.502 62.6355L229.65 54.7212V49.7466L236.338 45.9025L243.027 44.7719L249.964 33.9181L260.121 30.0741L269.783 19.6725H273.746L278.701 11.5322L281.178 0L282.665 11.5322L275.233 22.386L287.372 27.8129L271.517 24.4211L260.121 35.2749H251.946L244.761 45.9025L235.1 49.7466L233.613 57.8869L212.308 69.4191L201.408 75.7505L189.965 74.2817L178.864 106.503L191.251 126.402L172.175 142.908L165.239 157.606H160.222L174.157 170.495V176.6L182.58 182.48L183.571 191.524L191.595 198.67L225.686 209.614L224.695 221.146L237.825 235.166V243.306L250.955 248.733L263.589 245.115L279.94 243.306L288.115 248.733L331.716 246.698L342.369 251.446H358.471L387.456 262.3L395.631 238.105L389.19 212.101L383.988 198.986L372.344 195.595H358.471L341.378 188.811L360.701 193.786L381.015 190.846L399.1 183.158L393.402 177.957V171.173L391.42 160.32L395.631 151.049L393.402 162.129L396.622 168.912V177.957L403.807 184.741L385.97 198.986L396.622 220.016L402.32 238.105L396.622 280.164L415.6 296.671H470.447L483.825 293.279L491.752 289.887L509.837 293.279L514.544 298.027L524.701 299.61V264.335L517.764 258.456L515.535 247.828L501.414 244.437L493.239 231.096L501.414 225.669L504.139 215.945L497.698 212.101L507.112 215.945L504.139 225.669L500.175 232.452L507.112 242.628L520.49 247.828V253.708L531.638 262.074V298.48L547.74 303.454L550.961 317.474L561.118 321.77L562.604 325.84L569.541 336.016H574.248V330.363L581.928 329.006H595.801L608.683 320.187L615.372 318.378L608.683 314.534L612.958 303.984L611.991 298.924L614.702 296.861L612.647 293.279L616.61 287.852L615.372 276.772L624.786 273.38L627.758 267.953V273.38L617.849 278.807L619.088 286.043L617.849 293.279L618.012 293.903L620.651 291.322L623.815 289.041L625.314 284.327L631.976 279.918L640.469 269.883L646.132 268.515L651.461 267.298L650.795 270.947L662.12 274.901L664.951 277.637L669.281 279.918V283.415L674.777 285.392V295.883L677.608 309.871L673.278 297.556V290.713L669.281 286.152L663.785 282.807L658.123 277.637L649.796 273.532L643.301 277.637L638.971 284.327L629.977 287.216L623.815 292.386L618.397 295.38L619.088 298.027L617.849 311.142H615.372V314.534L622.308 320.187L632.465 330.363L656 336.016L632.465 332.624L622.308 323.579H610.665L602.737 332.624L584.9 334.207L575.982 339.407L569.541 350.261L583.166 366.542L587.378 373.099L581.928 375.813L591.589 383.049L583.166 385.084L580.441 394.129L579.45 387.571L575.982 383.049L580.441 371.29L563.595 352.522L567.311 347.322L566.32 340.312L561.118 338.051L558.393 332.624L550.961 325.84L545.511 311.142H529.408L521.728 304.246H514.544L507.112 298.48L493.239 294.635L481.843 298.48L477.136 304.246H417.68V310.012L433.287 325.84L440.719 339.634L441.958 348.904L455.335 358.854L464.997 374.682H481.843L466.979 379.205L458.556 392.546L456.326 373.552L430.314 348.904L426.598 329.684L412.973 321.544L404.054 308.429L378.538 290.339L352.526 294.409L349.305 315.665L343.607 324.031L349.305 329.684L341.13 324.031L347.323 315.665L348.314 293.279L377.547 285.365L385.97 272.928L381.758 265.014L349.305 259.134L329.982 260.039L321.807 255.517L283.656 260.039L276.471 255.517L247.982 260.039L235.595 257.326L232.375 246.246L220.483 230.869L223.704 224.312L218.254 217.754L195.019 211.721L185.305 222.277V230.869L172.671 246.246L170.193 272.702L182.332 284.46L176.634 308.429L177.873 318.152L172.671 330.136L176.634 337.598L179.607 344.156L177.873 348.678L182.332 354.105L170.441 364.733L171.432 370.16L167.716 373.326L162.018 380.109L163.752 388.702L160.036 378.3L162.018 372.421L166.23 370.16L167.716 362.924L177.873 354.105L173.662 350.261V345.06L170.441 337.598L163.752 332.624L171.432 318.152V313.177L177.873 286.495L167.716 270.667V245.115L178.864 230.869V218.433L188.769 205.283L178.864 200.117V189.263L170.193 182.48V176.6L165.239 171.852L162.761 166.877L150.911 157.606H135.263L104.544 149.24L84.4774 148.788L66.1451 156.023L59.9517 176.6L50.7856 182.253L46.8218 192.429L39.8853 191.524L25.269 200.795L13.6254 208.257L0 227.251ZM614.034 301.327L613.823 301.661L613.833 301.823L614.034 301.327ZM254.175 310.012L255.662 347.322L262.598 350.261L265.571 361.341L277.958 373.326L279.692 380.109L289.601 398.425V415.158L292.079 394.807L283.656 376.943L279.692 370.16L269.783 361.341L265.571 348.904L259.378 345.06L254.175 310.012ZM580.441 402.947L579.45 397.52L587.378 399.329L595.801 401.365L608.435 416.288L618.344 422.846L620.574 429.856L620.666 429.922L616.698 416.998L634.952 409.575L622.462 416.998L627.702 435.615L628.11 436.015L643.598 446.253L635.244 459.831L634.447 464L634.654 460.789L627.746 472.016L600.366 478.565L596.042 499.088L582.592 510.441V578.557L602.287 575.501L611.414 566.331L646.48 559.782L661.852 566.331L687.792 572.881H794.141L830.94 541.006L819.891 459.789L830.94 424.858L851.595 384.25L817.009 356.741L830.94 343.641V326.175L837.184 313.076L832.861 291.68L841.027 309.583L837.184 330.542V343.641L826.136 353.684L861.203 368.53L900.592 374.207L938.06 364.6L904.915 377.7H878.015L855.438 384.25L845.351 409.575L832.861 459.789L848.713 506.511L904.915 485.552H936.139L956.795 476.382L1041.34 480.312L1057.19 469.832L1088.89 473.326L1113.39 480.312L1138.85 469.832V454.113L1164.31 427.041L1162.39 404.772L1228.49 383.638L1244.05 369.84L1245.97 352.374L1262.31 341.021V329.232L1289.33 304.343H1279.6L1266.15 275.961L1229.16 244.086L1253.18 205.661L1231.65 143.441L1209.47 146.277L1188.33 134.051L1147.02 111.782L1144.14 96.0624L1125.4 88.6394L1111.47 68.117H1095.62L1073.52 47.1579L1042.78 53.7076L1066.32 43.2281L1051.91 22.269L1054.79 0L1059.59 22.269L1069.2 37.9883H1076.89L1095.62 58.0741L1115.31 65.4971L1128.76 86.4561L1141.73 88.6394L1154.7 96.0624V105.669L1176.32 120.951L1212.35 139.29L1229.49 137.193L1229.16 136.234L1237.33 126.191L1279.6 115.275L1274.31 91.6959L1290.65 120.951L1246.45 130.994L1262.31 211.337L1237.33 244.086L1279.6 268.975L1290.65 288.187L1321.87 296.92L1381.92 279.891H1437.16L1472.72 295.651L1480.39 292.554L1535.15 243.649L1550.04 247.142L1571.66 217.887L1557.73 240.593L1582.71 246.269L1586.55 254.129L1580.31 247.142L1558.21 243.212L1550.04 253.255L1535.15 247.142L1478.72 302.218L1495.76 330.979L1512.57 342.768L1524.58 356.304L1551 381.193L1577.9 398.659L1600 438.83L1573.58 402.152L1551 387.743L1522.66 369.84L1509.21 371.587L1501.53 351.938L1483.75 341.021L1471.74 301.287L1436.2 287.314L1397.29 288.187L1337.72 304.343H1307.38L1284.4 322.246L1279.6 331.852L1269.99 341.021V352.374L1253.18 365.474V386.433L1233.97 396.408L1253.18 421.801V445.817L1274.79 473.326V522.667L1255.1 553.232L1267.59 604.756V614.363L1282.48 642.308L1269.51 651.914L1268.66 653.885L1277.31 654.289L1286.49 648.195L1304.86 650.226L1319.06 654.289L1333.81 648.195V639.055L1348.56 623.313L1347.45 610.364L1385.75 598.075L1394.76 590.052L1395.88 579.896L1405.34 573.295V566.44L1420.99 551.967H1415.36L1407.57 535.464L1386.13 516.929L1400.05 494.586L1387.58 458.407L1374.72 460.056L1362.48 452.947L1338.54 439.998L1336.87 430.858L1326.02 426.541L1317.95 414.608H1308.76L1295.96 402.421L1278.15 406.23L1291.78 400.136L1283.43 387.949L1285.1 375L1287.89 387.949L1293.45 397.089H1297.91L1308.76 408.769L1320.17 413.085L1327.96 425.272L1335.48 426.541L1342.99 430.858V436.443L1355.52 445.33L1376.39 455.994L1386.33 454.774L1386.13 454.216L1390.87 448.377L1415.36 442.029L1412.3 428.319L1421.76 445.33L1396.15 451.17L1405.34 497.887L1390.87 516.929L1415.36 531.402L1421.76 542.573L1439.85 547.651L1474.64 537.749H1506.65L1527.26 546.913L1531.7 545.112L1563.43 516.675L1572.05 518.707L1584.58 501.695L1576.51 514.898L1590.98 518.199L1593.21 522.769L1589.59 518.707L1576.79 516.422L1572.05 522.261L1563.43 518.707L1530.73 550.732L1540.6 567.455L1550.35 574.31L1557.3 582.181L1572.61 596.654L1588.2 606.809L1601 630.168L1585.69 608.841L1572.61 600.462L1556.19 590.052L1548.4 591.068L1543.94 579.642L1533.65 573.295L1526.69 550.19L1506.09 542.065L1483.55 542.573L1449.04 551.967H1431.45L1418.14 562.377L1415.36 567.963L1409.79 573.295V579.896L1400.05 587.513V599.7L1388.92 605.501L1400.05 620.266V634.231L1412.58 650.226V678.917L1401.16 696.69L1408.4 726.65V732.235L1417.03 748.485L1409.51 754.071L1405.9 762.449V768.289L1401.16 772.605L1412.58 782.507L1414.25 790.632L1418.98 793.171L1421.2 799.772L1417.03 811.452L1418.98 801.804L1412.58 794.187L1408.4 790.632L1409.51 784.539L1396.15 772.605L1401.16 766.512L1399.22 761.434L1402.56 754.071L1407.01 745.692L1401.16 732.235L1402.56 721.318L1396.15 694.404L1409.79 681.202L1407.01 651.496L1392.81 634.231V624.582L1381.9 612.73L1355.8 619.504L1349.67 626.867L1353.29 634.231L1339.93 651.496L1336.31 663.937L1322.4 666.983L1290.39 661.905L1282.32 666.983L1263.92 664.804L1263.27 666.324V676.366L1255.1 683.789L1274.79 700.819L1277.68 714.791L1285.84 719.158L1289.69 730.511L1282.48 750.596L1285.84 734.004L1274.79 720.904L1267.59 714.791L1269.51 704.312L1246.45 683.789L1255.1 673.31L1251.74 664.577L1252.26 663.422L1239.46 661.905L1230.27 666.983L1208.56 665.968L1172.1 672.569L1167.37 681.456L1176.84 695.42L1209.68 704.307L1210.79 729.443L1217.75 738.837L1208.56 745.184L1214.97 738.837L1208.56 729.443L1204.95 705.576L1175.72 701.006L1147.05 721.318L1137.04 736.044L1121.73 745.184L1117.55 766.766L1088.33 794.441L1085.82 815.768L1076.36 800.788L1059.66 795.71H1078.59L1089.44 777.937L1104.47 766.766L1105.86 756.356L1114.21 740.868L1131.75 723.095V716.621H1064.95L1059.66 710.146L1046.86 705.83L1031.27 710.146L1022.92 716.621H1014.85L1006.22 724.365H988.132L982.009 740.868L973.659 748.485L970.598 754.578L964.753 757.117L963.64 764.988L967.815 770.828L948.889 791.902L953.898 805.104L950.002 810.182L948.889 817.545L945.827 807.389L936.364 805.104L947.219 796.979L941.096 793.933L945.827 786.57L961.135 768.289L953.898 756.102L943.879 750.262L923.84 748.485L914.933 738.329H901.852L890.441 748.485L864 752.293L890.441 745.946L901.852 734.521L909.645 728.173V724.365H906.862L905.47 709.638L906.862 704.307L905.47 696.182L906.862 688.057L895.729 681.964V675.87L899.069 681.964L909.645 685.772L908.253 698.213L912.707 704.307L909.645 709.638L917.16 728.173L909.645 732.489L917.16 734.521L931.633 744.423H947.219L955.847 745.946V752.293H961.135L968.928 740.868L970.598 736.298L982.009 731.474L985.627 715.732L1003.72 710.146V669.269L1016.24 659.874V653.273L1031.27 647.433L1039.07 636.008L1034.61 628.391L1031.27 617.473L1041.85 613.157L1034.61 617.473L1037.67 628.391L1046.86 634.484L1037.67 649.464L1021.81 653.273L1019.3 665.206L1011.51 671.807V711.416L1022.92 709.638L1028.21 704.307L1048.53 700.498L1057.43 704.307L1072.46 708.115H1134.08L1155.4 689.58L1149 642.355L1155.4 622.043L1167.37 598.431L1147.33 582.435L1155.4 574.818V564.662L1159.02 557.045L1156.52 544.604L1161.25 555.014L1159.02 567.201V574.818L1152.62 580.658L1172.94 589.29L1195.76 592.591L1217.47 587.005L1198.27 594.622H1182.68L1169.6 598.431L1163.75 613.157L1156.52 642.355L1165.7 669.522L1198.27 657.335H1216.36L1228.33 652.003L1256.85 653.334L1257.5 651.914L1265.19 637.505L1255.1 614.363L1257.5 595.587L1246.45 549.302L1269.99 526.596L1265.19 475.509L1240.69 445.817V429.224L1221.85 408.841L1176.8 420.491L1166.23 433.154L1172.48 445.817L1149.42 475.509L1143.18 496.905L1119.16 502.144L1063.92 493.411L1049.98 502.144L976.009 493.411L960.157 502.144L922.689 500.398L859.761 511.75L851.595 527.033L867.928 551.049L924.61 566.331L926.532 609.559L938.541 625.715L922.689 636.632L933.737 625.715L922.689 609.559L916.444 568.515L866.006 560.655L816.529 595.587L799.236 620.912L772.816 636.632L765.61 673.747L715.172 721.341L710.849 758.02L694.517 732.257L665.695 723.524H698.36L717.094 692.959L743.033 673.747L745.435 655.844L759.846 629.209L790.109 598.643V587.509H674.822L665.695 576.374L643.598 568.951L616.698 576.374L602.287 587.509H588.357L573.465 600.826H542.242L531.674 629.209L517.263 642.308L511.979 652.788L501.891 657.154L499.97 670.69L507.175 680.733L474.511 716.975L483.157 739.68L476.432 748.413L474.511 761.076L469.227 743.61L452.894 739.68L471.629 725.708L461.061 720.468L469.227 707.805L495.647 676.366L483.157 655.407L465.864 645.365L431.278 642.308L415.906 624.842H393.329L373.635 642.308L328 648.858L373.635 637.942L393.329 618.292L406.78 607.376V600.826H401.976L399.574 575.501L401.976 566.331L399.574 552.359L401.976 538.386L382.761 527.906V517.427L388.526 527.906L406.78 534.456L404.378 555.852L412.064 566.331L406.78 575.501L419.749 607.376L406.78 614.799L419.749 618.292L444.728 635.322H471.629L486.52 637.942V648.858H495.647L509.097 629.209L511.979 621.349L531.674 613.053L537.919 585.981L569.142 576.374V506.074L590.758 489.918V478.565L616.698 468.522L630.148 448.873L622.549 435.921L620.574 434.83L611.408 427.142L598.03 422.846L591.589 412.897L581.928 406.791L569.541 412.897L561.118 420.585L552.943 425.559L546.997 432.343V442.518L540.556 460.834L544.767 440.031V424.429L552.943 421.489V416.288L559.384 412.897L563.595 408.827L580.441 402.947ZM474.511 778.105L476.432 767.626L461.061 771.119L444.728 775.049L420.23 803.867L401.015 816.53L396.692 830.066L387.565 836.616L374.115 849.715L362.586 858.448L369.792 896L367.87 866.308L378.438 849.715L396.692 839.672L414.465 824.827L440.405 816.53L452.894 797.318L471.629 785.528L495.647 797.318L511.979 812.164L527.831 821.77L539.36 834.869V854.518L551.849 889.887L543.683 849.715V819.587L527.831 813.91V803.867L515.341 797.318L507.175 789.458L474.511 778.105ZM1033.34 138.819L1041 152.807L1031.84 140.035L1024.01 135.018L1014.19 128.784L1009.52 129.392L1006.86 122.55L1000.7 118.749L996.534 104.912L984.21 100.047L970.72 100.351L950.069 105.977H939.549L931.583 112.211L929.917 115.556L926.587 118.749V122.702L920.758 127.263V134.561L914.099 138.035L920.758 146.877V155.24L928.252 164.819V182L921.424 192.643L925.754 210.585V213.93L930.917 223.661L926.42 227.006L924.255 232.023V235.52L921.424 238.105L928.252 244.035L929.251 248.901L932.082 250.421L933.415 254.374L930.917 261.368L932.082 255.591L928.252 251.029L925.754 248.901L926.42 245.251L918.426 238.105L921.424 234.456L920.258 231.415L922.256 227.006L924.921 221.988L921.424 213.93L922.256 207.392L918.426 191.275L926.587 183.368L924.921 165.579L916.427 155.24V149.462L909.897 142.364L894.278 146.421L890.614 150.83L892.779 155.24L884.785 165.579L882.62 173.029L874.293 174.854L855.141 171.813L850.311 174.854L824.664 171.813L819.168 174.854L806.178 174.246L784.361 178.199L781.53 183.52L787.192 191.883L806.844 197.205L807.51 212.257L811.673 217.883L806.178 221.684L810.008 217.883L806.178 212.257L804.013 197.965L786.526 195.228L769.372 207.392L763.377 216.211L754.217 221.684L751.719 234.608L734.232 251.181L732.733 263.953L727.071 254.982L717.078 251.942H728.403L734.898 241.298L743.891 234.608L744.724 228.374L749.72 219.099L760.212 208.456V204.579H720.242L717.078 200.702L709.417 198.117L700.091 200.702L695.095 204.579H690.265L685.102 209.216H674.277L670.613 219.099L665.617 223.661L663.785 227.31L660.288 228.83L659.622 233.544L662.12 237.041L650.795 249.661L653.793 257.567L651.461 260.608L650.795 265.018L648.963 258.936L643.301 257.567L649.796 252.702L646.132 250.877L648.963 246.468L658.123 235.52L653.793 228.222L647.797 224.725L635.806 223.661L630.477 217.579H622.65L615.821 223.661L600 225.942L615.821 222.14L622.65 215.298L627.313 211.497V209.216H625.647L624.815 200.398L625.647 197.205L624.815 192.339L625.647 187.474L618.986 183.825V180.175L620.984 183.825L627.313 186.105L626.48 193.556L629.145 197.205L627.313 200.398L631.809 211.497L627.313 214.082L631.809 215.298L640.469 221.228H649.796L654.958 222.14V225.942H658.123L662.786 219.099L663.785 216.363L670.613 213.474L672.778 204.047L683.604 200.702V176.222L691.098 170.596V166.643L700.091 163.146L704.754 156.304L702.09 151.743L700.091 145.205L706.42 142.62L702.09 145.205L703.922 151.743L709.417 155.392L703.922 164.363L694.429 166.643L692.93 173.789L688.267 177.743V201.462L695.095 200.398L698.259 197.205L710.417 194.924L715.746 197.205L724.739 199.485H761.61L774.368 188.386L770.538 160.105L774.368 147.942L781.53 133.801L769.539 124.222L774.368 119.661V113.579L776.533 109.018L775.034 101.567L777.866 107.801L776.533 115.099V119.661L772.703 123.158L784.86 128.327L798.517 130.304L811.507 126.959L800.016 131.52H790.689L782.862 133.801L779.365 142.62L775.034 160.105L780.53 176.374L800.016 169.076H810.841L818.002 165.883L847.313 167.251L852.809 163.602L863.801 164.819L872.294 167.251L881.121 163.602V158.129L889.948 148.702L889.281 140.947L912.199 133.588L917.593 128.784L918.26 122.702L923.922 118.749V114.643L933.29 105.977H929.917L925.254 96.0936L912.431 84.9942L920.758 71.614L913.295 49.9481L905.602 50.9357L898.275 46.6784L883.952 38.924L882.953 33.4503L876.458 30.8655L871.628 23.7193H866.132L858.471 16.4211L847.813 18.7018L855.973 15.0526L850.977 7.75439L851.976 0L853.642 7.75439L856.972 13.2281H859.637L866.132 20.2222L872.96 22.807L877.624 30.1053L882.12 30.8655L886.617 33.4503V36.7953L894.111 42.117L906.602 48.5029L912.546 47.7724L912.431 47.4386L915.262 43.9415L929.917 40.1404L928.085 31.9298L933.748 42.117L918.426 45.614L923.922 73.5906L915.262 84.9942L929.917 93.6608L933.748 100.351L944.573 103.392L965.391 97.462H984.543L996.873 102.95L999.531 101.871L1018.52 84.8421L1023.68 86.0585L1031.17 75.8714L1026.34 83.7778L1035 85.7544L1036.34 88.4912L1034.17 86.0585L1026.51 84.6901L1023.68 88.1871L1018.52 86.0585L998.954 105.237L1004.86 115.251L1010.69 119.357L1014.85 124.07L1024.01 132.737L1033.34 138.819ZM869.13 233.544L870.129 208.456L866.632 232.023L862.468 234.608L859.637 242.971L852.975 248.901L850.311 253.462L844.648 265.474L846.314 279.158V267.906L852.975 255.591L854.141 251.029L862.468 242.971L864.467 235.52L869.13 233.544ZM441 736.807L433.339 722.819L424.013 716.737L414.853 708.07L410.69 703.357L404.861 699.251L398.954 689.237L418.517 670.058L423.68 672.187L426.511 668.69L434.172 670.058L436.337 672.491L435.005 669.754L426.345 667.778L431.174 659.871L423.68 670.058L418.517 668.842L399.531 685.871L396.873 686.95L384.543 681.462H365.391L344.573 687.392L333.748 684.351L329.917 677.661L315.262 668.994L323.922 657.591L318.426 629.614L333.748 626.117L328.085 615.93L329.917 624.14L315.262 627.942L312.431 631.439L312.546 631.772L306.602 632.503L294.111 626.117L286.617 620.795V617.45L282.12 614.865L277.624 614.105L272.96 606.807L266.132 604.222L259.637 597.228H256.973L253.642 591.754L251.976 584L250.977 591.754L255.973 599.053L247.813 602.702L258.471 600.421L266.132 607.719H271.628L276.458 614.865L282.953 617.45L283.952 622.924L298.275 630.678L305.602 634.936L313.295 633.948L320.758 655.614L312.431 668.994L325.254 680.094L329.917 689.977H333.29L323.922 698.643V702.749L318.26 706.702L317.593 712.784L312.199 717.588L289.281 724.947L289.948 732.702L281.121 742.129V747.602L272.294 751.251L263.801 748.819L252.809 747.602L247.313 751.251L218.002 749.883L210.841 753.076H200.016L180.53 760.374L175.034 744.105L179.365 726.62L182.862 717.801L190.689 715.521H200.016L211.507 710.959L198.517 714.304L184.86 712.328L172.703 707.158L176.533 703.661V699.099L177.866 691.801L175.034 685.567L176.533 693.018L174.368 697.579V703.661L169.539 708.222L181.53 717.801L174.368 731.942L170.538 744.105L174.368 772.386L161.61 783.485H124.739L115.746 781.205L110.417 778.924L98.2592 781.205L95.0949 784.398L88.2667 785.462V761.743L92.9299 757.789L94.4287 750.643L103.922 748.363L109.417 739.392L103.922 735.743L102.09 729.205L106.42 726.62L100.091 729.205L102.09 735.743L104.754 740.304L100.091 747.146L91.0979 750.643V754.596L83.6036 760.222V784.702L72.7784 788.047L70.6134 797.474L63.7852 800.363L62.786 803.099L58.1229 809.942H54.9586V806.14L49.7958 805.228H40.4695L31.8094 799.298L27.3128 798.082L31.8094 795.497L27.3128 784.398L29.1448 781.205L26.4801 777.556L27.3128 770.105L20.9843 767.825L18.9858 764.175V767.825L25.6474 771.474L24.8147 776.339L25.6474 781.205L24.8147 784.398L25.6474 793.216H27.3128V795.497L22.6497 799.298L15.8215 806.14L0.00012207 809.942L15.8215 807.661L22.6497 801.579H30.4771L35.8064 807.661L47.7973 808.725L53.7928 812.222L58.1229 819.521L48.9631 830.468L46.1319 834.877L49.7958 836.702L43.3007 841.567L48.9631 842.936L50.7951 849.018L51.4612 844.608L53.7928 841.567L50.7951 833.661L62.1198 821.041L59.6217 817.544L60.2879 812.83L63.7852 811.31L65.6172 807.661L70.6134 803.099L74.2773 793.216H85.1025L90.2652 788.579H95.0949L100.091 784.702L109.417 782.117L117.078 784.702L120.243 788.579H160.212V792.456L149.72 803.099L144.724 812.374L143.891 818.608L134.898 825.298L128.403 835.942H117.078L127.071 838.982L132.733 847.953L134.232 835.181L151.719 818.608L154.217 805.684L163.377 800.211L169.372 791.392L186.526 779.228L204.013 781.965L206.178 796.257L210.008 801.883L206.178 805.684L211.673 801.883L207.51 796.257L206.844 781.205L187.192 775.883L181.53 767.521L184.361 762.199L206.178 758.246L219.168 758.854L224.664 755.813L250.311 758.854L255.141 755.813L274.293 758.854L282.62 757.029L284.785 749.579L292.779 739.24L290.614 734.83L294.278 730.421L309.897 726.364L316.428 733.462V739.24L324.921 749.579L326.587 767.368L318.426 775.275L322.257 791.392L321.424 797.93L324.921 805.988L322.257 811.006L320.258 815.415L321.424 818.456L318.426 822.105L326.42 829.251L325.754 832.901L328.252 835.029L332.082 839.591L330.917 845.368L333.415 838.374L332.082 834.421L329.251 832.901L328.252 828.035L321.424 822.105L324.255 819.521V816.023L326.42 811.006L330.917 807.661L325.754 797.93V794.585L321.424 776.643L328.252 766V748.819L320.758 739.24V730.877L314.099 722.035L320.758 718.561V711.263L326.587 706.702V702.749L329.917 699.556L331.583 696.211L339.549 689.977H350.069L370.72 684.351L384.21 684.047L396.534 688.912L400.697 702.749L406.859 706.55L409.524 713.392L414.187 712.784L424.013 719.018L431.84 724.035L441 736.807ZM270.129 792.456L269.13 817.544L264.467 819.521L262.468 826.971L254.141 835.029L252.976 839.591L246.314 851.906V863.158L244.649 849.474L250.311 837.462L252.976 832.901L259.637 826.971L262.468 818.608L266.632 816.023L270.129 792.456ZM50.7951 854.947L51.4612 851.298L46.1319 852.515L40.4695 853.883L31.976 863.918L25.3143 868.328L23.8155 873.041L20.6512 875.322L15.988 879.883L11.9911 882.924L14.4892 896L13.823 885.661L17.4869 879.883L23.8155 876.386L29.9775 871.216L38.9707 868.328L43.3007 861.637L49.7958 857.532L58.1229 861.637L63.7852 866.807L69.2811 870.152L73.2781 874.714V881.556L77.6081 893.871L74.7769 879.883V869.392L69.2811 867.415V863.918L64.951 861.637L62.1198 858.901L50.7951 854.947ZM1313.77 764.988L1315.44 723.095L1309.6 762.449L1302.64 766.766L1297.91 780.73L1286.77 790.632L1282.32 798.249L1272.86 818.307L1275.64 841.158V822.369L1286.77 801.804L1288.72 794.187L1302.64 780.73L1305.98 768.289L1313.77 764.988ZM950.002 821.354L948.889 827.447L967.815 834.049L972.546 838.619L979.783 842.427V848.267L988.967 851.568V869.087L993.699 892.445L986.462 871.88V860.454L979.783 852.837L970.598 847.251L961.135 838.619L947.219 831.764L936.364 838.619L929.128 849.79L914.098 854.615L903.8 863.247L893.224 869.087L887.101 878.735L888.214 896L884.039 874.165L890.719 869.087L898.512 861.47L903.8 857.661L906.305 849.79L917.438 842.427L931.633 825.67L941.096 823.385L950.002 821.354Z" fill="white"/>
</svg>
