<svg width="746" height="896" viewBox="0 0 746 896" fill="none" xmlns="http://www.w3.org/2000/svg">
<path fill-rule="evenodd" clip-rule="evenodd" d="M746 0H354L-249.5 171.5L-425.5 90.5L-287.5 228.5L-373 312L-425.5 395L-554.433 313.838L-556.208 225.71L-461.455 203.56L-563.896 194.132L-549.447 140.211L-498.148 114.495L-483.234 58.8344L-508.56 97.7232L-574.738 108.266L-621.563 67.4444L-625.501 20.7141L-641.425 80.1438L-610.403 147.492L-724.68 249.647L-854 328.5H-640L-468.5 545L-597 619L-640 723.5L-690 792.5L-854 766.5L-709 840.5L-671 892.5L-656.5 792.5L-547 723.5L-342 892.5L-373 792.5L-325.5 735.5L-218.5 766.5L-154 657L161.928 525.016L182.5 596L39.5 672.5L208.5 643.5V736.5L137 800V896L161 822.5L263 777L356 822.5L382.5 896V793.5L303.5 698.5L378.414 584.104L506.25 671.546L483.994 743.602L507.959 801.481L505.691 753.801L547.401 706.434L615.453 708.355L646.146 744.266L623.701 690.056L568.609 670.863L546.865 618.348L648.773 595.337L550.395 585.466L546.998 555.081L746 605.5V0Z" fill="white"/>
</svg>
