<svg width="947" height="896" viewBox="0 0 947 896" fill="none" xmlns="http://www.w3.org/2000/svg">
<path fill-rule="evenodd" clip-rule="evenodd" d="M713.5 238.5L676.107 353.351L643 366L574.5 348.5L528.529 375.742L523.361 359.88L530.089 285.752L544.803 270.82L541.778 207.675L555.459 189.785H562.694L574.402 193.599L588.627 177.32L713.5 238.5ZM585.14 175.612L572.298 184.654L562.694 176.366L537.963 184.654L523.229 166.5L532.569 189.785L524.939 214.779L489.934 250.099L454.691 225.379L399.045 223.988L388.39 203.071V220.304L371.288 243.063L392.599 226.75L408.254 258.717L454.691 267.136L473.635 301.471L454.691 333.438L459.296 351.461L455.968 360.171L425.75 370.009L406.543 330.807H363L382.47 333.307L399.308 339.753L406.543 359.88L396.545 370.009H387.995L403.386 373.43L411.016 364.879L422.724 381.717L452.795 385.058L465.873 403.029V412.871L453 420.5L322.5 348.5L290.5 172L169 112.5L231 31.5L144.5 96.5H79L158.5 137L160.097 200.889L158.872 201.098L50.4986 236.411L-121.04 220.842L-155.594 186.79L-301.716 193.792L-343.118 162.132V145.389L-334.289 118.296L-397 63.5L-354.99 123.167L-374.168 145.389L-354.99 202.62L-397 236.715L-343.118 215.102L-285.278 232.758L-203.544 313.764L-260.75 395.319L-263.968 524.089L-312.371 548.747H-272.492L-219.827 588.321L-257.575 539.005L-183.601 502.779L-164.118 395.319L-84.6642 351.482L-10.69 395.319L31.0157 384.664L51.1724 392.365L73.939 462.291L-16.7784 506.737V607.5L-10.9944 562.446L3.92218 523.48L50.4985 506.737L73.939 529.873V549.66L81.8539 514.043L62.0665 496.386L101.032 469.293L108.764 399.707L150.349 369.443H178.476L257.744 482.451L123.5 615.5L28.5 644.5L-60 609L9 665L-22.5 759L9 795.5L-60 893.5L43 803.5L28.5 759V731.5L96.5 679.5L336.5 691L393.255 635.072L585.057 617.663V624.95L554.793 666.535L485.207 674.266L458.114 713.232L440.457 693.445L404.84 701.36H424.627L447.763 724.8L431.02 771.377L392.054 786.293L347 792.077H447.763L492.209 701.36L562.135 724.126L569.836 744.283L559.181 785.989L603.018 859.963L585.057 896H735L718.089 724.8L747.917 633.259L853 667.5L946.5 683.5V391H839L770.699 341.292L758 227L694 182.5L726.5 153.5L713.5 95V127.5L675 165.5L598.5 138L574 74L564.5 0V165.5L585.14 175.612Z" fill="white"/>
</svg>
