<svg width="264" height="896" viewBox="0 0 264 896" fill="none" xmlns="http://www.w3.org/2000/svg">
<path fill-rule="evenodd" clip-rule="evenodd" d="M264 0H-128L-731.5 171.5L-907.5 90.5L-769.5 228.5L-855 312L-907.5 395L-1036.43 313.838L-1038.21 225.71L-943.455 203.56L-1045.9 194.132L-1031.45 140.211L-980.148 114.495L-965.234 58.8344L-990.56 97.7232L-1056.74 108.266L-1103.56 67.4444L-1107.5 20.7141L-1123.42 80.1438L-1092.4 147.492L-1206.68 249.647L-1336 328.5H-1122L-950.5 545L-1079 619L-1122 723.5L-1172 792.5L-1336 766.5L-1191 840.5L-1153 892.5L-1138.5 792.5L-1029 723.5L-824 892.5L-855 792.5L-807.5 735.5L-700.5 766.5L-636 657L-320.072 525.016L-299.5 596L-442.5 672.5L-273.5 643.5V736.5L-345 800V896L-321 822.5L-219 777L-126 822.5L-99.5 896V793.5L-178.5 698.5L-103.586 584.104L24.2505 671.546L1.9939 743.602L25.9586 801.481L23.6906 753.801L65.4006 706.434L133.453 708.355L164.146 744.266L141.701 690.056L86.6088 670.863L64.8652 618.348L166.773 595.337L68.3945 585.466L64.9979 555.081L264 605.5V0Z" fill="white"/>
</svg>
