<svg width="210" height="896" viewBox="0 0 210 896" fill="none" xmlns="http://www.w3.org/2000/svg">
<path fill-rule="evenodd" clip-rule="evenodd" d="M-1390 227.251L-1378.6 206.448L-1364.73 197.404L-1351.11 184.515L-1344.91 177.505L-1336.24 171.4L-1327.46 156.506L-1356.56 127.984L-1364.24 131.15L-1368.45 125.949L-1379.84 127.984L-1383.06 131.602L-1381.08 127.532L-1368.2 124.593L-1375.38 112.834L-1364.24 127.984L-1356.56 126.175L-1328.31 151.501L-1324.36 153.105L-1306.02 144.943H-1277.53L-1246.56 153.762L-1230.46 149.24L-1224.76 139.29L-1202.96 126.402L-1215.84 109.442L-1207.67 67.8363L-1230.46 62.6355L-1222.04 47.4854L-1224.76 59.6959L-1202.96 65.3489L-1198.75 70.5497L-1198.92 71.0462L-1190.08 72.1326L-1171.5 62.6355L-1160.35 54.7212V49.7466L-1153.66 45.9025L-1146.97 44.7719L-1140.04 33.9181L-1129.88 30.0741L-1120.22 19.6725H-1116.25L-1111.3 11.5322L-1108.82 0L-1107.34 11.5322L-1114.77 22.386L-1102.63 27.8129L-1118.48 24.4211L-1129.88 35.2749H-1138.05L-1145.24 45.9025L-1154.9 49.7466L-1156.39 57.8869L-1177.69 69.4191L-1188.59 75.7505L-1200.03 74.2817L-1211.14 106.503L-1198.75 126.402L-1217.82 142.908L-1224.76 157.606H-1229.78L-1215.84 170.495V176.6L-1207.42 182.48L-1206.43 191.524L-1198.41 198.67L-1164.31 209.614L-1165.31 221.146L-1152.18 235.166V243.306L-1139.05 248.733L-1126.41 245.115L-1110.06 243.306L-1101.89 248.733L-1058.28 246.698L-1047.63 251.446H-1031.53L-1002.54 262.3L-994.369 238.105L-1000.81 212.101L-1006.01 198.986L-1017.66 195.595H-1031.53L-1048.62 188.811L-1029.3 193.786L-1008.98 190.846L-990.9 183.158L-996.598 177.957V171.173L-998.58 160.32L-994.369 151.049L-996.598 162.129L-993.378 168.912V177.957L-986.193 184.741L-1004.03 198.986L-993.378 220.016L-987.68 238.105L-993.378 280.164L-974.4 296.671H-919.553L-906.175 293.279L-898.248 289.887L-880.163 293.279L-875.456 298.027L-865.299 299.61V264.335L-872.236 258.456L-874.465 247.828L-888.586 244.437L-896.761 231.096L-888.586 225.669L-885.861 215.945L-892.302 212.101L-882.888 215.945L-885.861 225.669L-889.825 232.452L-882.888 242.628L-869.51 247.828V253.708L-858.362 262.074V298.48L-842.26 303.454L-839.039 317.474L-828.882 321.77L-827.396 325.84L-820.459 336.016H-815.752V330.363L-808.072 329.006H-794.199L-781.317 320.187L-774.628 318.378L-781.317 314.534L-777.042 303.984L-778.009 298.924L-775.298 296.861L-777.353 293.279L-773.39 287.852L-774.628 276.772L-765.214 273.38L-762.242 267.953V273.38L-772.151 278.807L-770.912 286.043L-772.151 293.279L-771.988 293.903L-769.349 291.322L-766.185 289.041L-764.686 284.327L-758.024 279.918L-749.531 269.883L-743.868 268.515L-738.539 267.298L-739.205 270.947L-727.88 274.901L-725.049 277.637L-720.719 279.918V283.415L-715.223 285.392V295.883L-712.392 309.871L-716.722 297.556V290.713L-720.719 286.152L-726.215 282.807L-731.877 277.637L-740.204 273.532L-746.699 277.637L-751.029 284.327L-760.023 287.216L-766.185 292.386L-771.603 295.38L-770.912 298.027L-772.151 311.142H-774.628V314.534L-767.692 320.187L-757.535 330.363L-734 336.016L-757.535 332.624L-767.692 323.579H-779.335L-787.263 332.624L-805.1 334.207L-814.018 339.407L-820.459 350.261L-806.834 366.542L-802.622 373.099L-808.072 375.813L-798.411 383.049L-806.834 385.084L-809.559 394.129L-810.55 387.571L-814.018 383.049L-809.559 371.29L-826.405 352.522L-822.689 347.322L-823.68 340.312L-828.882 338.051L-831.607 332.624L-839.039 325.84L-844.489 311.142H-860.592L-868.272 304.246H-875.456L-882.888 298.48L-896.761 294.635L-908.157 298.48L-912.864 304.246H-972.32V310.012L-956.713 325.84L-949.281 339.634L-948.042 348.904L-934.665 358.854L-925.003 374.682H-908.157L-923.021 379.205L-931.444 392.546L-933.674 373.552L-959.686 348.904L-963.402 329.684L-977.027 321.544L-985.946 308.429L-1011.46 290.339L-1037.47 294.409L-1040.69 315.665L-1046.39 324.031L-1040.69 329.684L-1048.87 324.031L-1042.68 315.665L-1041.69 293.279L-1012.45 285.365L-1004.03 272.928L-1008.24 265.014L-1040.69 259.134L-1060.02 260.039L-1068.19 255.517L-1106.34 260.039L-1113.53 255.517L-1142.02 260.039L-1154.4 257.326L-1157.63 246.246L-1169.52 230.869L-1166.3 224.312L-1171.75 217.754L-1194.98 211.721L-1204.69 222.277V230.869L-1217.33 246.246L-1219.81 272.702L-1207.67 284.46L-1213.37 308.429L-1212.13 318.152L-1217.33 330.136L-1213.37 337.598L-1210.39 344.156L-1212.13 348.678L-1207.67 354.105L-1219.56 364.733L-1218.57 370.16L-1222.28 373.326L-1227.98 380.109L-1226.25 388.702L-1229.96 378.3L-1227.98 372.421L-1223.77 370.16L-1222.28 362.924L-1212.13 354.105L-1216.34 350.261V345.06L-1219.56 337.598L-1226.25 332.624L-1218.57 318.152V313.177L-1212.13 286.495L-1222.28 270.667V245.115L-1211.14 230.869V218.433L-1201.23 205.283L-1211.14 200.117V189.263L-1219.81 182.48V176.6L-1224.76 171.852L-1227.24 166.877L-1239.09 157.606H-1254.74L-1285.46 149.24L-1305.52 148.788L-1323.85 156.023L-1330.05 176.6L-1339.21 182.253L-1343.18 192.429L-1350.11 191.524L-1364.73 200.795L-1376.37 208.257L-1390 227.251ZM-775.966 301.327L-776.177 301.661L-776.167 301.823L-775.966 301.327ZM-1135.82 310.012L-1134.34 347.322L-1127.4 350.261L-1124.43 361.341L-1112.04 373.326L-1110.31 380.109L-1100.4 398.425V415.158L-1097.92 394.807L-1106.34 376.943L-1110.31 370.16L-1120.22 361.341L-1124.43 348.904L-1130.62 345.06L-1135.82 310.012ZM-809.559 402.947L-810.55 397.52L-802.622 399.329L-794.199 401.365L-781.565 416.288L-771.656 422.846L-769.426 429.856L-769.335 429.922L-773.302 416.998L-755.048 409.575L-767.538 416.998L-762.299 435.615L-761.889 436.015L-746.402 446.253L-754.756 459.83L-755.553 464L-755.346 460.789L-762.254 472.016L-789.635 478.565L-793.958 499.088L-807.408 510.441V578.557L-787.713 575.501L-778.586 566.331L-743.52 559.782L-728.148 566.331L-702.208 572.881H-595.859L-559.06 541.006L-570.109 459.789L-559.06 424.858L-538.405 384.25L-572.991 356.741L-559.06 343.641V326.175L-552.816 313.076L-557.139 291.68L-548.973 309.583L-552.816 330.542V343.641L-563.864 353.684L-528.798 368.53L-489.408 374.207L-451.94 364.6L-485.085 377.7H-511.985L-534.562 384.25L-544.65 409.575L-557.139 459.789L-541.287 506.511L-485.085 485.552H-453.861L-433.206 476.382L-348.662 480.312L-332.81 469.832L-301.106 473.326L-276.607 480.312L-251.148 469.832V454.113L-225.689 427.041L-227.61 404.772L-161.507 383.638L-145.949 369.84L-144.027 352.374L-127.695 341.021V329.232L-100.675 304.343H-110.402L-123.852 275.961L-160.84 244.086L-136.822 205.661L-158.347 143.441L-180.535 146.277L-201.671 134.051L-242.982 111.782L-245.864 96.0624L-264.598 88.6394L-278.529 68.117H-294.381L-316.477 47.1579L-347.221 53.7076L-323.683 43.2281L-338.094 22.269L-335.212 0L-330.408 22.269L-320.801 37.9883H-313.115L-294.381 58.0741L-274.686 65.4971L-261.236 86.4561L-248.266 88.6394L-235.296 96.0624V105.669L-213.68 120.951L-177.653 139.29L-160.508 137.193L-160.84 136.234L-152.674 126.191L-110.402 115.275L-115.686 91.6959L-99.3535 120.951L-143.547 130.994L-127.695 211.337L-152.674 244.086L-110.402 268.975L-99.3535 288.187L-68.13 296.92L-8.08472 279.891H47.1571L82.7224 295.651L90.3896 292.554L145.151 243.649L160.042 247.142L181.658 217.887L167.728 240.593L192.707 246.269L196.55 254.129L190.305 247.142L168.208 243.212L160.042 253.255L145.151 247.142L88.7242 302.218L105.761 330.979L122.574 342.768L134.583 356.304L161.003 381.193L187.903 398.659L210 438.83L183.58 402.152L161.003 387.743L132.661 369.84L119.211 371.587L111.526 351.938L93.7522 341.021L81.743 301.287L46.1963 287.314L7.28687 288.187L-52.2781 304.343H-82.6208L-105.598 322.246L-110.402 331.852L-120.009 341.021V352.374L-136.822 365.474V386.433L-156.027 396.408L-136.822 421.801V445.817L-115.206 473.326V522.667L-134.9 553.232L-122.411 604.756V614.363L-107.52 642.308L-120.49 651.914L-121.344 653.885L-112.69 654.289L-103.505 648.195L-85.1359 650.226L-70.9414 654.289L-56.1903 648.195V639.055L-41.4392 623.313L-42.5525 610.364L-4.25208 598.075L4.76245 590.052L5.87573 579.896L15.3387 573.295V566.44L30.9945 551.967H25.3584L17.5654 535.464L-3.86548 516.929L10.0507 494.586L-2.4209 458.407L-15.2767 460.056L-27.5229 452.947L-51.4587 439.998L-53.1287 430.858L-63.9834 426.541L-72.0547 414.608H-81.2394L-94.0422 402.421L-111.855 406.23L-98.217 400.136L-106.567 387.949L-104.897 375L-102.114 387.949L-96.5471 397.089H-92.094L-81.2394 408.769L-69.8281 413.085L-62.035 425.272L-54.5203 426.541L-47.0056 430.858V436.443L-34.481 445.33L-13.6068 455.994L-3.67334 454.774L-3.86548 454.216L0.865967 448.377L25.3584 442.029L22.2969 428.319L31.7599 445.33L6.15417 451.17L15.3387 497.887L0.865967 516.929L25.3584 531.402L31.7599 542.573L49.8508 547.651L84.6414 537.749H116.648L137.255 546.913L141.698 545.112L173.426 516.675L182.054 518.707L194.579 501.695L186.508 514.898L200.98 518.199L203.207 522.769L199.589 518.707L186.786 516.422L182.054 522.261L173.426 518.707L140.733 550.732L150.604 567.455L160.345 574.31L167.303 582.181L182.611 596.654L198.197 606.809L211 630.168L195.692 608.841L182.611 600.462L166.19 590.052L158.397 591.068L153.944 579.642L143.646 573.295L136.688 550.19L116.092 542.065L93.5476 542.573L59.0356 551.967H41.4548L28.1417 562.377L25.3584 567.963L19.792 573.295V579.896L10.0507 587.513V599.7L-1.0769 605.501L10.0507 620.266V634.231L22.5752 650.226V678.917L11.1639 696.69L18.4004 726.65V732.235L27.0283 748.485L19.5137 754.071L15.8955 762.449V768.289L11.1639 772.605L22.5752 782.507L24.2451 790.632L28.9766 793.171L31.2032 799.772L27.0283 811.452L28.9766 801.804L22.5752 794.187L18.4004 790.632L19.5137 784.539L6.15417 772.605L11.1639 766.512L9.2157 761.434L12.5555 754.071L17.0088 745.692L11.1639 732.235L12.5555 721.318L6.15417 694.404L19.792 681.202L17.0088 651.496L2.81421 634.231V624.582L-8.09937 612.73L-34.2028 619.504L-40.3258 626.867L-36.7076 634.231L-50.0671 651.496L-53.6853 663.937L-67.6016 666.983L-99.6086 661.905L-107.68 666.983L-126.076 664.804L-126.734 666.324V676.366L-134.9 683.789L-115.206 700.819L-112.323 714.791L-104.157 719.158L-100.314 730.511L-107.52 750.596L-104.157 734.004L-115.206 720.904L-122.411 714.791L-120.49 704.312L-143.547 683.789L-134.9 673.31L-138.263 664.577L-137.737 663.422L-150.542 661.905L-159.727 666.983L-181.436 665.968L-217.896 672.569L-222.628 681.456L-213.165 695.42L-180.322 704.307L-179.209 729.443L-172.251 738.837L-181.436 745.184L-175.034 738.837L-181.436 729.443L-185.054 705.576L-214.278 701.006L-242.945 721.318L-252.965 736.044L-268.273 745.184L-272.448 766.766L-301.671 794.441L-304.176 815.768L-313.639 800.788L-330.339 795.71H-311.413L-300.558 777.937L-285.529 766.766L-284.137 756.356L-275.787 740.868L-258.253 723.095V716.621H-325.051L-330.339 710.146L-343.142 705.83L-358.728 710.146L-367.077 716.621H-375.149L-383.777 724.365H-401.868L-407.991 740.868L-416.341 748.485L-419.402 754.578L-425.247 757.117L-426.36 764.988L-422.185 770.828L-441.111 791.902L-436.102 805.104L-439.998 810.182L-441.111 817.545L-444.173 807.389L-453.636 805.104L-442.781 796.979L-448.904 793.933L-444.173 786.57L-428.865 768.289L-436.102 756.102L-446.121 750.262L-466.16 748.485L-475.067 738.329H-488.148L-499.559 748.485L-526 752.293L-499.559 745.946L-488.148 734.521L-480.355 728.173V724.365H-483.138L-484.53 709.638L-483.138 704.307L-484.53 696.182L-483.138 688.057L-494.271 681.964V675.87L-490.931 681.964L-480.355 685.772L-481.747 698.213L-477.293 704.307L-480.355 709.638L-472.84 728.173L-480.355 732.489L-472.84 734.521L-458.367 744.423H-442.781L-434.153 745.946V752.293H-428.865L-421.072 740.868L-419.402 736.298L-407.991 731.474L-404.373 715.732L-386.282 710.146V669.269L-373.757 659.874V653.273L-358.728 647.433L-350.935 636.008L-355.388 628.391L-358.728 617.473L-348.151 613.157L-355.388 617.473L-352.326 628.391L-343.142 634.484L-352.326 649.464L-368.191 653.273L-370.696 665.206L-378.489 671.807V711.416L-367.077 709.638L-361.789 704.307L-341.472 700.498L-332.565 704.307L-317.536 708.115H-255.916L-234.595 689.58L-240.997 642.355L-234.595 622.043L-222.628 598.431L-242.667 582.435L-234.595 574.818V564.662L-230.977 557.045L-233.482 544.604L-228.751 555.014L-230.977 567.201V574.818L-237.379 580.658L-217.061 589.29L-194.239 592.591L-172.529 587.005L-191.734 594.622H-207.32L-220.401 598.431L-226.246 613.157L-233.482 642.355L-224.297 669.522L-191.734 657.335H-173.643L-161.675 652.003L-133.145 653.334L-132.499 651.914L-124.813 637.505L-134.9 614.363L-132.499 595.587L-143.547 549.302L-120.009 526.596L-124.813 475.509L-149.311 445.817V429.224L-168.147 408.841L-213.199 420.491L-223.767 433.154L-217.523 445.817L-240.58 475.509L-246.825 496.905L-270.843 502.144L-326.085 493.411L-340.015 502.144L-413.991 493.411L-429.843 502.144L-467.311 500.398L-530.239 511.75L-538.405 527.033L-522.073 551.049L-465.39 566.331L-463.468 609.559L-451.459 625.715L-467.311 636.632L-456.263 625.715L-467.311 609.559L-473.556 568.515L-523.994 560.655L-573.471 595.587L-590.764 620.912L-617.184 636.632L-624.39 673.747L-674.828 721.341L-679.151 758.02L-695.483 732.257L-724.305 723.524H-691.641L-672.906 692.959L-646.967 673.747L-644.565 655.844L-630.154 629.209L-599.891 598.643V587.509H-715.178L-724.305 576.374L-746.402 568.951L-773.302 576.374L-787.713 587.509H-801.644L-816.535 600.826H-847.758L-858.326 629.209L-872.737 642.308L-878.021 652.788L-888.109 657.154L-890.03 670.69L-882.825 680.733L-915.489 716.975L-906.843 739.68L-913.568 748.413L-915.489 761.076L-920.773 743.61L-937.106 739.68L-918.372 725.708L-928.94 720.468L-920.773 707.805L-894.353 676.366L-906.843 655.407L-924.136 645.365L-958.722 642.308L-974.094 624.842H-996.671L-1016.37 642.308L-1062 648.858L-1016.37 637.942L-996.671 618.292L-983.221 607.376V600.826H-988.024L-990.426 575.501L-988.024 566.331L-990.426 552.359L-988.024 538.386L-1007.24 527.906V517.427L-1001.47 527.906L-983.221 534.456L-985.622 555.852L-977.937 566.331L-983.221 575.501L-970.251 607.376L-983.221 614.799L-970.251 618.292L-945.272 635.322H-918.372L-903.48 637.942V648.858H-894.353L-880.903 629.209L-878.021 621.349L-858.326 613.053L-852.082 585.981L-820.858 576.374V506.074L-799.242 489.918V478.565L-773.302 468.522L-759.852 448.873L-767.451 435.921L-769.426 434.83L-778.592 427.142L-791.97 422.846L-798.411 412.897L-808.072 406.791L-820.459 412.897L-828.882 420.585L-837.057 425.559L-843.003 432.343V442.518L-849.444 460.834L-845.233 440.031V424.429L-837.057 421.489V416.288L-830.616 412.897L-826.405 408.827L-809.559 402.947ZM-915.489 778.105L-913.568 767.626L-928.94 771.119L-945.272 775.049L-969.77 803.867L-988.985 816.53L-993.308 830.066L-1002.44 836.616L-1015.89 849.715L-1027.41 858.448L-1020.21 896L-1022.13 866.308L-1011.56 849.715L-993.308 839.672L-975.535 824.827L-949.595 816.53L-937.106 797.318L-918.372 785.528L-894.353 797.318L-878.021 812.164L-862.169 821.77L-850.641 834.869V854.518L-838.151 889.887L-846.317 849.715V819.587L-862.169 813.91V803.867L-874.659 797.318L-882.825 789.458L-915.489 778.105ZM-356.661 138.819L-349 152.807L-358.16 140.035L-365.987 135.018L-375.813 128.784L-380.476 129.392L-383.141 122.55L-389.303 118.749L-393.466 104.912L-405.79 100.047L-419.28 100.351L-439.931 105.977H-450.451L-458.417 112.211L-460.083 115.556L-463.413 118.749V122.702L-469.242 127.263V134.561L-475.901 138.035L-469.242 146.877V155.24L-461.748 164.819V182L-468.576 192.643L-464.246 210.585V213.93L-459.083 223.661L-463.58 227.006L-465.745 232.023V235.52L-468.576 238.105L-461.748 244.035L-460.749 248.901L-457.918 250.421L-456.585 254.374L-459.083 261.368L-457.918 255.591L-461.748 251.029L-464.246 248.901L-463.58 245.251L-471.574 238.105L-468.576 234.456L-469.742 231.415L-467.744 227.006L-465.079 221.988L-468.576 213.93L-467.744 207.392L-471.574 191.275L-463.413 183.368L-465.079 165.579L-473.573 155.24V149.462L-480.103 142.364L-495.722 146.421L-499.386 150.83L-497.221 155.24L-505.215 165.579L-507.38 173.029L-515.707 174.854L-534.859 171.813L-539.689 174.854L-565.336 171.813L-570.832 174.854L-583.822 174.246L-605.639 178.199L-608.47 183.52L-602.808 191.883L-583.156 197.205L-582.49 212.257L-578.327 217.883L-583.822 221.684L-579.992 217.883L-583.822 212.257L-585.987 197.965L-603.474 195.228L-620.628 207.392L-626.623 216.211L-635.783 221.684L-638.281 234.608L-655.768 251.181L-657.267 263.953L-662.929 254.982L-672.922 251.942H-661.597L-655.102 241.298L-646.109 234.608L-645.276 228.374L-640.28 219.099L-629.788 208.456V204.579H-669.758L-672.922 200.702L-680.583 198.117L-689.909 200.702L-694.905 204.579H-699.735L-704.898 209.216H-715.723L-719.387 219.099L-724.383 223.661L-726.215 227.31L-729.712 228.83L-730.378 233.544L-727.88 237.041L-739.205 249.661L-736.207 257.567L-738.539 260.608L-739.205 265.018L-741.037 258.936L-746.699 257.567L-740.204 252.702L-743.868 250.877L-741.037 246.468L-731.877 235.52L-736.207 228.222L-742.203 224.725L-754.194 223.661L-759.523 217.579H-767.35L-774.179 223.661L-790 225.942L-774.179 222.14L-767.35 215.298L-762.687 211.497V209.216H-764.353L-765.185 200.398L-764.353 197.205L-765.185 192.339L-764.353 187.474L-771.014 183.825V180.175L-769.016 183.825L-762.687 186.105L-763.52 193.556L-760.855 197.205L-762.687 200.398L-758.191 211.497L-762.687 214.082L-758.191 215.298L-749.531 221.228H-740.204L-735.042 222.14V225.942H-731.877L-727.214 219.099L-726.215 216.363L-719.387 213.474L-717.222 204.047L-706.396 200.702V176.222L-698.902 170.596V166.643L-689.909 163.146L-685.246 156.304L-687.91 151.743L-689.909 145.205L-683.58 142.62L-687.91 145.205L-686.078 151.743L-680.583 155.392L-686.078 164.363L-695.571 166.643L-697.07 173.789L-701.733 177.743V201.462L-694.905 200.398L-691.741 197.205L-679.583 194.924L-674.254 197.205L-665.261 199.485H-628.39L-615.632 188.386L-619.462 160.105L-615.632 147.942L-608.47 133.801L-620.461 124.222L-615.632 119.661V113.579L-613.467 109.018L-614.966 101.567L-612.134 107.801L-613.467 115.099V119.661L-617.297 123.158L-605.14 128.327L-591.483 130.304L-578.493 126.959L-589.984 131.52H-599.311L-607.138 133.801L-610.635 142.62L-614.966 160.105L-609.47 176.374L-589.984 169.076H-579.159L-571.998 165.883L-542.687 167.251L-537.191 163.602L-526.199 164.819L-517.706 167.251L-508.879 163.602V158.129L-500.052 148.702L-500.719 140.947L-477.801 133.588L-472.407 128.784L-471.74 122.702L-466.078 118.749V114.643L-456.71 105.977H-460.083L-464.746 96.0936L-477.569 84.9942L-469.242 71.614L-476.705 49.9481L-484.398 50.9357L-491.725 46.6784L-506.048 38.924L-507.047 33.4503L-513.542 30.8655L-518.372 23.7193H-523.868L-531.529 16.4211L-542.187 18.7018L-534.027 15.0526L-539.023 7.75439L-538.024 0L-536.358 7.75439L-533.028 13.2281H-530.363L-523.868 20.2222L-517.04 22.807L-512.376 30.1053L-507.88 30.8655L-503.383 33.4503V36.7953L-495.889 42.117L-483.398 48.5029L-477.454 47.7724L-477.569 47.4386L-474.738 43.9415L-460.083 40.1404L-461.915 31.9298L-456.252 42.117L-471.574 45.614L-466.078 73.5906L-474.738 84.9942L-460.083 93.6608L-456.252 100.351L-445.427 103.392L-424.609 97.462H-405.457L-393.127 102.95L-390.469 101.871L-371.483 84.8421L-366.32 86.0585L-358.826 75.8714L-363.656 83.7778L-354.995 85.7544L-353.663 88.4912L-355.828 86.0585L-363.489 84.6901L-366.32 88.1871L-371.483 86.0585L-391.046 105.237L-385.139 115.251L-379.31 119.357L-375.147 124.07L-365.987 132.737L-356.661 138.819ZM-520.87 233.544L-519.871 208.456L-523.368 232.023L-527.532 234.608L-530.363 242.971L-537.025 248.901L-539.689 253.462L-545.352 265.474L-543.686 279.158V267.906L-537.025 255.591L-535.859 251.029L-527.532 242.971L-525.533 235.52L-520.87 233.544ZM-949 736.807L-956.661 722.819L-965.987 716.737L-975.147 708.07L-979.31 703.357L-985.139 699.251L-991.046 689.237L-971.483 670.058L-966.32 672.187L-963.489 668.69L-955.828 670.058L-953.663 672.491L-954.995 669.754L-963.656 667.778L-958.826 659.871L-966.32 670.058L-971.483 668.842L-990.469 685.871L-993.127 686.95L-1005.46 681.462H-1024.61L-1045.43 687.392L-1056.25 684.351L-1060.08 677.661L-1074.74 668.994L-1066.08 657.591L-1071.57 629.614L-1056.25 626.117L-1061.91 615.93L-1060.08 624.14L-1074.74 627.942L-1077.57 631.439L-1077.45 631.772L-1083.4 632.503L-1095.89 626.117L-1103.38 620.795V617.45L-1107.88 614.865L-1112.38 614.105L-1117.04 606.807L-1123.87 604.222L-1130.36 597.228H-1133.03L-1136.36 591.754L-1138.02 584L-1139.02 591.754L-1134.03 599.053L-1142.19 602.702L-1131.53 600.421L-1123.87 607.719H-1118.37L-1113.54 614.865L-1107.05 617.45L-1106.05 622.924L-1091.73 630.678L-1084.4 634.936L-1076.71 633.948L-1069.24 655.614L-1077.57 668.994L-1064.75 680.094L-1060.08 689.977H-1056.71L-1066.08 698.643V702.749L-1071.74 706.702L-1072.41 712.784L-1077.8 717.588L-1100.72 724.947L-1100.05 732.702L-1108.88 742.129V747.602L-1117.71 751.251L-1126.2 748.819L-1137.19 747.602L-1142.69 751.251L-1172 749.883L-1179.16 753.076H-1189.98L-1209.47 760.374L-1214.97 744.105L-1210.64 726.62L-1207.14 717.801L-1199.31 715.521H-1189.98L-1178.49 710.959L-1191.48 714.304L-1205.14 712.328L-1217.3 707.158L-1213.47 703.661V699.099L-1212.13 691.801L-1214.97 685.567L-1213.47 693.018L-1215.63 697.579V703.661L-1220.46 708.222L-1208.47 717.801L-1215.63 731.942L-1219.46 744.105L-1215.63 772.386L-1228.39 783.485H-1265.26L-1274.25 781.205L-1279.58 778.924L-1291.74 781.205L-1294.91 784.398L-1301.73 785.462V761.743L-1297.07 757.789L-1295.57 750.643L-1286.08 748.363L-1280.58 739.392L-1286.08 735.743L-1287.91 729.205L-1283.58 726.62L-1289.91 729.205L-1287.91 735.743L-1285.25 740.304L-1289.91 747.146L-1298.9 750.643V754.596L-1306.4 760.222V784.702L-1317.22 788.047L-1319.39 797.474L-1326.21 800.363L-1327.21 803.099L-1331.88 809.942H-1335.04V806.14L-1340.2 805.228H-1349.53L-1358.19 799.298L-1362.69 798.082L-1358.19 795.497L-1362.69 784.398L-1360.86 781.205L-1363.52 777.556L-1362.69 770.105L-1369.02 767.825L-1371.01 764.175V767.825L-1364.35 771.474L-1365.19 776.339L-1364.35 781.205L-1365.19 784.398L-1364.35 793.216H-1362.69V795.497L-1367.35 799.298L-1374.18 806.14L-1390 809.942L-1374.18 807.661L-1367.35 801.579H-1359.52L-1354.19 807.661L-1342.2 808.725L-1336.21 812.222L-1331.88 819.521L-1341.04 830.468L-1343.87 834.877L-1340.2 836.702L-1346.7 841.567L-1341.04 842.936L-1339.21 849.018L-1338.54 844.608L-1336.21 841.567L-1339.21 833.661L-1327.88 821.041L-1330.38 817.544L-1329.71 812.83L-1326.21 811.31L-1324.38 807.661L-1319.39 803.099L-1315.72 793.216H-1304.9L-1299.73 788.579H-1294.91L-1289.91 784.702L-1280.58 782.117L-1272.92 784.702L-1269.76 788.579H-1229.79V792.456L-1240.28 803.099L-1245.28 812.374L-1246.11 818.608L-1255.1 825.298L-1261.6 835.942H-1272.92L-1262.93 838.982L-1257.27 847.953L-1255.77 835.181L-1238.28 818.608L-1235.78 805.684L-1226.62 800.211L-1220.63 791.392L-1203.47 779.228L-1185.99 781.965L-1183.82 796.257L-1179.99 801.883L-1183.82 805.684L-1178.33 801.883L-1182.49 796.257L-1183.16 781.205L-1202.81 775.883L-1208.47 767.521L-1205.64 762.199L-1183.82 758.246L-1170.83 758.854L-1165.34 755.813L-1139.69 758.854L-1134.86 755.813L-1115.71 758.854L-1107.38 757.029L-1105.22 749.579L-1097.22 739.24L-1099.39 734.83L-1095.72 730.421L-1080.1 726.364L-1073.57 733.462V739.24L-1065.08 749.579L-1063.41 767.368L-1071.57 775.275L-1067.74 791.392L-1068.58 797.93L-1065.08 805.988L-1067.74 811.006L-1069.74 815.415L-1068.58 818.456L-1071.57 822.105L-1063.58 829.251L-1064.25 832.901L-1061.75 835.029L-1057.92 839.591L-1059.08 845.368L-1056.59 838.374L-1057.92 834.421L-1060.75 832.901L-1061.75 828.035L-1068.58 822.105L-1065.75 819.521V816.023L-1063.58 811.006L-1059.08 807.661L-1064.25 797.93V794.585L-1068.58 776.643L-1061.75 766V748.819L-1069.24 739.24V730.877L-1075.9 722.035L-1069.24 718.561V711.263L-1063.41 706.702V702.749L-1060.08 699.556L-1058.42 696.211L-1050.45 689.977H-1039.93L-1019.28 684.351L-1005.79 684.047L-993.466 688.912L-989.303 702.749L-983.141 706.55L-980.476 713.392L-975.813 712.784L-965.987 719.018L-958.16 724.035L-949 736.807ZM-1119.87 792.456L-1120.87 817.544L-1125.53 819.521L-1127.53 826.971L-1135.86 835.029L-1137.02 839.591L-1143.69 851.906V863.158L-1145.35 849.474L-1139.69 837.462L-1137.02 832.901L-1130.36 826.971L-1127.53 818.608L-1123.37 816.023L-1119.87 792.456ZM-1339.21 854.947L-1338.54 851.298L-1343.87 852.515L-1349.53 853.883L-1358.02 863.918L-1364.69 868.328L-1366.18 873.041L-1369.35 875.322L-1374.01 879.883L-1378.01 882.924L-1375.51 896L-1376.18 885.661L-1372.51 879.883L-1366.18 876.386L-1360.02 871.216L-1351.03 868.328L-1346.7 861.637L-1340.2 857.532L-1331.88 861.637L-1326.21 866.807L-1320.72 870.152L-1316.72 874.714V881.556L-1312.39 893.871L-1315.22 879.883V869.392L-1320.72 867.415V863.918L-1325.05 861.637L-1327.88 858.901L-1339.21 854.947ZM-76.2295 764.988L-74.5596 723.095L-80.4044 762.449L-87.3625 766.766L-92.094 780.73L-103.227 790.632L-107.68 798.249L-117.143 818.307L-114.36 841.158V822.369L-103.227 801.804L-101.279 794.187L-87.3625 780.73L-84.0227 768.289L-76.2295 764.988ZM-439.998 821.354L-441.111 827.447L-422.185 834.049L-417.454 838.619L-410.217 842.427V848.267L-401.033 851.568V869.087L-396.301 892.445L-403.538 871.88V860.454L-410.217 852.837L-419.402 847.251L-428.865 838.619L-442.781 831.764L-453.636 838.619L-460.872 849.79L-475.902 854.615L-486.2 863.247L-496.776 869.087L-502.899 878.735L-501.786 896L-505.961 874.165L-499.281 869.087L-491.488 861.47L-486.2 857.661L-483.695 849.79L-472.562 842.427L-458.367 825.67L-448.904 823.385L-439.998 821.354Z" fill="white"/>
</svg>
