<svg width="210" height="896" viewBox="0 0 210 896" fill="none" xmlns="http://www.w3.org/2000/svg">
<path fill-rule="evenodd" clip-rule="evenodd" d="M-23.5 238.5L-60.8933 353.351L-94 366L-162.5 348.5L-208.471 375.742L-213.639 359.88L-206.911 285.752L-192.197 270.82L-195.222 207.675L-181.541 189.785H-174.306L-162.598 193.599L-148.373 177.32L-23.5 238.5ZM-151.86 175.612L-164.702 184.654L-174.306 176.366L-199.037 184.654L-213.771 166.5L-204.431 189.785L-212.061 214.779L-247.066 250.099L-282.309 225.379L-337.955 223.988L-348.61 203.071V220.304L-365.712 243.063L-344.401 226.75L-328.746 258.717L-282.309 267.136L-263.365 301.471L-282.309 333.438L-277.704 351.461L-281.032 360.171L-311.25 370.009L-330.457 330.807H-374L-354.53 333.307L-337.692 339.753L-330.457 359.88L-340.455 370.009H-349.005L-333.614 373.43L-325.984 364.879L-314.276 381.717L-284.205 385.058L-271.127 403.029V412.871L-284 420.5L-414.5 348.5L-446.5 172L-568 112.5L-506 31.5L-592.5 96.5H-658L-578.5 137L-576.903 200.889L-578.128 201.098L-686.501 236.411L-858.04 220.842L-892.594 186.79L-1038.72 193.792L-1080.12 162.132V145.389L-1071.29 118.296L-1134 63.5L-1091.99 123.167L-1111.17 145.389L-1091.99 202.62L-1134 236.715L-1080.12 215.102L-1022.28 232.758L-940.544 313.764L-997.75 395.319L-1000.97 524.089L-1049.37 548.747H-1009.49L-956.827 588.321L-994.575 539.005L-920.601 502.779L-901.118 395.319L-821.664 351.482L-747.69 395.319L-705.984 384.664L-685.828 392.365L-663.061 462.291L-753.778 506.737V607.5L-747.994 562.446L-733.078 523.48L-686.501 506.737L-663.061 529.873V549.66L-655.146 514.043L-674.933 496.386L-635.968 469.293L-628.236 399.707L-586.651 369.443H-558.524L-479.256 482.451L-613.5 615.5L-708.5 644.5L-797 609L-728 665L-759.5 759L-728 795.5L-797 893.5L-694 803.5L-708.5 759V731.5L-640.5 679.5L-400.5 691L-343.745 635.072L-151.943 617.663V624.95L-182.207 666.535L-251.793 674.266L-278.886 713.232L-296.543 693.445L-332.16 701.36H-312.373L-289.237 724.8L-305.98 771.377L-344.946 786.293L-390 792.077H-289.237L-244.791 701.36L-174.865 724.126L-167.164 744.283L-177.819 785.989L-133.982 859.963L-151.943 896H-1.99976L-18.911 724.8L10.917 633.259L116 667.5L209.5 683.5V391H102L33.6991 341.292L21 227L-43 182.5L-10.5 153.5L-23.5 95V127.5L-62 165.5L-138.5 138L-163 74L-172.5 0V165.5L-151.86 175.612Z" fill="white"/>
</svg>
