<svg id="svg-sprite" xmlns="http://www.w3.org/2000/svg" xmlns:xlink="http://www.w3.org/1999/xlink"><defs><symbol viewBox="0 0 71 71" id="discount">
	<path fill="rgb(0,123,31)" stroke="none" d="M35.4999 70.9997C55.1059 70.9997 70.9997 55.1059 70.9997 35.4999C70.9997 15.8938 55.1059 0 35.4999 0C15.8938 0 0 15.8938 0 35.4999C0 55.1059 15.8938 70.9997 35.4999 70.9997Z" />
	<path fill="rgb(255,205,168)" stroke="none" transform="translate(11.9541 29.9724)" d="M51.3126 27.6463C48.4668 31.2152 44.9473 34.2233 40.9452 36.4778C38.3486 37.9412 35.5508 39.0859 32.6034 39.8611L31.1196 39.8611C28.1608 39.8611 25.2484 39.1482 22.6257 37.7818L7.13176 29.7024L3.71946 27.826L0 25.7801L18.7642 24.9107C20.8841 24.9107 20.3581 19.7118 20.3581 17.5934L30.5024 0L43.1056 12.6032C44.8269 14.3245 46.173 16.3545 47.0874 18.5629C48.0018 20.7712 48.4856 23.1577 48.4856 25.5933L51.3126 27.6463Z" />
	<path fill="rgb(234,183,150)" stroke="none" transform="translate(15.6738 57.7984)" d="M37.2258 8.65174C34.6291 10.1151 31.8313 11.2599 28.884 12.0351L27.4002 12.0351C24.4413 12.0351 21.5289 11.3221 18.9062 9.95581L3.4123 1.87637L0 0L21.7274 1.63882C21.7274 1.63882 25.9308 8.65188 37.2227 8.65188C37.2242 8.65174 37.2242 8.65174 37.2258 8.65174Z" />
	<path fill="rgb(234,183,150)" stroke="none" transform="translate(5.07861 22.8781)" d="M6.94822 0.0116484L4.82682 0.0116484C4.72185 0.00513086 4.61701 0 4.5137 0C3.40114 0 2.29037 0.424752 1.44101 1.27412C-0.256058 2.97104 -0.256058 5.72229 1.44101 7.41936L3.83254 9.81256C2.89665 9.92253 1.99057 10.3355 1.2728 11.0533C-0.424267 12.7503 -0.424267 15.5032 1.2728 17.2003L2.52847 18.456C2.89166 18.819 3.30296 19.1055 3.74435 19.312C3.77319 19.2916 3.80328 19.274 3.83254 19.2546L3.83254 19.3501C3.80328 19.3371 3.77333 19.3257 3.74435 19.312C3.53274 19.4551 3.33125 19.6218 3.14321 19.81C1.44614 21.5086 1.44614 24.26 3.14321 25.957L4.39888 27.2128C4.53547 27.3478 4.67872 27.4724 4.82696 27.5859L4.82696 24.253L6.94836 24.253C6.94822 24.253 6.94822 0.0116484 6.94822 0.0116484Z" />
	<path fill="rgb(255,222,81)" stroke="none" transform="translate(9.9043 0)" d="M28.7158 0L3.8383 0C1.71842 0 0 1.71704 0 3.83691L0 55.6016C0 57.7199 1.71842 59.437 3.8383 59.437L27.4972 59.437C25.4396 56.8882 28.868 53.5352 29.7982 50.5431L30.517 41.8594L31.0169 35.8273L32.5528 37.3646L32.5528 3.83691C32.5527 1.71704 30.8356 0 28.7158 0Z" />
	<path fill="rgb(234,183,150)" stroke="none" transform="translate(42.457 29.9728)" d="M5.73533 10.8243L1.93017 7.01915L1.93017 1.93031L0 0L0 7.39107L4.58422 11.9753C5.09702 12.488 5.97371 12.1249 5.97371 11.3998C5.97357 11.1839 5.88787 10.9768 5.73533 10.8243Z" />
	<path fill="rgb(0,123,31)" stroke="none" transform="translate(12.5942 10.9579)" d="M21.857 2.3258C21.9678 2.10421 22.0046 1.88275 22.0046 1.66115C22.0046 0.664377 21.0078 -0.00013865 20.1587 0C19.6049 0 19.088 0.258346 18.8296 0.775176L5.53828 27.6904C5.46437 27.875 5.39045 28.0964 5.39045 28.318C5.39045 29.0932 6.09199 29.9424 7.12579 29.9424C7.75328 29.9424 8.34403 29.6469 8.56562 29.1301L21.857 2.3258ZM0 11.5928L0 6.2394C0 2.769 2.28906 1.47658 5.27965 1.47658C8.23323 1.47658 10.5223 2.76872 10.5223 6.2394L10.5223 11.5928C10.5223 15.0634 8.23323 16.3557 5.27965 16.3557C2.28906 16.3557 0 15.0635 0 11.5928ZM7.38414 6.23926C7.38414 4.87321 6.5718 4.24558 5.27965 4.24558C3.98751 4.24558 3.21206 4.87307 3.21206 6.23926L3.21206 11.5927C3.21206 12.9587 3.98737 13.5865 5.27965 13.5865C6.57194 13.5865 7.38414 12.9589 7.38414 11.5927L7.38414 6.23926ZM16.6512 23.8136L16.6512 18.4601C16.6512 14.9896 18.9402 13.6973 21.9308 13.6973C24.8844 13.6973 27.1734 14.9895 27.1734 18.4601L27.1734 23.8136C27.1734 27.3211 24.8843 28.5764 21.9308 28.5764C18.9404 28.5763 16.6512 27.321 16.6512 23.8136ZM21.931 16.4663C23.2231 16.4663 24.0353 17.0941 24.0353 18.4601L24.0353 23.8136C24.0353 25.1799 23.2231 25.8074 21.931 25.8074C20.6385 25.8074 19.8634 25.1796 19.8634 23.8136L19.8634 18.4601C19.8634 17.0938 20.6387 16.4663 21.931 16.4663Z" fill-rule="evenodd" />
	<path fill="rgb(255,255,255)" stroke="none" transform="translate(28.2729 30.0031)" d="M5.26995 0L5.26995 0.417264L3.39275 0.417264L3.39275 0.190812C2.6668 0.413936 1.98329 0.812756 1.40877 1.38713C1.16637 1.62953 0.955033 1.89135 0.775314 2.16758L0.775314 2.67498L0.487432 2.67498C0.162385 3.33922 0 4.06295 0 4.78792C0 6.01864 0.469682 7.24949 1.40891 8.18885L6.94802 13.7278C8.40185 15.1817 8.82827 17.4001 7.94229 19.2554C7.74233 19.6735 7.57426 20.1048 7.43933 20.541L3.18918 20.541L3.18918 20.5412L7.43891 20.5412C6.50912 23.5323 7.07088 26.8853 9.12807 29.4339L9.94319 29.4339C12.2745 29.4339 14.1666 27.5527 14.1841 25.2255L14.1841 7.36112L12.6476 5.82505L9.76638 2.94359L9.76638 4.59032L7.88918 4.59032L7.88918 2.71311L9.53591 2.71311L8.21007 1.38727C7.38899 0.564811 6.34354 0.102479 5.26995 0" />
	<path fill="rgb(234,196,32)" stroke="none" transform="translate(25.665 29.9811)" d="M14.0375 20.5621C13.1073 23.5542 9.67902 26.9072 11.7365 29.456L9.12835 29.456C7.07074 26.9058 6.50856 23.5542 7.43891 20.5621C7.5737 20.126 7.74177 19.6956 7.94174 19.2769C8.82854 17.4222 8.40102 15.2038 6.94774 13.749L1.40835 8.21104C0.469404 7.2707 0 6.04041 0 4.81025C0 3.57718 0.469404 2.34841 1.40835 1.40946C3.28763 -0.46982 6.33342 -0.46982 8.20979 1.40946L12.648 5.84765L14.1839 7.38206L14.7562 11.8782L14.0375 20.5621Z" />
	<path fill="rgb(51,48,48)" stroke="none" transform="translate(29.2451 29.9815)" d="M9.06775 5.84726L7.384 4.1635L7.384 4.78947C7.384 6.1558 6.57263 6.78329 5.28007 6.78329C3.98751 6.78329 3.21233 6.15594 3.21233 4.78947L3.21233 0.426572C2.201 -0.0313225 1.06209 -0.121182 0 0.159906L0 4.78933C0 8.29731 2.28933 9.55215 5.28007 9.55215C7.52739 9.55215 9.39086 8.82482 10.153 6.93098L9.06775 5.84726Z" />
	<path fill="rgb(0,123,31)" stroke="none" transform="translate(29.2451 29.9817)" d="M10.153 6.93098C9.39086 8.82482 7.52739 9.55215 5.28007 9.55215C2.28933 9.55215 0 8.29731 0 4.78933L0 0.159906C1.06209 -0.121182 2.201 -0.0313225 3.21233 0.426572L3.21233 4.78947C3.21233 6.1558 3.98751 6.78329 5.28007 6.78329C6.57249 6.78329 7.384 6.15594 7.384 4.78947L7.384 4.1635L9.06775 5.84726L10.153 6.93098Z" />
	<path fill="rgb(255,205,168)" stroke="none" transform="translate(28.2729 29.9812)" d="M12.6487 5.84717L8.21049 1.40884C6.33356 -0.469612 3.28763 -0.469612 1.40905 1.40884C0.46982 2.3482 0 3.57725 0 4.80963C0 6.04034 0.469682 7.27105 1.40905 8.21041L6.94815 13.7495C8.40199 15.2034 8.82841 17.4217 7.94243 19.277C7.74261 19.6951 7.5744 20.1264 7.43947 20.5626C6.50856 23.5538 7.07143 26.9062 9.12822 29.4559L10.9946 31.4948C13.1146 31.4948 16.6456 28.8316 16.6456 26.7131L14.1843 7.38282L12.6487 5.84717Z" />
	<path fill="rgb(242,229,229)" stroke="none" transform="translate(30.4482 31.9919)" d="M4.95246 0.849712C3.81951 -0.283237 1.98266 -0.283237 0.849712 0.849712C-0.283237 1.98266 -0.283237 3.81951 0.849712 4.95246C1.98266 6.08541 2.96099 5.22675 4.09394 4.0938C5.22675 2.96099 6.08541 1.98266 4.95246 0.849712Z" />

</symbol><symbol viewBox="0 0 78 59" id="icon">
	<path fill="rgb(160,90,75)" stroke="none" transform="translate(0 13)" d="M72.6648 0L4.32156 0C2.33887 0 0 2.05054 0 3.98267L0 11L75 11L75 2.27588C75 1.01901 73.9544 0 72.6648 0Z" />
	<path fill="rgb(0,189,45)" stroke="none" transform="translate(9 0)" d="M60 2.33904C60 1.04729 58.9533 0 57.6623 0L2.33774 0C1.04671 0 0 1.04729 0 2.33904L0 23C0.558528 23 59.4268 23 59.9997 23L59.9997 2.33904L60 2.33904Z" />
	<path fill="rgb(0,189,45)" stroke="none" transform="translate(9 0)" d="M57.6623 0L55.3245 0L55.3245 16.7625C54.0144 16.7625 1.16411 16.7625 0 16.7625L0 23L60 23L60 2.33905C60 1.0473 58.9533 0 57.6623 0Z" />
	<path fill="rgb(0,189,45)" stroke="none" transform="translate(31 9)" d="M8 20C12.4183 20 16 15.5228 16 10C16 4.47715 12.4183 0 8 0C3.58172 0 0 4.47715 0 10C0 15.5228 3.58172 20 8 20Z" />
	<path fill="rgb(0,123,31)" stroke="none" transform="translate(12.1338 4.0477)" d="M52.5469 9.50939C47.9718 9.50939 44.2498 5.77677 44.2498 1.18862C44.2498 0.532154 43.7191 0 43.0645 0L10.6676 0C10.013 0 9.48237 0.532154 9.48237 1.18862C9.48237 5.77677 5.76036 9.50939 1.18524 9.50939C0.530642 9.50939 0 10.0415 0 10.698C0 13.2291 0 14.6762 0 15.4603C0 16.0637 0 16.2748 0 16.2846C0 16.9308 0 18.0278 0 19.8111C0.703074 19.8111 1.49697 19.8111 2.37063 19.8111C2.37063 18.5731 2.37063 18.2683 2.37063 11.8211C7.30764 11.2712 11.2394 7.32831 11.7875 2.37738L41.9447 2.37738C42.4929 7.32846 46.4247 11.2714 51.3615 11.8211L51.3615 19.8111C52.235 19.8111 53.0289 19.8111 53.7321 19.8111L53.7321 10.6982C53.7323 10.0415 53.2015 9.50939 52.5469 9.50939Z" />
	<path fill="rgb(0,123,31)" stroke="none" transform="translate(29.9126 8.802)" d="M9.08719 0C4.07639 0 0 4.97692 0 11.0943C0 12.4902 0.214312 13.8252 0.601364 15.0568C1.42855 15.0568 2.26508 15.0568 3.10776 15.0568C2.63772 13.8669 2.37063 12.5208 2.37063 11.0943C2.37063 6.28785 5.38358 2.37738 9.08734 2.37738C12.7911 2.37738 15.8041 6.28785 15.8041 11.0943C15.8041 12.5208 15.537 13.8669 15.0669 15.0568C15.9096 15.0568 16.746 15.0568 17.5732 15.0568C17.9604 13.8252 18.1747 12.4902 18.1747 11.0943C18.1744 4.97692 14.098 0 9.08719 0Z" />
	<path fill="rgb(0,123,31)" stroke="none" transform="translate(12.1338 4.04785)" d="M1.69471 5.35338C1.998 5.35338 2.30144 5.23738 2.53278 5.00523C2.99562 4.54108 2.99562 3.78831 2.53278 3.32431C2.3918 3.18292 2.37078 3.01785 2.37078 2.932C2.37078 2.84631 2.3918 2.68108 2.53278 2.53969C2.67377 2.39831 2.83822 2.37723 2.92382 2.37723C3.00943 2.37723 3.17403 2.39831 3.31502 2.53969C3.77785 3.00385 4.52848 3.00385 4.99116 2.53969C5.454 2.07554 5.454 1.32277 4.99116 0.858769C4.43905 0.305077 3.70468 0 2.92367 0C2.14266 0 1.4086 0.304923 0.85633 0.858769C0.304057 1.41262 0 2.14892 0 2.93215C0 3.71538 0.304057 4.45154 0.85633 5.00554C1.08798 5.23723 1.39127 5.35338 1.69471 5.35338Z" />
	<path fill="rgb(0,123,31)" stroke="none" transform="translate(60.5278 4.04904)" d="M2.02343 2.53865C2.23912 2.3225 2.58997 2.3225 2.80566 2.53865C3.0212 2.75496 3.0212 3.10681 2.80566 3.32312C2.34283 3.78727 2.34298 4.54004 2.80566 5.00419C3.03715 5.23619 3.34044 5.35219 3.64373 5.35219C3.94702 5.35219 4.25047 5.23619 4.48196 5.00404C5.62179 3.86081 5.62179 2.00065 4.48196 0.857423C3.34198 -0.285808 1.48711 -0.285808 0.347126 0.857423C-0.115709 1.32158 -0.115709 2.07435 0.347126 2.53835C0.810115 3.00265 1.56059 3.00265 2.02343 2.53865Z" />
	<text fill="rgb(0,123,31)" stroke="none" transform="translate(35 11)" font-size="13" font-family="Segoe UI" x="0" y="13.05127">
			ла
	</text>
	<path fill="rgb(206,121,95)" stroke="none" transform="translate(0 18)" d="M75.6457 4.11958L4.39435 4.11958C1.99341 4.11958 0.289757 2.32212 0 0L0 4.11958L0 7.25839L0 38.6459C0 39.946 1.05406 41 2.35416 41L75.6458 41C76.9459 41 78 39.946 78 38.6459L78 6.47353C77.9998 5.17346 76.9458 4.11958 75.6457 4.11958Z" />
	<path fill="rgb(182,102,82)" stroke="none" transform="translate(0 22)" d="M75.6457 0L73.2915 0L73.2915 32.2765L0 32.2765L0 34.6383C0 35.9425 1.05406 37 2.35416 37L75.6458 37C76.9459 37 78 35.9425 78 34.6383L78 2.36159C77.9998 1.0573 76.9458 0 75.6457 0Z" />
	<path fill="rgb(160,90,75)" stroke="none" transform="translate(66 37)" d="M1.78717 0.900641L0.520439 2.50064C-0.17348 3.37705 -0.17348 4.62264 0.520439 5.49936L1.78717 7.09936C2.23795 7.66857 2.92019 8 3.64177 8L12 8L12 4L12 5.45341e-08L3.64177 5.45341e-08C2.92019 -0.000155255 2.23779 0.331431 1.78717 0.900641Z" />

</symbol><symbol viewBox="0 0 75 75" id="telephone">
	<path fill="rgb(247,247,247)" stroke="none" transform="translate(9 1)" d="M65 32.4997C65 50.4492 50.4492 65 32.4997 65C14.5508 65 0 50.4492 0 32.4997C0 14.5508 14.5508 0 32.4997 0C50.4492 0 65 14.5508 65 32.4997Z" />
	<path fill="rgb(0,189,45)" stroke="none" transform="translate(1 9)" d="M0.0255001 21.4819C-0.509009 38.5976 7.36327 55.5091 23.2769 63.6236C23.4415 63.7121 23.6061 63.8001 23.7792 63.8852C29.1871 66.5559 35.6985 64.2636 38.3252 58.7647C38.6029 58.1827 38.8298 57.5823 39 56.975C39 55.5442 38.0554 53.7033 36.9016 52.885L25.7702 44.9862C24.6497 44.1914 23.1536 44.2075 22.0552 45.0328C21.1666 45.701 20.3697 46.5136 19.7011 47.4527C16.4392 44.0448 14.0019 39.9726 12.5025 35.5698C11.003 31.1669 10.4448 26.4426 10.9357 21.7137C11.4685 21.8701 12.0064 21.9828 12.5455 22.053C14.7785 22.3457 16.8838 20.9143 17.5376 18.7238L21.4653 5.57566C21.8516 4.28344 21.3844 2.88541 20.304 2.09985C19.8086 1.72604 19.2656 1.39709 18.6932 1.11473C13.4578 -1.47085 7.17435 0.594852 4.40452 5.72461C4.31798 5.89196 4.23087 6.05931 4.14716 6.23528C4.06345 6.41068 3.98766 6.58378 3.91186 6.75631C3.29138 8.09856 3.04138 8.85422 2.56739 10.2246C2.56739 10.2252 0.162945 17.0825 0.0255001 21.4819Z" />
	<path fill="rgb(0,0,0)" stroke="none" d="M68.284 16.1069C68.9884 15.6884 69.8971 15.9221 70.3136 16.6288C73.3795 21.8236 75 27.7785 75 33.8477C75 42.7563 71.5788 51.1665 65.3669 57.5302C59.1642 63.8841 50.8735 67.491 42.0221 67.6874C41.9488 67.6891 41.8321 67.6903 41.6971 67.6914C41.6604 67.7723 41.625 67.8539 41.5861 67.9342C40.1281 70.9464 37.5886 73.2089 34.4358 74.3036C33.0968 74.7692 31.7149 75 30.3388 75C28.4734 75 26.6183 74.5758 24.8902 73.7342C24.6928 73.6377 24.5051 73.539 24.3524 73.458C16.4199 69.4636 9.97856 63.1412 5.72307 55.173C1.71305 47.6658 -0.25648 38.9679 0.026762 30.0203C0.17153 25.4484 2.58109 18.6191 2.68351 18.3309L2.77335 18.0732C3.19735 16.8619 3.47773 16.0604 4.09171 14.7487C4.1764 14.5586 4.25651 14.3795 4.34463 14.1976C4.44018 14.0001 4.5346 13.8198 4.62615 13.6453C4.63016 13.6378 4.63416 13.6298 4.63874 13.6223C7.6102 8.19326 14.0286 5.8292 19.7289 7.85168C20.0168 7.5721 20.3143 7.31032 20.621 7.07208C26.5754 2.44558 33.7131 0 41.2622 0C48.8874 0 56.0823 2.48978 62.0682 7.20125C62.7125 7.70816 62.8246 8.64219 62.3199 9.2886C61.8147 9.93444 60.8831 10.047 60.2394 9.54062C55.1691 5.55077 49.1478 3.30899 42.7442 3.00932L42.7442 5.72874C42.7442 6.55024 42.0804 7.2156 41.2622 7.2156C40.4439 7.2156 39.7802 6.55024 39.7802 5.72874L39.7802 3.00932C33.5088 3.30325 27.5979 5.46351 22.5917 9.3041C22.6941 9.37471 22.7965 9.44475 22.895 9.51766C24.4983 10.675 25.1895 12.7239 24.615 14.6212L22.475 21.6916C22.4744 21.6927 22.4738 21.6939 22.4738 21.695L20.6416 27.7464C19.7598 30.661 16.96 32.4969 13.984 32.1123L13.8913 32.1002C13.6979 35.9948 14.2564 39.9536 15.5301 43.6444C16.8055 47.3409 18.8077 50.802 21.362 53.7441C21.8404 53.2481 22.3588 52.7929 22.9127 52.3819C24.536 51.178 26.7413 51.1499 28.4001 52.3112L39.6612 60.1962C41.0196 61.1475 42.0879 62.9799 42.3528 64.701C50.2767 64.4249 57.6845 61.1503 63.2492 55.4497C68.569 50.0006 71.644 42.9055 72.0011 35.3346L69.0685 35.3346C68.2497 35.3346 67.5865 34.6686 67.5865 33.8477C67.5865 33.0268 68.2497 32.3608 69.0685 32.3608L71.9999 32.3608C71.7602 27.3422 70.3079 22.4557 67.7633 18.1432C67.3467 17.4371 67.5796 16.5249 68.284 16.1069ZM33.4659 71.4941C35.8709 70.6588 37.8084 68.9331 38.9201 66.6357C39.1296 66.2028 39.3058 65.7585 39.4449 65.3113C39.3596 64.3858 38.6804 63.1355 37.9646 62.6343L26.7036 54.7499C26.089 54.3194 25.273 54.3286 24.6745 54.7729C23.8854 55.3579 23.1919 56.0617 22.6123 56.8648C22.3554 57.2202 21.9554 57.4441 21.5194 57.4757C21.0828 57.5072 20.6548 57.3442 20.3498 57.0296C16.9612 53.5363 14.3256 49.2439 12.7292 44.6174C11.1344 39.9961 10.5611 34.9907 11.0709 30.1432C11.1173 29.7057 11.3536 29.3113 11.7175 29.0656C12.0808 28.8199 12.534 28.7487 12.9552 28.8704C13.4152 29.0036 13.889 29.1024 14.3622 29.1632C15.8963 29.3619 17.3457 28.4026 17.8058 26.8824L19.163 22.3988L16.009 21.7559C15.2074 21.5917 14.6895 20.8069 14.8526 20.0026C15.0157 19.1978 15.7973 18.6782 16.6001 18.8419L20.0282 19.5411L21.7792 13.7572C21.9852 13.0769 21.7362 12.3421 21.16 11.9282C21.1532 11.9236 21.1463 11.9185 21.1394 11.9139C20.7229 11.6039 20.2537 11.3208 19.7455 11.0734C15.1759 8.84713 9.68674 10.5906 7.24227 15.042C7.16445 15.1913 7.08606 15.3405 7.01053 15.4967C6.93386 15.654 6.86576 15.8084 6.7971 15.9623C6.79309 15.9709 6.78394 15.9915 6.77993 16.0002C6.22604 17.1828 5.99315 17.8493 5.56972 19.0583L5.47645 19.3235C5.45127 19.3953 3.11839 26.0098 2.9885 30.1145C2.72185 38.5414 4.57065 46.7209 8.33519 53.7688C12.3029 61.1974 18.3053 67.0892 25.6942 70.8064C25.7028 70.8109 25.7119 70.8155 25.7211 70.8201C25.8733 70.9011 26.0249 70.9814 26.1851 71.0589C28.4751 72.175 31.0609 72.3294 33.4659 71.4941Z" fill-rule="evenodd" />
	<path fill="rgb(0,0,0)" stroke="none" transform="translate(28 20)" d="M12.7165 23.5648C12.9048 23.2911 13 22.9716 13 22.6156C13 22.2374 12.9037 21.9114 12.7127 21.6471C12.5134 21.3716 12.2666 21.2319 11.9798 21.2319L2.8209 21.2319L2.8209 19.7247C2.8209 19.1345 3.06008 18.5213 3.53132 17.9022C4.01516 17.2655 4.62268 16.6735 5.33803 16.1408L7.7676 14.2848C8.63565 13.5905 9.44843 12.8875 10.1824 12.1956C10.9284 11.4925 11.56 10.6244 12.0608 9.61539C12.5638 8.59987 12.8194 7.52562 12.8194 6.42142C12.8194 4.58538 12.2026 3.03891 10.9869 1.82487C9.77408 0.613773 8.24377 0 6.43925 0C4.75678 0 3.31513 0.535657 2.15371 1.5917C0.98518 2.6542 0.392977 4.03504 0.392977 5.69488C0.392977 7.13328 1.0941 7.43576 1.68247 7.43576C2.11814 7.43576 2.4739 7.313 2.74044 7.07102C3.0141 6.82316 3.15312 6.52949 3.15312 6.19823C3.15312 5.08756 3.45853 4.22945 4.06113 3.64916C4.66866 3.06417 5.46884 2.76756 6.43925 2.76756C7.5837 2.76756 8.47145 3.14405 9.07789 3.88703C9.6887 4.6359 9.99848 5.52161 9.99848 6.51892C9.99848 7.45514 9.65641 8.39195 8.98211 9.30351C8.29576 10.2315 7.45344 11.0808 6.47647 11.8291L3.53406 14.1708C2.56585 14.9338 1.72844 15.8025 1.04593 16.7516C0.351928 17.7166 0 18.7151 0 19.72L0 22.8729C0 23.2065 0.14723 23.4837 0.43731 23.6969C0.709877 23.8978 0.995032 24 1.28457 24L11.9869 24C12.2737 23.9994 12.5189 23.8532 12.7165 23.5648L12.7165 23.5648Z" />
	<path fill="rgb(0,0,0)" stroke="none" transform="translate(42 20)" d="M9.05047 23.7198C9.32723 23.906 9.65668 24 10.0305 24C10.4032 24 10.7332 23.906 11.01 23.7198C11.3084 23.5201 11.4598 23.24 11.4598 22.887L11.4598 18.6186L12.9384 18.6186C13.2318 18.6186 13.4875 18.4571 13.6983 18.1388C13.8991 17.8375 14 17.5009 14 17.1379C14 16.7555 13.9101 16.4143 13.7321 16.1241C13.5408 15.814 13.274 15.6566 12.9384 15.6566L11.4598 15.6566L11.4598 10.418C11.4598 10.0632 11.3073 9.78654 11.0067 9.59742C10.7293 9.42356 10.401 9.33545 10.0305 9.33545C9.65946 9.33545 9.33111 9.42356 9.05435 9.59742C8.75374 9.78654 8.60122 10.0626 8.60122 10.418L8.60122 15.6566L3.6822 15.6566L10.2779 1.75091C10.371 1.57705 10.4187 1.39908 10.4187 1.2217C10.4187 0.868701 10.2596 0.570324 9.94454 0.335381C9.64559 0.112773 9.33444 0 9.01997 0C8.45535 0 8.02108 0.28898 7.72879 0.862828L0.174709 16.6721C0.0587908 16.8689 0 17.1038 0 17.3705C0 17.7405 0.0998336 18.0436 0.297837 18.2709C0.498059 18.5018 0.765391 18.6192 1.09207 18.6192L8.60122 18.6192L8.60122 22.887C8.60122 23.2405 8.75263 23.5207 9.05047 23.7198L9.05047 23.7198Z" />
	<path fill="rgb(0,0,0)" stroke="none" transform="translate(33 47)" d="M0.92567 0.142389C0.167143 0.544707 -0.198391 1.67599 0.108795 2.66943L0.145406 2.7878C0.378799 3.54224 0.933107 4 1.51888 4C1.70422 4 1.89242 3.9543 2.07433 3.85765C2.83286 3.45533 3.19839 2.32405 2.8912 1.33061L2.85459 1.21224C2.54741 0.219556 1.6842 -0.259929 0.92567 0.142389Z" />
	<path fill="rgb(0,0,0)" stroke="none" transform="translate(41 47)" d="M0.145413 2.78771C0.378806 3.54221 0.933112 4 1.51888 4C1.70422 4 1.89242 3.9543 2.07433 3.85764C2.83286 3.45529 3.19839 2.32392 2.89121 1.33041L2.85459 1.21202C2.54741 0.219262 1.68363 -0.259512 0.925104 0.142089C0.167151 0.545187 -0.198383 1.67656 0.108803 2.66932L0.145413 2.78771Z" />
	<path fill="rgb(0,0,0)" stroke="none" transform="translate(48 47)" d="M0.92567 0.142389C0.167143 0.544707 -0.198391 1.67599 0.108795 2.66943L0.145406 2.7878C0.378799 3.54224 0.933107 4 1.51888 4C1.70422 4 1.89242 3.9543 2.07433 3.85765C2.83286 3.45533 3.19839 2.32405 2.8912 1.33061L2.85459 1.21224C2.54741 0.219556 1.6842 -0.259929 0.92567 0.142389Z" />
	<path fill="rgb(0,0,0)" stroke="none" transform="translate(65 10)" d="M0.13667 2.08382C0.370776 2.65402 0.926779 3 1.51434 3C1.70025 3 1.88903 2.96546 2.07207 2.89241C2.83234 2.58834 3.19899 1.73331 2.89086 0.982468L2.8639 0.916217C2.5552 0.165942 1.68935 -0.196455 0.928501 0.107618C0.167654 0.411692 -0.198998 1.26729 0.109128 2.01756L0.13667 2.08382Z" />
	<path fill="rgb(0,0,0)" stroke="none" transform="translate(18 61)" d="M2.86333 0.916269C2.5552 0.165446 1.68878 -0.196376 0.928503 0.10769C0.167655 0.411756 -0.198998 1.26677 0.109128 2.01702L0.13667 2.08384C0.370777 2.65403 0.926782 3 1.51434 3C1.69968 3 1.88903 2.96489 2.0715 2.89242C2.83235 2.58778 3.199 1.73277 2.89087 0.982518L2.86333 0.916269Z" />
	<path fill="rgb(0,0,0)" stroke="none" transform="translate(23 65)" d="M9.27455 2.90319C6.97913 3.40445 4.5415 1.93253 2.24996 0.267648C1.59974 -0.204639 0.70659 -0.035427 0.255586 0.645478C-0.195417 1.32638 -0.0338304 2.26169 0.616389 2.73397C2.14648 3.84544 5.11259 6 8.36922 6C8.86007 6 9.35811 5.95074 9.85836 5.8418C10.6336 5.67317 11.1311 4.8781 10.9695 4.06681C10.8085 3.25552 10.0493 2.73513 9.27455 2.90319L9.27455 2.90319Z" />

</symbol><symbol viewBox="0 0 60 60" id="wall-clock">
	<path fill="rgb(0,123,31)" stroke="none" d="M60 30C60 46.5688 46.5688 60 30 60C13.4312 60 0 46.5688 0 30C0 13.4312 13.4312 0 30 0C46.5688 0 60 13.4312 60 30Z" />
	<path fill="rgb(0,189,45)" stroke="none" d="M3.62183 30C3.62183 14.0396 16.0858 0.992432 31.8109 0.0558471C31.2117 0.0201416 30.6084 0 30 0C13.4312 0 0 13.4312 0 30C0 46.5688 13.4312 60 30 60C30.6084 60 31.2117 59.9799 31.8109 59.9442C16.0858 59.0076 3.62183 45.9604 3.62183 30Z" />
	<path fill="rgb(228,234,248)" stroke="none" transform="translate(5.11279 5.11276)" d="M49.7745 24.8872C49.7745 38.632 38.632 49.7745 24.8872 49.7745C11.1424 49.7745 0 38.632 0 24.8872C0 11.1424 11.1424 0 24.8872 0C38.632 0 49.7745 11.1424 49.7745 24.8872L49.7745 24.8872Z" />
	<path fill="rgb(216,220,229)" stroke="none" transform="translate(5.11279 5.11276)" d="M4.53415 24.8872C4.53415 11.9069 14.4722 1.24924 27.1545 0.103455C26.4075 0.0361634 25.6517 0 24.8872 0C11.1424 0 0 11.1424 0 24.8872C0 38.632 11.1424 49.7745 24.8872 49.7745C25.6517 49.7745 26.4075 49.7383 27.1545 49.671C14.4722 48.5252 4.53415 37.8676 4.53415 24.8872Z" />
	<path fill="rgb(62,75,90)" stroke="none" transform="translate(29.0947 4.20685)" d="M0.905457 0C0.405579 0 0 0.405579 0 0.905914L0 3.2135C0 3.71384 0.405121 4.11896 0.905457 4.11896C1.40533 4.11896 1.81091 3.71384 1.81091 3.2135L1.81091 0.905457C1.81091 0.405579 1.40533 0 0.905457 0Z" />
	<path fill="rgb(62,75,90)" stroke="none" transform="translate(29.0947 51.6742)" d="M0.905457 6.66134e-15C0.405579 6.66134e-15 0 0.405121 0 0.905457L0 3.21304C0 3.71338 0.405121 4.11896 0.905457 4.11896C1.40533 4.11896 1.81091 3.71338 1.81091 3.21304L1.81091 0.905457C1.81091 0.405121 1.40533 0 0.905457 0L0.905457 6.66134e-15Z" />
	<path fill="rgb(62,75,90)" stroke="none" transform="translate(16.6504 7.54111)" d="M1.68971 0.452831C1.43977 0.0197867 0.885876 -0.128529 0.452831 0.12141C0.0197867 0.371349 -0.128529 0.925243 0.12141 1.35829L1.27543 3.35734C1.52629 3.79176 2.08064 3.93779 2.51231 3.68876C2.94535 3.43882 3.09367 2.88493 2.84373 2.45189L1.68971 0.452831Z" />
	<path fill="rgb(62,75,90)" stroke="none" transform="translate(40.3843 48.6489)" d="M1.68971 0.453135C1.43977 0.0196324 0.885876 -0.128683 0.452831 0.121714C0.0197867 0.371653 -0.128529 0.925089 0.12141 1.35859L1.27543 3.35719C1.52629 3.79161 2.08018 3.93809 2.51231 3.68861C2.94535 3.43867 3.09367 2.88478 2.84373 2.45173L1.68971 0.453135Z" />
	<path fill="rgb(62,75,90)" stroke="none" transform="translate(7.54102 16.6506)" d="M3.35688 1.27543L1.35829 0.12141C0.925243 -0.128529 0.371349 0.0197867 0.12141 0.452831C-0.128529 0.885876 0.0197867 1.43977 0.452831 1.68971L2.45143 2.84373C2.8831 3.09275 3.43745 2.94719 3.68831 2.51231C3.9387 2.07927 3.79039 1.52537 3.35688 1.27543Z" />
	<path fill="rgb(62,75,90)" stroke="none" transform="translate(48.6489 40.3841)" d="M3.35719 1.27564L1.35859 0.121614C0.925546 -0.128783 0.371652 0.0199901 0.121714 0.453034C-0.128683 0.886079 0.0196324 1.43997 0.453134 1.68991C2.43021 2.78763 2.48652 2.96524 2.90354 2.96524C3.21665 2.96524 3.52061 2.80273 3.68861 2.51251C3.93855 2.07947 3.79023 1.52557 3.35719 1.27564L3.35719 1.27564Z" />
	<path fill="rgb(62,75,90)" stroke="none" transform="translate(4.20703 29.0945)" d="M4.11896 0.905457C4.11896 0.405579 3.71384 0 3.2135 0L0.905914 0C0.405579 0 0 0.405121 0 0.905457C0 1.40579 0.405579 1.81091 0.905914 1.81091L3.2135 1.81091C3.71384 1.81091 4.11896 1.40533 4.11896 0.905457Z" />
	<path fill="rgb(62,75,90)" stroke="none" transform="translate(51.6743 29.0945)" d="M3.2135 0L0.905457 0C0.405579 0 0 0.405121 0 0.905457C0 1.40579 0.405121 1.81091 0.905457 1.81091L3.2135 1.81091C3.71338 1.81091 4.11896 1.40579 4.11896 0.905457C4.11896 0.405121 3.71338 0 3.2135 0Z" />
	<path fill="rgb(62,75,90)" stroke="none" transform="translate(7.54102 40.3843)" d="M2.45189 0.12141L0.452831 1.27543C0.0197867 1.52537 -0.128529 2.07926 0.12141 2.51231C0.372265 2.94673 0.926617 3.09321 1.35829 2.84373L3.35734 1.68971C3.79039 1.43977 3.9387 0.885875 3.68876 0.452831C3.43837 0.0197867 2.88493 -0.128529 2.45189 0.12141Z" />
	<path fill="rgb(62,75,90)" stroke="none" transform="translate(48.6489 16.6506)" d="M1.35859 2.84373L3.35719 1.68971C3.79023 1.43977 3.93855 0.885876 3.68861 0.452831C3.43821 0.0197867 2.88432 -0.128529 2.45173 0.12141L0.453134 1.27543C0.0196324 1.52537 -0.128683 2.07927 0.121714 2.51231C0.372568 2.94764 0.927377 3.09275 1.35859 2.84373Z" />
	<path fill="rgb(62,75,90)" stroke="none" transform="translate(16.6504 48.6487)" d="M2.51231 0.12141C2.07927 -0.128529 1.52537 0.0197868 1.27543 0.452831L0.12141 2.45189C-0.128529 2.88493 0.0197867 3.43882 0.452831 3.68876C0.884502 3.93779 1.43885 3.79176 1.68971 3.35734L2.84373 1.35829C3.09367 0.925243 2.94535 0.371807 2.51231 0.12141L2.51231 0.12141Z" />
	<path fill="rgb(62,75,90)" stroke="none" transform="translate(40.3843 7.54111)" d="M2.51231 0.12141C2.07927 -0.128529 1.52537 0.0197867 1.27543 0.452831L0.12141 2.45143C-0.128529 2.88493 0.0197867 3.43837 0.452831 3.6883C0.884045 3.93779 1.43885 3.79176 1.68971 3.35688L2.84373 1.35829C3.09367 0.925243 2.94535 0.371349 2.51231 0.12141L2.51231 0.12141Z" />
	<path fill="rgb(251,141,74)" stroke="none" transform="translate(27.7344 13.0943)" d="M2.26547 13.732C3.14346 13.732 3.94043 14.0758 4.53094 14.6356L4.53094 1.08353C4.53094 0.485229 4.04572 0 3.44742 0L1.08353 0C0.485229 0 0 0.485229 0 1.08353L0 14.6356C0.590515 14.0758 1.38748 13.732 2.26547 13.732L2.26547 13.732Z" />
	<path fill="rgb(251,141,74)" stroke="none" transform="translate(27.7344 13.0943)" d="M3.0835 1.08353C3.0835 0.611572 3.38608 0.211029 3.80722 0.0627137C3.69461 0.0228882 3.57376 0 3.44742 0L1.08353 0C0.485229 0 0 0.485229 0 1.08353L0 14.6356C0.590515 14.0758 1.38748 13.732 2.26547 13.732C2.54791 13.732 2.82211 13.7682 3.0835 13.835L3.0835 1.08353Z" />
	<path fill="rgb(0,123,31)" stroke="none" transform="translate(30.8179 29.1133)" d="M8.83026 3.79028L2.26547 0C2.32407 0.245819 2.35565 0.502167 2.35565 0.765838C2.35565 2.25906 1.36185 3.51974 0 3.92395L6.57577 7.72018C7.01568 7.97424 7.57873 7.82226 7.8305 7.38098L9.16809 5.03952C9.41849 4.60098 9.26742 4.04297 8.83026 3.79028L8.83026 3.79028Z" />
	<path fill="rgb(0,123,31)" stroke="none" transform="translate(30.8179 29.1133)" d="M5.43732 5.28259C4.49753 4.74014 4.25079 3.51974 4.86282 2.62436C5.04593 2.35702 5.19012 2.06131 5.28854 1.74545L2.26547 0C2.32407 0.245819 2.35565 0.502167 2.35565 0.765838C2.35565 2.25906 1.36185 3.51974 0 3.92395L6.57578 7.72018C7.01569 7.97424 7.57874 7.82226 7.83051 7.38098L8.13858 6.84219L5.43732 5.28259Z" />
	<path fill="rgb(62,75,90)" stroke="none" transform="translate(4.20703 4.20685)" d="M0 25.7932C0 40.0154 11.5709 51.5863 25.7932 51.5863C40.0154 51.5863 51.5863 40.0154 51.5863 25.7932C51.5863 11.5709 40.0154 0 25.7932 0C11.5709 0 0 11.5709 0 25.7932ZM1.81091 25.7932C1.81091 12.5693 12.5693 1.81091 25.7932 1.81091C39.017 1.81091 49.7754 12.5693 49.7754 25.7932C49.7754 39.017 39.017 49.7749 25.7932 49.7749C12.5693 49.7749 1.81091 39.017 1.81091 25.7932Z" fill-rule="evenodd" />
	<path fill="rgb(62,75,90)" stroke="none" transform="translate(26.7056 26.7055)" d="M6.58905 3.29453C6.58905 5.11414 5.11414 6.58905 3.29453 6.58905C1.47491 6.58905 0 5.11414 0 3.29453C0 1.47491 1.47491 0 3.29453 0C5.11414 0 6.58905 1.47491 6.58905 3.29453Z" />
	<path fill="rgb(62,75,90)" stroke="none" transform="translate(26.7056 26.7055)" d="M3.62183 3.29453C3.62183 2.14417 4.21188 1.13205 5.10544 0.542908C4.58588 0.200043 3.96378 0 3.29453 0C1.47491 0 0 1.47491 0 3.29453C0 5.11414 1.47491 6.58905 3.29453 6.58905C3.96378 6.58905 4.58588 6.38901 5.10544 6.04614C4.21188 5.457 3.62183 4.44489 3.62183 3.29453L3.62183 3.29453Z" />

</symbol></defs></svg>