<svg xmlns="http://www.w3.org/2000/svg" xmlns:xlink="http://www.w3.org/1999/xlink"><defs><symbol id="arrow"><path fill-rule="evenodd" clip-rule="evenodd" d="M43.442 15L32.322 4.735l1.356-1.47 13 12 .765.706-.736.736-13 13-1.414-1.414L43.586 17H1v-2h42.442z" fill="#042C52"/></symbol><symbol id="check"><path d="M1 4l3 3 6-6" fill="#0D62B1"/><path d="M1 4l3 3 6-6" stroke="#fff" stroke-width="2"/></symbol><symbol id="close"><path fill-rule="evenodd" clip-rule="evenodd" d="M1.707.293A1 1 0 0 0 .293 1.707L6.586 8 .293 14.293a1 1 0 1 0 1.414 1.414L8 9.414l6.293 6.293a1 1 0 0 0 1.414-1.414L9.414 8l6.293-6.293A1 1 0 0 0 14.293.293L8 6.586 1.707.293z" fill="#151616"/></symbol><symbol id="facebook"><path d="M22 11c0-6.075-4.925-11-11-11S0 4.925 0 11c0 5.49 4.023 10.041 9.281 10.866V14.18H6.488V11h2.793V8.577c0-2.757 1.643-4.28 4.155-4.28 1.204 0 2.462.215 2.462.215v2.707h-1.387c-1.366 0-1.792.848-1.792 1.718V11h3.05l-.487 3.18h-2.563v7.686C17.977 21.041 22 16.49 22 11z" fill="#0D62B1"/></symbol><symbol id="flowers-2"><path d="M484.147 269.445c-17.295-2.369-19.874-6.8-36.779 6.023-5.34 4.05-10.675 4.391-8.533 5.388 2.153.999 9.45 4.974 18.205 3.859 8.772-1.117 13.051-2.451 17.67-6.192 4.61-3.741 9.437-9.078 9.437-9.078z" stroke="#0D62B1" stroke-width="3" stroke-miterlimit="10" stroke-linecap="round" stroke-linejoin="round"/><path d="M483.374 269.195s-6.277 2.836-15.474 5.127c-9.211 2.288-13.031 2.309-15.671 3.588-2.641 1.279-10.461 2.526-10.461 2.526m11.643-2.998l-5.206-2.602m17.883.731l-7.762-6.445m-1.302 8.755l-5.316 6.859m15.09-10.157l-4.215 8.577" stroke="#0D62B1" stroke-width="3" stroke-miterlimit="10" stroke-linecap="round" stroke-linejoin="round"/><path fill-rule="evenodd" clip-rule="evenodd" d="M249.269 285.549a4.28 4.28 0 0 0 4.271-4.275 4.28 4.28 0 0 0-4.271-4.274 4.274 4.274 0 1 0 0 8.549zm-120 232a4.28 4.28 0 0 0 4.271-4.275 4.28 4.28 0 0 0-4.271-4.274 4.274 4.274 0 1 0 0 8.549zm-76-509a4.28 4.28 0 0 0 4.271-4.275A4.28 4.28 0 0 0 53.269 0a4.28 4.28 0 0 0-4.27 4.274 4.273 4.273 0 0 0 4.27 4.275zm380.001 100a4.28 4.28 0 0 0 4.271-4.275A4.28 4.28 0 0 0 433.27 100a4.28 4.28 0 0 0-4.271 4.274 4.273 4.273 0 0 0 4.271 4.275zM136.45 428.498s15.006 2.441 21.782 9.434c6.767 7.005 8.415 13.175 8.488 15.162.069 1.966-.391 3.024-2.562 2.341-2.176-.676-7.746-1.334-12.713-4.469-4.968-3.135-10.231-7.849-12.485-11.545-2.24-3.705-4.587-9.531-4.255-9.938.315-.407 1.745-.985 1.745-.985zM4.558 77.425s5.737 4.538 6.95 9.062c1.205 4.529.454 7.508.02 8.36-.43.843-.872 1.18-1.624.385-.757-.793-2.945-2.373-4.3-4.853-1.354-2.48-2.463-5.694-2.546-7.774-.075-2.082.302-5.08.537-5.174.227-.097.963-.006.963-.006z" fill="#FFA095"/><path fill-rule="evenodd" clip-rule="evenodd" d="M301.414 62.404s-2.281 15.031-9.202 21.887c-6.927 6.846-13.083 8.57-15.062 8.672-1.975.1-3.039-.368-2.383-2.539.664-2.177 1.257-7.751 4.337-12.766 3.088-5.002 7.739-10.33 11.42-12.62 3.69-2.278 9.477-4.701 9.888-4.371.417.302 1.002 1.737 1.002 1.737z" fill="#F65B47"/><path d="M178.439 38.408s5.109.701 6.218 1.203c1.098.501 3.206 1.453 3.206 1.453m-9.935-13.341s.512 2.445.512 4.913c0 2.456.251 5.27.251 5.27" stroke="#0D62B1" stroke-width="3" stroke-miterlimit="10" stroke-linecap="round" stroke-linejoin="round"/><path fill-rule="evenodd" clip-rule="evenodd" d="M160.531 32.23s6.862-1.682 8.701-3.659c1.839-1.977 4.891-5.27 3.542-9.129-1.349-3.858-3.092-6.555-4.264-7.38-1.161-.838-2.329-1.841-2.329-1.841l-.553.313s-1.191-2.132-2.182-3.253c-.98-1.129-1.861-1.704-2.864-.918-1.013.785-3.365 2.371-4.083 3.209-.723.826-1.799 1.766-1.799 1.766s-1.161-.427-1.43-.136c-.269.291-4.522 3.054-5.716 6.514-1.19 3.448-2.038 6.525-.899 9.107 1.15 2.582 4.242 4.463 7.669 5.289 3.428.841 6.207.118 6.207.118z" fill="#FFA095"/><path d="M183.997 76.802c-.751-.553-8.922-3.67-15.044-12.755-6.11-9.074-9.571-13.05-9.873-18.863-.303-5.824.398-12.651.398-12.651" stroke="#0D62B1" stroke-width="3" stroke-miterlimit="10" stroke-linecap="round" stroke-linejoin="round"/><path d="M165.446 58.924s-.314-12.054 1.168-16.75c1.765-5.603 9.789-20.899 20.499-16.06 3.958 1.79 9.328 5.364 2.904 13.091-6.413 7.739-9.977 9.535-14.691 13.205-4.71 3.659-8.325 8.126-8.325 8.126" stroke="#0D62B1" stroke-width="3" stroke-miterlimit="10" stroke-linecap="round" stroke-linejoin="round"/><path d="M167.199 59.027s2.812-13.25 7.677-17.86c4.858-4.622 11.127-12.504 11.429-12.755.302-.25 1.736-1.63 1.736-1.63" stroke="#0D62B1" stroke-width="3" stroke-miterlimit="10" stroke-linecap="round" stroke-linejoin="round"/><path d="M168.804 38.202s-.604.752.752 4.172c1.36 3.408 2.057 4.964 2.057 4.964m-2.002 1.652s.804-.5 3.605.303c2.812.804 4.264 1.055 4.264 1.055m-11.13 11.796c-4.389-6.075-12.87-10.018-20.373-10.645-6.737-.553-14.51 1.294-16.338 6.274-4.032 11.01 12.015 11.877 18.859 10.088 8.074-2.103 8.775-3.962 12.14-4.61 3.353-.657 5.712-1.107 5.712-1.107z" stroke="#0D62B1" stroke-width="3" stroke-miterlimit="10" stroke-linecap="round" stroke-linejoin="round"/><path d="M129.189 60.285c.855-.148 9.83-1.004 17.75-.502 7.927.502 14.241.712 14.742.752.501.052 4.419.66 4.419.66m-26.69-8.944s1.515 2.165 3.019 3.67c1.503 1.505 3.866 3.357 3.866 3.357" stroke="#0D62B1" stroke-width="3" stroke-miterlimit="10" stroke-linecap="round" stroke-linejoin="round"/><path d="M150.91 53.037s1.651 3.19 2.551 4.286c.91 1.107 3.062 2.98 3.062 2.98m-18.4 7.739s2.602-2.184 5.016-4.286c2.403-2.114 5.267-4.172 5.267-4.172m3.151 6.429s1.806-2.257 3.103-3.26c1.305-1.004 2.863-1.967 2.863-1.967" stroke="#0D62B1" stroke-width="3" stroke-miterlimit="10" stroke-linecap="round" stroke-linejoin="round"/><path d="M165.631 10.534c-.479.48-3.501 3.556-4.515 5.522-1.002 1.966-3.018 6.211-3.018 6.211" stroke="#F65B47" stroke-width="3" stroke-miterlimit="10" stroke-linecap="round" stroke-linejoin="round"/><path d="M159.518 31.854c0-.376.115-6.149-2.056-11.239a1473.34 1473.34 0 0 0-4.191-9.704m8.809 1.873c-.302-2.78-3.394-6.377-3.394-6.377m4.187.52l-2.455 1.852" stroke="#F65B47" stroke-width="3" stroke-miterlimit="10" stroke-linecap="round" stroke-linejoin="round"/><path d="M309.149 462.729s12.398-.056 18.515.175c6.117.231 15.146.467 21.134.928 6.004.467 11.25.118 12.993-.23 1.743-.349 4.42-1.34 4.42-1.34m-83.4-34.442c2.107.406 11.613 3.726 11.613 3.726l3.589-6.009" stroke="#0D62B1" stroke-width="3" stroke-miterlimit="10" stroke-linecap="round" stroke-linejoin="round"/><path fill-rule="evenodd" clip-rule="evenodd" d="M311.996 356.258c.133.102-3.036-2.34-4.271-1.268-1.251 1.078-6.902 18.473-6.394 24.857.508 6.399 4.871 22.486 13.751 27.75 8.881 5.265 15.218 7.082 21.73 7.261 6.511.159 24.39-3.694 31.06-13.033 6.686-9.339 11.034-15.01 9.911-19.654-1.133-4.638-3.399-5.834-3.399-5.834s-.902-10.591-7.414-16.538c-12.572-11.49-27.133-19.218-44.299-12.003-8.496 3.572-10.809 8.359-10.675 8.462z" fill="#FFA095"/><path d="M292.246 477.102s19.417-21.572 24.067-34.503c4.666-12.931 10.07-29.629 10.07-29.629" stroke="#0D62B1" stroke-width="3" stroke-miterlimit="10" stroke-linecap="round" stroke-linejoin="round"/><path d="M307.797 455.094s1.964-8.596-2.21-17.832c-4.158-9.237-8.706-15.492-12.874-18.488-4.159-2.982-7.02-5.209-7.02-5.209s-3.809 1.54-3.691 8.595c.118 7.056-.349 18.068 8.793 25.236 9.142 7.169 16.597 9.966 16.597 9.966" stroke="#0D62B1" stroke-width="3" stroke-miterlimit="10" stroke-linecap="round" stroke-linejoin="round"/><path d="M285.908 415.69c.754 1.395 5.522 8.569 7.573 13.644 2.036 5.06 4.358 8.626 7.224 14.034 2.851 5.424 6.861 12.536 6.861 12.536" stroke="#0D62B1" stroke-width="3" stroke-miterlimit="10" stroke-linecap="round" stroke-linejoin="round"/><path d="M303.899 435.035l-2.948 8.816s-1.364 1.688-5.902.58c-4.548-1.119-9.49-4.265-9.49-4.265m19.677 22.45s6.235-5.018 11.48-6.296c5.23-1.278 16.715-4.844 25.447-2.678 8.737 2.155 13.792 4.71 17.181 5.937 3.374 1.221 7.573 2.457 7.573 2.457s-.595 6.168-6.291 7.698c-13.444 3.561-33.937 8.595-46.653-1.586-3.199-2.561-7.516-5.527-7.516-5.527" stroke="#0D62B1" stroke-width="3" stroke-miterlimit="10" stroke-linecap="round" stroke-linejoin="round"/><path d="M353.347 457.711s1.22.58-2.907 2.909c-4.143 2.34-7.629 3.797-7.629 3.797s6.685 3.028 6.803 3.551c.118.524 3.502 3.331 3.502 3.331m-18.638-17.719s.174 2.211-3.794 4.249c-3.953 2.037-7.05 4.377-7.05 4.377s2.164 3.084 3.445 5.47a763.632 763.632 0 0 1 2.79 5.311" stroke="#0D62B1" stroke-width="3" stroke-miterlimit="10" stroke-linecap="round" stroke-linejoin="round"/><path d="M329.947 413.509s.989-19.972-4.374-32.831c-5.363-12.859-15.464-24.482-15.464-24.482m18.703 32.092s15.597-8.231 29.579-7.984c13.966.246 18.078.246 18.078.246m-30.813.754s-1.364-8.99-3.62-13.731c-2.24-4.757-9.362-17.863-9.362-17.863l-4.737-4.361m13.621 19.75s2.676-1.878 11.828-2.14c9.157-.261 14.474-.467 14.474-.467m-30.911-6.034c.395-.072 2.4-2.078 8.573-2.997 6.178-.903 12.675-1.555 12.675-1.555" stroke="#F65B47" stroke-width="3" stroke-miterlimit="10" stroke-linecap="round" stroke-linejoin="round"/><path d="M346.644 353.302s.118-2.314-1.512-4.51a216.564 216.564 0 0 0-2.718-3.649" stroke="#F65B47" stroke-width="3" stroke-miterlimit="10" stroke-linecap="round" stroke-linejoin="round"/></symbol><symbol id="flowers"><path d="M226.702 318.287c0-17.457 4.04-20.613-10.957-35.622-4.738-4.742-5.799-9.981-6.496-7.723-.698 2.268-3.646 10.037-1.354 18.56 2.297 8.539 4.199 12.598 8.532 16.667 4.332 4.059 10.275 8.118 10.275 8.118z" stroke="#0D62B1" stroke-width="3" stroke-miterlimit="10" stroke-linecap="round" stroke-linejoin="round"/><path d="M226.844 317.487s-3.661-5.835-7.178-14.635c-3.517-8.816-4.056-12.598-5.681-15.04-1.625-2.443-3.923-10.022-3.923-10.022m4.551 11.13l1.872-5.511m1.701 17.816l5.332-8.564m-8.849-.103l-7.517-4.336m12.11 13.572l-9.071-3.012m-139.41 34.791s7.107.975 8.65 1.673c1.528.698 4.46 2.022 4.46 2.022m-13.821-18.56s.713 3.402.713 6.835c0 3.417.349 7.332.349 7.332" stroke="#0D62B1" stroke-width="3" stroke-miterlimit="10" stroke-linecap="round" stroke-linejoin="round"/><path fill-rule="evenodd" clip-rule="evenodd" d="M45.868 324.978s9.547-2.34 12.106-5.09c2.558-2.751 6.804-7.333 4.927-12.7-1.877-5.368-4.302-9.119-5.932-10.268a56.556 56.556 0 0 1-3.24-2.561l-.77.436s-1.656-2.966-3.035-4.526c-1.364-1.57-2.59-2.37-3.984-1.277-1.41 1.093-4.681 3.299-5.68 4.464-1.006 1.149-2.503 2.458-2.503 2.458s-1.615-.595-1.99-.19c-.374.406-6.29 4.249-7.952 9.062-1.656 4.798-2.835 9.078-1.25 12.67 1.599 3.592 5.9 6.209 10.669 7.358 4.768 1.17 8.634.164 8.634.164z" fill="#FFA095"/><path d="M78.515 386.986c-1.046-.769-12.413-5.105-20.93-17.744-8.5-12.623-13.315-18.155-13.736-26.242-.42-8.103.554-17.601.554-17.601" stroke="#0D62B1" stroke-width="3" stroke-miterlimit="10" stroke-linecap="round" stroke-linejoin="round"/><path d="M52.705 362.114s-.436-16.769 1.625-23.301c2.456-7.795 13.618-29.075 28.518-22.343 5.506 2.489 12.977 7.461 4.04 18.212-8.922 10.765-13.88 13.264-20.437 18.37-6.553 5.091-11.583 11.305-11.583 11.305" stroke="#0D62B1" stroke-width="3" stroke-miterlimit="10" stroke-linecap="round" stroke-linejoin="round"/><path d="M55.145 362.258s3.912-18.432 10.68-24.846c6.757-6.43 15.479-17.396 15.9-17.745.42-.349 2.414-2.268 2.414-2.268" stroke="#0D62B1" stroke-width="3" stroke-miterlimit="10" stroke-linecap="round" stroke-linejoin="round"/><path d="M57.378 333.286s-.84 1.047 1.046 5.804c1.892 4.741 2.861 6.907 2.861 6.907m-2.783 2.299s1.118-.698 5.014.42c3.913 1.119 5.933 1.468 5.933 1.468m-15.485 16.41c-6.107-8.451-17.904-13.937-28.344-14.809-9.372-.77-20.186 1.801-22.729 8.728-5.609 15.317 16.715 16.523 26.236 14.035 11.234-2.925 12.208-5.511 16.89-6.415a1870.69 1870.69 0 0 1 7.947-1.539z" stroke="#0D62B1" stroke-width="3" stroke-miterlimit="10" stroke-linecap="round" stroke-linejoin="round"/><path d="M2.268 364.008c1.19-.206 13.674-1.396 24.692-.698 11.03.698 19.812.99 20.51 1.047.697.071 6.147.918 6.147.918m-37.131-12.443s2.108 3.012 4.2 5.105c2.091 2.094 5.378 4.67 5.378 4.67" stroke="#0D62B1" stroke-width="3" stroke-miterlimit="10" stroke-linecap="round" stroke-linejoin="round"/><path d="M32.484 353.925s2.297 4.438 3.548 5.962c1.267 1.54 4.261 4.146 4.261 4.146m-25.598 10.766s3.62-3.038 6.979-5.963c3.343-2.94 7.326-5.803 7.326-5.803m4.383 8.944s2.512-3.141 4.317-4.536c1.815-1.396 3.984-2.735 3.984-2.735" stroke="#0D62B1" stroke-width="3" stroke-miterlimit="10" stroke-linecap="round" stroke-linejoin="round"/><path d="M52.965 294.795c-.667.667-4.871 4.947-6.281 7.682-1.395 2.735-4.2 8.641-4.2 8.641" stroke="#F65B47" stroke-width="3" stroke-miterlimit="10" stroke-linecap="round" stroke-linejoin="round"/><path d="M44.46 324.455c0-.524.16-8.554-2.86-15.635a2019.066 2019.066 0 0 0-5.83-13.501m12.253 2.607c-.42-3.869-4.722-8.873-4.722-8.873m5.825.724l-3.415 2.576" stroke="#F65B47" stroke-width="3" stroke-miterlimit="10" stroke-linecap="round" stroke-linejoin="round"/><path fill-rule="evenodd" clip-rule="evenodd" d="M167.749 267.538c4.635-5.47 9.214-12.439 9.347-20.013.143-7.579 0-12.089-2.528-14.809-2.512-2.735-6.132-4.449-6.132-4.449s-3.62-9.616-10.639-12.829c-7.035-3.212-20.612-7.445-29.138-1.293-8.517 6.138-13.5 9.894-14.736 12.829-1.22 2.94-2.179 4.916-2.179 4.916s-.61-2.592-2.861.143c-11.818 14.327-2.399 33.195 11.121 42.227 15.93 10.647 32.24 11.535 47.745-6.722z" fill="#FFA095"/><path d="M162.954 362.858c0-1.354-8.793-12.726-11.218-24.117-2.441-11.377-3.384-13.675-6.091-28.716-2.718-15.024-3.384-14.224-2.313-19.504 1.093-5.28 1.221-9.878 1.221-9.878" stroke="#0D62B1" stroke-width="3" stroke-miterlimit="10" stroke-linecap="round" stroke-linejoin="round"/><path d="M147.941 320.078c.641-16.421 19.463-36.028 26.524-24.672 4.46 7.168 4.055 12.987-1.221 19.227-5.276 6.225-12.849 12.059-15.694 13.675-2.851 1.627-6.63 3.387-6.63 3.387s-.682-.539 5.681-11.653c6.353-11.099 9.886-15.707 11.234-17.468 1.354-1.76 6.63-7.168 6.63-7.168" stroke="#0D62B1" stroke-width="3" stroke-miterlimit="10" stroke-linecap="round" stroke-linejoin="round"/><path d="M161.854 310.651s-1.19-2.735-1.672-4.448c-.492-1.714-1.963-6.097-1.963-6.097m-2.386 21.876c-.031-.231-1.266-1.673-2.164-4.013-.917-2.355-2.63-7.856-2.63-7.856m5.711 10.996s3.604 1.642 5.768 1.642c2.164 0 5.03-.872 5.03-.872m-5.243-11.315s4.696-.929 5.988-.929c1.292 0 7.804-.072 7.804-.072m-27.603 21.25c-.117-.349-1.41-8.057-6.511-13.239-5.117-5.178-12.254-12.044-17.556-12.567-5.317-.524-10.854-1.093-12.28 1.513-10.592 19.115 14.721 24.293 27.98 23.492 6.04-.38 8.367.801 8.367.801z" stroke="#0D62B1" stroke-width="3" stroke-miterlimit="10" stroke-linecap="round" stroke-linejoin="round"/><path d="M146.358 329.694c-.246-.421-3.999-3.156-9.373-6.794-5.393-3.638-9.623-4.757-13.617-8.405-3.984-3.639-10.188-9.016-10.188-9.016" stroke="#0D62B1" stroke-width="3" stroke-miterlimit="10" stroke-linecap="round" stroke-linejoin="round"/><path d="M128.406 317.502c.144-1.047.175-2.941-.246-5.034-.42-2.109-.451-5.717-.451-5.717m8.507 15.641v-3.376c0-3.331-.118-6.097-.118-6.097m.988 11.377c-.221 0-.221.841-1.964 1.586-1.743.728-1.964.307-4.199.872-2.241.554-4.794 1.673-4.794 1.673m-13.678-8.57s1.513-.57 4.374-.642c2.876-.056 5.917-.379 7.383-.451 1.466-.072 4.609-.508 4.609-.508" stroke="#0D62B1" stroke-width="3" stroke-miterlimit="10" stroke-linecap="round" stroke-linejoin="round"/><path d="M144.556 280.643s-2.21-16.451-8.604-25.76c-6.409-9.308-16.494-17.903-17.381-18.606-.872-.713-8.762-4.567-8.762-4.567m28.601 25.108c.174-1.047 5.435-14.224 14.649-19.576 9.213-5.352 17.54-8.611 17.54-8.611" stroke="#F65B47" stroke-width="3" stroke-miterlimit="10" stroke-linecap="round" stroke-linejoin="round"/><path d="M116.461 221.966s14.751 1.395 22.816 7.199c8.065 5.788 10.757 10.196 10.757 10.196" stroke="#F65B47" stroke-width="3" stroke-miterlimit="10" stroke-linecap="round" stroke-linejoin="round"/><path d="M156.995 215.726s-10.869 4.828-13.5 8.071c-2.63 3.259-3.999 5.527-3.999 5.527m5.57-8.072s1.933-2.109-2.63-5.177c-4.563-3.069-6.932-4.48-6.932-4.48" stroke="#F65B47" stroke-width="3" stroke-miterlimit="10" stroke-linecap="round" stroke-linejoin="round"/><path fill-rule="evenodd" clip-rule="evenodd" d="M35.452 230.498s15.006 2.441 21.782 9.434c6.767 7.005 8.414 13.175 8.488 15.162.07 1.966-.391 3.024-2.562 2.341-2.176-.676-7.746-1.334-12.713-4.469-4.968-3.135-10.231-7.849-12.485-11.545-2.24-3.705-4.587-9.531-4.255-9.938.315-.407 1.745-.985 1.745-.985z" fill="#FFA095"/><path fill-rule="evenodd" clip-rule="evenodd" d="M201.662 334.856a4.28 4.28 0 0 0 4.271-4.274 4.28 4.28 0 0 0-4.271-4.275 4.28 4.28 0 0 0-4.271 4.275 4.273 4.273 0 0 0 4.271 4.274zm-28.779-182.867s11.556 9.877 13.72 19.376c2.153 9.498.364 15.635-.595 17.369-.959 1.73-1.917 2.387-3.414.683-1.498-1.714-5.917-5.162-8.548-10.427-2.614-5.265-4.681-12.028-4.681-16.364.016-4.336 1.015-10.53 1.513-10.704.477-.195 2.005.067 2.005.067zm60.388 13.56a4.28 4.28 0 0 0 4.271-4.275 4.28 4.28 0 0 0-4.271-4.274 4.28 4.28 0 0 0-4.271 4.274 4.28 4.28 0 0 0 4.271 4.275z" fill="#F65B47"/><path d="M210.5 12.003V12c0-5.784 4.716-10.5 10.5-10.5s10.5 4.716 10.5 10.5-4.716 10.5-10.5 10.5c-5.8 0-10.513-4.717-10.5-10.497z" stroke="#FFA095" stroke-width="3"/><path d="M605.225 358.476s12.397-.056 18.514.174c6.117.231 15.146.467 21.135.929 6.004.467 11.249.118 12.992-.231 1.743-.349 4.42-1.339 4.42-1.339m-83.399-34.442c2.107.406 11.613 3.726 11.613 3.726l3.589-6.009" stroke="#0D62B1" stroke-width="3" stroke-miterlimit="10" stroke-linecap="round" stroke-linejoin="round"/><path fill-rule="evenodd" clip-rule="evenodd" d="M608.072 252.005c.133.102-3.036-2.34-4.271-1.268-1.251 1.078-6.901 18.473-6.394 24.857.508 6.399 4.871 22.485 13.751 27.75 8.881 5.265 15.218 7.082 21.73 7.261 6.511.159 24.39-3.694 31.061-13.034 6.685-9.339 11.033-15.009 9.911-19.653-1.134-4.639-3.4-5.834-3.4-5.834s-.902-10.591-7.414-16.539c-12.572-11.489-27.133-19.217-44.299-12.002-8.496 3.571-10.809 8.359-10.675 8.462z" fill="#FFA095"/><path d="M588.32 372.849s19.417-21.572 24.068-34.503c4.665-12.931 10.07-29.629 10.07-29.629" stroke="#0D62B1" stroke-width="3" stroke-miterlimit="10" stroke-linecap="round" stroke-linejoin="round"/><path d="M603.872 350.84s1.964-8.595-2.21-17.831c-4.158-9.237-8.706-15.492-12.874-18.489-4.158-2.981-7.02-5.208-7.02-5.208s-3.809 1.539-3.691 8.595c.118 7.056-.349 18.068 8.793 25.236 9.142 7.169 16.597 9.965 16.597 9.965" stroke="#0D62B1" stroke-width="3" stroke-miterlimit="10" stroke-linecap="round" stroke-linejoin="round"/><path d="M581.984 311.437c.754 1.395 5.522 8.569 7.573 13.644 2.036 5.059 4.358 8.626 7.225 14.034 2.85 5.424 6.86 12.536 6.86 12.536" stroke="#0D62B1" stroke-width="3" stroke-miterlimit="10" stroke-linecap="round" stroke-linejoin="round"/><path d="M599.973 330.782l-2.948 8.816s-1.364 1.688-5.902.579c-4.548-1.118-9.49-4.264-9.49-4.264m19.679 22.45s6.235-5.018 11.48-6.296c5.23-1.278 16.715-4.844 25.447-2.679 8.737 2.156 13.792 4.711 17.181 5.937 3.374 1.222 7.573 2.458 7.573 2.458s-.594 6.168-6.291 7.697c-13.443 3.562-33.937 8.595-46.653-1.585-3.199-2.561-7.516-5.527-7.516-5.527" stroke="#0D62B1" stroke-width="3" stroke-miterlimit="10" stroke-linecap="round" stroke-linejoin="round"/><path d="M649.423 353.458s1.22.579-2.907 2.909c-4.143 2.34-7.629 3.797-7.629 3.797s6.686 3.028 6.804 3.551c.118.524 3.501 3.33 3.501 3.33m-18.639-17.718s.175 2.211-3.794 4.248c-3.953 2.038-7.05 4.378-7.05 4.378s2.164 3.084 3.446 5.47a791.09 791.09 0 0 1 2.789 5.311" stroke="#0D62B1" stroke-width="3" stroke-miterlimit="10" stroke-linecap="round" stroke-linejoin="round"/><path d="M626.021 309.255s.989-19.971-4.374-32.83c-5.363-12.86-15.463-24.482-15.463-24.482m18.703 32.092s15.597-8.231 29.579-7.984c13.966.246 18.078.246 18.078.246m-30.812.754s-1.364-8.99-3.62-13.731c-2.241-4.757-9.363-17.863-9.363-17.863l-4.737-4.362m13.621 19.751s2.676-1.878 11.828-2.14a1572.98 1572.98 0 0 0 14.475-.467m-30.913-6.034c.395-.072 2.4-2.079 8.573-2.997 6.179-.903 12.675-1.555 12.675-1.555" stroke="#F65B47" stroke-width="3" stroke-miterlimit="10" stroke-linecap="round" stroke-linejoin="round"/><path d="M642.718 249.049s.118-2.314-1.512-4.51a209.952 209.952 0 0 0-2.718-3.649" stroke="#F65B47" stroke-width="3" stroke-miterlimit="10" stroke-linecap="round" stroke-linejoin="round"/><path fill-rule="evenodd" clip-rule="evenodd" d="M564.786 293.533c.308-.159 14.198-4.361 21.294-13.177 7.296-9.047 17.617-36.654 1.861-36.654-3.984 0-4.184-.667-4.184-.667s-6.178-6.122-12.849-7.317c-6.686-1.191-15.956-1.863-23.165 2.386-7.193 4.264-11.859 10.427-11.859 10.427s-5.132-1.76-6.583.205c-1.451 1.965-2.79 17.729 2.44 26.021 6.727 10.674 21.145 19.356 33.045 18.776z" fill="#FFA095"/><path d="M542.336 364.803s12.659-22.398 16.105-34.124c3.46-11.74 5.568-39.404 5.568-39.404" stroke="#0D62B1" stroke-width="3" stroke-miterlimit="10" stroke-linecap="round" stroke-linejoin="round"/><path d="M546.668 354.448c.133-.975 2.804-6.373-2.543-15.245-5.348-8.888-8.43-12.336-13.849-12.947-5.435-.595-12.526-.8-12.526-.8s1.743 9.077 6.568 14.311c4.825 5.224 3.645 5.947 10.972 9.806 7.337 3.854 11.439 4.613 11.439 4.613" stroke="#0D62B1" stroke-width="3" stroke-miterlimit="10" stroke-linecap="round" stroke-linejoin="round"/><path d="M519.457 325.517s9.752 5.891 16.279 13.193c6.527 7.302 8.183 9.165 8.952 10.504.769 1.339 1.948 4.09 1.948 4.09" stroke="#0D62B1" stroke-width="3" stroke-miterlimit="10" stroke-linecap="round" stroke-linejoin="round"/><path d="M534.808 327.744s-.087 2.166-.087 5.296c0 3.125.143 4.726.143 4.726m-12.12.025s5.015-.056 6.876-.056c1.861 0 4.373.087 4.373.087m7.836-2.299s-.016 4.275-.016 5.701c0 1.412-.133 4.188-.133 4.188s-2.092.641-4.532 1.206c-2.425.569-4 1.164-4 1.164" stroke="#0D62B1" stroke-width="3" stroke-miterlimit="10" stroke-linecap="round" stroke-linejoin="round"/><path d="M573.41 289.721c-.333-1.442-.333-16.318-9.362-24.246-9.024-7.944-14.68-13.003-19.75-14.24-5.056-1.236-9.419-2.601-9.419-2.601" stroke="#F65B47" stroke-width="3" stroke-miterlimit="10" stroke-linecap="round" stroke-linejoin="round"/><path d="M559.352 261.354s1.569-6.938 12.951-12.013c11.367-5.059 12.208-5.849 12.208-5.849m-17.223 7.214c-.451-.785-8.634-5.66-11.818-8.189-3.184-2.53-8.634-5.265-8.634-5.265m23.968-1.555c-7.414 3.243-9.157 4.552-9.68 6.168-.523 1.627-1.046 3.315-1.046 3.315" stroke="#F65B47" stroke-width="3" stroke-miterlimit="10" stroke-linecap="round" stroke-linejoin="round"/><path fill-rule="evenodd" clip-rule="evenodd" d="M721.896 219.911s-4.681 7.272-10.047 9.44c-5.368 2.162-9.144 1.844-10.255 1.51-1.108-.335-1.587-.782-.731-1.769.861-.988 2.457-3.735 5.294-5.708 2.837-1.964 6.608-3.791 9.153-4.248 2.547-.449 6.28-.563 6.431-.313.16.237.155 1.088.155 1.088zm-175.625-16.362a4.28 4.28 0 0 0 4.271-4.275 4.28 4.28 0 0 0-4.271-4.274 4.28 4.28 0 0 0-4.271 4.274 4.273 4.273 0 0 0 4.271 4.275zm-35-110a4.28 4.28 0 0 0 4.271-4.275A4.28 4.28 0 0 0 511.271 85 4.28 4.28 0 0 0 507 89.275a4.273 4.273 0 0 0 4.271 4.274z" fill="#FFA095"/><path d="M563.5 144.003V144c0-5.784 4.716-10.5 10.5-10.5s10.5 4.716 10.5 10.5-4.716 10.5-10.5 10.5c-5.8 0-10.513-4.717-10.5-10.497z" stroke="#FFA095" stroke-width="3"/><path fill-rule="evenodd" clip-rule="evenodd" d="M715.808 330.737s-11.489-7.946-20.427-7.631c-8.925.306-13.957 3.35-15.262 4.614-1.314 1.256-1.676 2.254.191 3.18 1.876.939 5.983 4.039 11.253 5.135 5.288 1.097 11.786 1.33 15.627.313 3.853-1.026 9.113-3.375 9.163-3.849.028-.478-.545-1.762-.545-1.762zm-80.327-152.309s-15.861 9.906-20.221 21.063c-4.349 11.155-3.291 18.955-2.434 21.23.857 2.275 1.886 3.247 4.03 1.455 2.127-1.805 8.129-5.2 12.286-11.134 4.144-5.916 7.877-13.769 8.662-19.047.786-5.262.691-12.987.136-13.294-.56-.311-2.459-.273-2.459-.273z" fill="#F65B47"/><path d="M724.121 397.424c-17.296-2.368-19.874-6.799-36.779 6.023-5.341 4.05-10.675 4.391-8.533 5.388 2.152.999 9.45 4.974 18.205 3.859 8.771-1.117 13.051-2.451 17.67-6.191 4.609-3.742 9.437-9.079 9.437-9.079z" stroke="#0D62B1" stroke-width="3" stroke-miterlimit="10" stroke-linecap="round" stroke-linejoin="round"/><path d="M723.346 397.175s-6.277 2.835-15.473 5.126c-9.211 2.289-13.031 2.309-15.672 3.588-2.64 1.279-10.461 2.526-10.461 2.526m11.646-2.997l-5.206-2.602m17.881.731l-7.761-6.445m-1.303 8.754l-5.315 6.859m15.089-10.157l-4.214 8.577" stroke="#0D62B1" stroke-width="3" stroke-miterlimit="10" stroke-linecap="round" stroke-linejoin="round"/></symbol><symbol id="girl"><path fill-rule="evenodd" clip-rule="evenodd" d="M436.172 454.641s-4.635-9.308-8.24-13.963c-3.604-4.654-4.794-5.541-4.794-10.052 0-4.495 11.701-62.577 13.649-66.621 1.948-4.059 3.445-7.81 3.445-7.81l9.737-5.85 2.107-6.604s-.902-41.41 1.354-58.369c2.241-16.944 4.65-28.203.595-38.255-4.056-10.052-2.4-16.205-13.649-24.159-11.234-7.958-15.884-15.609-29.389-14.706-13.49.903-16.93-1.499-31.625 2.704-14.695 4.187-50.232 12.598-52.483 14.707-2.251 2.093-5.245 5.993-6.147 9.293-.903 3.299-6.291 37.659-6.291 37.659s-12.747-37.208-14.244-43.058c-1.497-5.86-2.702-7.358-9.593-8.405-6.901-1.047-26.846-5.106-32.994-3.156-6.147 1.966-28.63 5.265-38.382 15.913-9.737 10.647-19.33 36.161-25.478 56.712-6.147 20.567-13.341 57.323-13.648 61.223-.308 3.899-5.697 7.81 6.004 12.756 11.685 4.947 26.974 7.959 26.974 7.959s-1.189 10.053.754 20.1c1.948 10.052 1.046 18.909.307 24.158a175.479 175.479 0 0 1-1.656 9.601l7.502 2.853h4.793s2.4-15.609-.753-23.26c-3.138-7.651-7.035-33.308-7.035-33.308s27.733 6.152 43.777 5.249c16.043-.903 25.785-1.952 25.785-1.952s-.744 23.714 0 34.814c.753 11.114 2.25 23.871 2.399 26.416.159 2.545.902 8.405.902 8.405s19.202-.903 28.344-.903 21.888.452 21.888.452 2.543-18.006 3.153-32.569c.595-14.548 1.641-26.401 2.241-33.005.61-6.604 1.656-21.614 1.656-21.614s17.381 6.009 29.841 6.009c12.438 0 36.424.903 38.982.293 2.543-.596 4.492-1.95 4.492-1.95s-10.639 28.51-13.039 37.962c-2.4 9.457-5.855 20.407-6.291 25.816-.451 5.398-2.851 19.504-2.851 19.504s9.737-.903 18.735 2.545c8.998 3.449 19.166 6.466 19.166 6.466z" fill="#FFA095"/><path d="M398.731 203.915s3.01-.595 5.568-2.863c2.559-2.268 17.269-13.326 17.34-29.295.072-15.959.221-19.766-6.511-33.616-6.727-13.834-9.737-18.591-12.587-34.344-2.851-15.738.364-29.875-9.737-49.354-10.085-19.49-21.437-35.591-40.828-42.852-19.386-7.24-23.052-10.253-39.229-9.293-16.161.944-21.222 4.1-21.222 4.1m-2.552.282s-4.999-2.14-17.018 4.408c-12.018 6.547-33.327 25.6-38.808 44.904-5.465 19.29-6.424 40.246-13.079 56.338-6.671 16.072-4.999 16.308-17.848 30.722-12.865 14.414-18.325 16.918-22.499 27.155-4.173 10.242-6.424 19.884-6.424 19.884" stroke="#0D62B1" stroke-width="3" stroke-miterlimit="10" stroke-linecap="round" stroke-linejoin="round"/><path fill-rule="evenodd" clip-rule="evenodd" d="M274.264 150.826c6.989 0 12.69-5.701 12.69-12.7 0-6.984-5.696-12.685-12.69-12.685-6.978 0-12.674 5.701-12.674 12.685 0 6.999 5.696 12.7 12.674 12.7zm74.016-19.114c6.978 0 12.675-5.701 12.675-12.701 0-6.983-5.697-12.684-12.675-12.684-6.988 0-12.675 5.701-12.675 12.684.006 7 5.687 12.701 12.675 12.701z" fill="#FFA095"/><path d="M177.457 190.215s11.306 8.333 17.73 10.355c6.44 2.022 10.116 1.539 10.116 1.539m6.783 1.314s17.73-10.95 20.232-20.597c2.502-9.642 4.635-19.536.831-31.8-3.81-12.274-7.614-28.715-3.81-45.151 3.81-16.42 8.573-28.335 10.48-32.507 1.902-4.162 4.753-8.698 4.753-8.698m9.649-6.66s-5.711 30.126-6.552 34.893c-.831 4.757-2.251 9.293-2.251 9.293m9.031-15.836l-3.691 14.05" stroke="#0D62B1" stroke-width="3" stroke-miterlimit="10" stroke-linecap="round" stroke-linejoin="round"/><path d="M219.358 144.001s-9.055 12.624-9.768 23.215c-.713 10.601-.713 14.414.595 19.186 1.307 4.757 4.173 9.991 4.173 9.991m15.113-15.707s-1.789-2.864-1.789-6.312c0-3.464.348-6.676.348-6.676m11.558 17.514s-4.65 11.186-6.553 13.572a762.825 762.825 0 0 1-3.445 4.29m11.06-5.834l-2.138 5.47m8.558 2.155s7.384-11.315 7.153-21.09c-.246-9.76-2.615-20.115-4.287-27.274-1.671-7.142-2.978-16.784 2.733-30.485 5.712-13.686 11.424-35.725 11.193-46.563a7745.412 7745.412 0 0 0-.713-29.177m-1.077-3.946s4.522 10.72 15.346 18.109c10.829 7.39 12.265 8.58 18.094 11.433 5.83 2.863 9.87 3.694 9.87 3.694m-24.987-39.301s12.731 14.414 20.596 19.653c7.85 5.234 18.56 8.57 18.56 8.57m-22.133-34.175s27.251 27.39 32.25 31.198c4.999 3.813 10.116 5.835 10.116 5.835m-14.288-29.654s24.042 31.086 30.112 35.853c6.061 4.757 14.987 16.307 14.987 16.307" stroke="#0D62B1" stroke-width="3" stroke-miterlimit="10" stroke-linecap="round" stroke-linejoin="round"/><path d="M365.246 71.346s2.502 8.22 3.097 12.623c.595 4.408.482 9.529.482 9.529m13.438-13.932s3.21 14.286 1.077 24.41c-2.154 10.125-3.574 21.686-12.018 30.137-8.46 8.452-15.48 15.246-18.458 22.388-2.964 7.159-3.21 15.128-.831 19.418 2.384 4.29 5.481 5.234 4.056 12.859-1.441 7.62-3.097 12.146-5.958 15.841-2.851 3.694-6.061 6.429-6.061 6.429s14.987-3.212 18.197-4.274c3.21-1.078 6.424-10.006 6.424-10.006l1.903 7.142s4.532-.831 6.193-2.504c1.672-1.657 3.923-4.161 3.923-7.507 0-3.33-.944-7.025-.713-12.741.246-5.717 1.553-12.377 4.404-16.785 2.861-4.408 10.234-15.61 11.193-18.227.943-2.617 2.502-7.389 2.851-12.623.364-5.234-.713-10.473-.713-10.473" stroke="#0D62B1" stroke-width="3" stroke-miterlimit="10" stroke-linecap="round" stroke-linejoin="round"/><path d="M384.995 126.724c-.712 2.504-4.04 5.598-7.849 10.719-3.81 5.122-4.523 8.103-6.425 14.05-1.902 5.963-2.979 10.853-2.979 10.853m10.354-12.757s-3.676 2.982-3.676 5.599m14.505 3.345s-.713 10.243-3.676 16.421c-2.979 6.199-5.261 9.411-5.261 9.411m21.201-18.206s-3.209 7.969-6.193 13.803c-2.979 5.85-7.019 10.371-7.019 10.371m15.594-7.276s-2.748 3.212-4.999 5.367a30.296 30.296 0 0 1-4.65 3.566m-33.85-110.345s2.907 6.024 3.635 11.376c.713 5.367 1.308 6.312 1.308 6.312l2.138-2.853m3.441-2.628s2.502-2.735 6.076-1.427c3.573 1.31 7.367 5.265 7.367 5.265m-6.29 4.029s-1.19-2.864-4.174.713c-2.979 3.577-3.922 3.577-5.594 9.893-1.656 6.312-5.347 24.657-10.116 32.508-4.753 7.856-11.059 20.248-23.908 27.042-12.864 6.779-20.945 8.57-31.189 5.717-10.234-2.864-22.37-5.122-32.25-17.032-9.87-11.915-19.274-27.868-19.274-27.868m9.287-40.154s5.584-6.896 11.655-8.333c6.075-1.427 11.787-1.54 11.787-1.54s-17.033 1.442-20.478 3.156c-3.446 1.73-7.614 5.06-7.614 5.06m85.806-17.744s-5.958-1.904-15.945.118c-9.999 2.022-13.095 3.212-13.095 3.212s10.941-7.507 17.965-7.143a149.59 149.59 0 0 1 13.326 1.309m-1.537 28.469s-5.943 2.617-11.424 4.756c-5.481 2.156-10.829.483-10.829.483s3.097 3.576 8.691 2.504c5.584-1.078 12.849-4.526 12.849-4.526m-77.12 15.589s2.502.96 8.327-.944c5.83-1.904 12.613-6.43 12.613-6.43s-8.096 8.452-12.849 9.411c-4.768.944-8.214.944-8.214.944m32.018-16.189l2.743 17.267" stroke="#0D62B1" stroke-width="3" stroke-miterlimit="10" stroke-linecap="round" stroke-linejoin="round"/><path d="M306.221 143.755s4.158-2.268 8.27-3.987c4.097-1.729 6.963-4.233 6.963-4.233m-68.786 5.485l4.666 1.37m2.948 6.255h-3.809c-4.04 0-7.891-.918-7.891-.918m118.453-28.977s4.522-1.904 5.712-2.504c1.189-.601 4.522-4.654 4.522-4.654m-12.14 14.901s7.732-1.427 10.234-2.982c2.502-1.539 4.968-5.947 4.968-5.947m-87.316 57.99s1.672 8.698-2.02 16.569c-3.691 7.857-8.46 16.436-14.997 20.598-6.542 4.177-13.213 5.234-13.213 5.234" stroke="#0D62B1" stroke-width="3" stroke-miterlimit="10" stroke-linecap="round" stroke-linejoin="round"/><path d="M259.805 157.343s2.861 14.881 6.193 20.715c3.343 5.85 5.958 10.838 8.809 13.588 2.861 2.735 7.137 7.374 7.137 7.374m-3.815-24.892s3.343 7.389 3.809 9.293m2.98-6.676s1.554 2.75 1.425 6.794c-.118 4.043-2.368 11.202-2.368 11.202m-10.364 8.333s-9.522 1.19-14.039 1.19c-4.522 0-10.654-2.591-10.654-2.591m125.615-.272s2.369 3.213 7.963 5.717c5.594 2.504 8.808 3.812 8.808 3.812m-186.366 53.264c1.394 0 14.694 4.901 14.694 4.901m63.294 32.132s2.179 5.773 2.425 7.318c.261 1.539.902 5.003.902 5.003m4.55 24.626c-.318 1.601-.641 8.22-.318 12.13.318 3.915.58 6.794.77 9.673.189 2.894 1.276 9.632 1.276 9.632M187.105 347.41s22.048 6.676 44.356 11.289c22.294 4.623 32.804 3.854 39.213 3.854 6.41 0 12.819-1.278 12.819-1.278m146.254-125.694s-7.921 1.278-11.193 2.689c-3.271 1.396-8.865 3.377-8.865 3.377m-29.052 14.255s-4.896 6.994-7.701 12.146c-2.805 5.136-4.784 9.688-4.784 9.688M341.89 290.2s.38 11.417-.395 19.884c-.769 8.467.262 23.215.395 27.315.118 4.1 1.79 16.292 1.79 16.292m5.445-4.736s25.636 0 37.685-.262c12.049-.246 25.636-.508 33.327-2.822 7.691-2.299 13.839-6.153 13.839-6.153m-94.88-107.056s9.449-5.947 20.304-5.947c10.854 0 18.196-1.879 18.196-1.879m-48.872 12.028l-7.009 31.071m-30.914-31.768l9.213 26.734 1.631 11.797m-13.529-44.833l-18.663-1.293m37.511 55.316s-1.712.483-1.876 3.274c-.159 2.776.656 4.829 3.025 4.336 2.368-.492 4.824-1.626 4.824-3.186 0-1.555-2.21-3.608-2.21-3.608m-.478 17.775s-3.605 1.381-3.938 3.68c-.318 2.299-.902 4.177 1.892 4.423 2.774.246 5.317-.246 5.568-1.806.246-1.555-.405-4.264-1.235-4.829-.821-.564-2.287-1.468-2.287-1.468zm36.829 57.472s-2.266 27.956-3.399 44.7c-1.134 16.744-3.738 36.407-8.127 50.544-4.389 14.137-6.814 21.121-7.788 28.931-.975 7.794-2.6 14.296-2.6 14.296m57.969-8.929s9.096-21.136 12.674-40.64c3.574-19.505 5.845-35.114 8.286-43.068 2.425-7.969 13.474-41.934 13.474-41.934M287.316 376.69s-2.267 17.38-1.615 30.224c.641 12.844.318 27.304 1.948 39.825 1.615 12.51.482 28.597-1.307 39.65-1.79 11.053-4.215 32.189-4.215 32.189m-67.57-147.574s8.285 31.856 8.777 40.307c.482 8.452-.333 30.388 1.293 38.676 1.625 8.287 6.814 39.506 7.788 45.017.989 5.527 2.763 9.268 2.763 9.268m56.045-69.895s3.558 1.468 12.659-.8c9.096-2.284 13.315-1.15 13.315-1.15m-2.431 12.192s-2.108 6.183-2.108 12.526c0 6.342-.656 13.66-.656 13.66m-1.127 13.321l1.61 9.103m4.886-30.717l11.362.801m-32.974 0h-3.245m18.359 35.925s1.133 1.791 0 4.551c-1.148 2.766-1.789 7.959-1.789 7.959m-5.043-61.428s-2.107 0-4.056 3.243c-1.948 3.259-1.466 7.636.318 8.293 1.79.657 6.83-.816 7.963-2.766 1.133-1.95 0-7.318 0-7.318l-4.225-1.452zm-83.465-5.367l-3.256-1.134m-2.426-14.471s.318 5.527-.159 7.636c-.492 2.124-4.548 1.467-4.548 1.467l3.4 6.168s-2.923 1.627-26.149 4.885c-23.227 3.243-44.823 2.268-60.081 4.552-15.274 2.268-26.8 5.85-26.8 5.85m116.923 34.298s-12.977-10.078-27.6-16.421c-14.623-6.342-34.927-12.844-34.927-12.844m-8.764-2.267s-4.389-2.284-7.629-2.284c-3.256 0-5.845-.159-5.845-.159m161.431 75.416s-6.656 3.418-7.804 22.748c-1.133 19.345-4.856 37.105-4.856 37.105" stroke="#0D62B1" stroke-width="3" stroke-miterlimit="10" stroke-linecap="round" stroke-linejoin="round"/><path d="M318.173 546.205c-11.368-2.591-23.863-9.903-37.511-15.928-13.634-6.008-37.834-19.504-61.22-28.93-23.4-9.427-58.471-22.589-70.986-26.807-12.501-4.233-30.364-13.819-47.904-14.635-17.54-.815-31.512-2.924-48.56 4.059-17.048 6.994-30.374 12.526-37.844 23.738-7.47 11.212-12.5 17.38-11.844 27.464.64 10.078.482 25.687 17.54 38.675 17.048 13.003 33.937 24.713 60.737 27.638 26.785 2.924 98.746 6.819 136.098 9.426 37.352 2.602 57.64 3.417 75.519 5.85 17.863 2.442 16.392.657 26.149 4.233 9.736 3.577 12.341 3.741 23.703 4.059 11.367.334 20.463-1.293 27.282-.159 6.83 1.134 15.915 4.552 21.278 6.502 5.363 1.949 18.356 7.158 29.226 4.551 10.885-2.602 16.407-8.451 19.329-16.903 2.923-8.451 5.845-26.329-1.948-34.955-7.788-8.61-23.878-13.485-36.696-12.669-12.833.816-18.514-2.109-31.03-2.443-12.5-.318-14.607-1.134-24.836-.159-10.234.975-11.367 0-18.197 0-6.819 0-8.285-2.607-8.285-2.607z" stroke="#0D62B1" stroke-width="3" stroke-miterlimit="10" stroke-linecap="round" stroke-linejoin="round"/><path d="M355.203 558.947s-18.181-5.573-23.862-6.399c-5.697-.816-10.234-1.965-13.167 7.215-2.923 9.18-3.558 17.862-3.081 23.435.492 5.573-1.293 8.19 4.388 9.657 5.681 1.791 26.801 3.1 26.801 3.1" stroke="#0D62B1" stroke-width="3" stroke-miterlimit="10" stroke-linecap="round" stroke-linejoin="round"/><path d="M334.421 554.18s-5.204-3.577-8.937 3.417c-3.738 6.984-5.681 12.351-6.004 21.614-.333 9.267-3.271 12.915 0 13.644 3.256.744 8.937 1.539 8.937 1.539m-8.534 7.144s2.02-3.639 5.758-4.131c3.737-.483 6.496-.657 6.496-.657" stroke="#0D62B1" stroke-width="3" stroke-miterlimit="10" stroke-linecap="round" stroke-linejoin="round"/><path d="M311.352 598.874s1.133-2.925 5.363-3.735a592.97 592.97 0 0 0 7.224-1.442m32.079-32.698s4.055 20.48 7.629 27.479c3.574 6.984 5.845 11.853 5.845 11.853m-3.896-38.998s2.763 11.854 6.829 19.489c4.056 7.651 6.978 17.077 6.978 17.077m-17.208-32.507s1.292 5.367 2.923 10.242a316.567 316.567 0 0 1 2.922 9.267" stroke="#0D62B1" stroke-width="3" stroke-miterlimit="10" stroke-linecap="round" stroke-linejoin="round"/><path d="M377.135 570.585s-1.251.19-3.912 3.258c-2.646 3.069-2.487 2.227-2.487 2.227m-10.634 6.574s-1.117 2.252-3.532 5.162c-2.4 2.909-2.907 3.227-3.764 4.7-.856 1.483-2.368 3.767-2.368 3.767m15.535-3.202s-1.323 1.062-2.328 2.704c-1.015 1.626-2.528 3.607-2.528 3.607m15.671-8.841s-.333.451 1.846-3.038c2.163-3.505 1.933-3.577 2.948-4.9 1.005-1.324 1.276-1.976 1.276-1.976" stroke="#0D62B1" stroke-width="3" stroke-miterlimit="10" stroke-linecap="round" stroke-linejoin="round"/><path d="M377.266 561.03s.277 5.557 1.876 9.832c1.585 4.274 2.63 6.645 3.487 9.411.856 2.75 1.625 4.074 3.184 6.994 1.553 2.909 2.138 4.187 3.184 5.819 1.046 1.632 1.482 2.766 1.482 2.766m-8.389-30.501s.887 3.464 1.933 5.86c1.046 2.417 2.138 4.741 2.717 5.788m-26.477-21.321c-1.626-.395-2.066-1.18-2.574-.231-.508.929-1.267 2.402.031 3.1 1.276.698 4.286 1.555 7.209 1.046 1.117-.497-4.666-3.915-4.666-3.915zm27.917 4.926s2.179 5.747 3.999 11.464c1.83 5.716 2.876 6.881 4.389 10.576 1.512 3.679 2.907 5.67 3.573 7.42.657 1.744.77 3.227.857 3.535m-3.734 7.153s1.276-.159 3.461-1.293c2.163-1.119 3.953-2.33 3.953-2.33m1.715-8.087s.071-1.277.394-4.028c.308-2.766.262-2.068.38-4.161.118-2.109.466-4.86.466-4.86m-.734-1.744s.656-.277-.856-2.838c-1.513-2.576-2.179-3.577-3.384-4.51-1.19-.929-2.369-1.904-3.794-2.766-1.441-.857-1.713-1.119-1.713-1.119m-184.95 27.586s-4.563 2.053-10.916 6.286c-6.352 4.234-7.455 9.18-21.365 11.695-13.91 2.529-15.32 6.558-25.898-.103-10.593-6.645-13.315-11.289-14.52-15.127-1.205-3.838-.61-8.175-.61-8.175m257.398-121.865s-.974 3.741 7.963 2.94c8.921-.816 13.474-2.601 13.474-2.601m-2.604-14.148l-.317 11.536m-10.713-13.003l1.948 7.635.159 6.183m41.092 13.486s25.175-4.377 37.034-5.526c11.844-1.134 12.003-3.736 25.975-1.617 13.966 2.109 17.704 3.402 17.704 3.402" stroke="#0D62B1" stroke-width="3" stroke-miterlimit="10" stroke-linecap="round" stroke-linejoin="round"/><path d="M433.641 451.618s-.641 7.636 7.312 8.611c7.962.975 19.488-1.293 30.538-.975 11.044.318 32.963 1.308 45.637 4.711 12.659 3.417 20.13 5.526 28.574 12.187 8.445 6.66 11.86 7.476 15.115 11.869 3.241 4.392 16.89 23.722 17.048 37.223.159 13.485-1.466 28.438-11.044 39.014-9.577 10.56-19.488 18.037-44.007 24.697-24.518 6.661-44.007 9.427-57.163 9.76-13.167.318-26.483.318-26.483.318" stroke="#0D62B1" stroke-width="3" stroke-miterlimit="10" stroke-linecap="round" stroke-linejoin="round"/><path d="M267.023 524.274s17.207-5.526 35.727-11.376c18.515-5.86 87.045-20.479 103.293-24.395 16.233-3.9 58.789-10.719 75.186-11.694 16.408-.975 24.693-1.627 24.693-1.627" stroke="#0D62B1" stroke-width="3" stroke-miterlimit="10" stroke-linecap="round" stroke-linejoin="round"/><path d="M311.034 512.082s.159 13.162.159 16.405c0 3.259-1.466 12.844-1.466 12.844m199.087-65.426c1.046 0 10.409-1.442 25.755 3.505 15.345 4.946 23.79 9.38 23.79 9.38" stroke="#0D62B1" stroke-width="3" stroke-miterlimit="10" stroke-linecap="round" stroke-linejoin="round"/></symbol><symbol id="instagram"><path fill-rule="evenodd" clip-rule="evenodd" d="M5 0a5 5 0 0 0-5 5v8a5 5 0 0 0 5 5h8a5 5 0 0 0 5-5V5a5 5 0 0 0-5-5H5zm10 4.304c0 .652-.522 1.044-1.044 1.044s-1.043-.522-1.043-1.044c0-.652.521-1.043 1.043-1.043.522 0 1.044.391 1.044 1.043zM9 12.13c-1.696 0-3-1.304-3-3s1.304-3 3-3c1.695 0 3 1.304 3 3s-1.305 3-3 3zm0-7.696A4.676 4.676 0 0 0 4.303 9.13a4.676 4.676 0 0 0 4.695 4.696 4.676 4.676 0 0 0 4.696-4.696 4.676 4.676 0 0 0-4.696-4.696z" fill="#0D62B1"/></symbol><symbol id="logo-b" viewBox="0 0 626 260"><style>.st0{fill:#042c52}</style><path class="st0" d="M342.6 94h7.4l23.2 25.4h4.5l-24.8-27.2 24.4-27h-4.5l-23 25.4h-7.1V65.3h-3.3v54.2h3.3V94zm-9.8 25.2V65h-17.7l-1.2 3.3h15.6v50.9h3.3zm84.8 19.2l-37.4 38.3v-44h-3.3v54.2h3.3v-5.4l37.4-38.5v43.9h3.3v-54.2h-3.3v5.7zm4.1-67.4l-37.4 38.3v-44H381v54.2h3.3V114l37.4-38.5v43.9h3.3V65.3h-3.3V71zM367 132.7h-31.9v26.6c0 .1.3 12.2-3.1 19.1-1.7 3.4-3 4.7-3.4 5.2h-7.7v11.1h3.3V187h46.2v7.7h3.3v-11.1H367v-50.9zm-3.3 50.9h-30.9c.6-.9 1.4-2.1 2.1-3.7 3.8-7.7 3.5-20.2 3.5-20.7V136h25.3v47.6zM469 68.6v-3.3h-38.5v54.2H469v-3.3h-35.2V94h30.8v-3.3h-30.8V68.6H469zm-158.9 66.8c-.3 1-.6 2-1 3.2 8.6 3.6 14.6 12.1 14.6 22 0 13.1-10.6 23.8-23.6 23.8-1.8 0-3.5-.2-5.1-.6-.4 1.2-.7 2.2-1 3.2 2 .5 4 .7 6.1.7 14.9 0 26.9-12.2 26.9-27.1 0-11.5-7-21.2-16.9-25.2z"/><path class="st0" d="M209.9 160.1c0 .1.3 12.2-3.1 19.1-2.2 4.4-5.4 7.8-6 8.5h4.4c1.4-1.7 3.1-4.1 4.6-7 3.8-7.7 3.5-20.2 3.5-20.7v-23.2h31.9v50.9h3.3v-54.2H210v26.6zm-4.9-40.9l-22.5-27.1L205.1 65H201l-20.5 24.7L160.1 65H156l22.5 27.1-22.5 27.1h4.1l20.4-24.6 20.4 24.6h4.1zm7.6-19.7l20.2-.2c.1 0 14.9-1 14.9-16.8 0-17.1-14.1-17.5-14.3-17.5h-24.2v54.2h3.3V99.5zm0-31.2h20.9c.4 0 11 .3 11 14.2 0 12.6-11.3 13.4-11.7 13.5l-20.1.2-.1-27.9zm83.3 0h19.6l1.2-3.3h-24.1v54.2h3.3V68.3zm-19.7 92.1c0-13.1 10.6-23.8 23.6-23.8 3.2 0 6.3.6 9 1.8.4-1.2.7-2.2 1-3.2-3.1-1.3-6.5-2-10-2-14.4 0-26.1 11.4-26.9 25.6H258v-25.4h-3.3v54.2h3.3v-25.4h15c.8 12 9.4 21.9 20.8 24.5.3-1 .6-2 1-3.2-10.6-2.3-18.6-11.8-18.6-23.1zm-7.7-52.6c5.5-10 20.1-40.2 21.4-42.8h-3.7c-2.7 5.6-11.8 24.3-17.6 35.5L249.5 65h-3.8l21 39h.1c-.4.8-.8 1.5-1.2 2.1-.7 1.3-2.8 4.6-6.6 7.2-4.1 2.9-10 2.6-11.2 2.5v3.3h1.4c2.7 0 7.7-.4 11.6-3.1 4.5-3 6.9-6.7 7.7-8.2z"/></symbol><symbol id="logo" viewBox="0 0 626 260"><path class="st0" d="M186.6 29h7.4l23.2 25.4h4.5l-24.8-27.2 24.4-27h-4.5l-23 25.4h-7.1V.3h-3.3v54.2h3.3V29zm-9.8 25.2V0h-17.7l-1.2 3.3h15.6v50.9h3.3zm84.8 19.2l-37.4 38.3v-44h-3.3v54.2h3.3v-5.4L261.5 78v43.9h3.3V67.7h-3.3l.1 5.7zM265.7 6l-37.4 38.3V.3H225v54.2h3.3V49l37.4-38.5v43.9h3.3V.3h-3.3V6zM211 67.7h-31.9v26.6c0 .1.3 12.2-3.1 19.1-1.7 3.4-3 4.7-3.4 5.2h-7.7v11.1h3.3V122h46.2v7.7h3.3v-11.1H211V67.7zm-3.3 50.9h-30.9c.6-.9 1.4-2.1 2.1-3.7 3.8-7.7 3.5-20.2 3.5-20.7V71h25.3v47.6zM313 3.6V.3h-38.5v54.2H313v-3.3h-35.2V29h30.8v-3.3h-30.8V3.6H313zM154.1 70.4c-.3 1-.6 2-1 3.2 8.6 3.6 14.6 12.1 14.6 22 0 13.1-10.6 23.8-23.6 23.8-1.8 0-3.5-.2-5.1-.6-.4 1.2-.7 2.2-1 3.2 2 .5 4 .7 6.1.7 14.9 0 26.9-12.2 26.9-27.1 0-11.5-7-21.2-16.9-25.2z"/><path class="st0" d="M53.9 95.1c0 .1.3 12.2-3.1 19.1-2.2 4.4-5.4 7.8-6 8.5h4.4c1.4-1.7 3.1-4.1 4.6-7 3.8-7.7 3.5-20.2 3.5-20.7V71.8h31.9v50.9h3.3V68.5H53.9v26.6zM49 54.2L26.6 27.1 49.1 0H45L24.5 24.7 4.1 0H0l22.5 27.1L0 54.2h4.1l20.4-24.6L45 54.2h4zm7.6-19.7l20.2-.2c.1 0 14.9-1 14.9-16.8C91.8.4 77.7 0 77.5 0H53.3v54.2h3.3V34.5zm0-31.2h20.9c.4 0 11 .3 11 14.2 0 12.6-11.3 13.4-11.7 13.5l-20.1.2-.1-27.9zm83.3 0h19.6l1.2-3.3h-24.1v54.2h3.3V3.3zm-19.7 92.1c0-13.1 10.6-23.8 23.6-23.8 3.2 0 6.3.6 9 1.8.4-1.2.7-2.2 1-3.2-3.1-1.3-6.5-2-10-2-14.4 0-26.1 11.4-26.9 25.6H102V68.5h-3.3v54.2h3.3V97.2h15c.8 12 9.4 21.9 20.8 24.5.3-1 .6-2 1-3.2-10.6-2.3-18.6-11.8-18.6-23.1zm-7.7-52.6c5.5-10 20.1-40.2 21.4-42.8h-3.7c-2.7 5.6-11.8 24.3-17.6 35.5L93.5 0h-3.8l21 39h.1c-.4.8-.8 1.5-1.2 2.1-.7 1.3-2.8 4.6-6.6 7.2-4.1 2.9-10 2.6-11.2 2.5v3.3h1.4c2.7 0 7.7-.4 11.6-3.1 4.5-3 6.9-6.7 7.7-8.2z"/></symbol><symbol id="mail-ru"><path fill-rule="evenodd" clip-rule="evenodd" d="M13.008 9.972c0 1.654-1.35 3-3.008 3a3.007 3.007 0 0 1-3.008-3c0-1.654 1.35-3 3.008-3a3.007 3.007 0 0 1 3.008 3zM10 0C4.486 0 0 4.473 0 9.972c0 5.498 4.486 9.971 10 9.971 2.02 0 3.968-.6 5.633-1.734l.029-.02-1.348-1.562-.023.015A7.932 7.932 0 0 1 10 17.9c-4.384 0-7.95-3.556-7.95-7.927C2.05 5.6 5.616 2.044 10 2.044c4.383 0 7.95 3.557 7.95 7.928 0 .566-.063 1.14-.188 1.704-.251 1.028-.973 1.344-1.516 1.302-.545-.044-1.184-.432-1.188-1.38V9.972c0-2.782-2.27-5.044-5.058-5.044-2.79 0-5.058 2.262-5.058 5.044 0 2.78 2.269 5.044 5.058 5.044a5.025 5.025 0 0 0 3.584-1.49 3.252 3.252 0 0 0 2.767 1.5c.727 0 1.448-.242 2.03-.682.599-.454 1.046-1.11 1.293-1.899.04-.127.113-.419.113-.42l.002-.01c.146-.634.21-1.264.21-2.043C20 4.473 15.515 0 10 0z" fill="#0D62B1"/></symbol><symbol id="null" viewBox="0 0 58 58"><path d="M57 6H1a1 1 0 0 0-1 1v44a1 1 0 0 0 1 1h56a1 1 0 0 0 1-1V7a1 1 0 0 0-1-1zm-1 44H2V8h54v42z"/><path d="M16 28.138a5.575 5.575 0 0 0 5.569-5.568c0-3.072-2.498-5.57-5.569-5.57s-5.569 2.498-5.569 5.569A5.575 5.575 0 0 0 16 28.138zM16 19c1.968 0 3.569 1.602 3.569 3.569S17.968 26.138 16 26.138s-3.569-1.601-3.569-3.568S14.032 19 16 19zM7 46c.234 0 .47-.082.66-.249l16.313-14.362L34.275 41.69a.999.999 0 1 0 1.414-1.414l-4.807-4.807 9.181-10.054 11.261 10.323a1 1 0 0 0 1.351-1.475l-12-11a1.031 1.031 0 0 0-.72-.262 1.002 1.002 0 0 0-.694.325l-9.794 10.727-4.743-4.743a1 1 0 0 0-1.368-.044L6.339 44.249A1 1 0 0 0 7 46z"/></symbol><symbol id="rouble"><path d="M10.002 15.365H4.971V20H3.303v-4.635H.513V13.93h2.79v-2.037H.513V10.47h2.79V.094h6.781c2.096 0 3.732.533 4.908 1.6 1.185 1.057 1.777 2.497 1.777 4.32 0 1.859-.574 3.304-1.722 4.334-1.149 1.02-2.79 1.535-4.922 1.545H4.971v2.037h5.031v1.435zm-5.031-4.894h5.113c1.586 0 2.816-.383 3.691-1.149.875-.774 1.313-1.868 1.313-3.281 0-1.367-.428-2.452-1.285-3.254-.848-.802-2.02-1.221-3.514-1.258H4.971v8.942z" fill="#151616"/></symbol><symbol id="share"><circle opacity=".2" cx="24" cy="24" r="23.5" stroke="#042C52"/><path fill-rule="evenodd" clip-rule="evenodd" d="M29 18a2 2 0 1 0-4 0 2 2 0 0 0 4 0zm2 0a4 4 0 1 0-7.7 1.524l-1.802 1.352a4 4 0 1 0 0 6.248l1.803 1.352a4 4 0 1 0 1.2-1.6L22.7 25.524c.194-.47.301-.984.301-1.524s-.107-1.055-.3-1.524l1.802-1.352A4 4 0 0 0 31 18zm-4 14a2 2 0 1 0 0-4 2 2 0 0 0 0 4zm-8-10a2 2 0 1 1 0 4 2 2 0 0 1 0-4z" fill="#042C52"/></symbol><symbol id="twitter"><path d="M15.877 2.314A7.412 7.412 0 0 0 18 1.74a7.163 7.163 0 0 1-1.847 1.907c.012.155.012.311.012.48 0 4.88-3.717 10.504-10.505 10.504-2.086 0-4.03-.611-5.66-1.655a7.2 7.2 0 0 0 .887.048 7.364 7.364 0 0 0 4.581-1.583 3.708 3.708 0 0 1-3.441-2.566c.228.048.455.06.695.06.336 0 .66-.048.972-.132a3.68 3.68 0 0 1-2.962-3.61v-.047A3.618 3.618 0 0 0 2.41 5.6 3.668 3.668 0 0 1 .767 2.53c0-.671.18-1.307.504-1.858a10.511 10.511 0 0 0 7.603 3.861A3.695 3.695 0 0 1 12.472 0c1.055 0 2.014.444 2.698 1.163a7.181 7.181 0 0 0 2.338-.9 3.703 3.703 0 0 1-1.63 2.051z" fill="#0D62B1"/></symbol><symbol id="vk"><path d="M21 12.508l-2.938.037s-.628.126-1.469-.452c-1.105-.753-2.134-2.712-2.95-2.46-.816.263-.791 2.02-.791 2.02s0 .377-.176.578c-.201.226-.603.277-.603.277h-1.306s-2.9.175-5.461-2.486C2.519 7.122.058 1.358.058 1.358S-.08.982.07.794C.246.593.71.58.71.58L3.85.555s.3.05.502.2c.188.139.289.378.289.378s.502 1.28 1.18 2.448c1.318 2.272 1.92 2.762 2.373 2.523.653-.351.452-3.214.452-3.214s.012-1.03-.327-1.494c-.263-.364-.753-.464-.98-.49-.175-.025.114-.439.49-.615C8.396.015 9.4-.01 10.58.003c.917.012 1.18.062 1.544.15 1.08.264.716 1.268.716 3.691 0 .779-.138 1.871.427 2.235.239.151.829.025 2.298-2.473.703-1.18 1.218-2.586 1.218-2.586s.113-.252.288-.352c.176-.113.427-.075.427-.075l3.315-.025s.992-.126 1.155.326c.163.477-.377 1.57-1.72 3.377-2.223 2.963-2.461 2.687-.628 4.395 1.758 1.632 2.122 2.435 2.185 2.523.728 1.218-.804 1.319-.804 1.319z" fill="#F65B47"/></symbol></defs><view id="view-arrow" viewBox="0 0 144 96"></view><view id="view-check" viewBox="202 0 117.33 96"></view><view id="view-close" viewBox="404 0 96 96"></view><view id="view-facebook" viewBox="510 0 96 96"></view><view id="view-flowers-2" viewBox="616 0 90.07 96"></view><view id="view-flowers" viewBox="722 0 166.34 96"></view><view id="view-girl" viewBox="0 106 89.95 96"></view><view id="view-instagram" viewBox="106 106 96 96"></view><view id="view-logo-b" viewBox="212 106 231.14 96"></view><view id="view-logo" viewBox="510 106 231.14 96"></view><view id="view-mail-ru" viewBox="0 212 96 96"></view><view id="view-null" viewBox="106 212 96 96"></view><view id="view-rouble" viewBox="212 212 81.6 96"></view><view id="view-share" viewBox="318 212 96 96"></view><view id="view-twitter" viewBox="424 212 115.2 96"></view><view id="view-vk" viewBox="626 212 162.46 96"></view><use id="arrow" xlink:href="#arrow" width="144" height="96" x="0" y="0"></use><use id="check" xlink:href="#check" width="117.33" height="96" x="202" y="0"></use><use id="close" xlink:href="#close" width="96" height="96" x="404" y="0"></use><use id="facebook" xlink:href="#facebook" width="96" height="96" x="510" y="0"></use><use id="flowers-2" xlink:href="#flowers-2" width="90.07" height="96" x="616" y="0"></use><use id="flowers" xlink:href="#flowers" width="166.34" height="96" x="722" y="0"></use><use id="girl" xlink:href="#girl" width="89.95" height="96" x="0" y="106"></use><use id="instagram" xlink:href="#instagram" width="96" height="96" x="106" y="106"></use><use id="logo-b" xlink:href="#logo-b" width="231.14" height="96" x="212" y="106"></use><use id="logo" xlink:href="#logo" width="231.14" height="96" x="510" y="106"></use><use id="mail-ru" xlink:href="#mail-ru" width="96" height="96" x="0" y="212"></use><use id="null" xlink:href="#null" width="96" height="96" x="106" y="212"></use><use id="rouble" xlink:href="#rouble" width="81.6" height="96" x="212" y="212"></use><use id="share" xlink:href="#share" width="96" height="96" x="318" y="212"></use><use id="twitter" xlink:href="#twitter" width="115.2" height="96" x="424" y="212"></use><use id="vk" xlink:href="#vk" width="162.46" height="96" x="626" y="212"></use></svg>