<?xml version="1.0" encoding="utf-8" ?>
<svg xmlns="http://www.w3.org/2000/svg" xmlns:xlink="http://www.w3.org/1999/xlink" width="78" height="59">
	<path fill="rgb(160,90,75)" stroke="none" transform="translate(0 13)" d="M72.6648 0L4.32156 0C2.33887 0 0 2.05054 0 3.98267L0 11L75 11L75 2.27588C75 1.01901 73.9544 0 72.6648 0Z"/>
	<path fill="rgb(0,189,45)" stroke="none" transform="translate(9 0)" d="M60 2.33904C60 1.04729 58.9533 0 57.6623 0L2.33774 0C1.04671 0 0 1.04729 0 2.33904L0 23C0.558528 23 59.4268 23 59.9997 23L59.9997 2.33904L60 2.33904Z"/>
	<path fill="rgb(0,189,45)" stroke="none" transform="translate(9 0)" d="M57.6623 0L55.3245 0L55.3245 16.7625C54.0144 16.7625 1.16411 16.7625 0 16.7625L0 23L60 23L60 2.33905C60 1.0473 58.9533 0 57.6623 0Z"/>
	<path fill="rgb(0,189,45)" stroke="none" transform="translate(31 9)" d="M8 20C12.4183 20 16 15.5228 16 10C16 4.47715 12.4183 0 8 0C3.58172 0 0 4.47715 0 10C0 15.5228 3.58172 20 8 20Z"/>
	<path fill="rgb(0,123,31)" stroke="none" transform="translate(12.1338 4.0477)" d="M52.5469 9.50939C47.9718 9.50939 44.2498 5.77677 44.2498 1.18862C44.2498 0.532154 43.7191 0 43.0645 0L10.6676 0C10.013 0 9.48237 0.532154 9.48237 1.18862C9.48237 5.77677 5.76036 9.50939 1.18524 9.50939C0.530642 9.50939 0 10.0415 0 10.698C0 13.2291 0 14.6762 0 15.4603C0 16.0637 0 16.2748 0 16.2846C0 16.9308 0 18.0278 0 19.8111C0.703074 19.8111 1.49697 19.8111 2.37063 19.8111C2.37063 18.5731 2.37063 18.2683 2.37063 11.8211C7.30764 11.2712 11.2394 7.32831 11.7875 2.37738L41.9447 2.37738C42.4929 7.32846 46.4247 11.2714 51.3615 11.8211L51.3615 19.8111C52.235 19.8111 53.0289 19.8111 53.7321 19.8111L53.7321 10.6982C53.7323 10.0415 53.2015 9.50939 52.5469 9.50939Z"/>
	<path fill="rgb(0,123,31)" stroke="none" transform="translate(29.9126 8.802)" d="M9.08719 0C4.07639 0 0 4.97692 0 11.0943C0 12.4902 0.214312 13.8252 0.601364 15.0568C1.42855 15.0568 2.26508 15.0568 3.10776 15.0568C2.63772 13.8669 2.37063 12.5208 2.37063 11.0943C2.37063 6.28785 5.38358 2.37738 9.08734 2.37738C12.7911 2.37738 15.8041 6.28785 15.8041 11.0943C15.8041 12.5208 15.537 13.8669 15.0669 15.0568C15.9096 15.0568 16.746 15.0568 17.5732 15.0568C17.9604 13.8252 18.1747 12.4902 18.1747 11.0943C18.1744 4.97692 14.098 0 9.08719 0Z"/>
	<path fill="rgb(0,123,31)" stroke="none" transform="translate(12.1338 4.04785)" d="M1.69471 5.35338C1.998 5.35338 2.30144 5.23738 2.53278 5.00523C2.99562 4.54108 2.99562 3.78831 2.53278 3.32431C2.3918 3.18292 2.37078 3.01785 2.37078 2.932C2.37078 2.84631 2.3918 2.68108 2.53278 2.53969C2.67377 2.39831 2.83822 2.37723 2.92382 2.37723C3.00943 2.37723 3.17403 2.39831 3.31502 2.53969C3.77785 3.00385 4.52848 3.00385 4.99116 2.53969C5.454 2.07554 5.454 1.32277 4.99116 0.858769C4.43905 0.305077 3.70468 0 2.92367 0C2.14266 0 1.4086 0.304923 0.85633 0.858769C0.304057 1.41262 0 2.14892 0 2.93215C0 3.71538 0.304057 4.45154 0.85633 5.00554C1.08798 5.23723 1.39127 5.35338 1.69471 5.35338Z"/>
	<path fill="rgb(0,123,31)" stroke="none" transform="translate(60.5278 4.04904)" d="M2.02343 2.53865C2.23912 2.3225 2.58997 2.3225 2.80566 2.53865C3.0212 2.75496 3.0212 3.10681 2.80566 3.32312C2.34283 3.78727 2.34298 4.54004 2.80566 5.00419C3.03715 5.23619 3.34044 5.35219 3.64373 5.35219C3.94702 5.35219 4.25047 5.23619 4.48196 5.00404C5.62179 3.86081 5.62179 2.00065 4.48196 0.857423C3.34198 -0.285808 1.48711 -0.285808 0.347126 0.857423C-0.115709 1.32158 -0.115709 2.07435 0.347126 2.53835C0.810115 3.00265 1.56059 3.00265 2.02343 2.53865Z"/>
	<text fill="rgb(0,123,31)" stroke="none" transform="translate(35 11)" font-size="13" font-family="Segoe UI" x="0" y="13.05127">
			ла
	</text>
	<path fill="rgb(206,121,95)" stroke="none" transform="translate(0 18)" d="M75.6457 4.11958L4.39435 4.11958C1.99341 4.11958 0.289757 2.32212 0 0L0 4.11958L0 7.25839L0 38.6459C0 39.946 1.05406 41 2.35416 41L75.6458 41C76.9459 41 78 39.946 78 38.6459L78 6.47353C77.9998 5.17346 76.9458 4.11958 75.6457 4.11958Z"/>
	<path fill="rgb(182,102,82)" stroke="none" transform="translate(0 22)" d="M75.6457 0L73.2915 0L73.2915 32.2765L0 32.2765L0 34.6383C0 35.9425 1.05406 37 2.35416 37L75.6458 37C76.9459 37 78 35.9425 78 34.6383L78 2.36159C77.9998 1.0573 76.9458 0 75.6457 0Z"/>
	<path fill="rgb(160,90,75)" stroke="none" transform="translate(66 37)" d="M1.78717 0.900641L0.520439 2.50064C-0.17348 3.37705 -0.17348 4.62264 0.520439 5.49936L1.78717 7.09936C2.23795 7.66857 2.92019 8 3.64177 8L12 8L12 4L12 5.45341e-08L3.64177 5.45341e-08C2.92019 -0.000155255 2.23779 0.331431 1.78717 0.900641Z"/>

</svg>