<?xml version="1.0" encoding="utf-8" ?>
<svg xmlns="http://www.w3.org/2000/svg" xmlns:xlink="http://www.w3.org/1999/xlink" width="75" height="75">
	<path fill="rgb(247,247,247)" stroke="none" transform="translate(9 1)" d="M65 32.4997C65 50.4492 50.4492 65 32.4997 65C14.5508 65 0 50.4492 0 32.4997C0 14.5508 14.5508 0 32.4997 0C50.4492 0 65 14.5508 65 32.4997Z"/>
	<path fill="rgb(0,189,45)" stroke="none" transform="translate(1 9)" d="M0.0255001 21.4819C-0.509009 38.5976 7.36327 55.5091 23.2769 63.6236C23.4415 63.7121 23.6061 63.8001 23.7792 63.8852C29.1871 66.5559 35.6985 64.2636 38.3252 58.7647C38.6029 58.1827 38.8298 57.5823 39 56.975C39 55.5442 38.0554 53.7033 36.9016 52.885L25.7702 44.9862C24.6497 44.1914 23.1536 44.2075 22.0552 45.0328C21.1666 45.701 20.3697 46.5136 19.7011 47.4527C16.4392 44.0448 14.0019 39.9726 12.5025 35.5698C11.003 31.1669 10.4448 26.4426 10.9357 21.7137C11.4685 21.8701 12.0064 21.9828 12.5455 22.053C14.7785 22.3457 16.8838 20.9143 17.5376 18.7238L21.4653 5.57566C21.8516 4.28344 21.3844 2.88541 20.304 2.09985C19.8086 1.72604 19.2656 1.39709 18.6932 1.11473C13.4578 -1.47085 7.17435 0.594852 4.40452 5.72461C4.31798 5.89196 4.23087 6.05931 4.14716 6.23528C4.06345 6.41068 3.98766 6.58378 3.91186 6.75631C3.29138 8.09856 3.04138 8.85422 2.56739 10.2246C2.56739 10.2252 0.162945 17.0825 0.0255001 21.4819Z"/>
	<path fill="rgb(0,0,0)" stroke="none" d="M68.284 16.1069C68.9884 15.6884 69.8971 15.9221 70.3136 16.6288C73.3795 21.8236 75 27.7785 75 33.8477C75 42.7563 71.5788 51.1665 65.3669 57.5302C59.1642 63.8841 50.8735 67.491 42.0221 67.6874C41.9488 67.6891 41.8321 67.6903 41.6971 67.6914C41.6604 67.7723 41.625 67.8539 41.5861 67.9342C40.1281 70.9464 37.5886 73.2089 34.4358 74.3036C33.0968 74.7692 31.7149 75 30.3388 75C28.4734 75 26.6183 74.5758 24.8902 73.7342C24.6928 73.6377 24.5051 73.539 24.3524 73.458C16.4199 69.4636 9.97856 63.1412 5.72307 55.173C1.71305 47.6658 -0.25648 38.9679 0.026762 30.0203C0.17153 25.4484 2.58109 18.6191 2.68351 18.3309L2.77335 18.0732C3.19735 16.8619 3.47773 16.0604 4.09171 14.7487C4.1764 14.5586 4.25651 14.3795 4.34463 14.1976C4.44018 14.0001 4.5346 13.8198 4.62615 13.6453C4.63016 13.6378 4.63416 13.6298 4.63874 13.6223C7.6102 8.19326 14.0286 5.8292 19.7289 7.85168C20.0168 7.5721 20.3143 7.31032 20.621 7.07208C26.5754 2.44558 33.7131 0 41.2622 0C48.8874 0 56.0823 2.48978 62.0682 7.20125C62.7125 7.70816 62.8246 8.64219 62.3199 9.2886C61.8147 9.93444 60.8831 10.047 60.2394 9.54062C55.1691 5.55077 49.1478 3.30899 42.7442 3.00932L42.7442 5.72874C42.7442 6.55024 42.0804 7.2156 41.2622 7.2156C40.4439 7.2156 39.7802 6.55024 39.7802 5.72874L39.7802 3.00932C33.5088 3.30325 27.5979 5.46351 22.5917 9.3041C22.6941 9.37471 22.7965 9.44475 22.895 9.51766C24.4983 10.675 25.1895 12.7239 24.615 14.6212L22.475 21.6916C22.4744 21.6927 22.4738 21.6939 22.4738 21.695L20.6416 27.7464C19.7598 30.661 16.96 32.4969 13.984 32.1123L13.8913 32.1002C13.6979 35.9948 14.2564 39.9536 15.5301 43.6444C16.8055 47.3409 18.8077 50.802 21.362 53.7441C21.8404 53.2481 22.3588 52.7929 22.9127 52.3819C24.536 51.178 26.7413 51.1499 28.4001 52.3112L39.6612 60.1962C41.0196 61.1475 42.0879 62.9799 42.3528 64.701C50.2767 64.4249 57.6845 61.1503 63.2492 55.4497C68.569 50.0006 71.644 42.9055 72.0011 35.3346L69.0685 35.3346C68.2497 35.3346 67.5865 34.6686 67.5865 33.8477C67.5865 33.0268 68.2497 32.3608 69.0685 32.3608L71.9999 32.3608C71.7602 27.3422 70.3079 22.4557 67.7633 18.1432C67.3467 17.4371 67.5796 16.5249 68.284 16.1069ZM33.4659 71.4941C35.8709 70.6588 37.8084 68.9331 38.9201 66.6357C39.1296 66.2028 39.3058 65.7585 39.4449 65.3113C39.3596 64.3858 38.6804 63.1355 37.9646 62.6343L26.7036 54.7499C26.089 54.3194 25.273 54.3286 24.6745 54.7729C23.8854 55.3579 23.1919 56.0617 22.6123 56.8648C22.3554 57.2202 21.9554 57.4441 21.5194 57.4757C21.0828 57.5072 20.6548 57.3442 20.3498 57.0296C16.9612 53.5363 14.3256 49.2439 12.7292 44.6174C11.1344 39.9961 10.5611 34.9907 11.0709 30.1432C11.1173 29.7057 11.3536 29.3113 11.7175 29.0656C12.0808 28.8199 12.534 28.7487 12.9552 28.8704C13.4152 29.0036 13.889 29.1024 14.3622 29.1632C15.8963 29.3619 17.3457 28.4026 17.8058 26.8824L19.163 22.3988L16.009 21.7559C15.2074 21.5917 14.6895 20.8069 14.8526 20.0026C15.0157 19.1978 15.7973 18.6782 16.6001 18.8419L20.0282 19.5411L21.7792 13.7572C21.9852 13.0769 21.7362 12.3421 21.16 11.9282C21.1532 11.9236 21.1463 11.9185 21.1394 11.9139C20.7229 11.6039 20.2537 11.3208 19.7455 11.0734C15.1759 8.84713 9.68674 10.5906 7.24227 15.042C7.16445 15.1913 7.08606 15.3405 7.01053 15.4967C6.93386 15.654 6.86576 15.8084 6.7971 15.9623C6.79309 15.9709 6.78394 15.9915 6.77993 16.0002C6.22604 17.1828 5.99315 17.8493 5.56972 19.0583L5.47645 19.3235C5.45127 19.3953 3.11839 26.0098 2.9885 30.1145C2.72185 38.5414 4.57065 46.7209 8.33519 53.7688C12.3029 61.1974 18.3053 67.0892 25.6942 70.8064C25.7028 70.8109 25.7119 70.8155 25.7211 70.8201C25.8733 70.9011 26.0249 70.9814 26.1851 71.0589C28.4751 72.175 31.0609 72.3294 33.4659 71.4941Z" fill-rule="evenodd"/>
	<path fill="rgb(0,0,0)" stroke="none" transform="translate(28 20)" d="M12.7165 23.5648C12.9048 23.2911 13 22.9716 13 22.6156C13 22.2374 12.9037 21.9114 12.7127 21.6471C12.5134 21.3716 12.2666 21.2319 11.9798 21.2319L2.8209 21.2319L2.8209 19.7247C2.8209 19.1345 3.06008 18.5213 3.53132 17.9022C4.01516 17.2655 4.62268 16.6735 5.33803 16.1408L7.7676 14.2848C8.63565 13.5905 9.44843 12.8875 10.1824 12.1956C10.9284 11.4925 11.56 10.6244 12.0608 9.61539C12.5638 8.59987 12.8194 7.52562 12.8194 6.42142C12.8194 4.58538 12.2026 3.03891 10.9869 1.82487C9.77408 0.613773 8.24377 0 6.43925 0C4.75678 0 3.31513 0.535657 2.15371 1.5917C0.98518 2.6542 0.392977 4.03504 0.392977 5.69488C0.392977 7.13328 1.0941 7.43576 1.68247 7.43576C2.11814 7.43576 2.4739 7.313 2.74044 7.07102C3.0141 6.82316 3.15312 6.52949 3.15312 6.19823C3.15312 5.08756 3.45853 4.22945 4.06113 3.64916C4.66866 3.06417 5.46884 2.76756 6.43925 2.76756C7.5837 2.76756 8.47145 3.14405 9.07789 3.88703C9.6887 4.6359 9.99848 5.52161 9.99848 6.51892C9.99848 7.45514 9.65641 8.39195 8.98211 9.30351C8.29576 10.2315 7.45344 11.0808 6.47647 11.8291L3.53406 14.1708C2.56585 14.9338 1.72844 15.8025 1.04593 16.7516C0.351928 17.7166 0 18.7151 0 19.72L0 22.8729C0 23.2065 0.14723 23.4837 0.43731 23.6969C0.709877 23.8978 0.995032 24 1.28457 24L11.9869 24C12.2737 23.9994 12.5189 23.8532 12.7165 23.5648L12.7165 23.5648Z"/>
	<path fill="rgb(0,0,0)" stroke="none" transform="translate(42 20)" d="M9.05047 23.7198C9.32723 23.906 9.65668 24 10.0305 24C10.4032 24 10.7332 23.906 11.01 23.7198C11.3084 23.5201 11.4598 23.24 11.4598 22.887L11.4598 18.6186L12.9384 18.6186C13.2318 18.6186 13.4875 18.4571 13.6983 18.1388C13.8991 17.8375 14 17.5009 14 17.1379C14 16.7555 13.9101 16.4143 13.7321 16.1241C13.5408 15.814 13.274 15.6566 12.9384 15.6566L11.4598 15.6566L11.4598 10.418C11.4598 10.0632 11.3073 9.78654 11.0067 9.59742C10.7293 9.42356 10.401 9.33545 10.0305 9.33545C9.65946 9.33545 9.33111 9.42356 9.05435 9.59742C8.75374 9.78654 8.60122 10.0626 8.60122 10.418L8.60122 15.6566L3.6822 15.6566L10.2779 1.75091C10.371 1.57705 10.4187 1.39908 10.4187 1.2217C10.4187 0.868701 10.2596 0.570324 9.94454 0.335381C9.64559 0.112773 9.33444 0 9.01997 0C8.45535 0 8.02108 0.28898 7.72879 0.862828L0.174709 16.6721C0.0587908 16.8689 0 17.1038 0 17.3705C0 17.7405 0.0998336 18.0436 0.297837 18.2709C0.498059 18.5018 0.765391 18.6192 1.09207 18.6192L8.60122 18.6192L8.60122 22.887C8.60122 23.2405 8.75263 23.5207 9.05047 23.7198L9.05047 23.7198Z"/>
	<path fill="rgb(0,0,0)" stroke="none" transform="translate(33 47)" d="M0.92567 0.142389C0.167143 0.544707 -0.198391 1.67599 0.108795 2.66943L0.145406 2.7878C0.378799 3.54224 0.933107 4 1.51888 4C1.70422 4 1.89242 3.9543 2.07433 3.85765C2.83286 3.45533 3.19839 2.32405 2.8912 1.33061L2.85459 1.21224C2.54741 0.219556 1.6842 -0.259929 0.92567 0.142389Z"/>
	<path fill="rgb(0,0,0)" stroke="none" transform="translate(41 47)" d="M0.145413 2.78771C0.378806 3.54221 0.933112 4 1.51888 4C1.70422 4 1.89242 3.9543 2.07433 3.85764C2.83286 3.45529 3.19839 2.32392 2.89121 1.33041L2.85459 1.21202C2.54741 0.219262 1.68363 -0.259512 0.925104 0.142089C0.167151 0.545187 -0.198383 1.67656 0.108803 2.66932L0.145413 2.78771Z"/>
	<path fill="rgb(0,0,0)" stroke="none" transform="translate(48 47)" d="M0.92567 0.142389C0.167143 0.544707 -0.198391 1.67599 0.108795 2.66943L0.145406 2.7878C0.378799 3.54224 0.933107 4 1.51888 4C1.70422 4 1.89242 3.9543 2.07433 3.85765C2.83286 3.45533 3.19839 2.32405 2.8912 1.33061L2.85459 1.21224C2.54741 0.219556 1.6842 -0.259929 0.92567 0.142389Z"/>
	<path fill="rgb(0,0,0)" stroke="none" transform="translate(65 10)" d="M0.13667 2.08382C0.370776 2.65402 0.926779 3 1.51434 3C1.70025 3 1.88903 2.96546 2.07207 2.89241C2.83234 2.58834 3.19899 1.73331 2.89086 0.982468L2.8639 0.916217C2.5552 0.165942 1.68935 -0.196455 0.928501 0.107618C0.167654 0.411692 -0.198998 1.26729 0.109128 2.01756L0.13667 2.08382Z"/>
	<path fill="rgb(0,0,0)" stroke="none" transform="translate(18 61)" d="M2.86333 0.916269C2.5552 0.165446 1.68878 -0.196376 0.928503 0.10769C0.167655 0.411756 -0.198998 1.26677 0.109128 2.01702L0.13667 2.08384C0.370777 2.65403 0.926782 3 1.51434 3C1.69968 3 1.88903 2.96489 2.0715 2.89242C2.83235 2.58778 3.199 1.73277 2.89087 0.982518L2.86333 0.916269Z"/>
	<path fill="rgb(0,0,0)" stroke="none" transform="translate(23 65)" d="M9.27455 2.90319C6.97913 3.40445 4.5415 1.93253 2.24996 0.267648C1.59974 -0.204639 0.70659 -0.035427 0.255586 0.645478C-0.195417 1.32638 -0.0338304 2.26169 0.616389 2.73397C2.14648 3.84544 5.11259 6 8.36922 6C8.86007 6 9.35811 5.95074 9.85836 5.8418C10.6336 5.67317 11.1311 4.8781 10.9695 4.06681C10.8085 3.25552 10.0493 2.73513 9.27455 2.90319L9.27455 2.90319Z"/>

</svg>