<?xml version="1.0" encoding="utf-8" ?>
<svg xmlns="http://www.w3.org/2000/svg" xmlns:xlink="http://www.w3.org/1999/xlink" width="60" height="60">
	<path fill="rgb(0,123,31)" stroke="none" d="M60 30C60 46.5688 46.5688 60 30 60C13.4312 60 0 46.5688 0 30C0 13.4312 13.4312 0 30 0C46.5688 0 60 13.4312 60 30Z"/>
	<path fill="rgb(0,189,45)" stroke="none" d="M3.62183 30C3.62183 14.0396 16.0858 0.992432 31.8109 0.0558471C31.2117 0.0201416 30.6084 0 30 0C13.4312 0 0 13.4312 0 30C0 46.5688 13.4312 60 30 60C30.6084 60 31.2117 59.9799 31.8109 59.9442C16.0858 59.0076 3.62183 45.9604 3.62183 30Z"/>
	<path fill="rgb(228,234,248)" stroke="none" transform="translate(5.11279 5.11276)" d="M49.7745 24.8872C49.7745 38.632 38.632 49.7745 24.8872 49.7745C11.1424 49.7745 0 38.632 0 24.8872C0 11.1424 11.1424 0 24.8872 0C38.632 0 49.7745 11.1424 49.7745 24.8872L49.7745 24.8872Z"/>
	<path fill="rgb(216,220,229)" stroke="none" transform="translate(5.11279 5.11276)" d="M4.53415 24.8872C4.53415 11.9069 14.4722 1.24924 27.1545 0.103455C26.4075 0.0361634 25.6517 0 24.8872 0C11.1424 0 0 11.1424 0 24.8872C0 38.632 11.1424 49.7745 24.8872 49.7745C25.6517 49.7745 26.4075 49.7383 27.1545 49.671C14.4722 48.5252 4.53415 37.8676 4.53415 24.8872Z"/>
	<path fill="rgb(62,75,90)" stroke="none" transform="translate(29.0947 4.20685)" d="M0.905457 0C0.405579 0 0 0.405579 0 0.905914L0 3.2135C0 3.71384 0.405121 4.11896 0.905457 4.11896C1.40533 4.11896 1.81091 3.71384 1.81091 3.2135L1.81091 0.905457C1.81091 0.405579 1.40533 0 0.905457 0Z"/>
	<path fill="rgb(62,75,90)" stroke="none" transform="translate(29.0947 51.6742)" d="M0.905457 6.66134e-15C0.405579 6.66134e-15 0 0.405121 0 0.905457L0 3.21304C0 3.71338 0.405121 4.11896 0.905457 4.11896C1.40533 4.11896 1.81091 3.71338 1.81091 3.21304L1.81091 0.905457C1.81091 0.405121 1.40533 0 0.905457 0L0.905457 6.66134e-15Z"/>
	<path fill="rgb(62,75,90)" stroke="none" transform="translate(16.6504 7.54111)" d="M1.68971 0.452831C1.43977 0.0197867 0.885876 -0.128529 0.452831 0.12141C0.0197867 0.371349 -0.128529 0.925243 0.12141 1.35829L1.27543 3.35734C1.52629 3.79176 2.08064 3.93779 2.51231 3.68876C2.94535 3.43882 3.09367 2.88493 2.84373 2.45189L1.68971 0.452831Z"/>
	<path fill="rgb(62,75,90)" stroke="none" transform="translate(40.3843 48.6489)" d="M1.68971 0.453135C1.43977 0.0196324 0.885876 -0.128683 0.452831 0.121714C0.0197867 0.371653 -0.128529 0.925089 0.12141 1.35859L1.27543 3.35719C1.52629 3.79161 2.08018 3.93809 2.51231 3.68861C2.94535 3.43867 3.09367 2.88478 2.84373 2.45173L1.68971 0.453135Z"/>
	<path fill="rgb(62,75,90)" stroke="none" transform="translate(7.54102 16.6506)" d="M3.35688 1.27543L1.35829 0.12141C0.925243 -0.128529 0.371349 0.0197867 0.12141 0.452831C-0.128529 0.885876 0.0197867 1.43977 0.452831 1.68971L2.45143 2.84373C2.8831 3.09275 3.43745 2.94719 3.68831 2.51231C3.9387 2.07927 3.79039 1.52537 3.35688 1.27543Z"/>
	<path fill="rgb(62,75,90)" stroke="none" transform="translate(48.6489 40.3841)" d="M3.35719 1.27564L1.35859 0.121614C0.925546 -0.128783 0.371652 0.0199901 0.121714 0.453034C-0.128683 0.886079 0.0196324 1.43997 0.453134 1.68991C2.43021 2.78763 2.48652 2.96524 2.90354 2.96524C3.21665 2.96524 3.52061 2.80273 3.68861 2.51251C3.93855 2.07947 3.79023 1.52557 3.35719 1.27564L3.35719 1.27564Z"/>
	<path fill="rgb(62,75,90)" stroke="none" transform="translate(4.20703 29.0945)" d="M4.11896 0.905457C4.11896 0.405579 3.71384 0 3.2135 0L0.905914 0C0.405579 0 0 0.405121 0 0.905457C0 1.40579 0.405579 1.81091 0.905914 1.81091L3.2135 1.81091C3.71384 1.81091 4.11896 1.40533 4.11896 0.905457Z"/>
	<path fill="rgb(62,75,90)" stroke="none" transform="translate(51.6743 29.0945)" d="M3.2135 0L0.905457 0C0.405579 0 0 0.405121 0 0.905457C0 1.40579 0.405121 1.81091 0.905457 1.81091L3.2135 1.81091C3.71338 1.81091 4.11896 1.40579 4.11896 0.905457C4.11896 0.405121 3.71338 0 3.2135 0Z"/>
	<path fill="rgb(62,75,90)" stroke="none" transform="translate(7.54102 40.3843)" d="M2.45189 0.12141L0.452831 1.27543C0.0197867 1.52537 -0.128529 2.07926 0.12141 2.51231C0.372265 2.94673 0.926617 3.09321 1.35829 2.84373L3.35734 1.68971C3.79039 1.43977 3.9387 0.885875 3.68876 0.452831C3.43837 0.0197867 2.88493 -0.128529 2.45189 0.12141Z"/>
	<path fill="rgb(62,75,90)" stroke="none" transform="translate(48.6489 16.6506)" d="M1.35859 2.84373L3.35719 1.68971C3.79023 1.43977 3.93855 0.885876 3.68861 0.452831C3.43821 0.0197867 2.88432 -0.128529 2.45173 0.12141L0.453134 1.27543C0.0196324 1.52537 -0.128683 2.07927 0.121714 2.51231C0.372568 2.94764 0.927377 3.09275 1.35859 2.84373Z"/>
	<path fill="rgb(62,75,90)" stroke="none" transform="translate(16.6504 48.6487)" d="M2.51231 0.12141C2.07927 -0.128529 1.52537 0.0197868 1.27543 0.452831L0.12141 2.45189C-0.128529 2.88493 0.0197867 3.43882 0.452831 3.68876C0.884502 3.93779 1.43885 3.79176 1.68971 3.35734L2.84373 1.35829C3.09367 0.925243 2.94535 0.371807 2.51231 0.12141L2.51231 0.12141Z"/>
	<path fill="rgb(62,75,90)" stroke="none" transform="translate(40.3843 7.54111)" d="M2.51231 0.12141C2.07927 -0.128529 1.52537 0.0197867 1.27543 0.452831L0.12141 2.45143C-0.128529 2.88493 0.0197867 3.43837 0.452831 3.6883C0.884045 3.93779 1.43885 3.79176 1.68971 3.35688L2.84373 1.35829C3.09367 0.925243 2.94535 0.371349 2.51231 0.12141L2.51231 0.12141Z"/>
	<path fill="rgb(251,141,74)" stroke="none" transform="translate(27.7344 13.0943)" d="M2.26547 13.732C3.14346 13.732 3.94043 14.0758 4.53094 14.6356L4.53094 1.08353C4.53094 0.485229 4.04572 0 3.44742 0L1.08353 0C0.485229 0 0 0.485229 0 1.08353L0 14.6356C0.590515 14.0758 1.38748 13.732 2.26547 13.732L2.26547 13.732Z"/>
	<path fill="rgb(251,141,74)" stroke="none" transform="translate(27.7344 13.0943)" d="M3.0835 1.08353C3.0835 0.611572 3.38608 0.211029 3.80722 0.0627137C3.69461 0.0228882 3.57376 0 3.44742 0L1.08353 0C0.485229 0 0 0.485229 0 1.08353L0 14.6356C0.590515 14.0758 1.38748 13.732 2.26547 13.732C2.54791 13.732 2.82211 13.7682 3.0835 13.835L3.0835 1.08353Z"/>
	<path fill="rgb(0,123,31)" stroke="none" transform="translate(30.8179 29.1133)" d="M8.83026 3.79028L2.26547 0C2.32407 0.245819 2.35565 0.502167 2.35565 0.765838C2.35565 2.25906 1.36185 3.51974 0 3.92395L6.57577 7.72018C7.01568 7.97424 7.57873 7.82226 7.8305 7.38098L9.16809 5.03952C9.41849 4.60098 9.26742 4.04297 8.83026 3.79028L8.83026 3.79028Z"/>
	<path fill="rgb(0,123,31)" stroke="none" transform="translate(30.8179 29.1133)" d="M5.43732 5.28259C4.49753 4.74014 4.25079 3.51974 4.86282 2.62436C5.04593 2.35702 5.19012 2.06131 5.28854 1.74545L2.26547 0C2.32407 0.245819 2.35565 0.502167 2.35565 0.765838C2.35565 2.25906 1.36185 3.51974 0 3.92395L6.57578 7.72018C7.01569 7.97424 7.57874 7.82226 7.83051 7.38098L8.13858 6.84219L5.43732 5.28259Z"/>
	<path fill="rgb(62,75,90)" stroke="none" transform="translate(4.20703 4.20685)" d="M0 25.7932C0 40.0154 11.5709 51.5863 25.7932 51.5863C40.0154 51.5863 51.5863 40.0154 51.5863 25.7932C51.5863 11.5709 40.0154 0 25.7932 0C11.5709 0 0 11.5709 0 25.7932ZM1.81091 25.7932C1.81091 12.5693 12.5693 1.81091 25.7932 1.81091C39.017 1.81091 49.7754 12.5693 49.7754 25.7932C49.7754 39.017 39.017 49.7749 25.7932 49.7749C12.5693 49.7749 1.81091 39.017 1.81091 25.7932Z" fill-rule="evenodd"/>
	<path fill="rgb(62,75,90)" stroke="none" transform="translate(26.7056 26.7055)" d="M6.58905 3.29453C6.58905 5.11414 5.11414 6.58905 3.29453 6.58905C1.47491 6.58905 0 5.11414 0 3.29453C0 1.47491 1.47491 0 3.29453 0C5.11414 0 6.58905 1.47491 6.58905 3.29453Z"/>
	<path fill="rgb(62,75,90)" stroke="none" transform="translate(26.7056 26.7055)" d="M3.62183 3.29453C3.62183 2.14417 4.21188 1.13205 5.10544 0.542908C4.58588 0.200043 3.96378 0 3.29453 0C1.47491 0 0 1.47491 0 3.29453C0 5.11414 1.47491 6.58905 3.29453 6.58905C3.96378 6.58905 4.58588 6.38901 5.10544 6.04614C4.21188 5.457 3.62183 4.44489 3.62183 3.29453L3.62183 3.29453Z"/>

</svg>