<svg width="1600" height="896" viewBox="0 0 1600 896" fill="none" xmlns="http://www.w3.org/2000/svg">
<g clip-path="url(#clip0)">
<path d="M1576.9 398.659L1599 438.83L1572.58 402.152L1550 387.743L1521.66 369.84L1508.21 371.587L1500.53 351.938L1482.75 341.021L1470.74 301.287L1435.2 287.314L1396.29 288.187L1336.72 304.343H1306.38L1283.4 322.246L1278.6 331.852L1268.99 341.021V352.374L1252.18 365.474V386.433L1232.97 396.408L1252.18 421.801V445.817L1273.8 473.326V522.667L1254.1 553.232L1266.59 604.756V614.363L1281.48 642.308L1268.51 651.914L1262.27 666.324V676.366L1254.1 683.789L1273.8 700.819L1276.68 714.791L1284.84 719.158L1288.69 730.511L1281.48 750.596L1284.84 734.004L1273.8 720.904L1266.59 714.791L1268.51 704.312L1245.45 683.789L1254.1 673.31L1250.74 664.577L1256.5 651.914L1264.19 637.505L1254.1 614.363L1256.5 595.587L1245.45 549.302L1268.99 526.596L1264.19 475.509L1239.69 445.817V429.224L1220.85 408.841L1209.43 396.476L1222.62 394.876L1223.36 387.306L1227.49 383.638L1243.05 369.84L1244.97 352.374L1261.31 341.021V329.232L1288.33 304.343H1278.6L1265.15 275.961L1228.16 244.086L1252.18 205.661L1230.65 143.441L1208.47 146.277L1187.33 134.051L1146.02 111.782L1143.14 96.0624L1124.4 88.6394L1110.47 68.117H1094.62L1072.52 47.1579L1041.78 53.7076L1065.32 43.2281L1050.91 22.269L1053.79 0L1058.59 22.269L1068.2 37.9883H1075.89L1094.62 58.0741L1114.31 65.4971L1127.77 86.4561L1140.73 88.6394L1153.7 96.0624V105.669L1175.32 120.951L1211.35 139.29L1228.49 137.193L1228.16 136.234L1236.33 126.191L1278.6 115.275L1273.31 91.6959L1289.65 120.951L1245.45 130.994L1261.31 211.337L1236.33 244.086L1278.6 268.975L1289.65 288.187L1320.87 296.92L1380.92 279.891H1436.16L1471.72 295.651L1479.39 292.554L1534.15 243.649L1549.04 247.142L1570.66 217.887L1556.73 240.593L1581.71 246.269L1585.55 254.129L1579.31 247.142L1557.21 243.212L1549.04 253.255L1534.15 247.142L1477.73 302.218L1494.76 330.979L1511.57 342.768L1523.58 356.304L1550 381.193L1576.9 398.659Z" fill="white"/>
</g>
<defs>
<clipPath id="clip0">
<rect width="1600" height="896" fill="white"/>
</clipPath>
</defs>
</svg>
