<svg width="1075" height="896" viewBox="0 0 1075 896" fill="none" xmlns="http://www.w3.org/2000/svg">
<path fill-rule="evenodd" clip-rule="evenodd" d="M-525 227.251L-513.604 206.448L-499.731 197.404L-486.106 184.515L-479.912 177.505L-471.242 171.4L-462.455 156.506L-491.556 127.984L-499.236 131.15L-503.447 125.949L-514.843 127.984L-518.063 131.602L-516.082 127.532L-503.199 124.593L-510.384 112.834L-499.236 127.984L-491.556 126.175L-463.314 151.501L-459.36 153.105L-441.018 144.943H-412.529L-381.562 153.762L-365.459 149.24L-359.761 139.29L-337.961 126.402L-350.843 109.442L-342.668 67.8363L-365.459 62.6355L-357.036 47.4854L-359.761 59.6959L-337.961 65.3489L-333.749 70.5497L-333.92 71.0462L-325.078 72.1326L-306.498 62.6355L-295.35 54.7212V49.7466L-288.662 45.9025L-281.973 44.7719L-275.036 33.9181L-264.879 30.0741L-255.217 19.6725H-251.254L-246.299 11.5322L-243.822 0L-242.335 11.5322L-249.767 22.386L-237.628 27.8129L-253.483 24.4211L-264.879 35.2749H-273.054L-280.239 45.9025L-289.9 49.7466L-291.387 57.8869L-312.692 69.4191L-323.592 75.7505L-335.035 74.2817L-346.136 106.503L-333.749 126.402L-352.825 142.908L-359.761 157.606H-364.778L-350.843 170.495V176.6L-342.42 182.48L-341.429 191.524L-333.405 198.67L-299.314 209.614L-300.305 221.146L-287.175 235.166V243.306L-274.045 248.733L-261.411 245.115L-245.06 243.306L-236.885 248.733L-193.284 246.698L-182.631 251.446H-166.529L-137.544 262.3L-129.369 238.105L-135.81 212.101L-141.012 198.986L-152.656 195.595H-166.529L-183.622 188.811L-164.299 193.786L-143.985 190.846L-125.9 183.158L-131.598 177.957V171.173L-133.58 160.32L-129.369 151.049L-131.598 162.129L-128.378 168.912V177.957L-121.193 184.741L-139.03 198.986L-128.378 220.016L-122.68 238.105L-128.378 280.164L-109.4 296.671H-54.5528L-41.1752 293.279L-33.2477 289.887L-15.1631 293.279L-10.4561 298.027L-0.299072 299.61V264.335L-7.2356 258.456L-9.46521 247.828L-23.5861 244.437L-31.7613 231.096L-23.5861 225.669L-20.861 215.945L-27.3021 212.101L-17.8882 215.945L-20.861 225.669L-24.8247 232.452L-17.8882 242.628L-4.5105 247.828V253.708L6.63751 262.074V298.48L22.7402 303.454L25.9608 317.474L36.1179 321.77L37.6043 325.84L44.5408 336.016H49.2478V330.363L56.9276 329.006H70.8007L83.6829 320.187L90.3716 318.378L83.6829 314.534L87.9578 303.984L86.991 298.924L89.7024 296.861L87.6466 293.279L91.6104 287.852L90.3716 276.772L99.7856 273.38L102.758 267.953V273.38L92.849 278.807L94.0876 286.043L92.849 293.279L93.0119 293.903L95.6511 291.322L98.8154 289.041L100.314 284.327L106.976 279.918L115.469 269.883L121.132 268.515L126.461 267.298L125.795 270.947L137.12 274.901L139.951 277.637L144.281 279.918V283.415L149.777 285.392V295.883L152.608 309.871L148.278 297.556V290.713L144.281 286.152L138.785 282.807L133.123 277.637L124.796 273.532L118.301 277.637L113.971 284.327L104.977 287.216L98.8154 292.386L93.3971 295.38L94.0876 298.027L92.849 311.142H90.3716V314.534L97.3082 320.187L107.465 330.363L131 336.016L107.465 332.624L97.3082 323.579H85.6647L77.7372 332.624L59.9004 334.207L50.9819 339.407L44.5408 350.261L58.1662 366.542L62.3777 373.099L56.9276 375.813L66.5892 383.049L58.1662 385.084L55.4412 394.129L54.4502 387.571L50.9819 383.049L55.4412 371.29L38.5952 352.522L42.3112 347.322L41.3203 340.312L36.1179 338.051L33.3928 332.624L25.9608 325.84L20.5106 311.142H4.4079L-3.27185 304.246H-10.4561L-17.8882 298.48L-31.7613 294.635L-43.157 298.48L-47.864 304.246H-107.32V310.012L-91.7129 325.84L-84.2809 339.634L-83.0422 348.904L-69.6646 358.854L-60.003 374.682H-43.157L-58.0211 379.205L-66.444 392.546L-68.6736 373.552L-94.6857 348.904L-98.4017 329.684L-112.027 321.544L-120.946 308.429L-146.462 290.339L-172.474 294.409L-175.695 315.665L-181.393 324.031L-175.695 329.684L-183.87 324.031L-177.677 315.665L-176.686 293.279L-147.453 285.365L-139.03 272.928L-143.242 265.014L-175.695 259.134L-195.018 260.039L-203.193 255.517L-241.344 260.039L-248.529 255.517L-277.018 260.039L-289.405 257.326L-292.625 246.246L-304.517 230.869L-301.296 224.312L-306.746 217.754L-329.981 211.721L-339.695 222.277V230.869L-352.329 246.246L-354.807 272.702L-342.668 284.46L-348.366 308.429L-347.127 318.152L-352.329 330.136L-348.366 337.598L-345.393 344.156L-347.127 348.678L-342.668 354.105L-354.559 364.733L-353.568 370.16L-357.284 373.326L-362.982 380.109L-361.248 388.702L-364.964 378.3L-362.982 372.421L-358.77 370.16L-357.284 362.924L-347.127 354.105L-351.338 350.261V345.06L-354.559 337.598L-361.248 332.624L-353.568 318.152V313.177L-347.127 286.495L-357.284 270.667V245.115L-346.136 230.869V218.433L-336.231 205.283L-346.136 200.117V189.263L-354.807 182.48V176.6L-359.761 171.852L-362.239 166.877L-374.089 157.606H-389.737L-420.456 149.24L-440.523 148.788L-458.855 156.023L-465.048 176.6L-474.214 182.253L-478.178 192.429L-485.115 191.524L-499.731 200.795L-511.375 208.257L-525 227.251ZM89.0344 301.327L88.8229 301.661L88.8334 301.823L89.0344 301.327ZM-270.825 310.012L-269.338 347.322L-262.402 350.261L-259.429 361.341L-247.042 373.326L-245.308 380.109L-235.399 398.425V415.158L-232.921 394.807L-241.344 376.943L-245.308 370.16L-255.217 361.341L-259.429 348.904L-265.622 345.06L-270.825 310.012ZM55.4412 402.947L54.4502 397.52L62.3777 399.329L70.8007 401.365L83.4351 416.288L93.3445 422.846L95.5741 429.856L95.6656 429.922L91.6979 416.998L109.952 409.575L97.4623 416.998L102.701 435.615L103.111 436.015L118.598 446.253L110.244 459.831L109.447 464L109.654 460.789L102.746 472.016L75.3656 478.565L71.0424 499.088L57.5922 510.441V578.557L77.287 575.501L86.4139 566.331L121.48 559.782L136.852 566.331L162.792 572.881H269.141L305.94 541.006L294.891 459.789L305.94 424.858L326.595 384.25L292.009 356.741L305.94 343.641V326.175L312.184 313.076L307.861 291.68L316.027 309.583L312.184 330.542V343.641L301.136 353.684L336.202 368.53L375.592 374.207L413.06 364.6L379.915 377.7H353.015L330.438 384.25L320.35 409.575L307.861 459.789L323.713 506.511L379.915 485.552H411.139L431.795 476.382L516.338 480.312L532.19 469.832L563.894 473.326L588.393 480.312L613.852 469.832V454.113L639.311 427.041L637.39 404.772L703.493 383.638L719.051 369.84L720.973 352.374L737.305 341.021V329.232L764.325 304.343H754.598L741.148 275.961L704.16 244.086L728.178 205.661L706.653 143.441L684.465 146.277L663.329 134.051L622.018 111.782L619.136 96.0624L600.402 88.6394L586.471 68.117H570.619L548.523 47.1579L517.779 53.7076L541.317 43.2281L526.906 22.269L529.789 0L534.592 22.269L544.199 37.9883H551.885L570.619 58.0741L590.314 65.4971L603.764 86.4561L616.734 88.6394L629.704 96.0624V105.669L651.32 120.951L687.347 139.29L704.492 137.193L704.16 136.234L712.326 126.191L754.598 115.275L749.314 91.6959L765.646 120.951L721.453 130.994L737.305 211.337L712.326 244.086L754.598 268.975L765.646 288.187L796.87 296.92L856.915 279.891H912.157L947.722 295.651L955.39 292.554L1010.15 243.649L1025.04 247.142L1046.66 217.887L1032.73 240.593L1057.71 246.269L1061.55 254.129L1055.3 247.142L1033.21 243.212L1025.04 253.255L1010.15 247.142L953.724 302.218L970.761 330.979L987.574 342.768L999.583 356.304L1026 381.193L1052.9 398.659L1075 438.83L1048.58 402.152L1026 387.743L997.662 369.84L984.211 371.587L976.526 351.938L958.752 341.021L946.743 301.287L911.196 287.314L872.287 288.187L812.722 304.343H782.379L759.402 322.246L754.598 331.852L744.991 341.021V352.374L728.178 365.474V386.433L708.973 396.408L728.178 421.801V445.817L749.795 473.326V522.667L730.1 553.232L742.589 604.756V614.363L757.48 642.308L744.51 651.914L743.656 653.885L752.31 654.289L761.495 648.195L779.864 650.226L794.059 654.289L808.81 648.195V639.055L823.561 623.313L822.448 610.364L860.748 598.075L869.762 590.052L870.876 579.896L880.339 573.295V566.44L895.995 551.967H890.358L882.565 535.464L861.135 516.929L875.051 494.586L862.579 458.407L849.723 460.056L837.477 452.947L813.541 439.998L811.871 430.858L801.017 426.541L792.945 414.608H783.761L770.958 402.421L753.145 406.23L766.783 400.136L758.433 387.949L760.103 375L762.886 387.949L768.453 397.089H772.906L783.761 408.769L795.172 413.085L802.965 425.272L810.48 426.541L817.994 430.858V436.443L830.519 445.33L851.393 455.994L861.327 454.774L861.135 454.216L865.866 448.377L890.358 442.029L887.297 428.319L896.76 445.33L871.154 451.17L880.339 497.887L865.866 516.929L890.358 531.402L896.76 542.573L914.851 547.651L949.641 537.749H981.648L1002.26 546.913L1006.7 545.112L1038.43 516.675L1047.05 518.707L1059.58 501.695L1051.51 514.898L1065.98 518.199L1068.21 522.769L1064.59 518.707L1051.79 516.422L1047.05 522.261L1038.43 518.707L1005.73 550.732L1015.6 567.455L1025.35 574.31L1032.3 582.181L1047.61 596.654L1063.2 606.809L1076 630.168L1060.69 608.841L1047.61 600.462L1031.19 590.052L1023.4 591.068L1018.94 579.642L1008.65 573.295L1001.69 550.19L981.092 542.065L958.548 542.573L924.036 551.967H906.455L893.142 562.377L890.358 567.963L884.792 573.295V579.896L875.051 587.513V599.7L863.923 605.501L875.051 620.266V634.231L887.575 650.226V678.917L876.164 696.69L883.4 726.65V732.235L892.028 748.485L884.514 754.071L880.896 762.449V768.289L876.164 772.605L887.575 782.507L889.245 790.632L893.977 793.171L896.203 799.772L892.028 811.452L893.977 801.804L887.575 794.187L883.4 790.632L884.514 784.539L871.154 772.605L876.164 766.512L874.216 761.434L877.556 754.071L882.009 745.692L876.164 732.235L877.556 721.318L871.154 694.404L884.792 681.202L882.009 651.496L867.814 634.231V624.582L856.901 612.73L830.797 619.504L824.674 626.867L828.292 634.231L814.933 651.496L811.315 663.937L797.398 666.983L765.391 661.905L757.32 666.983L738.924 664.804L738.266 666.324V676.366L730.1 683.789L749.795 700.819L752.677 714.791L760.843 719.158L764.686 730.511L757.48 750.596L760.843 734.004L749.795 720.904L742.589 714.791L744.51 704.312L721.453 683.789L730.1 673.31L726.737 664.577L727.263 663.422L714.458 661.905L705.273 666.983L683.564 665.968L647.104 672.569L642.372 681.456L651.835 695.42L684.678 704.307L685.791 729.443L692.749 738.837L683.564 745.184L689.966 738.837L683.564 729.443L679.946 705.576L650.722 701.006L622.055 721.318L612.035 736.044L596.727 745.184L592.552 766.766L563.329 794.441L560.824 815.768L551.361 800.788L534.661 795.71H553.587L564.442 777.937L579.471 766.766L580.863 756.356L589.213 740.868L606.747 723.095V716.621H539.949L534.661 710.146L521.858 705.83L506.272 710.146L497.923 716.621H489.851L481.223 724.365H463.132L457.009 740.868L448.659 748.485L445.598 754.578L439.753 757.117L438.64 764.988L442.815 770.828L423.889 791.902L428.898 805.104L425.002 810.182L423.889 817.545L420.827 807.389L411.364 805.104L422.219 796.979L416.096 793.933L420.827 786.57L436.135 768.289L428.898 756.102L418.879 750.262L398.84 748.485L389.933 738.329H376.852L365.441 748.485L339 752.293L365.441 745.946L376.852 734.521L384.645 728.173V724.365H381.862L380.47 709.638L381.862 704.307L380.47 696.182L381.862 688.057L370.729 681.964V675.87L374.069 681.964L384.645 685.772L383.253 698.213L387.707 704.307L384.645 709.638L392.16 728.173L384.645 732.489L392.16 734.521L406.633 744.423H422.219L430.847 745.946V752.293H436.135L443.928 740.868L445.598 736.298L457.009 731.474L460.627 715.732L478.718 710.146V669.269L491.243 659.874V653.273L506.272 647.433L514.065 636.008L509.612 628.391L506.272 617.473L516.849 613.157L509.612 617.473L512.674 628.391L521.858 634.484L512.674 649.464L496.809 653.273L494.304 665.206L486.511 671.807V711.416L497.923 709.638L503.211 704.307L523.528 700.498L532.435 704.307L547.464 708.115H609.084L630.405 689.58L624.003 642.355L630.405 622.043L642.372 598.431L622.333 582.435L630.405 574.818V564.662L634.023 557.045L631.518 544.604L636.249 555.014L634.023 567.201V574.818L627.621 580.658L647.939 589.29L670.761 592.591L692.471 587.005L673.266 594.622H657.68L644.599 598.431L638.754 613.157L631.518 642.355L640.703 669.522L673.266 657.335H691.357L703.325 652.003L731.855 653.334L732.501 651.914L740.187 637.505L730.1 614.363L732.501 595.587L721.453 549.302L744.991 526.596L740.187 475.509L715.689 445.817V429.224L696.853 408.841L651.801 420.491L641.233 433.154L647.477 445.817L624.42 475.509L618.175 496.905L594.157 502.144L538.915 493.411L524.985 502.144L451.009 493.411L435.157 502.144L397.689 500.398L334.761 511.75L326.595 527.033L342.927 551.049L399.61 566.331L401.532 609.559L413.541 625.715L397.689 636.632L408.737 625.715L397.689 609.559L391.444 568.515L341.006 560.655L291.529 595.587L274.236 620.912L247.816 636.632L240.61 673.747L190.172 721.341L185.849 758.02L169.517 732.257L140.695 723.524H173.359L192.094 692.959L218.033 673.747L220.435 655.844L234.846 629.209L265.109 598.643V587.509H149.822L140.695 576.374L118.598 568.951L91.6979 576.374L77.287 587.509H63.3566L48.4653 600.826H17.2417L6.67377 629.209L-7.73712 642.308L-13.0211 652.788L-23.1087 657.154L-25.0302 670.69L-17.8247 680.733L-50.4894 716.975L-41.8428 739.68L-48.5679 748.413L-50.4894 761.076L-55.7734 743.61L-72.1057 739.68L-53.3716 725.708L-63.9395 720.468L-55.7734 707.805L-29.3534 676.366L-41.8428 655.407L-59.1359 645.365L-93.722 642.308L-109.094 624.842H-131.671L-151.366 642.308L-197 648.858L-151.366 637.942L-131.671 618.292L-118.22 607.376V600.826H-123.024L-125.426 575.501L-123.024 566.331L-125.426 552.359L-123.024 538.386L-142.239 527.906V517.427L-136.474 527.906L-118.22 534.456L-120.622 555.852L-112.936 566.331L-118.22 575.501L-105.251 607.376L-118.22 614.799L-105.251 618.292L-80.2719 635.322H-53.3716L-38.4803 637.942V648.858H-29.3534L-15.9033 629.209L-13.0211 621.349L6.67377 613.053L12.9185 585.981L44.142 576.374V506.074L65.7583 489.918V478.565L91.6979 468.522L105.148 448.873L97.5488 435.921L95.5741 434.83L86.4079 427.142L73.0303 422.846L66.5892 412.897L56.9276 406.791L44.5408 412.897L36.1179 420.585L27.9426 425.559L21.997 432.343V442.518L15.556 460.834L19.7675 440.031V424.429L27.9426 421.489V416.288L34.3837 412.897L38.5952 408.827L55.4412 402.947ZM-50.4894 778.105L-48.5679 767.626L-63.9395 771.119L-80.2719 775.049L-104.77 803.867L-123.985 816.53L-128.308 830.066L-137.435 836.616L-150.885 849.715L-162.414 858.448L-155.208 896L-157.13 866.308L-146.562 849.715L-128.308 839.672L-110.535 824.827L-84.5951 816.53L-72.1057 797.318L-53.3716 785.528L-29.3534 797.318L-13.0211 812.164L2.83087 821.77L14.3596 834.869V854.518L26.849 889.887L18.6828 849.715V819.587L2.83087 813.91V803.867L-9.65857 797.318L-17.8247 789.458L-50.4894 778.105ZM508.339 138.819L516 152.807L506.84 140.035L499.013 135.018L489.187 128.784L484.524 129.392L481.859 122.55L475.697 118.749L471.534 104.912L459.21 100.047L445.72 100.351L425.069 105.977H414.549L406.583 112.211L404.917 115.556L401.587 118.749V122.702L395.758 127.263V134.561L389.099 138.035L395.758 146.877V155.24L403.252 164.819V182L396.424 192.643L400.754 210.585V213.93L405.917 223.661L401.42 227.006L399.255 232.023V235.52L396.424 238.105L403.252 244.035L404.251 248.901L407.082 250.421L408.415 254.374L405.917 261.368L407.082 255.591L403.252 251.029L400.754 248.901L401.42 245.251L393.426 238.105L396.424 234.456L395.258 231.415L397.256 227.006L399.921 221.988L396.424 213.93L397.256 207.392L393.426 191.275L401.587 183.368L399.921 165.579L391.427 155.24V149.462L384.897 142.364L369.278 146.421L365.614 150.83L367.779 155.24L359.785 165.579L357.62 173.029L349.293 174.854L330.141 171.813L325.311 174.854L299.664 171.813L294.168 174.854L281.178 174.246L259.361 178.199L256.53 183.52L262.192 191.883L281.844 197.205L282.51 212.257L286.673 217.883L281.178 221.684L285.008 217.883L281.178 212.257L279.013 197.965L261.526 195.228L244.372 207.392L238.377 216.211L229.217 221.684L226.719 234.608L209.232 251.181L207.733 263.953L202.071 254.982L192.078 251.942H203.403L209.898 241.298L218.891 234.608L219.724 228.374L224.72 219.099L235.212 208.456V204.579H195.242L192.078 200.702L184.417 198.117L175.091 200.702L170.095 204.579H165.265L160.102 209.216H149.277L145.613 219.099L140.617 223.661L138.785 227.31L135.288 228.83L134.622 233.544L137.12 237.041L125.795 249.661L128.793 257.567L126.461 260.608L125.795 265.018L123.963 258.936L118.301 257.567L124.796 252.702L121.132 250.877L123.963 246.468L133.123 235.52L128.793 228.222L122.797 224.725L110.806 223.661L105.477 217.579H97.6496L90.8214 223.661L75.0001 225.942L90.8214 222.14L97.6496 215.298L102.313 211.497V209.216H100.647L99.8146 200.398L100.647 197.205L99.8146 192.339L100.647 187.474L93.9857 183.825V180.175L95.9842 183.825L102.313 186.105L101.48 193.556L104.145 197.205L102.313 200.398L106.809 211.497L102.313 214.082L106.809 215.298L115.469 221.228H124.796L129.958 222.14V225.942H133.123L137.786 219.099L138.785 216.363L145.613 213.474L147.778 204.047L158.604 200.702V176.222L166.098 170.596V166.643L175.091 163.146L179.754 156.304L177.09 151.743L175.091 145.205L181.42 142.62L177.09 145.205L178.922 151.743L184.417 155.392L178.922 164.363L169.429 166.643L167.93 173.789L163.267 177.743V201.462L170.095 200.398L173.259 197.205L185.417 194.924L190.746 197.205L199.739 199.485H236.61L249.368 188.386L245.538 160.105L249.368 147.942L256.53 133.801L244.539 124.222L249.368 119.661V113.579L251.533 109.018L250.034 101.567L252.866 107.801L251.533 115.099V119.661L247.703 123.158L259.86 128.327L273.517 130.304L286.507 126.959L275.016 131.52H265.689L257.862 133.801L254.365 142.62L250.034 160.105L255.53 176.374L275.016 169.076H285.841L293.002 165.883L322.313 167.251L327.809 163.602L338.801 164.819L347.294 167.251L356.121 163.602V158.129L364.948 148.702L364.281 140.947L387.199 133.588L392.593 128.784L393.26 122.702L398.922 118.749V114.643L408.29 105.977H404.917L400.254 96.0936L387.431 84.9942L395.758 71.614L388.295 49.9481L380.602 50.9357L373.275 46.6784L358.952 38.924L357.953 33.4503L351.458 30.8655L346.628 23.7193H341.132L333.471 16.4211L322.813 18.7018L330.973 15.0526L325.977 7.75439L326.976 0L328.642 7.75439L331.972 13.2281H334.637L341.132 20.2222L347.96 22.807L352.624 30.1053L357.12 30.8655L361.617 33.4503V36.7953L369.111 42.117L381.602 48.5029L387.546 47.7724L387.431 47.4386L390.262 43.9415L404.917 40.1404L403.085 31.9298L408.748 42.117L393.426 45.614L398.922 73.5906L390.262 84.9942L404.917 93.6608L408.748 100.351L419.573 103.392L440.391 97.462H459.543L471.873 102.95L474.531 101.871L493.517 84.8421L498.68 86.0585L506.174 75.8714L501.344 83.7778L510.005 85.7544L511.337 88.4912L509.172 86.0585L501.511 84.6901L498.68 88.1871L493.517 86.0585L473.954 105.237L479.861 115.251L485.69 119.357L489.853 124.07L499.013 132.737L508.339 138.819ZM344.13 233.544L345.129 208.456L341.632 232.023L337.468 234.608L334.637 242.971L327.975 248.901L325.311 253.462L319.648 265.474L321.314 279.158V267.906L327.975 255.591L329.141 251.029L337.468 242.971L339.467 235.52L344.13 233.544ZM-83.9999 736.807L-91.6608 722.819L-100.987 716.737L-110.147 708.07L-114.31 703.357L-120.139 699.251L-126.046 689.237L-106.483 670.058L-101.32 672.187L-98.489 668.69L-90.8282 670.058L-88.6631 672.491L-89.9954 669.754L-98.6555 667.778L-93.8259 659.871L-101.32 670.058L-106.483 668.842L-125.469 685.871L-128.127 686.95L-140.457 681.462H-159.609L-180.427 687.392L-191.252 684.351L-195.083 677.661L-209.738 668.994L-201.078 657.591L-206.574 629.614L-191.252 626.117L-196.915 615.93L-195.083 624.14L-209.738 627.942L-212.569 631.439L-212.454 631.772L-218.398 632.503L-230.889 626.117L-238.383 620.795V617.45L-242.88 614.865L-247.376 614.105L-252.04 606.807L-258.868 604.222L-265.363 597.228H-268.028L-271.358 591.754L-273.024 584L-274.023 591.754L-269.027 599.053L-277.187 602.702L-266.529 600.421L-258.868 607.719H-253.372L-248.542 614.865L-242.047 617.45L-241.048 622.924L-226.725 630.678L-219.398 634.936L-211.705 633.948L-204.242 655.614L-212.569 668.994L-199.746 680.094L-195.083 689.977H-191.71L-201.078 698.643V702.749L-206.741 706.702L-207.407 712.784L-212.801 717.588L-235.719 724.947L-235.052 732.702L-243.879 742.129V747.602L-252.706 751.251L-261.199 748.819L-272.191 747.602L-277.687 751.251L-306.998 749.883L-314.159 753.076H-324.984L-344.47 760.374L-349.966 744.105L-345.636 726.62L-342.138 717.801L-334.311 715.521H-324.984L-313.493 710.959L-326.483 714.304L-340.14 712.328L-352.297 707.158L-348.467 703.661V699.099L-347.134 691.801L-349.966 685.567L-348.467 693.018L-350.632 697.579V703.661L-355.461 708.222L-343.47 717.801L-350.632 731.942L-354.462 744.105L-350.632 772.386L-363.39 783.485H-400.261L-409.254 781.205L-414.583 778.924L-426.741 781.205L-429.905 784.398L-436.733 785.462V761.743L-432.07 757.789L-430.571 750.643L-421.078 748.363L-415.583 739.392L-421.078 735.743L-422.91 729.205L-418.58 726.62L-424.909 729.205L-422.91 735.743L-420.246 740.304L-424.909 747.146L-433.902 750.643V754.596L-441.396 760.222V784.702L-452.222 788.047L-454.387 797.474L-461.215 800.363L-462.214 803.099L-466.877 809.942H-470.041V806.14L-475.204 805.228H-484.531L-493.191 799.298L-497.687 798.082L-493.191 795.497L-497.687 784.398L-495.855 781.205L-498.52 777.556L-497.687 770.105L-504.016 767.825L-506.014 764.175V767.825L-499.353 771.474L-500.185 776.339L-499.353 781.205L-500.185 784.398L-499.353 793.216H-497.687V795.497L-502.35 799.298L-509.179 806.14L-525 809.942L-509.179 807.661L-502.35 801.579H-494.523L-489.194 807.661L-477.203 808.725L-471.207 812.222L-466.877 819.521L-476.037 830.468L-478.868 834.877L-475.204 836.702L-481.699 841.567L-476.037 842.936L-474.205 849.018L-473.539 844.608L-471.207 841.567L-474.205 833.661L-462.88 821.041L-465.378 817.544L-464.712 812.83L-461.215 811.31L-459.383 807.661L-454.387 803.099L-450.723 793.216H-439.898L-434.735 788.579H-429.905L-424.909 784.702L-415.583 782.117L-407.922 784.702L-404.757 788.579H-364.788V792.456L-375.28 803.099L-380.276 812.374L-381.109 818.608L-390.102 825.298L-396.597 835.942H-407.922L-397.929 838.982L-392.267 847.953L-390.768 835.181L-373.281 818.608L-370.783 805.684L-361.623 800.211L-355.628 791.392L-338.474 779.228L-320.988 781.965L-318.822 796.257L-314.992 801.883L-318.822 805.684L-313.327 801.883L-317.49 796.257L-318.156 781.205L-337.808 775.883L-343.47 767.521L-340.639 762.199L-318.822 758.246L-305.832 758.854L-300.336 755.813L-274.689 758.854L-269.859 755.813L-250.707 758.854L-242.38 757.029L-240.215 749.579L-232.221 739.24L-234.386 734.83L-230.722 730.421L-215.103 726.364L-208.572 733.462V739.24L-200.079 749.579L-198.413 767.368L-206.574 775.275L-202.744 791.392L-203.576 797.93L-200.079 805.988L-202.744 811.006L-204.742 815.415L-203.576 818.456L-206.574 822.105L-198.58 829.251L-199.246 832.901L-196.748 835.029L-192.918 839.591L-194.083 845.368L-191.585 838.374L-192.918 834.421L-195.749 832.901L-196.748 828.035L-203.576 822.105L-200.745 819.521V816.023L-198.58 811.006L-194.083 807.661L-199.246 797.93V794.585L-203.576 776.643L-196.748 766V748.819L-204.242 739.24V730.877L-210.901 722.035L-204.242 718.561V711.263L-198.413 706.702V702.749L-195.083 699.556L-193.417 696.211L-185.451 689.977H-174.931L-154.28 684.351L-140.79 684.047L-128.466 688.912L-124.303 702.749L-118.141 706.55L-115.476 713.392L-110.813 712.784L-100.987 719.018L-93.1597 724.035L-83.9999 736.807ZM-254.871 792.456L-255.87 817.544L-260.533 819.521L-262.532 826.971L-270.859 835.029L-272.025 839.591L-278.686 851.906V863.158L-280.352 849.474L-274.689 837.462L-272.025 832.901L-265.363 826.971L-262.532 818.608L-258.368 816.023L-254.871 792.456ZM-474.205 854.947L-473.539 851.298L-478.868 852.515L-484.531 853.883L-493.024 863.918L-499.686 868.328L-501.185 873.041L-504.349 875.322L-509.012 879.883L-513.009 882.924L-510.511 896L-511.177 885.661L-507.513 879.883L-501.185 876.386L-495.023 871.216L-486.029 868.328L-481.699 861.637L-475.204 857.532L-466.877 861.637L-461.215 866.807L-455.719 870.152L-451.722 874.714V881.556L-447.392 893.871L-450.223 879.883V869.392L-455.719 867.415V863.918L-460.049 861.637L-462.88 858.901L-474.205 854.947ZM788.771 764.988L790.44 723.095L784.596 762.449L777.637 766.766L772.906 780.73L761.773 790.632L757.32 798.249L747.857 818.307L750.64 841.158V822.369L761.773 801.804L763.721 794.187L777.637 780.73L780.977 768.289L788.771 764.988ZM425.002 821.354L423.889 827.447L442.815 834.049L447.546 838.619L454.783 842.427V848.267L463.967 851.568V869.087L468.699 892.445L461.462 871.88V860.454L454.783 852.837L445.598 847.251L436.135 838.619L422.219 831.764L411.364 838.619L404.128 849.79L389.098 854.615L378.8 863.247L368.224 869.087L362.101 878.735L363.214 896L359.039 874.165L365.719 869.087L373.512 861.47L378.8 857.661L381.305 849.79L392.438 842.427L406.633 825.67L416.096 823.385L425.002 821.354Z" fill="white"/>
</svg>
