<svg width="447" height="896" viewBox="0 0 447 896" fill="none" xmlns="http://www.w3.org/2000/svg">
<path fill-rule="evenodd" clip-rule="evenodd" d="M-1153 227.251L-1141.6 206.448L-1127.73 197.404L-1114.11 184.515L-1107.91 177.505L-1099.24 171.4L-1090.46 156.506L-1119.56 127.984L-1127.24 131.15L-1131.45 125.949L-1142.84 127.984L-1146.06 131.602L-1144.08 127.532L-1131.2 124.593L-1138.38 112.834L-1127.24 127.984L-1119.56 126.175L-1091.31 151.501L-1087.36 153.105L-1069.02 144.943H-1040.53L-1009.56 153.762L-993.459 149.24L-987.761 139.29L-965.961 126.402L-978.843 109.442L-970.668 67.8363L-993.459 62.6355L-985.036 47.4854L-987.761 59.6959L-965.961 65.3489L-961.749 70.5497L-961.92 71.0462L-953.078 72.1326L-934.498 62.6355L-923.35 54.7212V49.7466L-916.662 45.9025L-909.973 44.7719L-903.036 33.9181L-892.879 30.0741L-883.217 19.6725H-879.254L-874.299 11.5322L-871.822 0L-870.335 11.5322L-877.767 22.386L-865.628 27.8129L-881.483 24.4211L-892.879 35.2749H-901.054L-908.239 45.9025L-917.9 49.7466L-919.387 57.8869L-940.692 69.4191L-951.592 75.7505L-963.035 74.2817L-974.136 106.503L-961.749 126.402L-980.825 142.908L-987.761 157.606H-992.778L-978.843 170.495V176.6L-970.42 182.48L-969.429 191.524L-961.405 198.67L-927.314 209.614L-928.305 221.146L-915.175 235.166V243.306L-902.045 248.733L-889.411 245.115L-873.06 243.306L-864.885 248.733L-821.284 246.698L-810.631 251.446H-794.529L-765.544 262.3L-757.369 238.105L-763.81 212.101L-769.012 198.986L-780.656 195.595H-794.529L-811.622 188.811L-792.299 193.786L-771.985 190.846L-753.9 183.158L-759.598 177.957V171.173L-761.58 160.32L-757.369 151.049L-759.598 162.129L-756.378 168.912V177.957L-749.193 184.741L-767.03 198.986L-756.378 220.016L-750.68 238.105L-756.378 280.164L-737.4 296.671H-682.553L-669.175 293.279L-661.248 289.887L-643.163 293.279L-638.456 298.027L-628.299 299.61V264.335L-635.236 258.456L-637.465 247.828L-651.586 244.437L-659.761 231.096L-651.586 225.669L-648.861 215.945L-655.302 212.101L-645.888 215.945L-648.861 225.669L-652.825 232.452L-645.888 242.628L-632.51 247.828V253.708L-621.362 262.074V298.48L-605.26 303.454L-602.039 317.474L-591.882 321.77L-590.396 325.84L-583.459 336.016H-578.752V330.363L-571.072 329.006H-557.199L-544.317 320.187L-537.628 318.378L-544.317 314.534L-540.042 303.984L-541.009 298.924L-538.298 296.861L-540.353 293.279L-536.39 287.852L-537.628 276.772L-528.214 273.38L-525.242 267.953V273.38L-535.151 278.807L-533.912 286.043L-535.151 293.279L-534.988 293.903L-532.349 291.322L-529.185 289.041L-527.686 284.327L-521.024 279.918L-512.531 269.883L-506.868 268.515L-501.539 267.298L-502.205 270.947L-490.88 274.901L-488.049 277.637L-483.719 279.918V283.415L-478.223 285.392V295.883L-475.392 309.871L-479.722 297.556V290.713L-483.719 286.152L-489.215 282.807L-494.877 277.637L-503.204 273.532L-509.699 277.637L-514.029 284.327L-523.023 287.216L-529.185 292.386L-534.603 295.38L-533.912 298.027L-535.151 311.142H-537.628V314.534L-530.692 320.187L-520.535 330.363L-497 336.016L-520.535 332.624L-530.692 323.579H-542.335L-550.263 332.624L-568.1 334.207L-577.018 339.407L-583.459 350.261L-569.834 366.542L-565.622 373.099L-571.072 375.813L-561.411 383.049L-569.834 385.084L-572.559 394.129L-573.55 387.571L-577.018 383.049L-572.559 371.29L-589.405 352.522L-585.689 347.322L-586.68 340.312L-591.882 338.051L-594.607 332.624L-602.039 325.84L-607.489 311.142H-623.592L-631.272 304.246H-638.456L-645.888 298.48L-659.761 294.635L-671.157 298.48L-675.864 304.246H-735.32V310.012L-719.713 325.84L-712.281 339.634L-711.042 348.904L-697.665 358.854L-688.003 374.682H-671.157L-686.021 379.205L-694.444 392.546L-696.674 373.552L-722.686 348.904L-726.402 329.684L-740.027 321.544L-748.946 308.429L-774.462 290.339L-800.474 294.409L-803.695 315.665L-809.393 324.031L-803.695 329.684L-811.87 324.031L-805.677 315.665L-804.686 293.279L-775.453 285.365L-767.03 272.928L-771.242 265.014L-803.695 259.134L-823.018 260.039L-831.193 255.517L-869.344 260.039L-876.529 255.517L-905.018 260.039L-917.405 257.326L-920.625 246.246L-932.517 230.869L-929.296 224.312L-934.746 217.754L-957.981 211.721L-967.695 222.277V230.869L-980.329 246.246L-982.807 272.702L-970.668 284.46L-976.366 308.429L-975.127 318.152L-980.329 330.136L-976.366 337.598L-973.393 344.156L-975.127 348.678L-970.668 354.105L-982.559 364.733L-981.568 370.16L-985.284 373.326L-990.982 380.109L-989.248 388.702L-992.964 378.3L-990.982 372.421L-986.77 370.16L-985.284 362.924L-975.127 354.105L-979.338 350.261V345.06L-982.559 337.598L-989.248 332.624L-981.568 318.152V313.177L-975.127 286.495L-985.284 270.667V245.115L-974.136 230.869V218.433L-964.231 205.283L-974.136 200.117V189.263L-982.807 182.48V176.6L-987.761 171.852L-990.239 166.877L-1002.09 157.606H-1017.74L-1048.46 149.24L-1068.52 148.788L-1086.85 156.023L-1093.05 176.6L-1102.21 182.253L-1106.18 192.429L-1113.11 191.524L-1127.73 200.795L-1139.37 208.257L-1153 227.251ZM-538.966 301.327L-539.177 301.661L-539.167 301.823L-538.966 301.327ZM-898.825 310.012L-897.338 347.322L-890.402 350.261L-887.429 361.341L-875.042 373.326L-873.308 380.109L-863.399 398.425V415.158L-860.921 394.807L-869.344 376.943L-873.308 370.16L-883.217 361.341L-887.429 348.904L-893.622 345.06L-898.825 310.012ZM-572.559 402.947L-573.55 397.52L-565.622 399.329L-557.199 401.365L-544.565 416.288L-534.656 422.846L-532.426 429.856L-532.335 429.922L-536.302 416.998L-518.048 409.575L-530.538 416.998L-525.299 435.615L-524.889 436.015L-509.402 446.253L-517.756 459.83L-518.553 464L-518.346 460.789L-525.254 472.016L-552.635 478.565L-556.958 499.088L-570.408 510.441V578.557L-550.713 575.501L-541.586 566.331L-506.52 559.782L-491.148 566.331L-465.208 572.881H-358.859L-322.06 541.006L-333.109 459.789L-322.06 424.858L-301.405 384.25L-335.991 356.741L-322.06 343.641V326.175L-315.816 313.076L-320.139 291.68L-311.973 309.583L-315.816 330.542V343.641L-326.864 353.684L-291.798 368.53L-252.408 374.207L-214.94 364.6L-248.085 377.7H-274.985L-297.562 384.25L-307.65 409.575L-320.139 459.789L-304.287 506.511L-248.085 485.552H-216.861L-196.206 476.382L-111.662 480.312L-95.8098 469.832L-64.1057 473.326L-39.6072 480.312L-14.1482 469.832V454.113L11.311 427.041L9.38965 404.772L75.4929 383.638L91.0513 369.84L92.9727 352.374L109.305 341.021V329.232L136.325 304.343H126.598L113.148 275.961L76.16 244.086L100.178 205.661L78.6532 143.441L56.4651 146.277L35.3292 134.051L-5.98193 111.782L-8.86401 96.0624L-27.5983 88.6394L-41.5288 68.117H-57.3807L-79.4773 47.1579L-110.221 53.7076L-86.6829 43.2281L-101.094 22.269L-98.2115 0L-93.408 22.269L-83.8008 37.9883H-76.115L-57.3807 58.0741L-37.6859 65.4971L-24.2357 86.4561L-11.2659 88.6394L1.70386 96.0624V105.669L23.3203 120.951L59.3474 139.29L76.4917 137.193L76.16 136.234L84.3262 126.191L126.598 115.275L121.314 91.6959L137.646 120.951L93.4531 130.994L109.305 211.337L84.3262 244.086L126.598 268.975L137.646 288.187L168.87 296.92L228.915 279.891H284.157L319.722 295.651L327.39 292.554L382.151 243.649L397.042 247.142L418.658 217.887L404.728 240.593L429.707 246.269L433.55 254.129L427.305 247.142L405.208 243.212L397.042 253.255L382.151 247.142L325.724 302.218L342.761 330.979L359.574 342.768L371.583 356.304L398.003 381.193L424.903 398.659L447 438.83L420.58 402.152L398.003 387.743L369.661 369.84L356.211 371.587L348.526 351.938L330.752 341.021L318.743 301.287L283.196 287.314L244.287 288.187L184.722 304.343H154.379L131.402 322.246L126.598 331.852L116.991 341.021V352.374L100.178 365.474V386.433L80.9729 396.408L100.178 421.801V445.817L121.794 473.326V522.667L102.1 553.232L114.589 604.756V614.363L129.48 642.308L116.51 651.914L115.656 653.885L124.31 654.289L133.495 648.195L151.864 650.226L166.059 654.289L180.81 648.195V639.055L195.561 623.313L194.448 610.364L232.748 598.075L241.762 590.052L242.876 579.896L252.339 573.295V566.44L267.994 551.967H262.358L254.565 535.464L233.135 516.929L247.051 494.586L234.579 458.407L221.723 460.056L209.477 452.947L185.541 439.998L183.871 430.858L173.017 426.541L164.945 414.608H155.761L142.958 402.421L125.145 406.23L138.783 400.136L130.433 387.949L132.103 375L134.886 387.949L140.453 397.089H144.906L155.761 408.769L167.172 413.085L174.965 425.272L182.48 426.541L189.994 430.858V436.443L202.519 445.33L223.393 455.994L233.327 454.774L233.135 454.216L237.866 448.377L262.358 442.029L259.297 428.319L268.76 445.33L243.154 451.17L252.339 497.887L237.866 516.929L262.358 531.402L268.76 542.573L286.851 547.651L321.641 537.749H353.648L374.255 546.913L378.698 545.112L410.426 516.675L419.054 518.707L431.579 501.695L423.508 514.898L437.98 518.199L440.207 522.769L436.589 518.707L423.786 516.422L419.054 522.261L410.426 518.707L377.733 550.732L387.604 567.455L397.345 574.31L404.303 582.181L419.611 596.654L435.197 606.809L448 630.168L432.692 608.841L419.611 600.462L403.19 590.052L395.397 591.068L390.944 579.642L380.646 573.295L373.688 550.19L353.092 542.065L330.548 542.573L296.036 551.967H278.455L265.142 562.377L262.358 567.963L256.792 573.295V579.896L247.051 587.513V599.7L235.923 605.501L247.051 620.266V634.231L259.575 650.226V678.917L248.164 696.69L255.4 726.65V732.235L264.028 748.485L256.514 754.071L252.895 762.449V768.289L248.164 772.605L259.575 782.507L261.245 790.632L265.977 793.171L268.203 799.772L264.028 811.452L265.977 801.804L259.575 794.187L255.4 790.632L256.514 784.539L243.154 772.605L248.164 766.512L246.216 761.434L249.555 754.071L254.009 745.692L248.164 732.235L249.555 721.318L243.154 694.404L256.792 681.202L254.009 651.496L239.814 634.231V624.582L228.901 612.73L202.797 619.504L196.674 626.867L200.292 634.231L186.933 651.496L183.315 663.937L169.398 666.983L137.391 661.905L129.32 666.983L110.924 664.804L110.266 666.324V676.366L102.1 683.789L121.794 700.819L124.677 714.791L132.843 719.158L136.686 730.511L129.48 750.596L132.843 734.004L121.794 720.904L114.589 714.791L116.51 704.312L93.4531 683.789L102.1 673.31L98.7371 664.577L99.2627 663.422L86.458 661.905L77.2734 666.983L55.5642 665.968L19.1039 672.569L14.3723 681.456L23.8353 695.42L56.6775 704.307L57.7908 729.443L64.7489 738.837L55.5642 745.184L61.9656 738.837L55.5642 729.443L51.946 705.576L22.722 701.006L-5.94531 721.318L-15.9648 736.044L-31.2727 745.184L-35.4475 766.766L-64.6715 794.441L-67.1764 815.768L-76.6394 800.788L-93.3387 795.71H-74.4128L-63.5581 777.937L-48.5287 766.766L-47.1371 756.356L-38.7874 740.868L-21.2531 723.095V716.621H-88.0507L-93.3387 710.146L-106.142 705.83L-121.728 710.146L-130.077 716.621H-138.149L-146.777 724.365H-164.868L-170.991 740.868L-179.341 748.485L-182.402 754.578L-188.247 757.117L-189.36 764.988L-185.185 770.828L-204.111 791.902L-199.102 805.104L-202.998 810.182L-204.111 817.545L-207.173 807.389L-216.636 805.104L-205.781 796.979L-211.904 793.933L-207.173 786.57L-191.865 768.289L-199.102 756.102L-209.121 750.262L-229.161 748.485L-238.067 738.329H-251.148L-262.559 748.485L-289 752.293L-262.559 745.946L-251.148 734.521L-243.355 728.173V724.365H-246.138L-247.53 709.638L-246.138 704.307L-247.53 696.182L-246.138 688.057L-257.271 681.964V675.87L-253.931 681.964L-243.355 685.772L-244.747 698.213L-240.293 704.307L-243.355 709.638L-235.84 728.173L-243.355 732.489L-235.84 734.521L-221.367 744.423H-205.781L-197.153 745.946V752.293H-191.865L-184.072 740.868L-182.402 736.298L-170.991 731.474L-167.373 715.732L-149.282 710.146V669.269L-136.757 659.874V653.273L-121.728 647.433L-113.935 636.008L-118.388 628.391L-121.728 617.473L-111.151 613.157L-118.388 617.473L-115.326 628.391L-106.142 634.484L-115.326 649.464L-131.191 653.273L-133.696 665.206L-141.489 671.807V711.416L-130.077 709.638L-124.789 704.307L-104.472 700.498L-95.5653 704.307L-80.5359 708.115H-18.9165L2.40442 689.58L-3.99695 642.355L2.40442 622.043L14.3723 598.431L-5.66699 582.435L2.40442 574.818V564.662L6.02271 557.045L3.51782 544.604L8.24927 555.014L6.02271 567.201V574.818L-0.378784 580.658L19.9388 589.29L42.7614 592.591L64.4706 587.005L45.2662 594.622H29.6802L16.5989 598.431L10.7542 613.157L3.51782 642.355L12.7024 669.522L45.2662 657.335H63.3572L75.3252 652.003L103.855 653.334L104.501 651.914L112.187 637.505L102.1 614.363L104.501 595.587L93.4531 549.302L116.991 526.596L112.187 475.509L87.6887 445.817V429.224L68.8528 408.841L23.8005 420.491L13.2325 433.154L19.4773 445.817L-3.58008 475.509L-9.82483 496.905L-33.843 502.144L-89.0847 493.411L-103.015 502.144L-176.991 493.411L-192.843 502.144L-230.311 500.398L-293.239 511.75L-301.405 527.033L-285.073 551.049L-228.39 566.331L-226.468 609.559L-214.459 625.715L-230.311 636.632L-219.263 625.715L-230.311 609.559L-236.556 568.515L-286.994 560.655L-336.471 595.587L-353.764 620.912L-380.184 636.632L-387.39 673.747L-437.828 721.341L-442.151 758.02L-458.483 732.257L-487.305 723.524H-454.641L-435.906 692.959L-409.967 673.747L-407.565 655.844L-393.154 629.209L-362.891 598.643V587.509H-478.178L-487.305 576.374L-509.402 568.951L-536.302 576.374L-550.713 587.509H-564.644L-579.535 600.826H-610.758L-621.326 629.209L-635.737 642.308L-641.021 652.788L-651.109 657.154L-653.03 670.69L-645.825 680.733L-678.489 716.975L-669.843 739.68L-676.568 748.413L-678.489 761.076L-683.773 743.61L-700.106 739.68L-681.372 725.708L-691.94 720.468L-683.773 707.805L-657.353 676.366L-669.843 655.407L-687.136 645.365L-721.722 642.308L-737.094 624.842H-759.671L-779.366 642.308L-825 648.858L-779.366 637.942L-759.671 618.292L-746.221 607.376V600.826H-751.024L-753.426 575.501L-751.024 566.331L-753.426 552.359L-751.024 538.386L-770.239 527.906V517.427L-764.474 527.906L-746.221 534.456L-748.622 555.852L-740.937 566.331L-746.221 575.501L-733.251 607.376L-746.221 614.799L-733.251 618.292L-708.272 635.322H-681.372L-666.48 637.942V648.858H-657.353L-643.903 629.209L-641.021 621.349L-621.326 613.053L-615.082 585.981L-583.858 576.374V506.074L-562.242 489.918V478.565L-536.302 468.522L-522.852 448.873L-530.451 435.921L-532.426 434.83L-541.592 427.142L-554.97 422.846L-561.411 412.897L-571.072 406.791L-583.459 412.897L-591.882 420.585L-600.057 425.559L-606.003 432.343V442.518L-612.444 460.834L-608.233 440.031V424.429L-600.057 421.489V416.288L-593.616 412.897L-589.405 408.827L-572.559 402.947ZM-678.489 778.105L-676.568 767.626L-691.94 771.119L-708.272 775.049L-732.77 803.867L-751.985 816.53L-756.308 830.066L-765.435 836.616L-778.885 849.715L-790.414 858.448L-783.208 896L-785.13 866.308L-774.562 849.715L-756.308 839.672L-738.535 824.827L-712.595 816.53L-700.106 797.318L-681.372 785.528L-657.353 797.318L-641.021 812.164L-625.169 821.77L-613.641 834.869V854.518L-601.151 889.887L-609.317 849.715V819.587L-625.169 813.91V803.867L-637.659 797.318L-645.825 789.458L-678.489 778.105ZM-119.661 138.819L-112 152.807L-121.16 140.035L-128.987 135.018L-138.813 128.784L-143.476 129.392L-146.141 122.55L-152.303 118.749L-156.466 104.912L-168.79 100.047L-182.28 100.351L-202.931 105.977H-213.451L-221.417 112.211L-223.083 115.556L-226.413 118.749V122.702L-232.242 127.263V134.561L-238.901 138.035L-232.242 146.877V155.24L-224.748 164.819V182L-231.576 192.643L-227.246 210.585V213.93L-222.083 223.661L-226.58 227.006L-228.745 232.023V235.52L-231.576 238.105L-224.748 244.035L-223.749 248.901L-220.918 250.421L-219.585 254.374L-222.083 261.368L-220.918 255.591L-224.748 251.029L-227.246 248.901L-226.58 245.251L-234.574 238.105L-231.576 234.456L-232.742 231.415L-230.744 227.006L-228.079 221.988L-231.576 213.93L-230.744 207.392L-234.574 191.275L-226.413 183.368L-228.079 165.579L-236.573 155.24V149.462L-243.103 142.364L-258.722 146.421L-262.386 150.83L-260.221 155.24L-268.215 165.579L-270.38 173.029L-278.707 174.854L-297.859 171.813L-302.689 174.854L-328.336 171.813L-333.832 174.854L-346.822 174.246L-368.639 178.199L-371.47 183.52L-365.808 191.883L-346.156 197.205L-345.49 212.257L-341.327 217.883L-346.822 221.684L-342.992 217.883L-346.822 212.257L-348.987 197.965L-366.474 195.228L-383.628 207.392L-389.623 216.211L-398.783 221.684L-401.281 234.608L-418.768 251.181L-420.267 263.953L-425.929 254.982L-435.922 251.942H-424.597L-418.102 241.298L-409.109 234.608L-408.276 228.374L-403.28 219.099L-392.788 208.456V204.579H-432.758L-435.922 200.702L-443.583 198.117L-452.909 200.702L-457.905 204.579H-462.735L-467.898 209.216H-478.723L-482.387 219.099L-487.383 223.661L-489.215 227.31L-492.712 228.83L-493.378 233.544L-490.88 237.041L-502.205 249.661L-499.207 257.567L-501.539 260.608L-502.205 265.018L-504.037 258.936L-509.699 257.567L-503.204 252.702L-506.868 250.877L-504.037 246.468L-494.877 235.52L-499.207 228.222L-505.203 224.725L-517.194 223.661L-522.523 217.579H-530.35L-537.179 223.661L-553 225.942L-537.179 222.14L-530.35 215.298L-525.687 211.497V209.216H-527.353L-528.185 200.398L-527.353 197.205L-528.185 192.339L-527.353 187.474L-534.014 183.825V180.175L-532.016 183.825L-525.687 186.105L-526.52 193.556L-523.855 197.205L-525.687 200.398L-521.191 211.497L-525.687 214.082L-521.191 215.298L-512.531 221.228H-503.204L-498.042 222.14V225.942H-494.877L-490.214 219.099L-489.215 216.363L-482.387 213.474L-480.222 204.047L-469.396 200.702V176.222L-461.902 170.596V166.643L-452.909 163.146L-448.246 156.304L-450.91 151.743L-452.909 145.205L-446.58 142.62L-450.91 145.205L-449.078 151.743L-443.583 155.392L-449.078 164.363L-458.571 166.643L-460.07 173.789L-464.733 177.743V201.462L-457.905 200.398L-454.741 197.205L-442.583 194.924L-437.254 197.205L-428.261 199.485H-391.39L-378.632 188.386L-382.462 160.105L-378.632 147.942L-371.47 133.801L-383.461 124.222L-378.632 119.661V113.579L-376.467 109.018L-377.966 101.567L-375.134 107.801L-376.467 115.099V119.661L-380.297 123.158L-368.14 128.327L-354.483 130.304L-341.493 126.959L-352.984 131.52H-362.311L-370.138 133.801L-373.635 142.62L-377.966 160.105L-372.47 176.374L-352.984 169.076H-342.159L-334.998 165.883L-305.687 167.251L-300.191 163.602L-289.199 164.819L-280.706 167.251L-271.879 163.602V158.129L-263.052 148.702L-263.719 140.947L-240.801 133.588L-235.407 128.784L-234.74 122.702L-229.078 118.749V114.643L-219.71 105.977H-223.083L-227.746 96.0936L-240.569 84.9942L-232.242 71.614L-239.705 49.9481L-247.398 50.9357L-254.725 46.6784L-269.048 38.924L-270.047 33.4503L-276.542 30.8655L-281.372 23.7193H-286.868L-294.529 16.4211L-305.187 18.7018L-297.027 15.0526L-302.023 7.75439L-301.024 0L-299.358 7.75439L-296.028 13.2281H-293.363L-286.868 20.2222L-280.04 22.807L-275.376 30.1053L-270.88 30.8655L-266.383 33.4503V36.7953L-258.889 42.117L-246.398 48.5029L-240.454 47.7724L-240.569 47.4386L-237.738 43.9415L-223.083 40.1404L-224.915 31.9298L-219.252 42.117L-234.574 45.614L-229.078 73.5906L-237.738 84.9942L-223.083 93.6608L-219.252 100.351L-208.427 103.392L-187.609 97.462H-168.457L-156.127 102.95L-153.469 101.871L-134.483 84.8421L-129.32 86.0585L-121.826 75.8714L-126.656 83.7778L-117.995 85.7544L-116.663 88.4912L-118.828 86.0585L-126.489 84.6901L-129.32 88.1871L-134.483 86.0585L-154.046 105.237L-148.139 115.251L-142.31 119.357L-138.147 124.07L-128.987 132.737L-119.661 138.819ZM-283.87 233.544L-282.871 208.456L-286.368 232.023L-290.532 234.608L-293.363 242.971L-300.025 248.901L-302.689 253.462L-308.352 265.474L-306.686 279.158V267.906L-300.025 255.591L-298.859 251.029L-290.532 242.971L-288.533 235.52L-283.87 233.544ZM-712 736.807L-719.661 722.819L-728.987 716.737L-738.147 708.07L-742.31 703.357L-748.139 699.251L-754.046 689.237L-734.483 670.058L-729.32 672.187L-726.489 668.69L-718.828 670.058L-716.663 672.491L-717.995 669.754L-726.656 667.778L-721.826 659.871L-729.32 670.058L-734.483 668.842L-753.469 685.871L-756.127 686.95L-768.457 681.462H-787.61L-808.427 687.392L-819.252 684.351L-823.083 677.661L-837.738 668.994L-829.078 657.591L-834.574 629.614L-819.252 626.117L-824.915 615.93L-823.083 624.14L-837.738 627.942L-840.569 631.439L-840.454 631.772L-846.398 632.503L-858.889 626.117L-866.383 620.795V617.45L-870.88 614.865L-875.377 614.105L-880.04 606.807L-886.868 604.222L-893.363 597.228H-896.028L-899.358 591.754L-901.024 584L-902.023 591.754L-897.027 599.053L-905.187 602.702L-894.529 600.421L-886.868 607.719H-881.372L-876.542 614.865L-870.047 617.45L-869.048 622.924L-854.725 630.678L-847.398 634.936L-839.705 633.948L-832.242 655.614L-840.569 668.994L-827.746 680.094L-823.083 689.977H-819.71L-829.078 698.643V702.749L-834.741 706.702L-835.407 712.784L-840.801 717.588L-863.719 724.947L-863.053 732.702L-871.879 742.129V747.602L-880.706 751.251L-889.199 748.819L-900.191 747.602L-905.687 751.251L-934.998 749.883L-942.159 753.076H-952.985L-972.47 760.374L-977.966 744.105L-973.636 726.62L-970.138 717.801L-962.311 715.521H-952.985L-941.493 710.959L-954.483 714.304L-968.14 712.328L-980.297 707.158L-976.467 703.661V699.099L-975.134 691.801L-977.966 685.567L-976.467 693.018L-978.632 697.579V703.661L-983.461 708.222L-971.471 717.801L-978.632 731.942L-982.462 744.105L-978.632 772.386L-991.39 783.485H-1028.26L-1037.25 781.205L-1042.58 778.924L-1054.74 781.205L-1057.91 784.398L-1064.73 785.462V761.743L-1060.07 757.789L-1058.57 750.643L-1049.08 748.363L-1043.58 739.392L-1049.08 735.743L-1050.91 729.205L-1046.58 726.62L-1052.91 729.205L-1050.91 735.743L-1048.25 740.304L-1052.91 747.146L-1061.9 750.643V754.596L-1069.4 760.222V784.702L-1080.22 788.047L-1082.39 797.474L-1089.21 800.363L-1090.21 803.099L-1094.88 809.942H-1098.04V806.14L-1103.2 805.228H-1112.53L-1121.19 799.298L-1125.69 798.082L-1121.19 795.497L-1125.69 784.398L-1123.86 781.205L-1126.52 777.556L-1125.69 770.105L-1132.02 767.825L-1134.01 764.175V767.825L-1127.35 771.474L-1128.19 776.339L-1127.35 781.205L-1128.19 784.398L-1127.35 793.216H-1125.69V795.497L-1130.35 799.298L-1137.18 806.14L-1153 809.942L-1137.18 807.661L-1130.35 801.579H-1122.52L-1117.19 807.661L-1105.2 808.725L-1099.21 812.222L-1094.88 819.521L-1104.04 830.468L-1106.87 834.877L-1103.2 836.702L-1109.7 841.567L-1104.04 842.936L-1102.21 849.018L-1101.54 844.608L-1099.21 841.567L-1102.21 833.661L-1090.88 821.041L-1093.38 817.544L-1092.71 812.83L-1089.21 811.31L-1087.38 807.661L-1082.39 803.099L-1078.72 793.216H-1067.9L-1062.73 788.579H-1057.91L-1052.91 784.702L-1043.58 782.117L-1035.92 784.702L-1032.76 788.579H-992.788V792.456L-1003.28 803.099L-1008.28 812.374L-1009.11 818.608L-1018.1 825.298L-1024.6 835.942H-1035.92L-1025.93 838.982L-1020.27 847.953L-1018.77 835.181L-1001.28 818.608L-998.783 805.684L-989.624 800.211L-983.628 791.392L-966.474 779.228L-948.988 781.965L-946.823 796.257L-942.992 801.883L-946.823 805.684L-941.327 801.883L-945.49 796.257L-946.156 781.205L-965.808 775.883L-971.471 767.521L-968.639 762.199L-946.823 758.246L-933.832 758.854L-928.336 755.813L-902.689 758.854L-897.86 755.813L-878.707 758.854L-870.38 757.029L-868.215 749.579L-860.221 739.24L-862.386 734.83L-858.722 730.421L-843.103 726.364L-836.573 733.462V739.24L-828.079 749.579L-826.414 767.368L-834.574 775.275L-830.744 791.392L-831.576 797.93L-828.079 805.988L-830.744 811.006L-832.742 815.415L-831.576 818.456L-834.574 822.105L-826.58 829.251L-827.246 832.901L-824.748 835.029L-820.918 839.591L-822.083 845.368L-819.585 838.374L-820.918 834.421L-823.749 832.901L-824.748 828.035L-831.576 822.105L-828.745 819.521V816.023L-826.58 811.006L-822.083 807.661L-827.246 797.93V794.585L-831.576 776.643L-824.748 766V748.819L-832.242 739.24V730.877L-838.901 722.035L-832.242 718.561V711.263L-826.414 706.702V702.749L-823.083 699.556L-821.417 696.211L-813.451 689.977H-802.931L-782.28 684.351L-768.79 684.047L-756.466 688.912L-752.303 702.749L-746.141 706.55L-743.476 713.392L-738.813 712.784L-728.987 719.018L-721.16 724.035L-712 736.807ZM-882.871 792.456L-883.87 817.544L-888.533 819.521L-890.532 826.971L-898.859 835.029L-900.025 839.591L-906.686 851.906V863.158L-908.352 849.474L-902.689 837.462L-900.025 832.901L-893.363 826.971L-890.532 818.608L-886.368 816.023L-882.871 792.456ZM-1102.21 854.947L-1101.54 851.298L-1106.87 852.515L-1112.53 853.883L-1121.02 863.918L-1127.69 868.328L-1129.18 873.041L-1132.35 875.322L-1137.01 879.883L-1141.01 882.924L-1138.51 896L-1139.18 885.661L-1135.51 879.883L-1129.18 876.386L-1123.02 871.216L-1114.03 868.328L-1109.7 861.637L-1103.2 857.532L-1094.88 861.637L-1089.21 866.807L-1083.72 870.152L-1079.72 874.714V881.556L-1075.39 893.871L-1078.22 879.883V869.392L-1083.72 867.415V863.918L-1088.05 861.637L-1090.88 858.901L-1102.21 854.947ZM160.77 764.988L162.44 723.095L156.596 762.449L149.637 766.766L144.906 780.73L133.773 790.632L129.32 798.249L119.857 818.307L122.64 841.158V822.369L133.773 801.804L135.721 794.187L149.637 780.73L152.977 768.289L160.77 764.988ZM-202.998 821.354L-204.111 827.447L-185.185 834.049L-180.454 838.619L-173.218 842.427V848.267L-164.033 851.568V869.087L-159.301 892.445L-166.538 871.88V860.454L-173.218 852.837L-182.402 847.251L-191.865 838.619L-205.781 831.764L-216.636 838.619L-223.872 849.79L-238.902 854.615L-249.2 863.247L-259.776 869.087L-265.899 878.735L-264.786 896L-268.961 874.165L-262.281 869.087L-254.488 861.47L-249.2 857.661L-246.695 849.79L-235.562 842.427L-221.367 825.67L-211.904 823.385L-202.998 821.354Z" fill="white"/>
</svg>
